<svg width="108" height="21" viewBox="0 0 108 21" fill="none" xmlns="http://www.w3.org/2000/svg">
<path d="M4.9252 20.175C3.74186 20.175 2.78353 19.875 2.0502 19.275C1.33353 18.6917 0.808529 17.9333 0.475195 17C0.158529 16.0667 0.000195356 15.0917 0.000195356 14.075C0.000195356 12.7583 0.200195 11.4333 0.600195 10.1C1.0002 8.76667 1.54186 7.5 2.2252 6.3C2.9252 5.08333 3.71686 4.00833 4.6002 3.075C5.48353 2.125 6.40853 1.38333 7.3752 0.849999C8.35853 0.299999 9.3252 0.024999 10.2752 0.024999C10.9585 0.024999 11.5085 0.191665 11.9252 0.524998C12.3585 0.841666 12.5752 1.39167 12.5752 2.175C12.5752 2.65833 12.4919 3.20833 12.3252 3.825C12.1585 4.425 11.9335 5.00833 11.6502 5.575C11.3669 6.125 11.0502 6.58333 10.7002 6.95C10.3669 7.31667 10.0252 7.5 9.6752 7.5C9.54186 7.5 9.4002 7.45833 9.2502 7.375C9.11686 7.29167 9.0002 7.14167 8.9002 6.925C9.1502 6.64167 9.4252 6.29167 9.7252 5.875C10.0419 5.44167 10.3419 4.99167 10.6252 4.525C10.9085 4.04167 11.1335 3.575 11.3002 3.125C11.4835 2.65833 11.5752 2.25 11.5752 1.9C11.5752 1.56667 11.4752 1.3 11.2752 1.1C11.0919 0.883333 10.7835 0.775 10.3502 0.775C9.63353 0.775 8.88353 1.06667 8.1002 1.65C7.33353 2.23333 6.58353 3.01667 5.8502 4C5.13353 4.96667 4.48353 6.05 3.9002 7.25C3.31686 8.45 2.8502 9.675 2.5002 10.925C2.16686 12.175 2.0002 13.3667 2.0002 14.5C2.0002 15.3167 2.11686 16.1 2.3502 16.85C2.58353 17.5833 2.95853 18.175 3.4752 18.625C4.00853 19.0917 4.69186 19.325 5.5252 19.325C6.40853 19.325 7.28353 19.075 8.1502 18.575C9.03353 18.075 9.84186 17.4167 10.5752 16.6C11.3085 15.7833 11.8919 14.9 12.3252 13.95L12.6752 14.2C12.1252 15.2833 11.4585 16.2833 10.6752 17.2C9.89186 18.1 9.01686 18.8167 8.0502 19.35C7.08353 19.9 6.04186 20.175 4.9252 20.175ZM13.0037 19.175C12.487 19.175 12.0537 19 11.7037 18.65C11.337 18.3167 11.1537 17.8 11.1537 17.1C11.1537 16.5 11.287 15.8583 11.5537 15.175C11.8204 14.475 12.187 13.7917 12.6537 13.125C13.1204 12.4417 13.6454 11.825 14.2287 11.275C14.8287 10.7083 15.4537 10.2583 16.1037 9.925C16.7704 9.59167 17.4287 9.425 18.0787 9.425C18.7287 9.425 19.2704 9.6 19.7037 9.95C20.137 10.2833 20.3537 10.7333 20.3537 11.3C20.3537 11.7167 20.237 12 20.0037 12.15C19.787 12.3 19.4954 12.375 19.1287 12.375C19.162 12.2417 19.187 12.1 19.2037 11.95C19.237 11.7833 19.2537 11.6333 19.2537 11.5C19.2537 11.1167 19.162 10.7917 18.9787 10.525C18.7954 10.2417 18.4787 10.1 18.0287 10.1C17.562 10.1 17.087 10.2667 16.6037 10.6C16.1204 10.9167 15.6537 11.35 15.2037 11.9C14.7537 12.4333 14.3537 13.0167 14.0037 13.65C13.6537 14.2833 13.3787 14.9083 13.1787 15.525C12.9787 16.1417 12.8787 16.6917 12.8787 17.175C12.8787 17.825 13.1037 18.15 13.5537 18.15C13.937 18.15 14.3537 17.975 14.8037 17.625C15.2537 17.2583 15.712 16.8 16.1787 16.25C16.662 15.6833 17.1204 15.1 17.5537 14.5C17.987 13.9 18.3704 13.35 18.7037 12.85C18.7704 12.75 18.812 12.7 18.8287 12.7C18.9287 12.7167 19.0537 12.75 19.2037 12.8C19.3704 12.85 19.512 12.9167 19.6287 13C19.7454 13.0833 19.8037 13.1917 19.8037 13.325C19.8037 13.475 19.7287 13.6833 19.5787 13.95C19.4287 14.2 19.262 14.4917 19.0787 14.825C18.8954 15.1583 18.7287 15.5 18.5787 15.85C18.4287 16.1833 18.3537 16.5 18.3537 16.8C18.3537 17.05 18.4204 17.3 18.5537 17.55C18.687 17.7833 18.9037 17.9 19.2037 17.9C19.6537 17.9 20.2454 17.575 20.9787 16.925C21.712 16.2583 22.4537 15.2667 23.2037 13.95L23.4537 14.2C23.1037 15.1 22.6537 15.8917 22.1037 16.575C21.5537 17.2583 20.962 17.7917 20.3287 18.175C19.712 18.5583 19.1037 18.75 18.5037 18.75C17.887 18.75 17.4287 18.5667 17.1287 18.2C16.8454 17.8333 16.7037 17.4333 16.7037 17C16.7037 16.9 16.712 16.7917 16.7287 16.675C16.7454 16.5417 16.762 16.4083 16.7787 16.275C16.062 17.2417 15.4037 17.9667 14.8037 18.45C14.2204 18.9333 13.6204 19.175 13.0037 19.175ZM30.1174 18.95C29.6507 18.95 29.2507 18.7917 28.9174 18.475C28.584 18.1583 28.3174 17.7583 28.1174 17.275C27.934 16.7917 27.7924 16.3 27.6924 15.8C27.609 15.2833 27.5674 14.8333 27.5674 14.45C27.7507 14.45 28.0174 14.4083 28.3674 14.325C28.7174 14.225 29.0757 14.0833 29.4424 13.9C29.809 13.7 30.1174 13.45 30.3674 13.15C30.634 12.8333 30.7674 12.4667 30.7674 12.05C30.7674 11.7 30.6424 11.425 30.3924 11.225C30.1424 11.025 29.8507 10.925 29.5174 10.925C29.0007 10.925 28.5174 11.1083 28.0674 11.475C27.6174 11.825 27.209 12.2917 26.8424 12.875C26.4924 13.4417 26.1757 14.05 25.8924 14.7C25.609 15.35 25.3674 15.9667 25.1674 16.55C24.9674 17.1333 24.8007 17.6167 24.6674 18C24.5674 18.3 24.4257 18.5 24.2424 18.6C24.059 18.7167 23.8674 18.775 23.6674 18.775C23.384 18.775 23.1757 18.6583 23.0424 18.425C22.9257 18.1917 22.8507 17.9 22.8174 17.55C22.8007 17.1833 22.7924 16.8083 22.7924 16.425C22.7924 15.5583 22.934 14.5583 23.2174 13.425C23.5007 12.2917 23.8757 11.1167 24.3424 9.9C24.8257 8.66667 25.3507 7.475 25.9174 6.325C26.484 5.175 27.0507 4.13333 27.6174 3.2C28.184 2.26667 28.709 1.525 29.1924 0.974999C29.6757 0.424999 30.0674 0.149999 30.3674 0.149999C30.6007 0.149999 30.784 0.308332 30.9174 0.624999C31.0674 0.941665 31.1424 1.325 31.1424 1.775C31.1424 2.34167 31.0174 2.98333 30.7674 3.7C30.5174 4.4 30.159 5.10833 29.6924 5.825C29.2424 6.54167 28.7007 7.21667 28.0674 7.85C27.4507 8.48333 26.7757 9.025 26.0424 9.475C25.4924 10.825 25.0757 12.1417 24.7924 13.425C24.5257 14.6917 24.3924 15.7583 24.3924 16.625C24.659 15.9583 24.9757 15.225 25.3424 14.425C25.7257 13.625 26.159 12.8583 26.6424 12.125C27.1257 11.3917 27.6507 10.7917 28.2174 10.325C28.7841 9.85833 29.3757 9.625 29.9924 9.625C30.6091 9.625 31.1341 9.84167 31.5674 10.275C32.0007 10.7083 32.2174 11.2333 32.2174 11.85C32.2174 12.3833 32.0757 12.8417 31.7924 13.225C31.5257 13.5917 31.1924 13.8917 30.7924 14.125C30.409 14.3417 30.0174 14.5083 29.6174 14.625C29.234 14.725 28.9174 14.775 28.6674 14.775C28.684 14.9083 28.734 15.15 28.8174 15.5C28.9007 15.85 29.0174 16.2167 29.1674 16.6C29.334 16.9833 29.5341 17.3167 29.7674 17.6C30.0007 17.8667 30.284 18 30.6174 18C31.1007 18 31.559 17.8167 31.9924 17.45C32.4257 17.0833 32.8341 16.6 33.2174 16C33.6174 15.3833 33.9841 14.6917 34.3174 13.925L34.5674 14.175C34.3341 14.9917 33.9757 15.7667 33.4924 16.5C33.0091 17.2167 32.4674 17.8 31.8674 18.25C31.284 18.7167 30.7007 18.95 30.1174 18.95ZM26.4674 8.475C27.234 7.85833 27.9007 7.15833 28.4674 6.375C29.0507 5.59167 29.5007 4.84167 29.8174 4.125C30.1341 3.39167 30.2924 2.81667 30.2924 2.4C30.2924 2.31667 30.284 2.25833 30.2674 2.225C30.2674 2.19167 30.2507 2.175 30.2174 2.175C30.0507 2.175 29.759 2.46667 29.3424 3.05C28.9424 3.63333 28.484 4.40833 27.9674 5.375C27.4507 6.325 26.9507 7.35833 26.4674 8.475ZM36.5496 19.1C35.5329 19.1 34.7663 18.8167 34.2496 18.25C33.7496 17.7 33.4996 17.0167 33.4996 16.2C33.4996 15.45 33.6829 14.6583 34.0496 13.825C34.4329 12.9917 34.9329 12.2083 35.5496 11.475C36.1829 10.7417 36.8746 10.15 37.6246 9.7C38.3746 9.23333 39.1163 9 39.8496 9C40.2329 9 40.5829 9.1 40.8996 9.3C41.2329 9.5 41.3996 9.90833 41.3996 10.525C41.3996 11.1583 41.2079 11.7583 40.8246 12.325C40.4579 12.875 39.9663 13.3667 39.3496 13.8C38.7496 14.2333 38.0829 14.5917 37.3496 14.875C36.6329 15.1417 35.9163 15.3083 35.1996 15.375C35.1663 15.5417 35.1413 15.7 35.1246 15.85C35.1079 16 35.0996 16.1417 35.0996 16.275C35.0996 16.525 35.1246 16.775 35.1746 17.025C35.2413 17.275 35.3496 17.5083 35.4996 17.725C35.6496 17.925 35.8496 18.0833 36.0996 18.2C36.3663 18.3167 36.6913 18.375 37.0746 18.375C37.7913 18.375 38.4996 18.175 39.1996 17.775C39.8996 17.3583 40.5496 16.8167 41.1496 16.15C41.7496 15.4833 42.2579 14.75 42.6746 13.95L42.9746 14.175C42.5246 15.175 41.9496 16.0417 41.2496 16.775C40.5663 17.5083 39.8163 18.075 38.9996 18.475C38.1996 18.8917 37.3829 19.1 36.5496 19.1ZM35.3246 14.9C35.7746 14.75 36.2829 14.5333 36.8496 14.25C37.4163 13.95 37.9579 13.6 38.4746 13.2C39.0079 12.8 39.4413 12.3583 39.7746 11.875C40.1246 11.3917 40.2996 10.8833 40.2996 10.35C40.2996 10.1667 40.2663 10.025 40.1996 9.925C40.1329 9.825 39.9913 9.775 39.7746 9.775C39.3746 9.775 38.9496 9.93333 38.4996 10.25C38.0496 10.55 37.6163 10.95 37.1996 11.45C36.7829 11.95 36.4079 12.5 36.0746 13.1C35.7413 13.7 35.4913 14.3 35.3246 14.9ZM53.7439 20.175C52.8439 20.175 51.9939 20.0083 51.1939 19.675C50.3939 19.3583 49.7439 18.8667 49.2439 18.2C48.7606 17.5333 48.5189 16.7 48.5189 15.7C48.5189 14.8333 48.6856 14.1583 49.0189 13.675C49.3689 13.1917 49.7939 12.85 50.2939 12.65C50.7939 12.45 51.2689 12.35 51.7189 12.35C51.2689 12.8333 50.9273 13.3667 50.6939 13.95C50.4606 14.5333 50.3439 15.1167 50.3439 15.7C50.3439 16.3167 50.4773 16.8917 50.7439 17.425C51.0273 17.9583 51.4523 18.3833 52.0189 18.7C52.5856 19.0333 53.3023 19.2 54.1689 19.2C54.9189 19.2 55.6523 19.0583 56.3689 18.775C57.0856 18.5083 57.6689 18.1083 58.1189 17.575C58.5856 17.025 58.8189 16.35 58.8189 15.55C58.8189 14.8333 58.6356 14.2167 58.2689 13.7C57.9023 13.1833 57.4273 12.725 56.8439 12.325C56.2773 11.925 55.6689 11.5417 55.0189 11.175C54.3689 10.8083 53.7523 10.425 53.1689 10.025C52.6023 9.60833 52.1356 9.13333 51.7689 8.6C51.4023 8.06667 51.2189 7.425 51.2189 6.675C51.2189 5.975 51.3856 5.24167 51.7189 4.475C52.0523 3.70833 52.5273 2.98333 53.1439 2.3C53.7773 1.61667 54.5273 1.06667 55.3939 0.65C56.2773 0.216666 57.2606 -7.15256e-07 58.3439 -7.15256e-07C59.3273 -7.15256e-07 60.0106 0.241666 60.3939 0.724999C60.7773 1.19167 60.9689 1.78333 60.9689 2.5C60.9689 3.1 60.8606 3.75 60.6439 4.45C60.4439 5.13333 60.1939 5.79167 59.8939 6.425C59.5939 7.04167 59.3106 7.56667 59.0439 8C58.7439 7.93333 58.5273 7.80833 58.3939 7.625C58.2773 7.425 58.2189 7.19167 58.2189 6.925C58.2189 6.575 58.2939 6.175 58.4439 5.725C58.5939 5.275 58.7606 4.80833 58.9439 4.325C59.1439 3.84167 59.3189 3.375 59.4689 2.925C59.6189 2.45833 59.6939 2.04167 59.6939 1.675C59.6939 1.34167 59.5939 1.08333 59.3939 0.9C59.1939 0.699999 58.8273 0.599999 58.2939 0.599999C57.5106 0.599999 56.7856 0.783332 56.1189 1.15C55.4523 1.51667 54.8689 1.99167 54.3689 2.575C53.8689 3.14167 53.4773 3.74167 53.1939 4.375C52.9273 5.00833 52.7939 5.58333 52.7939 6.1C52.7939 6.71667 52.9689 7.25 53.3189 7.7C53.6856 8.13333 54.1523 8.53333 54.7189 8.9C55.2856 9.25 55.8856 9.60833 56.5189 9.975C57.1689 10.325 57.7773 10.7167 58.3439 11.15C58.9106 11.5833 59.3689 12.1 59.7189 12.7C60.0856 13.2833 60.2689 14 60.2689 14.85C60.2689 15.7167 60.0773 16.4833 59.6939 17.15C59.3106 17.8 58.7939 18.35 58.1439 18.8C57.5106 19.25 56.8106 19.5917 56.0439 19.825C55.2773 20.0583 54.5106 20.175 53.7439 20.175ZM64.1973 19.15C63.4806 19.15 62.9306 18.9417 62.5473 18.525C62.1639 18.1083 61.9723 17.4917 61.9723 16.675C61.9723 15.9417 62.1056 15.0417 62.3723 13.975C62.6556 12.8917 63.0056 11.7833 63.4223 10.65C63.2556 10.6167 63.0973 10.5917 62.9473 10.575C62.7973 10.5417 62.6556 10.5 62.5223 10.45V10C62.6556 10.0167 62.8139 10.0333 62.9973 10.05C63.1806 10.0667 63.3889 10.0833 63.6223 10.1C63.9723 9.2 64.3473 8.33333 64.7473 7.5C65.1473 6.65 65.5389 5.9 65.9223 5.25C66.3223 4.58333 66.6973 4.05833 67.0473 3.675C67.4139 3.275 67.7223 3.075 67.9723 3.075C68.1056 3.075 68.2223 3.125 68.3223 3.225C68.4389 3.30833 68.4973 3.44167 68.4973 3.625C68.4973 3.90833 68.3223 4.375 67.9723 5.025C67.6223 5.65833 67.1889 6.41667 66.6723 7.3C66.1556 8.18333 65.6556 9.14167 65.1723 10.175C65.3223 10.175 65.4723 10.175 65.6223 10.175C65.7889 10.175 65.9473 10.175 66.0973 10.175C66.6473 10.175 67.2223 10.1667 67.8223 10.15C68.4389 10.1333 69.0556 10.0917 69.6723 10.025V10.475C68.7556 10.575 67.9306 10.65 67.1973 10.7C66.4806 10.75 65.8389 10.775 65.2723 10.775C65.2056 10.775 65.1389 10.775 65.0723 10.775C65.0223 10.775 64.9639 10.775 64.8973 10.775C64.5139 11.6583 64.1889 12.5667 63.9223 13.5C63.6556 14.4333 63.5223 15.3417 63.5223 16.225C63.5223 16.9417 63.6306 17.4583 63.8473 17.775C64.0639 18.075 64.4223 18.225 64.9223 18.225C65.7889 18.225 66.6389 17.8417 67.4723 17.075C68.3056 16.3083 69.0389 15.2667 69.6723 13.95L69.9973 14.2C69.5973 15.1333 69.0889 15.975 68.4723 16.725C67.8723 17.475 67.2056 18.0667 66.4723 18.5C65.7389 18.9333 64.9806 19.15 64.1973 19.15ZM71.0762 18.75C70.5095 18.75 70.0512 18.5 69.7012 18C69.3678 17.4833 69.2012 16.8917 69.2012 16.225C69.2012 15.7417 69.2762 15.1833 69.4262 14.55C69.5928 13.9167 69.7928 13.2917 70.0262 12.675C70.2595 12.0583 70.5012 11.55 70.7512 11.15C71.0012 10.75 71.2178 10.55 71.4012 10.55C71.4845 10.55 71.6262 10.6 71.8262 10.7C72.0262 10.7833 72.1928 10.9 72.3262 11.05C72.1428 11.3333 71.9178 11.7667 71.6512 12.35C71.3845 12.9333 71.1512 13.5583 70.9512 14.225C70.7512 14.8917 70.6512 15.5083 70.6512 16.075C70.6512 16.2083 70.6678 16.4167 70.7012 16.7C70.7345 16.9667 70.8178 17.2083 70.9512 17.425C71.0845 17.6417 71.2845 17.75 71.5512 17.75C71.8678 17.75 72.1928 17.5917 72.5262 17.275C72.8595 16.9417 73.1928 16.5167 73.5262 16C73.8762 15.4833 74.2095 14.925 74.5262 14.325C74.8428 13.725 75.1345 13.15 75.4012 12.6C75.6845 12.05 75.9178 11.5917 76.1012 11.225C76.2012 11.2417 76.3428 11.275 76.5262 11.325C76.7262 11.375 76.9012 11.4417 77.0512 11.525C77.2178 11.6083 77.3012 11.725 77.3012 11.875C77.3012 11.9417 77.2178 12.1667 77.0512 12.55C76.8845 12.9167 76.6845 13.375 76.4512 13.925C76.2345 14.4583 76.0428 15 75.8762 15.55C75.7095 16.1 75.6262 16.5833 75.6262 17C75.6262 17.3 75.6845 17.5417 75.8012 17.725C75.9345 17.9083 76.1512 18 76.4512 18C76.8012 18 77.2262 17.8417 77.7262 17.525C78.2262 17.2083 78.7345 16.75 79.2512 16.15C79.7678 15.5333 80.2262 14.8 80.6262 13.95L80.9512 14.175C80.6012 15.075 80.1428 15.875 79.5762 16.575C79.0095 17.2583 78.4095 17.7917 77.7762 18.175C77.1428 18.5583 76.5262 18.75 75.9262 18.75C75.4928 18.75 75.1428 18.6667 74.8762 18.5C74.6262 18.3333 74.4428 18.1083 74.3262 17.825C74.2262 17.5417 74.1762 17.2333 74.1762 16.9C74.1762 16.7 74.1928 16.5 74.2262 16.3C74.2595 16.0833 74.3012 15.8667 74.3512 15.65C74.0512 16.2 73.7262 16.7167 73.3762 17.2C73.0262 17.6667 72.6595 18.0417 72.2762 18.325C71.8928 18.6083 71.4928 18.75 71.0762 18.75ZM81.6381 18.75C81.3548 18.75 81.0631 18.675 80.7631 18.525C80.4798 18.3917 80.2464 18.1667 80.0631 17.85C79.8631 17.5333 79.7631 17.1333 79.7631 16.65C79.7631 16.1 79.8964 15.4833 80.1631 14.8C80.4298 14.1167 80.7881 13.4417 81.2381 12.775C81.6881 12.0917 82.2048 11.4667 82.7881 10.9C83.3714 10.3167 83.9798 9.85833 84.6131 9.525C85.2464 9.175 85.8714 9 86.4881 9C86.8381 9 87.1048 9.06667 87.2881 9.2C87.4881 9.31667 87.5881 9.50833 87.5881 9.775C87.5881 9.84167 87.5798 9.9 87.5631 9.95C87.5631 10 87.5548 10.0583 87.5381 10.125C87.4548 9.99167 87.3298 9.9 87.1631 9.85C87.0131 9.78333 86.8214 9.75 86.5881 9.75C86.0548 9.75 85.5298 9.91667 85.0131 10.25C84.5131 10.5667 84.0464 10.9917 83.6131 11.525C83.1964 12.0417 82.8298 12.6 82.5131 13.2C82.1964 13.8 81.9464 14.3833 81.7631 14.95C81.5964 15.5 81.5131 15.9667 81.5131 16.35C81.5131 16.7167 81.5964 17.0083 81.7631 17.225C81.9298 17.4417 82.1464 17.55 82.4131 17.55C82.8631 17.55 83.4048 17.2667 84.0381 16.7C84.6881 16.1333 85.3464 15.3333 86.0131 14.3C86.6798 13.2667 87.2798 12.0583 87.8131 10.675C88.1798 9.70833 88.5548 8.725 88.9381 7.725C89.3381 6.725 89.7381 5.76667 90.1381 4.85C90.5381 3.91667 90.9214 3.09167 91.2881 2.375C91.6714 1.64167 92.0298 1.06667 92.3631 0.65C92.7131 0.216666 93.0214 -7.15256e-07 93.2881 -7.15256e-07C93.4214 -7.15256e-07 93.5381 0.0583324 93.6381 0.174999C93.7381 0.274999 93.7881 0.408333 93.7881 0.574999C93.7881 0.841666 93.6464 1.3 93.3631 1.95C93.0964 2.58333 92.7381 3.35 92.2881 4.25C91.8548 5.13333 91.3964 6.1 90.9131 7.15C90.4298 8.2 89.9631 9.26667 89.5131 10.35C89.0798 11.4333 88.7214 12.4833 88.4381 13.5C88.1714 14.5 88.0381 15.4167 88.0381 16.25C88.0381 16.7167 88.0631 17.0667 88.1131 17.3C88.1631 17.5333 88.3298 17.65 88.6131 17.65C88.9631 17.65 89.3714 17.5 89.8381 17.2C90.3048 16.9 90.7714 16.475 91.2381 15.925C91.7048 15.375 92.1131 14.7167 92.4631 13.95L92.7631 14.175C92.4464 15.025 92.0131 15.7917 91.4631 16.475C90.9131 17.1417 90.3214 17.6667 89.6881 18.05C89.0714 18.45 88.4798 18.65 87.9131 18.65C87.2964 18.65 86.8631 18.4417 86.6131 18.025C86.3798 17.625 86.2631 17.2083 86.2631 16.775C86.2631 16.4917 86.3048 16.1167 86.3881 15.65C86.4714 15.1833 86.5881 14.6667 86.7381 14.1C86.2048 14.9833 85.6381 15.7833 85.0381 16.5C84.4381 17.2 83.8464 17.75 83.2631 18.15C82.6964 18.55 82.1548 18.75 81.6381 18.75ZM93.7795 18.65C93.1295 18.65 92.6462 18.4417 92.3295 18.025C92.0128 17.625 91.8545 17.1333 91.8545 16.55C91.8545 16.1667 91.9212 15.6833 92.0545 15.1C92.2045 14.5167 92.3962 13.9083 92.6295 13.275C92.8628 12.625 93.1295 12.0167 93.4295 11.45C93.7462 10.8833 94.0795 10.425 94.4295 10.075C94.7795 9.70833 95.1212 9.525 95.4545 9.525C95.6045 9.525 95.7295 9.575 95.8295 9.675C95.9462 9.75833 96.0045 9.89167 96.0045 10.075C96.0045 10.275 95.8712 10.6 95.6045 11.05C95.3545 11.5 95.0545 12.0167 94.7045 12.6C94.3545 13.1833 94.0462 13.8 93.7795 14.45C93.5295 15.0833 93.4045 15.6917 93.4045 16.275C93.4045 16.875 93.5045 17.275 93.7045 17.475C93.9045 17.675 94.2128 17.775 94.6295 17.775C95.1962 17.775 95.7962 17.4917 96.4295 16.925C97.0795 16.3583 97.7628 15.3667 98.4795 13.95L98.7045 14.2C98.2212 15.6333 97.5212 16.7333 96.6045 17.5C95.7045 18.2667 94.7628 18.65 93.7795 18.65ZM96.7795 7.2C96.5128 7.2 96.2712 7.13333 96.0545 7C95.8545 6.86667 95.7545 6.65833 95.7545 6.375C95.7545 6.025 95.9545 5.725 96.3545 5.475C96.7712 5.20833 97.1795 5.075 97.5795 5.075C97.8295 5.075 98.0295 5.13333 98.1795 5.25C98.3295 5.36667 98.4045 5.56667 98.4045 5.85C98.4045 6.16667 98.2295 6.475 97.8795 6.775C97.5462 7.05833 97.1795 7.2 96.7795 7.2ZM99.7348 18.8C99.0181 18.8 98.5098 18.575 98.2098 18.125C97.9098 17.6917 97.7598 17.1583 97.7598 16.525C97.7598 16.0083 97.8431 15.475 98.0098 14.925C98.1764 14.375 98.3931 13.8583 98.6598 13.375C98.9431 12.8917 99.2514 12.5 99.5848 12.2C99.9348 11.9 100.285 11.75 100.635 11.75C100.718 11.75 100.801 11.7667 100.885 11.8C100.985 11.8167 101.076 11.8417 101.16 11.875C101.01 12.0083 100.826 12.2583 100.61 12.625C100.41 12.975 100.218 13.3833 100.035 13.85C99.8514 14.3 99.6931 14.75 99.5598 15.2C99.4431 15.65 99.3848 16.0333 99.3848 16.35C99.3848 16.85 99.4681 17.2167 99.6348 17.45C99.8014 17.6667 100.018 17.775 100.285 17.775C100.635 17.775 101.051 17.5917 101.535 17.225C102.018 16.8417 102.493 16.3583 102.96 15.775C102.493 15.3917 102.126 14.8917 101.86 14.275C101.61 13.6417 101.485 13 101.485 12.35C101.485 11.8 101.576 11.2833 101.76 10.8C101.96 10.3167 102.243 9.93333 102.61 9.65C102.976 9.35 103.418 9.2 103.935 9.2C104.618 9.2 105.076 9.38333 105.31 9.75C105.543 10.1167 105.66 10.575 105.66 11.125C105.66 11.775 105.501 12.5 105.185 13.3C104.868 14.0833 104.468 14.8417 103.985 15.575C104.285 15.7417 104.601 15.825 104.935 15.825C105.201 15.825 105.501 15.775 105.835 15.675C106.168 15.5583 106.493 15.3667 106.81 15.1C107.143 14.8333 107.41 14.475 107.61 14.025L107.91 14.275C107.576 15.0583 107.101 15.6167 106.485 15.95C105.885 16.2667 105.31 16.425 104.76 16.425C104.543 16.425 104.335 16.4083 104.135 16.375C103.935 16.325 103.743 16.2583 103.56 16.175C102.993 16.925 102.368 17.55 101.685 18.05C101.018 18.55 100.368 18.8 99.7348 18.8ZM103.41 15.125C103.826 14.5083 104.168 13.8667 104.435 13.2C104.718 12.5167 104.86 11.875 104.86 11.275C104.86 10.7917 104.785 10.4417 104.635 10.225C104.501 9.99167 104.326 9.875 104.11 9.875C103.776 9.875 103.435 10.1167 103.085 10.6C102.735 11.0833 102.56 11.6917 102.56 12.425C102.56 12.9083 102.626 13.4 102.76 13.9C102.91 14.3833 103.126 14.7917 103.41 15.125Z" fill="#B5036E"/>
</svg>
