<svg width="69" height="17" viewBox="0 0 69 17" fill="none" xmlns="http://www.w3.org/2000/svg">
<path d="M6.52197 3.16699C6.52197 3.28451 6.47868 3.35872 6.39209 3.38965C6.31169 3.42057 6.21582 3.43913 6.10449 3.44531C5.99316 3.44531 5.87874 3.44531 5.76123 3.44531C5.64372 3.43913 5.55094 3.46077 5.48291 3.51025C5.40869 3.56592 5.35612 3.67415 5.3252 3.83496C5.29427 3.98958 5.25407 4.18441 5.20459 4.41943C5.17367 4.5555 5.13037 4.71012 5.07471 4.8833C5.01904 5.05648 4.99121 5.20801 4.99121 5.33789C4.99121 5.40592 5.00358 5.46468 5.02832 5.51416C5.05306 5.55745 5.06543 5.60693 5.06543 5.6626C5.06543 5.65641 5.05306 5.67497 5.02832 5.71826C5.00977 5.75537 4.9974 5.7832 4.99121 5.80176C4.99121 5.8265 4.99121 5.85124 4.99121 5.87598C4.9974 5.89453 5.00049 5.91618 5.00049 5.94092C5.00049 6.00277 4.99121 6.07699 4.97266 6.16357C4.9541 6.24398 4.93245 6.32747 4.90771 6.41406C4.88298 6.49447 4.85824 6.57487 4.8335 6.65527C4.80876 6.72949 4.79329 6.79134 4.78711 6.84082C4.78092 6.87174 4.77783 6.89958 4.77783 6.92432C4.77783 6.94906 4.77783 6.97689 4.77783 7.00781C4.77783 7.07585 4.77783 7.14388 4.77783 7.21191C4.78402 7.27376 4.78711 7.3387 4.78711 7.40674C4.78711 7.61702 4.77165 7.8335 4.74072 8.05615C4.71598 8.27262 4.68815 8.4891 4.65723 8.70557C4.6263 8.91585 4.57992 9.12923 4.51807 9.3457C4.4624 9.55599 4.43457 9.757 4.43457 9.94873C4.43457 10.0229 4.43766 10.0972 4.44385 10.1714C4.45003 10.2456 4.45312 10.3198 4.45312 10.394C4.45312 10.4806 4.44385 10.5579 4.42529 10.626C4.41292 10.694 4.39437 10.759 4.36963 10.8208C4.35107 10.8826 4.33252 10.9476 4.31396 11.0156C4.3016 11.0837 4.29541 11.1579 4.29541 11.2383C4.29541 11.2878 4.29541 11.3372 4.29541 11.3867C4.3016 11.43 4.30469 11.4764 4.30469 11.5259C4.30469 11.6558 4.27686 11.7949 4.22119 11.9434C4.17171 12.0918 4.13151 12.2371 4.10059 12.3794C4.06966 12.5093 4.04801 12.6515 4.03564 12.8062C4.02327 12.9546 3.99544 13.0907 3.95215 13.2144C3.93978 13.2515 3.90885 13.2948 3.85938 13.3442C3.81608 13.3875 3.77897 13.4339 3.74805 13.4834C3.70475 13.57 3.67074 13.6566 3.646 13.7432C3.62744 13.8298 3.59342 13.9071 3.54395 13.9751C3.53158 13.9875 3.50684 13.9967 3.46973 14.0029C3.4388 14.0091 3.41715 14.0215 3.40479 14.04C3.37386 14.0833 3.34912 14.1328 3.33057 14.1885C3.3182 14.2441 3.29655 14.2874 3.26562 14.3184C2.99349 14.6647 2.71208 14.9956 2.42139 15.311C2.13688 15.6326 1.79362 15.9512 1.3916 16.2666C1.32975 16.3161 1.271 16.3532 1.21533 16.3779C1.16585 16.4027 1.11019 16.4336 1.04834 16.4707C0.998861 16.5016 0.937012 16.5418 0.862793 16.5913C0.794759 16.6408 0.717448 16.6872 0.630859 16.7305C0.544271 16.7738 0.45459 16.8109 0.361816 16.8418C0.269043 16.8727 0.173177 16.8882 0.0742188 16.8882C0.0247396 16.8882 0 16.8696 0 16.8325C0 16.7397 0.0309245 16.6624 0.0927734 16.6006C0.154622 16.5449 0.231934 16.4924 0.324707 16.4429C0.411296 16.3996 0.500977 16.3594 0.59375 16.3223C0.686523 16.2852 0.766927 16.2419 0.834961 16.1924C0.964844 16.0934 1.11947 15.9543 1.29883 15.7749C1.48438 15.5955 1.65446 15.4131 1.80908 15.2275C1.83382 15.1966 1.84619 15.1595 1.84619 15.1162C1.84619 15.0791 1.85547 15.0451 1.87402 15.0142C1.89258 14.9956 1.91732 14.9801 1.94824 14.9678C1.98535 14.9616 2.01009 14.9523 2.02246 14.9399C2.05339 14.8905 2.07503 14.8348 2.0874 14.7729C2.10596 14.7111 2.1307 14.6523 2.16162 14.5967C2.17399 14.5596 2.19873 14.5286 2.23584 14.5039C2.27913 14.4854 2.30078 14.4544 2.30078 14.4111C2.30078 14.3926 2.29769 14.3709 2.2915 14.3462C2.28532 14.3276 2.28223 14.3091 2.28223 14.2905C2.28223 14.2534 2.30387 14.2225 2.34717 14.1978C2.39046 14.173 2.41829 14.1452 2.43066 14.1143C2.44922 14.0895 2.46468 14.0462 2.47705 13.9844C2.49561 13.9225 2.51107 13.8545 2.52344 13.7803C2.54199 13.7061 2.56055 13.6287 2.5791 13.5483C2.59766 13.4741 2.6193 13.4092 2.64404 13.3535C2.6626 13.3102 2.67497 13.2546 2.68115 13.1865C2.68734 13.1185 2.69352 13.0474 2.69971 12.9731C2.71208 12.8989 2.72135 12.8247 2.72754 12.7505C2.73991 12.6701 2.75846 12.5928 2.7832 12.5186C2.81413 12.4258 2.83577 12.3083 2.84814 12.166C2.8667 12.0238 2.88216 11.8753 2.89453 11.7207C2.9069 11.5661 2.91927 11.4146 2.93164 11.2661C2.94401 11.1115 2.96257 10.9754 2.9873 10.8579C3.03678 10.7899 3.07389 10.7095 3.09863 10.6167C3.12337 10.5177 3.14193 10.4033 3.1543 10.2734C3.17285 10.1374 3.18831 9.98584 3.20068 9.81885C3.21305 9.65186 3.2347 9.46631 3.26562 9.26221C3.29036 9.10758 3.3182 8.95605 3.34912 8.80762C3.38623 8.65299 3.40479 8.50456 3.40479 8.3623C3.40479 8.27572 3.40169 8.19531 3.39551 8.12109C3.39551 8.04069 3.39551 7.95719 3.39551 7.87061C3.39551 7.72217 3.40479 7.58919 3.42334 7.47168C3.44189 7.34798 3.46354 7.22738 3.48828 7.10986C3.51302 6.98617 3.53776 6.85938 3.5625 6.72949C3.58724 6.59961 3.60579 6.45117 3.61816 6.28418C3.61816 6.24707 3.62744 6.21924 3.646 6.20068C3.67074 6.17594 3.68311 6.15739 3.68311 6.14502C3.68311 6.12028 3.67074 6.10173 3.646 6.08936C3.62744 6.07699 3.61816 6.05534 3.61816 6.02441C3.61816 5.95638 3.63981 5.89453 3.68311 5.83887C3.73258 5.77702 3.75732 5.70589 3.75732 5.62549C3.75732 5.58219 3.75423 5.54199 3.74805 5.50488C3.74186 5.46159 3.73877 5.42139 3.73877 5.38428C3.73877 5.37191 3.73877 5.36263 3.73877 5.35645C3.74495 5.34408 3.74805 5.33171 3.74805 5.31934C3.78516 5.08431 3.82536 4.84928 3.86865 4.61426C3.91195 4.37923 3.93978 4.15039 3.95215 3.92773C3.92741 3.89681 3.90576 3.88135 3.88721 3.88135C3.86247 3.88135 3.83464 3.89372 3.80371 3.91846C3.77279 3.93701 3.73877 3.95866 3.70166 3.9834C3.67074 4.00195 3.6429 4.0236 3.61816 4.04834C3.59342 4.06689 3.57178 4.07617 3.55322 4.07617L3.54395 4.06689H3.52539C3.48828 4.06689 3.46045 4.05452 3.44189 4.02979C3.42334 4.00505 3.41097 3.99577 3.40479 4.00195C3.3182 4.01432 3.22852 4.02979 3.13574 4.04834C3.04297 4.06689 2.96257 4.07617 2.89453 4.07617C2.80176 4.07617 2.73991 4.05143 2.70898 4.00195C2.70898 4.00195 2.70898 3.97721 2.70898 3.92773C2.71517 3.87207 2.71826 3.81331 2.71826 3.75146C2.72445 3.68343 2.73063 3.62158 2.73682 3.56592C2.74919 3.50407 2.76465 3.46387 2.7832 3.44531C2.80794 3.42057 2.88835 3.39893 3.02441 3.38037C3.16667 3.36182 3.32129 3.34635 3.48828 3.33398C3.66146 3.31543 3.82536 3.29997 3.97998 3.2876C4.14079 3.26904 4.24902 3.25358 4.30469 3.24121C4.33561 3.22884 4.35107 3.21338 4.35107 3.19482C4.35726 3.17627 4.36344 3.16699 4.36963 3.16699C4.43766 3.14844 4.51188 3.13916 4.59229 3.13916C4.67269 3.13298 4.73763 3.11751 4.78711 3.09277C4.81803 3.0804 4.84587 3.05566 4.87061 3.01855C4.90153 2.98145 4.94173 2.96289 4.99121 2.96289C5.02832 2.96289 5.06234 2.97526 5.09326 3C5.13037 3.01855 5.16748 3.0402 5.20459 3.06494C5.2417 3.08968 5.2819 3.11442 5.3252 3.13916C5.37467 3.15771 5.42725 3.16699 5.48291 3.16699C5.62516 3.16699 5.76432 3.15462 5.90039 3.12988C6.04264 3.09896 6.16634 3.0835 6.27148 3.0835C6.389 3.0835 6.47249 3.11133 6.52197 3.16699ZM11.2163 7.70361C11.2163 7.8335 11.2132 7.94482 11.207 8.0376C11.2008 8.13037 11.1916 8.21696 11.1792 8.29736C11.173 8.37777 11.1606 8.45817 11.1421 8.53857C11.1235 8.61898 11.1019 8.70866 11.0771 8.80762C11.0277 9.02409 10.9844 9.24056 10.9473 9.45703C10.9102 9.66732 10.8638 9.88997 10.8081 10.125C10.8019 10.1497 10.7834 10.1868 10.7524 10.2363C10.7277 10.2858 10.6999 10.3415 10.6689 10.4033C10.638 10.4652 10.6071 10.527 10.5762 10.5889C10.5514 10.6507 10.5329 10.7033 10.5205 10.7466C10.4896 10.8703 10.4401 10.9723 10.3721 11.0527C10.3102 11.1331 10.2453 11.2383 10.1772 11.3682C10.1463 11.4362 10.1247 11.5135 10.1123 11.6001C10.0999 11.6805 10.0752 11.7424 10.0381 11.7856C10.0257 11.8042 9.9917 11.8351 9.93604 11.8784C9.88656 11.9217 9.8278 11.9712 9.75977 12.0269C9.69792 12.0825 9.63298 12.1382 9.56494 12.1938C9.50309 12.2495 9.45361 12.299 9.4165 12.3423C9.39176 12.3732 9.36702 12.4103 9.34229 12.4536C9.32373 12.4969 9.30208 12.5309 9.27734 12.5557C9.24642 12.5742 9.20931 12.5835 9.16602 12.5835C9.12891 12.5835 9.09489 12.5959 9.06396 12.6206C9.0516 12.6392 9.03923 12.6701 9.02686 12.7134C9.02067 12.7505 9.00521 12.769 8.98047 12.769C8.9681 12.769 8.94954 12.769 8.9248 12.769C8.90625 12.7629 8.89079 12.7598 8.87842 12.7598C8.85368 12.7598 8.79801 12.7938 8.71143 12.8618C8.62484 12.9237 8.52897 12.9948 8.42383 13.0752C8.32487 13.1556 8.229 13.2329 8.13623 13.3071C8.04964 13.3813 7.99089 13.4277 7.95996 13.4463C7.91667 13.4772 7.87028 13.502 7.8208 13.5205C7.77751 13.5391 7.73421 13.5638 7.69092 13.5947C7.63525 13.6195 7.59196 13.6473 7.56104 13.6782C7.53011 13.7153 7.49919 13.7463 7.46826 13.771C7.43734 13.8019 7.40332 13.8267 7.36621 13.8452C7.3291 13.8638 7.27653 13.873 7.2085 13.873C7.18994 13.873 7.15283 13.8607 7.09717 13.8359C7.0415 13.8112 6.98584 13.7772 6.93018 13.7339C6.87451 13.6968 6.82194 13.6504 6.77246 13.5947C6.72917 13.5391 6.70752 13.4803 6.70752 13.4185C6.70752 13.3999 6.71061 13.3813 6.7168 13.3628C6.72298 13.3381 6.72607 13.3133 6.72607 13.2886C6.72607 13.27 6.72298 13.2546 6.7168 13.2422C6.64258 13.0876 6.55908 12.9422 6.46631 12.8062C6.37972 12.6639 6.33643 12.4969 6.33643 12.3052C6.33643 12.2371 6.3457 12.1691 6.36426 12.1011C6.38281 12.0269 6.39209 11.9279 6.39209 11.8042C6.39209 11.6496 6.38281 11.4733 6.36426 11.2754C6.3457 11.0713 6.33643 10.8703 6.33643 10.6724C6.33643 10.4868 6.36426 10.2796 6.41992 10.0508C6.47559 9.82194 6.5498 9.5931 6.64258 9.36426C6.73535 9.12923 6.84049 8.90348 6.95801 8.68701C7.08171 8.47054 7.2085 8.2819 7.33838 8.12109C7.43115 8.00358 7.53011 7.89225 7.63525 7.78711C7.7404 7.68197 7.84863 7.57373 7.95996 7.4624C8.07747 7.35107 8.19499 7.23665 8.3125 7.11914C8.43001 7.00163 8.54443 6.87174 8.65576 6.72949C8.7238 6.6429 8.81348 6.55322 8.9248 6.46045C9.04232 6.36768 9.15983 6.27181 9.27734 6.17285C9.30827 6.1543 9.34229 6.14502 9.37939 6.14502C9.4165 6.14502 9.45052 6.13265 9.48145 6.10791C9.54329 6.06462 9.59587 6.01823 9.63916 5.96875C9.68245 5.91927 9.71956 5.87288 9.75049 5.82959C9.78141 5.7863 9.81234 5.75228 9.84326 5.72754C9.87419 5.69661 9.9082 5.68115 9.94531 5.68115C9.97624 5.68115 10.0041 5.68424 10.0288 5.69043C10.0597 5.69661 10.0907 5.69971 10.1216 5.69971C10.1587 5.69971 10.1865 5.69043 10.2051 5.67188C10.2236 5.64714 10.2422 5.6224 10.2607 5.59766C10.2793 5.56673 10.3009 5.54199 10.3257 5.52344C10.3566 5.4987 10.3999 5.48633 10.4556 5.48633C10.5731 5.50488 10.6566 5.53581 10.7061 5.5791C10.7617 5.61621 10.7988 5.66569 10.8174 5.72754C10.8359 5.78939 10.8514 5.86361 10.8638 5.9502C10.8761 6.03678 10.9009 6.13574 10.938 6.24707L11.0771 6.72949C11.1019 6.81608 11.1297 6.89958 11.1606 6.97998C11.1916 7.06038 11.2101 7.1346 11.2163 7.20264C11.2163 7.2583 11.2039 7.2985 11.1792 7.32324C11.1545 7.3418 11.1421 7.37581 11.1421 7.42529C11.1421 7.45622 11.1545 7.49642 11.1792 7.5459C11.2039 7.58919 11.2163 7.64176 11.2163 7.70361ZM9.83398 9.021C9.83398 8.92204 9.82471 8.8138 9.80615 8.69629C9.79378 8.57878 9.78141 8.45508 9.76904 8.3252C9.75667 8.16439 9.7474 7.9943 9.74121 7.81494C9.74121 7.63558 9.73503 7.46859 9.72266 7.31396C9.71029 7.15934 9.69173 7.03255 9.66699 6.93359C9.64844 6.83464 9.61442 6.78516 9.56494 6.78516C9.49691 6.78516 9.39176 6.82227 9.24951 6.89648C9.11344 6.9707 8.98356 7.0542 8.85986 7.14697C8.82894 7.1779 8.79801 7.23047 8.76709 7.30469C8.73617 7.37272 8.69906 7.43766 8.65576 7.49951C8.50114 7.7098 8.37126 7.90462 8.26611 8.08398C8.16715 8.26335 8.08366 8.4458 8.01562 8.63135C7.94759 8.81689 7.88883 9.01481 7.83936 9.2251C7.78988 9.4292 7.7404 9.66113 7.69092 9.9209C7.65381 10.1188 7.6167 10.2889 7.57959 10.4312C7.54248 10.5734 7.52393 10.7373 7.52393 10.9229C7.52393 11.4671 7.57959 11.8877 7.69092 12.1846C7.80843 12.4814 7.94759 12.6299 8.1084 12.6299C8.20736 12.6299 8.27848 12.6021 8.32178 12.5464C8.37126 12.4845 8.41146 12.4382 8.44238 12.4072C8.47331 12.3887 8.50732 12.3794 8.54443 12.3794C8.58773 12.3794 8.62484 12.367 8.65576 12.3423C8.78564 12.2248 8.8846 12.0856 8.95264 11.9248C9.02067 11.764 9.08252 11.6032 9.13818 11.4424H9.19385C9.2124 11.4424 9.22168 11.4362 9.22168 11.4238C9.22168 11.4115 9.21859 11.396 9.2124 11.3774C9.2124 11.3527 9.2124 11.3341 9.2124 11.3218C9.2124 11.2785 9.22168 11.2321 9.24023 11.1826C9.26497 11.1331 9.29281 11.0868 9.32373 11.0435C9.35465 11.0002 9.38558 10.96 9.4165 10.9229C9.44743 10.8796 9.46908 10.8455 9.48145 10.8208C9.53711 10.7157 9.57422 10.6198 9.59277 10.5332C9.61751 10.4404 9.63298 10.3507 9.63916 10.2642C9.65153 10.1714 9.65771 10.0817 9.65771 9.99512C9.6639 9.90234 9.67627 9.80648 9.69482 9.70752C9.71338 9.56527 9.73812 9.43848 9.76904 9.32715C9.79997 9.21582 9.82161 9.11377 9.83398 9.021ZM18.9722 10.96C19.0216 10.9909 19.0464 11.0342 19.0464 11.0898C19.0464 11.1331 19.0309 11.1795 19 11.229C18.9753 11.2723 18.9443 11.3156 18.9072 11.3589C18.8701 11.4022 18.8361 11.4393 18.8052 11.4702C18.7743 11.495 18.7588 11.5104 18.7588 11.5166C18.7155 11.5599 18.6815 11.6001 18.6567 11.6372C18.6382 11.6681 18.6042 11.7176 18.5547 11.7856C18.5114 11.8537 18.4712 11.9093 18.4341 11.9526C18.397 11.9959 18.3568 12.0392 18.3135 12.0825C18.2764 12.1258 18.2362 12.1722 18.1929 12.2217C18.1496 12.2712 18.1063 12.333 18.063 12.4072L17.7847 12.7598C17.7661 12.7907 17.7383 12.8247 17.7012 12.8618C17.6702 12.8927 17.6517 12.9268 17.6455 12.9639C17.6455 12.9948 17.627 13.0226 17.5898 13.0474C17.5527 13.0659 17.5125 13.0876 17.4692 13.1123C17.4259 13.1309 17.3857 13.1525 17.3486 13.1772C17.3115 13.202 17.293 13.2298 17.293 13.2607C17.293 13.2731 17.2961 13.2917 17.3022 13.3164C17.3084 13.335 17.3115 13.3504 17.3115 13.3628C17.3115 13.3813 17.2992 13.3906 17.2744 13.3906C17.262 13.3906 17.2466 13.3906 17.228 13.3906C17.2095 13.3844 17.194 13.3813 17.1816 13.3813C17.1569 13.3813 17.1383 13.403 17.126 13.4463C17.1198 13.4896 17.1105 13.5143 17.0981 13.5205C17.061 13.5452 16.993 13.5731 16.894 13.604C16.7951 13.6349 16.693 13.6659 16.5879 13.6968C16.4889 13.7277 16.3962 13.7524 16.3096 13.771C16.2292 13.7957 16.1828 13.8081 16.1704 13.8081C16.1519 13.8081 16.1364 13.805 16.124 13.7988C16.124 13.7926 16.0993 13.771 16.0498 13.7339C16.0003 13.6968 15.9478 13.6504 15.8921 13.5947C15.8364 13.5452 15.7839 13.4896 15.7344 13.4277C15.6849 13.3659 15.6602 13.304 15.6602 13.2422C15.6602 13.1927 15.6632 13.137 15.6694 13.0752C15.6818 13.0133 15.6942 12.9299 15.7065 12.8247C15.7189 12.8247 15.7313 12.8216 15.7437 12.8154C15.7684 12.8031 15.7808 12.7845 15.7808 12.7598C15.7808 12.7288 15.7684 12.6948 15.7437 12.6577C15.7189 12.6206 15.7065 12.5742 15.7065 12.5186C15.7065 12.4258 15.7282 12.3454 15.7715 12.2773C15.8148 12.2093 15.8426 12.1413 15.855 12.0732C15.8735 11.8691 15.8797 11.6527 15.8735 11.4238C15.8735 11.195 15.889 10.9692 15.9199 10.7466C15.9323 10.6414 15.957 10.5363 15.9941 10.4312C16.0312 10.3198 16.0529 10.2178 16.0591 10.125C16.0591 10.0941 16.056 10.0601 16.0498 10.0229C16.0498 9.98584 16.0498 9.95182 16.0498 9.9209C16.0498 9.84049 16.0622 9.78792 16.0869 9.76318C16.1117 9.73226 16.124 9.69206 16.124 9.64258C16.124 9.58073 16.1117 9.51888 16.0869 9.45703C16.0684 9.39518 16.0591 9.33333 16.0591 9.27148C16.0591 9.11686 16.0745 8.96842 16.1055 8.82617C16.1364 8.68392 16.1704 8.54167 16.2075 8.39941C16.2446 8.25098 16.2786 8.10254 16.3096 7.9541C16.3405 7.79948 16.356 7.63867 16.356 7.47168C16.356 7.4222 16.356 7.36963 16.356 7.31396C16.356 7.2583 16.3498 7.20264 16.3374 7.14697C16.1704 7.15934 16.0251 7.22738 15.9014 7.35107C15.7839 7.47477 15.6725 7.59229 15.5674 7.70361C15.487 7.7902 15.4066 7.87679 15.3262 7.96338C15.252 8.04378 15.1715 8.13965 15.085 8.25098C15.0231 8.33138 14.9674 8.43343 14.918 8.55713C14.8685 8.68083 14.8097 8.8138 14.7417 8.95605C14.7417 8.95605 14.7293 8.96842 14.7046 8.99316C14.6799 9.0179 14.652 9.04574 14.6211 9.07666C14.5902 9.10758 14.5592 9.14469 14.5283 9.18799C14.5036 9.2251 14.4819 9.25911 14.4634 9.29004C14.4139 9.389 14.3706 9.5127 14.3335 9.66113C14.2964 9.80957 14.2222 9.98893 14.1108 10.1992C14.0861 10.2487 14.0645 10.2858 14.0459 10.3105C14.0335 10.3291 14.0212 10.3662 14.0088 10.4219C13.9964 10.4714 13.981 10.5518 13.9624 10.6631C13.95 10.7744 13.9315 10.9414 13.9067 11.1641C13.8944 11.2383 13.8727 11.3063 13.8418 11.3682C13.8109 11.4238 13.7892 11.495 13.7769 11.5815C13.7583 11.7052 13.749 11.8413 13.749 11.9897C13.749 12.132 13.7336 12.2712 13.7026 12.4072C13.6903 12.4382 13.6655 12.466 13.6284 12.4907C13.5975 12.5155 13.5758 12.5371 13.5635 12.5557C13.5202 12.6237 13.4954 12.6948 13.4893 12.769C13.4893 12.8433 13.4676 12.9082 13.4243 12.9639C13.4119 12.9824 13.3872 12.9979 13.3501 13.0103C13.313 13.0164 13.2913 13.0257 13.2852 13.0381C13.2357 13.1309 13.1986 13.2174 13.1738 13.2979C13.1491 13.3721 13.1243 13.437 13.0996 13.4927C13.0811 13.5483 13.0532 13.5916 13.0161 13.6226C12.9852 13.6535 12.9326 13.6689 12.8584 13.6689C12.8027 13.6689 12.7378 13.6597 12.6636 13.6411C12.5955 13.6226 12.5275 13.5978 12.4595 13.5669C12.3976 13.536 12.3451 13.502 12.3018 13.4648C12.2585 13.4215 12.2368 13.3783 12.2368 13.335C12.2368 13.2793 12.2616 13.2144 12.311 13.1401C12.3605 13.0659 12.3853 12.9422 12.3853 12.769C12.3853 12.6577 12.376 12.568 12.3574 12.5C12.3451 12.4258 12.3389 12.3485 12.3389 12.2681C12.3389 12.2062 12.3481 12.1475 12.3667 12.0918C12.3914 12.0299 12.4131 11.9743 12.4316 11.9248C12.4564 11.8691 12.478 11.8166 12.4966 11.7671C12.5213 11.7114 12.5337 11.6589 12.5337 11.6094C12.5337 11.5599 12.5306 11.5135 12.5244 11.4702C12.5182 11.4269 12.5151 11.3805 12.5151 11.3311C12.5151 11.2321 12.5337 11.1362 12.5708 11.0435C12.6079 10.9507 12.6388 10.8517 12.6636 10.7466C12.6821 10.6662 12.6945 10.5765 12.7007 10.4775C12.7131 10.3786 12.7254 10.2858 12.7378 10.1992C12.8058 9.77865 12.8831 9.35498 12.9697 8.92822C13.0625 8.49528 13.146 8.04069 13.2202 7.56445C13.2202 7.55208 13.2295 7.53044 13.248 7.49951C13.2728 7.46859 13.2852 7.43457 13.2852 7.39746C13.2852 7.36654 13.2821 7.32943 13.2759 7.28613C13.2759 7.24284 13.2759 7.19645 13.2759 7.14697C13.2759 7.04183 13.3006 6.94596 13.3501 6.85938C13.3996 6.7666 13.4243 6.66146 13.4243 6.54395C13.4243 6.45736 13.415 6.38005 13.3965 6.31201C13.3779 6.23779 13.3687 6.16048 13.3687 6.08008C13.3687 6.01823 13.3779 5.96566 13.3965 5.92236C13.4212 5.87907 13.446 5.84196 13.4707 5.81104C13.4954 5.78011 13.5171 5.75228 13.5356 5.72754C13.5604 5.69661 13.5728 5.66569 13.5728 5.63477C13.5728 5.58529 13.5573 5.54818 13.5264 5.52344C13.5016 5.4987 13.4893 5.46777 13.4893 5.43066C13.514 5.43066 13.5326 5.41211 13.5449 5.375L13.5635 5.31934V5.23584C13.5635 5.17399 13.5789 5.11833 13.6099 5.06885C13.647 5.01318 13.6779 4.94515 13.7026 4.86475C13.7336 4.76579 13.749 4.67301 13.749 4.58643C13.749 4.49984 13.7583 4.38542 13.7769 4.24316C13.7892 4.16276 13.814 4.08236 13.8511 4.00195C13.8944 3.91536 13.916 3.80094 13.916 3.65869C13.916 3.59066 13.9098 3.52881 13.8975 3.47314C13.8913 3.4113 13.8882 3.34945 13.8882 3.2876C13.8882 3.23193 13.8944 3.18555 13.9067 3.14844C13.9253 3.11133 13.9438 3.0804 13.9624 3.05566C13.9871 3.02474 14.0057 2.99691 14.0181 2.97217C14.0366 2.94743 14.0459 2.9165 14.0459 2.87939C14.0459 2.82992 14.0335 2.78353 14.0088 2.74023C13.9902 2.69694 13.981 2.65055 13.981 2.60107C13.981 2.53304 13.9933 2.44954 14.0181 2.35059C14.0428 2.25163 14.0706 2.15267 14.1016 2.05371C14.1387 1.95475 14.1696 1.86816 14.1943 1.79395C14.2191 1.71354 14.2314 1.66097 14.2314 1.63623C14.2314 1.58057 14.2067 1.54346 14.1572 1.5249C14.1077 1.50016 14.0675 1.48779 14.0366 1.48779C13.9686 1.48779 13.9067 1.51253 13.8511 1.56201C13.7954 1.60531 13.7397 1.66097 13.6841 1.729C13.6346 1.79085 13.5882 1.85579 13.5449 1.92383C13.5016 1.99186 13.4614 2.04753 13.4243 2.09082C13.3934 2.12174 13.3563 2.14648 13.313 2.16504C13.2697 2.17741 13.2388 2.19906 13.2202 2.22998C13.1955 2.2609 13.1676 2.30111 13.1367 2.35059C13.112 2.39388 13.0811 2.44027 13.0439 2.48975C13.013 2.53304 12.979 2.57015 12.9419 2.60107C12.911 2.632 12.877 2.64746 12.8398 2.64746C12.8027 2.64746 12.7533 2.61654 12.6914 2.55469C12.6357 2.49284 12.6079 2.4279 12.6079 2.35986C12.6079 2.32894 12.6172 2.3042 12.6357 2.28564C12.6605 2.26709 12.6852 2.24854 12.71 2.22998C12.7409 2.21143 12.7718 2.18669 12.8027 2.15576C12.8337 2.11865 12.8553 2.07227 12.8677 2.0166C12.8862 1.9362 12.9295 1.86198 12.9976 1.79395C13.0656 1.72591 13.1491 1.65169 13.248 1.57129C13.3532 1.49089 13.4738 1.39502 13.6099 1.28369C13.7459 1.16618 13.8913 1.02083 14.0459 0.847656C14.0954 0.791992 14.1541 0.745605 14.2222 0.708496C14.2902 0.671387 14.349 0.625 14.3984 0.569336C14.4232 0.544596 14.4355 0.510579 14.4355 0.467285C14.4355 0.423991 14.4448 0.386882 14.4634 0.355957C14.4819 0.337402 14.519 0.30957 14.5747 0.272461C14.6304 0.229167 14.6922 0.188965 14.7603 0.151855C14.8283 0.108561 14.8932 0.0745443 14.9551 0.0498047C15.0169 0.0188802 15.0602 0.00341797 15.085 0.00341797C15.2952 0.00341797 15.4251 0.0436198 15.4746 0.124023C15.5303 0.198242 15.5581 0.294108 15.5581 0.411621C15.5581 0.516764 15.5426 0.63737 15.5117 0.773438C15.487 0.90332 15.4561 1.04248 15.4189 1.19092C15.388 1.33317 15.3571 1.47852 15.3262 1.62695C15.3014 1.77539 15.2891 1.91455 15.2891 2.04443C15.2891 2.10628 15.2922 2.16195 15.2983 2.21143C15.3045 2.25472 15.3076 2.30111 15.3076 2.35059C15.3076 2.4681 15.2767 2.57015 15.2148 2.65674C15.153 2.73714 15.1097 2.82682 15.085 2.92578C15.054 3.05566 15.0324 3.17936 15.02 3.29688C15.0076 3.41439 14.9953 3.53499 14.9829 3.65869C14.9767 3.7762 14.9674 3.8999 14.9551 4.02979C14.9427 4.15967 14.918 4.29883 14.8809 4.44727C14.8623 4.52767 14.8314 4.61735 14.7881 4.71631C14.7448 4.80908 14.7231 4.92041 14.7231 5.05029C14.7231 5.09359 14.7262 5.13688 14.7324 5.18018C14.7448 5.22347 14.751 5.27295 14.751 5.32861C14.751 5.42139 14.7417 5.53271 14.7231 5.6626C14.7108 5.79248 14.6922 5.92855 14.6675 6.0708C14.6489 6.20687 14.6273 6.34603 14.6025 6.48828C14.5778 6.62435 14.5531 6.75423 14.5283 6.87793C14.5221 6.89648 14.5098 6.94287 14.4912 7.01709C14.4727 7.08512 14.451 7.16553 14.4263 7.2583C14.4077 7.35107 14.3892 7.45003 14.3706 7.55518C14.3582 7.65413 14.3521 7.74382 14.3521 7.82422C14.3521 7.91081 14.3613 7.97884 14.3799 8.02832C14.4046 8.0778 14.4386 8.10254 14.4819 8.10254C14.5252 8.10254 14.5716 8.07471 14.6211 8.01904C14.6706 7.96338 14.7201 7.90153 14.7695 7.8335C14.819 7.76546 14.8654 7.70361 14.9087 7.64795C14.9582 7.59229 15.0015 7.56445 15.0386 7.56445C15.0509 7.56445 15.0664 7.56755 15.085 7.57373C15.1035 7.57373 15.119 7.57373 15.1313 7.57373C15.1499 7.57373 15.1592 7.56136 15.1592 7.53662C15.1592 7.52425 15.1561 7.50879 15.1499 7.49023C15.1437 7.47168 15.1406 7.45622 15.1406 7.44385C15.1406 7.43148 15.1623 7.40983 15.2056 7.37891C15.2489 7.3418 15.2798 7.31087 15.2983 7.28613C15.3416 7.21191 15.388 7.12533 15.4375 7.02637C15.487 6.92741 15.555 6.87793 15.6416 6.87793C15.654 6.87793 15.7127 6.82536 15.8179 6.72021C15.923 6.60889 16.0498 6.48828 16.1982 6.3584C16.3529 6.22852 16.5168 6.111 16.6899 6.00586C16.8693 5.89453 17.0394 5.83887 17.2002 5.83887C17.4167 5.83887 17.5744 5.87598 17.6733 5.9502C17.7785 6.01823 17.8311 6.14502 17.8311 6.33057C17.8311 6.47282 17.8218 6.60889 17.8032 6.73877C17.7847 6.86865 17.763 6.98307 17.7383 7.08203C17.7197 7.1748 17.6981 7.25212 17.6733 7.31396C17.6548 7.37581 17.6455 7.41292 17.6455 7.42529C17.6331 7.7098 17.5929 8.01286 17.5249 8.33447C17.4569 8.65609 17.4074 8.97461 17.3765 9.29004C17.3517 9.5127 17.327 9.73226 17.3022 9.94873C17.2837 10.1652 17.259 10.3879 17.228 10.6167C17.1971 10.8146 17.1538 11.0218 17.0981 11.2383C17.0487 11.4548 17.0239 11.6589 17.0239 11.8506C17.0239 11.9557 17.0301 12.0609 17.0425 12.166C17.0549 12.265 17.061 12.367 17.061 12.4722C17.061 12.5835 17.0487 12.6794 17.0239 12.7598C17.0487 12.7783 17.0796 12.7876 17.1167 12.7876C17.16 12.7876 17.2002 12.769 17.2373 12.7319C17.2744 12.6948 17.3084 12.6546 17.3394 12.6113C17.3765 12.5618 17.4136 12.5186 17.4507 12.4814C17.4878 12.4382 17.5311 12.4134 17.5806 12.4072C17.5806 12.4072 17.6022 12.3856 17.6455 12.3423C17.695 12.299 17.7476 12.2495 17.8032 12.1938C17.8589 12.1382 17.9115 12.0856 17.9609 12.0361C18.0166 11.9805 18.0506 11.9434 18.063 11.9248C18.0877 11.9001 18.097 11.8691 18.0908 11.832C18.0908 11.7887 18.1063 11.7516 18.1372 11.7207C18.1496 11.7021 18.1712 11.6898 18.2021 11.6836C18.2331 11.6774 18.2547 11.6681 18.2671 11.6558C18.2856 11.6248 18.298 11.5908 18.3042 11.5537C18.3104 11.5104 18.3228 11.4733 18.3413 11.4424C18.3537 11.4238 18.3753 11.4115 18.4062 11.4053C18.4434 11.3991 18.4681 11.3867 18.4805 11.3682C18.4867 11.362 18.4959 11.3341 18.5083 11.2847C18.5269 11.2352 18.5485 11.1857 18.5732 11.1362C18.6042 11.0806 18.6382 11.0311 18.6753 10.9878C18.7186 10.9445 18.7712 10.9229 18.833 10.9229C18.8763 10.9229 18.9227 10.9352 18.9722 10.96ZM26.4404 11.4331C26.4404 11.5321 26.4126 11.6217 26.3569 11.7021C26.3013 11.7764 26.2301 11.8506 26.1436 11.9248C26.057 11.999 25.9611 12.0732 25.856 12.1475C25.7508 12.2217 25.6488 12.3052 25.5498 12.3979C25.5189 12.4227 25.4941 12.4598 25.4756 12.5093C25.457 12.5526 25.4323 12.5835 25.4014 12.6021C25.3704 12.633 25.3364 12.6453 25.2993 12.6392C25.2622 12.633 25.2282 12.6453 25.1973 12.6763C25.154 12.7196 25.1107 12.7814 25.0674 12.8618C25.0303 12.936 24.9808 13.0133 24.9189 13.0938C24.9004 13.1247 24.8509 13.1865 24.7705 13.2793C24.6963 13.3721 24.6066 13.4679 24.5015 13.5669C24.4025 13.6659 24.2974 13.7555 24.186 13.8359C24.0809 13.9163 23.985 13.9565 23.8984 13.9565C23.849 13.9565 23.8118 13.9442 23.7871 13.9194C23.7624 13.8947 23.75 13.8669 23.75 13.8359C23.75 13.7988 23.7593 13.7555 23.7778 13.7061C23.7964 13.6566 23.8057 13.5916 23.8057 13.5112C23.8057 13.3752 23.784 13.2607 23.7407 13.168C23.6974 13.0752 23.6758 13.0041 23.6758 12.9546C23.682 12.8247 23.716 12.6825 23.7778 12.5278C23.8459 12.3732 23.8799 12.2155 23.8799 12.0547C23.8799 11.9681 23.8675 11.8877 23.8428 11.8135C23.818 11.7331 23.8057 11.6496 23.8057 11.563C23.8057 11.4764 23.8273 11.3867 23.8706 11.2939C23.9139 11.195 23.9417 11.1022 23.9541 11.0156C23.9665 10.9167 23.9757 10.8177 23.9819 10.7188C23.9881 10.6198 23.9912 10.5208 23.9912 10.4219V10.1621C23.9912 10.026 24.0005 9.90234 24.019 9.79102C24.0376 9.67969 24.0562 9.57454 24.0747 9.47559C24.0994 9.37663 24.1242 9.27767 24.1489 9.17871C24.1799 9.07975 24.2046 8.97461 24.2231 8.86328C24.2479 8.71484 24.2633 8.56641 24.2695 8.41797C24.2757 8.26953 24.2788 8.12109 24.2788 7.97266C24.285 7.82422 24.2912 7.68197 24.2974 7.5459C24.3097 7.40365 24.3314 7.26758 24.3623 7.1377C24.3438 7.13151 24.3159 7.12842 24.2788 7.12842C24.1984 7.12842 24.1304 7.15316 24.0747 7.20264C24.019 7.24593 23.9696 7.2985 23.9263 7.36035C23.8892 7.41602 23.8551 7.47786 23.8242 7.5459C23.7995 7.60775 23.7716 7.65723 23.7407 7.69434C23.716 7.72526 23.682 7.74691 23.6387 7.75928C23.5954 7.77165 23.5614 7.79329 23.5366 7.82422C23.5057 7.86133 23.481 7.90771 23.4624 7.96338C23.4438 8.01904 23.4222 8.06543 23.3975 8.10254C23.3851 8.12728 23.3573 8.14274 23.314 8.14893C23.2769 8.14893 23.2583 8.16439 23.2583 8.19531C23.2583 8.20768 23.2583 8.22314 23.2583 8.2417C23.2645 8.26025 23.2676 8.27572 23.2676 8.28809C23.2676 8.31283 23.249 8.34375 23.2119 8.38086C23.1748 8.41178 23.1315 8.4458 23.082 8.48291C23.0387 8.52002 22.9985 8.55713 22.9614 8.59424C22.9243 8.63135 22.9058 8.66227 22.9058 8.68701C22.9058 8.69938 22.9058 8.71484 22.9058 8.7334C22.9119 8.75195 22.915 8.76742 22.915 8.77979C22.915 8.79215 22.8934 8.82926 22.8501 8.89111C22.8068 8.95296 22.7542 9.021 22.6924 9.09521C22.6305 9.16943 22.5687 9.24365 22.5068 9.31787C22.445 9.39209 22.3955 9.44775 22.3584 9.48486C22.2471 9.59619 22.1667 9.70133 22.1172 9.80029C22.0677 9.89925 22.0306 9.99512 22.0059 10.0879C21.9873 10.1745 21.9688 10.2611 21.9502 10.3477C21.9378 10.4342 21.9131 10.5177 21.876 10.5981C21.8636 10.6105 21.8389 10.6229 21.8018 10.6353C21.7646 10.6414 21.7399 10.6507 21.7275 10.6631C21.6966 10.7311 21.6688 10.8053 21.644 10.8857C21.6193 10.9661 21.5791 11.0527 21.5234 11.1455C21.5111 11.1641 21.4863 11.1888 21.4492 11.2197C21.4121 11.2507 21.3936 11.2754 21.3936 11.2939C21.3626 11.362 21.3379 11.4424 21.3193 11.5352C21.3008 11.6279 21.2853 11.7238 21.2729 11.8228C21.2606 11.9217 21.2513 12.0207 21.2451 12.1196C21.2389 12.2124 21.2358 12.2928 21.2358 12.3608C21.2358 12.4289 21.2513 12.4814 21.2822 12.5186C21.3132 12.5557 21.3286 12.6113 21.3286 12.6855C21.3286 12.7288 21.3132 12.7629 21.2822 12.7876C21.2575 12.8123 21.2235 12.8371 21.1802 12.8618C21.1431 12.8804 21.0967 12.902 21.041 12.9268C20.9915 12.9515 20.9451 12.9824 20.9019 13.0195C20.7596 13.1432 20.639 13.2546 20.54 13.3535C20.4411 13.4463 20.3514 13.5329 20.271 13.6133C20.1906 13.6999 20.1195 13.7772 20.0576 13.8452C19.9958 13.9194 19.9308 13.9906 19.8628 14.0586C19.8195 14.0524 19.7979 14.0308 19.7979 13.9937C19.7979 13.9256 19.8319 13.8576 19.8999 13.7896C19.9679 13.7215 20.002 13.6597 20.002 13.604C20.002 13.5607 19.9896 13.5267 19.9648 13.502C19.9463 13.471 19.937 13.4277 19.937 13.3721C19.937 13.3535 19.9401 13.3164 19.9463 13.2607C19.9587 13.1989 19.971 13.1309 19.9834 13.0566C19.9958 12.9762 20.0081 12.8958 20.0205 12.8154C20.0391 12.735 20.0545 12.6639 20.0669 12.6021C20.0916 12.4969 20.1226 12.3918 20.1597 12.2866C20.203 12.1753 20.2432 12.064 20.2803 11.9526C20.3236 11.8351 20.3576 11.7176 20.3823 11.6001C20.4132 11.4826 20.4287 11.362 20.4287 11.2383C20.4287 11.1826 20.4256 11.1362 20.4194 11.0991C20.4132 11.0558 20.4102 11.0156 20.4102 10.9785C20.4102 10.9229 20.4163 10.8455 20.4287 10.7466C20.4411 10.6414 20.4535 10.527 20.4658 10.4033C20.4844 10.2796 20.4998 10.1559 20.5122 10.0322C20.5308 9.90853 20.5462 9.7972 20.5586 9.69824C20.5771 9.48177 20.5864 9.26221 20.5864 9.03955C20.5864 8.81689 20.5988 8.59733 20.6235 8.38086C20.6483 8.18294 20.6823 7.98503 20.7256 7.78711C20.7751 7.58919 20.7998 7.39128 20.7998 7.19336C20.7998 7.06966 20.7874 6.95833 20.7627 6.85938C20.6885 6.87174 20.6143 6.91813 20.54 6.99854C20.4658 7.07894 20.3947 7.16553 20.3267 7.2583C20.2648 7.35107 20.2091 7.43457 20.1597 7.50879C20.1102 7.58301 20.0731 7.62012 20.0483 7.62012C20.036 7.62012 20.0205 7.62012 20.002 7.62012C19.9834 7.61393 19.9679 7.61084 19.9556 7.61084C19.9246 7.61084 19.8999 7.64486 19.8813 7.71289C19.8628 7.78092 19.8381 7.85514 19.8071 7.93555C19.7762 8.00977 19.7329 8.08089 19.6772 8.14893C19.6278 8.21696 19.5566 8.25098 19.4639 8.25098C19.4391 8.25098 19.3927 8.2417 19.3247 8.22314C19.2567 8.20459 19.2227 8.1613 19.2227 8.09326C19.2227 8.04997 19.235 8.00977 19.2598 7.97266C19.2907 7.93555 19.3247 7.90153 19.3618 7.87061C19.4051 7.83968 19.4453 7.81185 19.4824 7.78711C19.5257 7.75618 19.5597 7.72526 19.5845 7.69434C19.603 7.66341 19.6123 7.62939 19.6123 7.59229C19.6185 7.54899 19.6309 7.51188 19.6494 7.48096C19.7979 7.29541 19.9741 7.11296 20.1782 6.93359C20.3885 6.75423 20.5833 6.56559 20.7627 6.36768C20.7874 6.34294 20.7967 6.30892 20.7905 6.26562C20.7905 6.22233 20.806 6.18831 20.8369 6.16357C20.8617 6.13883 20.8957 6.12956 20.939 6.13574C20.9823 6.13574 21.0163 6.12337 21.041 6.09863C21.0596 6.08008 21.075 6.04606 21.0874 5.99658C21.106 5.9471 21.1307 5.89762 21.1616 5.84814C21.1987 5.79248 21.242 5.74609 21.2915 5.70898C21.3472 5.67188 21.4214 5.65332 21.5142 5.65332C21.5636 5.65332 21.6162 5.6626 21.6719 5.68115C21.7337 5.69352 21.7894 5.71517 21.8389 5.74609C21.8945 5.77083 21.9378 5.80176 21.9688 5.83887C22.0059 5.86979 22.0244 5.90381 22.0244 5.94092C22.0244 6.00277 22.009 6.08317 21.978 6.18213C21.9533 6.28109 21.9409 6.38932 21.9409 6.50684C21.9409 6.58105 21.9533 6.65218 21.978 6.72021C22.0028 6.78206 22.0151 6.82845 22.0151 6.85938C22.0028 6.93978 21.9749 7.02018 21.9316 7.10059C21.8883 7.1748 21.8667 7.27376 21.8667 7.39746C21.8667 7.45312 21.8667 7.51497 21.8667 7.58301C21.8729 7.65104 21.876 7.71908 21.876 7.78711C21.876 7.89844 21.8605 8.02523 21.8296 8.16748C21.7987 8.30355 21.7646 8.43652 21.7275 8.56641C21.6966 8.69629 21.6657 8.81689 21.6348 8.92822C21.6038 9.03337 21.5884 9.11377 21.5884 9.16943C21.5884 9.21891 21.61 9.24365 21.6533 9.24365C21.7152 9.24365 21.7956 9.20036 21.8945 9.11377C21.9935 9.02718 22.077 8.94368 22.145 8.86328C22.1698 8.83854 22.1821 8.80452 22.1821 8.76123C22.1883 8.71794 22.2007 8.68392 22.2192 8.65918C22.2316 8.64062 22.2594 8.61589 22.3027 8.58496C22.3522 8.54785 22.4017 8.51074 22.4512 8.47363C22.5007 8.43652 22.5439 8.40251 22.5811 8.37158C22.6182 8.33447 22.6367 8.30664 22.6367 8.28809C22.6367 8.27572 22.6336 8.26025 22.6274 8.2417C22.6274 8.22314 22.6274 8.20768 22.6274 8.19531C22.6274 8.16439 22.6491 8.12109 22.6924 8.06543C22.7357 8.00977 22.7852 7.95101 22.8408 7.88916C22.8965 7.82113 22.9491 7.75618 22.9985 7.69434C23.0542 7.63249 23.0944 7.58301 23.1191 7.5459C23.1439 7.50879 23.1532 7.46549 23.147 7.41602C23.147 7.36035 23.1593 7.31396 23.1841 7.27686C23.2583 7.1779 23.3573 7.06657 23.481 6.94287C23.6108 6.81917 23.7191 6.72331 23.8057 6.65527C23.8551 6.61816 23.9046 6.59342 23.9541 6.58105C24.0036 6.56868 24.05 6.54395 24.0933 6.50684C24.186 6.42025 24.2726 6.32438 24.353 6.21924C24.4334 6.1141 24.5138 6.01823 24.5942 5.93164C24.6746 5.83887 24.755 5.76156 24.8354 5.69971C24.922 5.63786 25.0179 5.60693 25.123 5.60693C25.154 5.60693 25.2004 5.6224 25.2622 5.65332C25.3241 5.68424 25.3859 5.72754 25.4478 5.7832C25.5096 5.83887 25.5622 5.90381 25.6055 5.97803C25.6549 6.04606 25.6797 6.12028 25.6797 6.20068C25.6797 6.25016 25.6704 6.3151 25.6519 6.39551C25.6333 6.46973 25.6209 6.55632 25.6147 6.65527C25.5962 6.87793 25.5745 7.08512 25.5498 7.27686C25.5312 7.46859 25.5065 7.67578 25.4756 7.89844C25.4508 8.06543 25.4354 8.22624 25.4292 8.38086C25.4292 8.5293 25.4199 8.64681 25.4014 8.7334C25.3704 8.8571 25.321 8.9777 25.2529 9.09521C25.1911 9.21273 25.1602 9.35189 25.1602 9.5127C25.1602 9.5498 25.1632 9.59001 25.1694 9.6333C25.1756 9.6766 25.1849 9.72298 25.1973 9.77246C25.2035 9.79102 25.2127 9.80648 25.2251 9.81885C25.2437 9.82503 25.2591 9.8374 25.2715 9.85596C25.29 9.86833 25.3055 9.88997 25.3179 9.9209C25.3302 9.95182 25.3364 9.99821 25.3364 10.0601C25.3364 10.2209 25.3024 10.3817 25.2344 10.5425C25.1663 10.6971 25.1323 10.8641 25.1323 11.0435C25.1323 11.1115 25.1416 11.1826 25.1602 11.2568C25.1849 11.3249 25.1973 11.3929 25.1973 11.4609C25.1973 11.5846 25.1694 11.7083 25.1138 11.832C25.0643 11.9495 25.0396 12.0794 25.0396 12.2217C25.0396 12.2526 25.0426 12.2804 25.0488 12.3052C25.055 12.3299 25.0736 12.3423 25.1045 12.3423C25.2406 12.3423 25.3519 12.2928 25.4385 12.1938C25.5312 12.0949 25.6178 11.9867 25.6982 11.8691C25.7786 11.7516 25.8621 11.6434 25.9487 11.5444C26.0415 11.4455 26.1528 11.396 26.2827 11.396C26.3384 11.396 26.391 11.4084 26.4404 11.4331ZM43.4736 13.0752C43.5293 13.1494 43.5571 13.2051 43.5571 13.2422C43.5571 13.2979 43.5231 13.335 43.4551 13.3535C43.387 13.3659 43.3005 13.3752 43.1953 13.3813C43.0902 13.3813 42.9757 13.3813 42.8521 13.3813C42.7284 13.3813 42.6108 13.3937 42.4995 13.4185C42.3573 13.4494 42.2305 13.4896 42.1191 13.5391C42.0078 13.5885 41.9027 13.638 41.8037 13.6875C41.7048 13.7432 41.612 13.7896 41.5254 13.8267C41.4388 13.8638 41.3553 13.8823 41.2749 13.8823C41.2007 13.8823 41.1296 13.8638 41.0615 13.8267C40.9935 13.7896 40.9285 13.771 40.8667 13.771C40.7739 13.771 40.675 13.7803 40.5698 13.7988C40.4709 13.8174 40.375 13.839 40.2822 13.8638C40.1956 13.8885 40.1152 13.9102 40.041 13.9287C39.9668 13.9535 39.9111 13.9689 39.874 13.9751C39.7874 13.9751 39.7163 13.9565 39.6606 13.9194C39.6112 13.8823 39.5864 13.8298 39.5864 13.7617C39.5864 13.6133 39.6421 13.5081 39.7534 13.4463C39.8709 13.3844 40.0317 13.3535 40.2358 13.3535C40.2668 13.3535 40.3039 13.3566 40.3472 13.3628C40.3905 13.369 40.4338 13.3721 40.4771 13.3721C40.5822 13.3721 40.6688 13.3226 40.7368 13.2236C40.8049 13.1185 40.8574 12.9855 40.8945 12.8247C40.9378 12.6577 40.9657 12.4691 40.978 12.2588C40.9966 12.0423 41.009 11.8258 41.0151 11.6094C41.0213 11.3929 41.0244 11.1826 41.0244 10.9785C41.0306 10.7744 41.0368 10.5951 41.043 10.4404C41.0739 9.8776 41.0986 9.29622 41.1172 8.69629C41.1357 8.09635 41.145 7.53353 41.145 7.00781C41.145 6.56868 41.1357 6.19141 41.1172 5.87598C41.0306 5.9069 40.9533 5.9502 40.8853 6.00586C40.8172 6.06152 40.7554 6.12337 40.6997 6.19141C40.644 6.25944 40.5915 6.33366 40.542 6.41406C40.4987 6.48828 40.4585 6.55941 40.4214 6.62744C40.4152 6.63363 40.4121 6.6429 40.4121 6.65527C40.4121 6.66764 40.4121 6.68311 40.4121 6.70166C40.4183 6.72021 40.4214 6.73568 40.4214 6.74805C40.4214 6.75423 40.409 6.77897 40.3843 6.82227C40.3595 6.86556 40.3286 6.91504 40.2915 6.9707C40.2544 7.02018 40.2142 7.07275 40.1709 7.12842C40.1338 7.18408 40.1029 7.22428 40.0781 7.24902C39.9977 7.33561 39.8895 7.48405 39.7534 7.69434C39.6235 7.89844 39.4751 8.14274 39.3081 8.42725C39.1473 8.71175 38.9772 9.02409 38.7979 9.36426C38.6247 9.70443 38.4515 10.0508 38.2783 10.4033C38.1113 10.7559 37.9536 11.1022 37.8052 11.4424C37.6629 11.7826 37.5423 12.0949 37.4434 12.3794C37.3939 12.5093 37.3568 12.6392 37.332 12.769C37.3073 12.8989 37.2733 13.0195 37.23 13.1309C37.1929 13.236 37.1403 13.3226 37.0723 13.3906C37.0104 13.4525 36.9176 13.4834 36.7939 13.4834C36.7445 13.4834 36.7043 13.4741 36.6733 13.4556C36.6424 13.4308 36.6208 13.4185 36.6084 13.4185C36.5342 13.4246 36.4692 13.4401 36.4136 13.4648C36.3641 13.4896 36.3177 13.502 36.2744 13.502C36.2188 13.4834 36.1693 13.4587 36.126 13.4277C36.0889 13.403 36.0549 13.3721 36.0239 13.335C35.9992 13.2917 35.9868 13.2453 35.9868 13.1958C35.9868 13.1834 35.9868 13.1711 35.9868 13.1587C35.993 13.1401 35.9961 13.1247 35.9961 13.1123C35.9961 13.1061 35.993 13.0999 35.9868 13.0938C35.9868 13.0876 35.9868 13.0814 35.9868 13.0752C35.925 12.9453 35.8631 12.8123 35.8013 12.6763C35.7456 12.534 35.693 12.367 35.6436 12.1753V12.064C35.6436 12.0083 35.6219 11.9155 35.5786 11.7856C35.5415 11.6496 35.4704 11.4795 35.3652 11.2754C35.3343 11.1702 35.3158 11.062 35.3096 10.9507C35.3034 10.8394 35.2756 10.7404 35.2261 10.6538C35.2137 10.6353 35.1982 10.6229 35.1797 10.6167C35.1611 10.6105 35.1519 10.5827 35.1519 10.5332C35.1519 10.5208 35.1519 10.5054 35.1519 10.4868C35.158 10.4683 35.1611 10.4528 35.1611 10.4404C35.1364 10.3477 35.0962 10.2301 35.0405 10.0879C34.9849 9.93945 34.9292 9.7972 34.8735 9.66113C34.8179 9.51888 34.7684 9.39827 34.7251 9.29932C34.688 9.20036 34.6694 9.14779 34.6694 9.1416C34.6694 9.11068 34.6725 9.08285 34.6787 9.05811C34.6849 9.02718 34.688 8.99935 34.688 8.97461C34.688 8.9375 34.6632 8.89421 34.6138 8.84473C34.5705 8.79525 34.5426 8.74886 34.5303 8.70557C34.487 8.60042 34.453 8.486 34.4282 8.3623C34.4097 8.23861 34.3757 8.10254 34.3262 7.9541C34.3076 7.89225 34.2798 7.81494 34.2427 7.72217C34.2118 7.62321 34.1777 7.51807 34.1406 7.40674C34.1035 7.29541 34.0633 7.1779 34.02 7.0542C33.9829 6.9305 33.9458 6.81299 33.9087 6.70166C33.8963 6.67074 33.887 6.63053 33.8809 6.58105C33.8747 6.52539 33.8623 6.47282 33.8438 6.42334C33.8376 6.41097 33.8221 6.38623 33.7974 6.34912C33.7726 6.30583 33.7479 6.26253 33.7231 6.21924C33.6984 6.16976 33.6768 6.12646 33.6582 6.08936C33.6396 6.05225 33.6304 6.02751 33.6304 6.01514V6.00586C33.5685 6.01823 33.519 6.09245 33.4819 6.22852C33.451 6.36458 33.4232 6.51921 33.3984 6.69238C33.3799 6.86556 33.3613 7.03564 33.3428 7.20264C33.3304 7.36344 33.3118 7.47477 33.2871 7.53662C33.2562 7.61702 33.2407 7.72217 33.2407 7.85205C33.2469 7.97575 33.2407 8.12109 33.2222 8.28809C33.2098 8.39941 33.182 8.50146 33.1387 8.59424C33.0954 8.68701 33.0737 8.78597 33.0737 8.89111C33.0737 8.94059 33.0737 8.99007 33.0737 9.03955C33.0799 9.08285 33.083 9.12923 33.083 9.17871C33.083 9.32096 33.0614 9.45703 33.0181 9.58691C32.981 9.7168 32.9531 9.88688 32.9346 10.0972C32.9346 10.1095 32.9346 10.125 32.9346 10.1436C32.9408 10.1621 32.9438 10.1776 32.9438 10.1899C32.9438 10.2209 32.9346 10.2487 32.916 10.2734C32.8975 10.292 32.882 10.3013 32.8696 10.3013C32.8387 10.493 32.814 10.6785 32.7954 10.8579C32.783 11.0373 32.7614 11.2197 32.7305 11.4053C32.6995 11.5599 32.6624 11.7114 32.6191 11.8599C32.582 12.0021 32.5511 12.1536 32.5264 12.3145C32.5016 12.4753 32.4862 12.6361 32.48 12.7969C32.48 12.9577 32.4707 13.1185 32.4521 13.2793C32.6068 13.2731 32.7645 13.2484 32.9253 13.2051C33.0923 13.1556 33.2531 13.1309 33.4077 13.1309C33.5809 13.1309 33.7262 13.1803 33.8438 13.2793C33.8252 13.3535 33.8066 13.4092 33.7881 13.4463C33.7695 13.4772 33.7448 13.502 33.7139 13.5205C33.6829 13.5329 33.6427 13.5391 33.5933 13.5391C33.55 13.5452 33.4943 13.5514 33.4263 13.5576C33.3768 13.5638 33.3459 13.5762 33.3335 13.5947C33.3273 13.6133 33.3118 13.6257 33.2871 13.6318C33.182 13.6566 33.0737 13.672 32.9624 13.6782C32.8573 13.6906 32.7521 13.6999 32.647 13.7061C32.5418 13.7184 32.4367 13.7339 32.3315 13.7524C32.2326 13.771 32.1367 13.7988 32.0439 13.8359C32.0068 13.8545 31.9512 13.87 31.877 13.8823C31.8089 13.8947 31.7316 13.904 31.645 13.9102C31.5584 13.9225 31.4688 13.9318 31.376 13.938C31.2894 13.9504 31.2121 13.9627 31.144 13.9751C31.0575 13.9875 30.9492 14.0122 30.8193 14.0493C30.6895 14.0864 30.5688 14.105 30.4575 14.105C30.3709 14.105 30.2998 14.0864 30.2441 14.0493C30.1947 14.0122 30.1699 13.9411 30.1699 13.8359C30.1699 13.737 30.2039 13.6689 30.272 13.6318C30.34 13.6009 30.4204 13.5793 30.5132 13.5669C30.6121 13.5607 30.7111 13.5545 30.8101 13.5483C30.9152 13.5483 31.0018 13.5267 31.0698 13.4834C31.144 13.4401 31.2059 13.3875 31.2554 13.3257C31.311 13.2638 31.3543 13.202 31.3853 13.1401C31.4162 13.0783 31.4409 13.0257 31.4595 12.9824C31.478 12.9329 31.4873 12.902 31.4873 12.8896C31.4873 12.8587 31.4842 12.8309 31.478 12.8062C31.478 12.7814 31.478 12.7536 31.478 12.7227C31.478 12.6917 31.4811 12.6701 31.4873 12.6577C31.5553 12.4598 31.6265 12.2712 31.7007 12.0918C31.7811 11.9062 31.846 11.7021 31.8955 11.4795C31.9017 11.4733 31.9048 11.4609 31.9048 11.4424C31.9048 11.4238 31.9017 11.4053 31.8955 11.3867C31.8955 11.3682 31.8955 11.3527 31.8955 11.3403C31.9141 11.2847 31.9357 11.2166 31.9604 11.1362C31.9914 11.0496 32.0223 10.96 32.0532 10.8672C32.0903 10.7744 32.1243 10.6785 32.1553 10.5796C32.1924 10.4806 32.2233 10.3879 32.248 10.3013V10.2642C32.248 10.2394 32.245 10.2178 32.2388 10.1992C32.2388 10.1807 32.2388 10.1621 32.2388 10.1436C32.2388 10.1188 32.2604 10.0817 32.3037 10.0322C32.347 9.97656 32.3748 9.90544 32.3872 9.81885C32.4181 9.67041 32.4305 9.52816 32.4243 9.39209C32.4243 9.25602 32.4336 9.12305 32.4521 8.99316C32.4769 8.83236 32.5078 8.67773 32.5449 8.5293C32.582 8.38086 32.6191 8.23551 32.6562 8.09326C32.6934 7.95101 32.7243 7.81185 32.749 7.67578C32.7799 7.53353 32.7985 7.39128 32.8047 7.24902C32.8109 7.1377 32.8263 7.02327 32.8511 6.90576C32.8758 6.78825 32.9036 6.67074 32.9346 6.55322C32.9717 6.42952 33.0026 6.30583 33.0273 6.18213C33.0583 6.05843 33.0768 5.93164 33.083 5.80176C33.0892 5.67806 33.1108 5.56055 33.1479 5.44922C33.1851 5.33171 33.2098 5.21729 33.2222 5.10596C33.2407 4.9637 33.25 4.81527 33.25 4.66064C33.2562 4.49984 33.2686 4.34831 33.2871 4.20605C33.2995 4.13802 33.3242 4.05762 33.3613 3.96484C33.4046 3.86589 33.4263 3.78548 33.4263 3.72363C33.4263 3.69889 33.4108 3.66797 33.3799 3.63086C33.3551 3.59375 33.3428 3.55046 33.3428 3.50098C33.3428 3.48861 33.3675 3.46077 33.417 3.41748C33.4665 3.368 33.5314 3.31234 33.6118 3.25049C33.6922 3.18245 33.7819 3.11133 33.8809 3.03711C33.9798 2.96289 34.0819 2.89176 34.187 2.82373C34.1932 2.81755 34.2118 2.81445 34.2427 2.81445C34.2798 2.81445 34.32 2.81445 34.3633 2.81445C34.4189 2.81445 34.4622 2.81755 34.4932 2.82373C34.5241 2.82373 34.5426 2.8361 34.5488 2.86084C34.5612 2.87939 34.5674 2.91032 34.5674 2.95361C34.5674 2.99691 34.5674 3.05566 34.5674 3.12988C34.5674 3.19792 34.5643 3.26904 34.5581 3.34326C34.5581 3.4113 34.5581 3.48242 34.5581 3.55664C34.5581 3.64323 34.5612 3.71436 34.5674 3.77002C34.5736 3.8195 34.5798 3.86898 34.5859 3.91846C34.5983 3.96175 34.6107 4.00505 34.623 4.04834C34.6416 4.09163 34.6602 4.14421 34.6787 4.20605C34.6973 4.2679 34.7127 4.34212 34.7251 4.42871C34.7375 4.50911 34.7653 4.5957 34.8086 4.68848C34.821 4.71322 34.8457 4.75342 34.8828 4.80908C34.9199 4.85856 34.9416 4.88949 34.9478 4.90186C34.991 5.03792 35.0127 5.17708 35.0127 5.31934C35.0127 5.4554 35.0374 5.59147 35.0869 5.72754C35.0993 5.75228 35.124 5.78011 35.1611 5.81104C35.2044 5.84196 35.2261 5.8667 35.2261 5.88525C35.2261 5.89762 35.223 5.91309 35.2168 5.93164C35.2168 5.9502 35.2168 5.96566 35.2168 5.97803C35.2168 5.99658 35.2199 6.00586 35.2261 6.00586C35.2694 6.04297 35.3065 6.10482 35.3374 6.19141C35.3683 6.27799 35.3962 6.37695 35.4209 6.48828C35.4456 6.59342 35.4673 6.70475 35.4858 6.82227C35.5106 6.93359 35.5384 7.03255 35.5693 7.11914C35.5879 7.1748 35.6095 7.23047 35.6343 7.28613C35.6652 7.33561 35.693 7.39437 35.7178 7.4624C35.7301 7.51188 35.7394 7.57064 35.7456 7.63867C35.7518 7.70052 35.7642 7.75618 35.7827 7.80566C35.826 7.92936 35.891 8.07471 35.9775 8.2417C36.0703 8.40869 36.1445 8.58805 36.2002 8.77979V8.89111C36.2002 8.93441 36.2218 8.99935 36.2651 9.08594C36.3146 9.16634 36.361 9.24674 36.4043 9.32715C36.4476 9.45703 36.4816 9.60547 36.5063 9.77246C36.5311 9.93327 36.5651 10.0879 36.6084 10.2363C36.6208 10.2549 36.6455 10.2796 36.6826 10.3105C36.7259 10.3353 36.7507 10.3538 36.7568 10.3662C36.763 10.4033 36.7661 10.4528 36.7661 10.5146C36.7723 10.5765 36.7785 10.6383 36.7847 10.7002C36.797 10.762 36.8156 10.8146 36.8403 10.8579C36.8713 10.9012 36.9176 10.9229 36.9795 10.9229C37.0352 10.9229 37.0939 10.8857 37.1558 10.8115C37.2238 10.7311 37.2887 10.6353 37.3506 10.5239C37.4186 10.4126 37.4836 10.2982 37.5454 10.1807C37.6134 10.0632 37.6722 9.96419 37.7217 9.88379C37.7279 9.87142 37.7588 9.82812 37.8145 9.75391C37.8701 9.6735 37.932 9.58073 38 9.47559C38.0124 9.44466 38.0216 9.41064 38.0278 9.37354C38.034 9.33024 38.0464 9.29313 38.0649 9.26221C38.0773 9.24984 38.099 9.24056 38.1299 9.23438C38.167 9.22201 38.1917 9.20964 38.2041 9.19727C38.2288 9.16634 38.2381 9.13232 38.2319 9.09521C38.2319 9.05192 38.2474 9.0179 38.2783 8.99316C38.2907 8.97461 38.3123 8.96224 38.3433 8.95605C38.3804 8.94987 38.4051 8.9375 38.4175 8.91895C38.4422 8.88802 38.4515 8.854 38.4453 8.81689C38.4391 8.7736 38.4515 8.73649 38.4824 8.70557C38.4948 8.6932 38.5195 8.68392 38.5566 8.67773C38.5938 8.66536 38.6154 8.65299 38.6216 8.64062C38.6711 8.55404 38.7051 8.45508 38.7236 8.34375C38.7422 8.22624 38.7793 8.118 38.835 8.01904C38.8411 8.00667 38.8628 7.9974 38.8999 7.99121C38.937 7.97884 38.9587 7.96647 38.9648 7.9541C38.9958 7.89225 39.0143 7.84587 39.0205 7.81494C39.0267 7.78402 39.0545 7.73454 39.104 7.6665C39.1473 7.60465 39.1968 7.54899 39.2524 7.49951C39.3081 7.44385 39.3514 7.38509 39.3823 7.32324C39.4132 7.27995 39.4256 7.23665 39.4194 7.19336C39.4132 7.14388 39.4256 7.0944 39.4565 7.04492C39.4813 6.99544 39.5246 6.93978 39.5864 6.87793C39.6483 6.8099 39.6947 6.7264 39.7256 6.62744C39.7503 6.52848 39.8184 6.42025 39.9297 6.30273C40.041 6.17904 40.1338 6.05843 40.208 5.94092C40.2822 5.8234 40.3441 5.72445 40.3936 5.64404C40.443 5.55745 40.4863 5.48014 40.5234 5.41211C40.5667 5.34408 40.61 5.27604 40.6533 5.20801C40.7028 5.13379 40.7646 5.05339 40.8389 4.9668C40.876 4.91732 40.9255 4.86475 40.9873 4.80908C41.0492 4.74723 41.1141 4.66064 41.1821 4.54932C41.1945 4.52458 41.2038 4.49056 41.21 4.44727C41.2161 4.40397 41.2285 4.36995 41.2471 4.34521C41.2842 4.30192 41.3337 4.2679 41.3955 4.24316C41.4574 4.21842 41.5037 4.18132 41.5347 4.13184C41.6089 4.02051 41.6676 3.90299 41.7109 3.7793C41.7542 3.64941 41.8068 3.5319 41.8687 3.42676C41.9305 3.31543 42.0078 3.22575 42.1006 3.15771C42.1934 3.08968 42.3294 3.05566 42.5088 3.05566C42.6572 3.05566 42.7593 3.09896 42.8149 3.18555C42.8706 3.26595 42.8984 3.368 42.8984 3.4917C42.8984 3.59684 42.8861 3.71126 42.8613 3.83496C42.8366 3.95866 42.8088 4.08236 42.7778 4.20605C42.7469 4.33594 42.7222 4.48438 42.7036 4.65137C42.6912 4.81836 42.6789 4.99772 42.6665 5.18945C42.6603 5.375 42.6541 5.56673 42.6479 5.76465C42.6479 5.96257 42.6449 6.16048 42.6387 6.3584C42.6263 6.70475 42.5861 7.04801 42.5181 7.38818C42.4562 7.72835 42.4253 8.06543 42.4253 8.39941C42.4253 8.47982 42.4253 8.56022 42.4253 8.64062C42.4315 8.72103 42.4346 8.80143 42.4346 8.88184C42.4346 9.00553 42.4222 9.11068 42.3975 9.19727C42.3727 9.27767 42.3604 9.37044 42.3604 9.47559C42.3604 9.56217 42.3727 9.65804 42.3975 9.76318C42.4222 9.86833 42.4346 9.95801 42.4346 10.0322C42.4098 10.1064 42.3851 10.2054 42.3604 10.3291C42.3356 10.4466 42.3109 10.5765 42.2861 10.7188C42.2676 10.861 42.2521 11.0125 42.2397 11.1733C42.2274 11.328 42.2212 11.4826 42.2212 11.6372C42.2212 11.6991 42.2305 11.7702 42.249 11.8506C42.2738 11.9248 42.2861 11.9867 42.2861 12.0361C42.2861 12.1351 42.2738 12.231 42.249 12.3237C42.2243 12.4103 42.2119 12.4969 42.2119 12.5835C42.2119 12.6577 42.2243 12.7257 42.249 12.7876C42.2738 12.8494 42.3016 12.9051 42.3325 12.9546C42.3696 12.9979 42.4067 13.0319 42.4438 13.0566C42.481 13.0814 42.5119 13.0938 42.5366 13.0938C42.5923 13.0938 42.6572 13.0876 42.7314 13.0752C42.8057 13.0566 42.8799 13.0381 42.9541 13.0195C43.0283 12.9948 43.0933 12.9762 43.1489 12.9639C43.2046 12.9453 43.2417 12.936 43.2603 12.936C43.2974 12.9422 43.3345 12.9608 43.3716 12.9917C43.4149 13.0164 43.4489 13.0443 43.4736 13.0752ZM47.8154 11.2383C47.8402 11.2939 47.8525 11.3527 47.8525 11.4146C47.8525 11.4764 47.8371 11.5321 47.8062 11.5815C47.7814 11.6248 47.7474 11.6681 47.7041 11.7114C47.667 11.7485 47.6237 11.7856 47.5742 11.8228C47.5309 11.8537 47.4938 11.8877 47.4629 11.9248C47.4505 11.9495 47.4412 11.9867 47.4351 12.0361C47.4351 12.0794 47.4227 12.1134 47.3979 12.1382C47.3237 12.2186 47.231 12.2866 47.1196 12.3423C47.0145 12.3979 46.9217 12.4691 46.8413 12.5557C46.7918 12.6113 46.7547 12.667 46.73 12.7227C46.7052 12.7721 46.6496 12.8309 46.563 12.8989C46.495 12.9484 46.43 13.0164 46.3682 13.103C46.3063 13.1896 46.2383 13.2762 46.1641 13.3628C46.0898 13.4432 46.0033 13.5143 45.9043 13.5762C45.8053 13.6442 45.6878 13.6782 45.5518 13.6782C45.5208 13.6782 45.493 13.6751 45.4683 13.6689C45.4435 13.6689 45.4157 13.6659 45.3848 13.6597C45.3848 13.6597 45.3631 13.6473 45.3198 13.6226C45.2765 13.5978 45.2271 13.5483 45.1714 13.4741C45.1219 13.3999 45.0755 13.2948 45.0322 13.1587C44.9889 13.0226 44.9673 12.8433 44.9673 12.6206C44.9673 12.5649 44.9766 12.5062 44.9951 12.4443C45.0199 12.3763 45.0446 12.3114 45.0693 12.2495C45.1003 12.1877 45.125 12.1258 45.1436 12.064C45.1683 11.9959 45.1807 11.9341 45.1807 11.8784C45.1807 11.8228 45.1683 11.7702 45.1436 11.7207C45.1188 11.6712 45.1064 11.6187 45.1064 11.563C45.1064 11.5073 45.1312 11.4702 45.1807 11.4517C45.2301 11.4269 45.2549 11.3836 45.2549 11.3218C45.2549 11.2909 45.2518 11.263 45.2456 11.2383C45.2456 11.2135 45.2456 11.1857 45.2456 11.1548C45.2456 11.0806 45.258 11.0311 45.2827 11.0063C45.3075 10.9754 45.3198 10.9352 45.3198 10.8857C45.3198 10.8424 45.3105 10.8115 45.292 10.793C45.2796 10.7682 45.2734 10.7373 45.2734 10.7002C45.2734 10.6569 45.2889 10.6167 45.3198 10.5796C45.3507 10.5363 45.3724 10.4775 45.3848 10.4033C45.4281 10.2611 45.4621 10.0941 45.4868 9.90234C45.5116 9.70443 45.5394 9.49414 45.5703 9.27148C45.6074 9.04264 45.6476 8.80143 45.6909 8.54785C45.7342 8.28809 45.7961 8.02832 45.8765 7.76855C45.9012 7.68197 45.9259 7.55827 45.9507 7.39746C45.9816 7.23047 46.0002 7.05729 46.0063 6.87793C45.9754 6.85938 45.9538 6.8501 45.9414 6.8501C45.8919 6.8501 45.8548 6.8903 45.8301 6.9707C45.8115 7.05111 45.7806 7.10986 45.7373 7.14697C45.7064 7.17171 45.6693 7.18408 45.626 7.18408C45.5889 7.18408 45.5549 7.19336 45.5239 7.21191C45.4868 7.24284 45.4559 7.27995 45.4312 7.32324C45.4126 7.36035 45.391 7.39746 45.3662 7.43457C45.3477 7.47168 45.3198 7.50879 45.2827 7.5459C45.2456 7.58301 45.1899 7.61084 45.1157 7.62939C45.1034 7.63558 45.0972 7.65104 45.0972 7.67578C45.0972 7.69434 45.0848 7.70361 45.0601 7.70361H45.0415C45.0415 7.68506 45.026 7.6696 44.9951 7.65723C44.9704 7.63867 44.9395 7.62012 44.9023 7.60156C44.8652 7.58301 44.8312 7.56136 44.8003 7.53662C44.7756 7.51188 44.7632 7.48096 44.7632 7.44385C44.7632 7.38818 44.7756 7.34489 44.8003 7.31396C44.825 7.28304 44.859 7.2583 44.9023 7.23975C44.9456 7.22119 44.9889 7.20264 45.0322 7.18408C45.0817 7.15934 45.1312 7.12533 45.1807 7.08203C45.2425 7.02018 45.3105 6.94906 45.3848 6.86865C45.4652 6.78825 45.5456 6.70785 45.626 6.62744C45.7064 6.54085 45.7899 6.46045 45.8765 6.38623C45.9692 6.30583 46.062 6.2347 46.1548 6.17285C46.1733 6.16048 46.1764 6.14811 46.1641 6.13574C46.1579 6.12337 46.1764 6.1141 46.2197 6.10791C46.2383 6.10791 46.263 6.09863 46.2939 6.08008C46.3311 6.05534 46.3651 6.0306 46.396 6.00586C46.4331 5.97493 46.464 5.9502 46.4888 5.93164C46.5135 5.9069 46.529 5.89453 46.5352 5.89453C46.5475 5.89453 46.5599 5.89762 46.5723 5.90381C46.5908 5.90381 46.6063 5.90381 46.6187 5.90381C46.6681 5.90381 46.7238 5.89144 46.7856 5.8667C46.8537 5.83577 46.9743 5.82031 47.1475 5.82031C47.2155 5.82031 47.2743 5.84196 47.3237 5.88525C47.3794 5.92236 47.4072 6.00277 47.4072 6.12646C47.4072 6.16357 47.3918 6.22233 47.3608 6.30273C47.3299 6.38314 47.2959 6.479 47.2588 6.59033C47.2217 6.70166 47.1877 6.82536 47.1567 6.96143C47.1258 7.09749 47.1104 7.23975 47.1104 7.38818C47.1104 7.45003 47.1134 7.51497 47.1196 7.58301C47.1258 7.64486 47.1289 7.70671 47.1289 7.76855C47.1289 7.87988 47.1073 7.97575 47.064 8.05615C47.0269 8.13037 46.999 8.22005 46.9805 8.3252C46.9557 8.45508 46.9434 8.59115 46.9434 8.7334C46.9434 8.87565 46.9341 9.0179 46.9155 9.16016C46.866 9.45703 46.8073 9.74463 46.7393 10.0229C46.6712 10.3013 46.6125 10.5889 46.563 10.8857C46.5444 10.9847 46.5135 11.1115 46.4702 11.2661C46.4331 11.4207 46.4146 11.5846 46.4146 11.7578C46.4146 11.9186 46.4424 12.0671 46.498 12.2031C46.5908 12.1969 46.6681 12.1691 46.73 12.1196C46.7918 12.0701 46.8475 12.0145 46.897 11.9526C46.9465 11.8908 46.9928 11.8258 47.0361 11.7578C47.0856 11.6898 47.1382 11.631 47.1938 11.5815C47.231 11.5506 47.2835 11.529 47.3516 11.5166C47.4258 11.498 47.4876 11.4733 47.5371 11.4424C47.5866 11.4115 47.6206 11.3682 47.6392 11.3125C47.6577 11.2568 47.6979 11.229 47.7598 11.229C47.7721 11.229 47.7814 11.2321 47.7876 11.2383C47.7938 11.2383 47.8031 11.2383 47.8154 11.2383ZM48.1587 1.88672C48.1772 1.92383 48.1865 1.96403 48.1865 2.00732C48.1865 2.08154 48.1618 2.16195 48.1123 2.24854C48.0628 2.33512 48.0072 2.41862 47.9453 2.49902C47.8896 2.57943 47.834 2.65365 47.7783 2.72168C47.7227 2.78353 47.6886 2.82682 47.6763 2.85156C47.6392 2.93197 47.6082 3.0402 47.5835 3.17627C47.5649 3.31234 47.5247 3.43604 47.4629 3.54736C47.4382 3.59684 47.4165 3.63395 47.3979 3.65869C47.3794 3.68343 47.3577 3.7391 47.333 3.82568C47.3083 3.88135 47.2773 3.94629 47.2402 4.02051C47.2031 4.09473 47.1629 4.16585 47.1196 4.23389C47.0763 4.29574 47.033 4.3514 46.9897 4.40088C46.9465 4.44417 46.9062 4.46582 46.8691 4.46582C46.7083 4.46582 46.597 4.38851 46.5352 4.23389C46.4795 4.07308 46.4517 3.88444 46.4517 3.66797C46.4517 3.58138 46.4548 3.4917 46.4609 3.39893C46.4733 3.30615 46.4857 3.21647 46.498 3.12988C46.5104 3.03711 46.5413 2.96908 46.5908 2.92578C46.6403 2.88249 46.6805 2.81445 46.7114 2.72168C46.7424 2.64128 46.764 2.56396 46.7764 2.48975C46.7887 2.40934 46.8011 2.33512 46.8135 2.26709C46.832 2.19906 46.8506 2.1403 46.8691 2.09082C46.8939 2.03516 46.931 1.98877 46.9805 1.95166C47.0176 1.92692 47.0609 1.90527 47.1104 1.88672C47.166 1.86816 47.2217 1.85579 47.2773 1.84961C47.3392 1.83724 47.3979 1.82796 47.4536 1.82178C47.5155 1.81559 47.5649 1.8125 47.6021 1.8125C47.6021 1.81868 47.6299 1.80941 47.6855 1.78467C47.7412 1.75374 47.8031 1.73828 47.8711 1.73828C47.8835 1.73828 47.9237 1.75065 47.9917 1.77539C48.0659 1.79395 48.1216 1.83105 48.1587 1.88672ZM52.2222 11.0991C52.2098 11.1795 52.1943 11.2599 52.1758 11.3403C52.1634 11.4207 52.1325 11.5011 52.083 11.5815C52.0521 11.6372 52.0057 11.6867 51.9438 11.73C51.882 11.7671 51.8356 11.8104 51.8047 11.8599C51.7676 11.9093 51.7336 11.9681 51.7026 12.0361C51.6717 12.098 51.6377 12.1536 51.6006 12.2031C51.5387 12.2835 51.4676 12.3608 51.3872 12.4351C51.313 12.5031 51.245 12.5897 51.1831 12.6948C51.1089 12.8185 51.0254 12.9329 50.9326 13.0381C50.846 13.1432 50.7223 13.2793 50.5615 13.4463C50.512 13.502 50.4718 13.57 50.4409 13.6504C50.41 13.7308 50.3791 13.7803 50.3481 13.7988C50.3172 13.8236 50.2708 13.8359 50.209 13.8359C50.1533 13.8421 50.11 13.8514 50.0791 13.8638C50.0791 13.8638 50.0636 13.873 50.0327 13.8916C50.008 13.9102 49.9771 13.9287 49.9399 13.9473C49.909 13.972 49.8719 13.9906 49.8286 14.0029C49.7915 14.0215 49.7575 14.0308 49.7266 14.0308C49.5967 14.0308 49.4977 13.9967 49.4297 13.9287C49.3617 13.8607 49.3122 13.7617 49.2812 13.6318C49.2565 13.502 49.241 13.3411 49.2349 13.1494C49.2349 12.9577 49.2349 12.7381 49.2349 12.4907C49.2349 12.3732 49.238 12.2743 49.2441 12.1938C49.2565 12.1073 49.2689 12.0299 49.2812 11.9619C49.2998 11.8877 49.3153 11.8166 49.3276 11.7485C49.3462 11.6805 49.3647 11.6032 49.3833 11.5166C49.4204 11.3187 49.4421 11.1177 49.4482 10.9136C49.4606 10.7095 49.4854 10.493 49.5225 10.2642C49.5348 10.1776 49.5565 10.0879 49.5874 9.99512C49.6245 9.90234 49.6493 9.80648 49.6616 9.70752C49.7049 9.34261 49.7266 8.96842 49.7266 8.58496C49.7327 8.2015 49.7575 7.81494 49.8008 7.42529C49.8193 7.22119 49.8472 7.014 49.8843 6.80371C49.9276 6.58724 49.9678 6.37695 50.0049 6.17285C50.0544 5.9069 50.0977 5.6224 50.1348 5.31934C50.1781 5.01009 50.2183 4.69775 50.2554 4.38232C50.2987 4.06689 50.3389 3.75146 50.376 3.43604C50.4131 3.11442 50.4502 2.80518 50.4873 2.5083C50.4997 2.40316 50.5244 2.29801 50.5615 2.19287C50.6048 2.08154 50.6265 1.97331 50.6265 1.86816C50.6265 1.73828 50.5801 1.62695 50.4873 1.53418C50.3883 1.55273 50.3203 1.60221 50.2832 1.68262C50.2523 1.75684 50.2059 1.82487 50.144 1.88672C50.0575 1.97331 49.9771 2.04753 49.9028 2.10938C49.8286 2.17122 49.7482 2.25781 49.6616 2.36914C49.6369 2.40007 49.6121 2.44027 49.5874 2.48975C49.5627 2.53923 49.5317 2.5887 49.4946 2.63818C49.4637 2.68148 49.4235 2.71859 49.374 2.74951C49.3245 2.78044 49.2627 2.7959 49.1885 2.7959C49.1266 2.7959 49.0895 2.78044 49.0771 2.74951C49.0648 2.7124 49.0586 2.67529 49.0586 2.63818C49.0586 2.58252 49.0741 2.52995 49.105 2.48047C49.1421 2.4248 49.1823 2.37223 49.2256 2.32275C49.2751 2.26709 49.3276 2.21452 49.3833 2.16504C49.439 2.11556 49.4854 2.06608 49.5225 2.0166C49.6214 1.89909 49.7142 1.77848 49.8008 1.65479C49.8936 1.5249 49.9863 1.41667 50.0791 1.33008C50.1471 1.26204 50.2337 1.1971 50.3389 1.13525C50.444 1.0734 50.543 0.999186 50.6357 0.912598C50.7223 0.832194 50.7904 0.733236 50.8398 0.615723C50.8955 0.49821 50.9635 0.411621 51.0439 0.355957C51.0687 0.337402 51.0996 0.328125 51.1367 0.328125C51.18 0.32194 51.2202 0.315755 51.2573 0.30957C51.3006 0.297201 51.3408 0.281738 51.3779 0.263184C51.415 0.238444 51.4429 0.201335 51.4614 0.151855C51.5542 0.151855 51.6346 0.176595 51.7026 0.226074C51.7707 0.269368 51.8263 0.32194 51.8696 0.383789C51.9191 0.439453 51.9562 0.492025 51.981 0.541504C52.0057 0.590983 52.0181 0.618815 52.0181 0.625C52.0181 0.693034 51.9964 0.770345 51.9531 0.856934C51.916 0.937337 51.8913 1.02702 51.8789 1.12598C51.8665 1.22493 51.8573 1.33008 51.8511 1.44141C51.8449 1.54655 51.8356 1.66715 51.8232 1.80322C51.8171 1.93929 51.8016 2.09391 51.7769 2.26709C51.7521 2.43408 51.7181 2.62891 51.6748 2.85156C51.6501 2.96908 51.6099 3.0804 51.5542 3.18555C51.5047 3.29069 51.4738 3.38656 51.4614 3.47314C51.4243 3.7391 51.4058 4.02669 51.4058 4.33594C51.4058 4.639 51.3779 4.92969 51.3223 5.20801C51.3037 5.30078 51.2759 5.38737 51.2388 5.46777C51.2017 5.54199 51.1831 5.6224 51.1831 5.70898C51.1831 5.73372 51.1831 5.76774 51.1831 5.81104C51.1893 5.84814 51.1924 5.88216 51.1924 5.91309C51.1924 5.95638 51.18 5.9873 51.1553 6.00586C51.1367 6.01823 51.1274 6.0306 51.1274 6.04297C51.1274 6.06152 51.1367 6.08008 51.1553 6.09863C51.1738 6.111 51.1831 6.14193 51.1831 6.19141C51.1831 6.33366 51.1522 6.47591 51.0903 6.61816C51.0285 6.75423 50.9883 6.88411 50.9697 7.00781C50.9264 7.31706 50.9048 7.63249 50.9048 7.9541C50.911 8.27572 50.8893 8.58496 50.8398 8.88184C50.8275 8.94987 50.8027 9.0179 50.7656 9.08594C50.7285 9.15397 50.7069 9.22201 50.7007 9.29004C50.6883 9.48177 50.6759 9.68896 50.6636 9.91162C50.6574 10.1343 50.6481 10.3446 50.6357 10.5425C50.6172 10.6724 50.5924 10.8177 50.5615 10.9785C50.5306 11.1393 50.4997 11.3063 50.4688 11.4795C50.444 11.6465 50.4193 11.8135 50.3945 11.9805C50.376 12.1475 50.3667 12.3021 50.3667 12.4443C50.3667 12.5433 50.3729 12.6175 50.3853 12.667C50.3976 12.7165 50.4131 12.7536 50.4316 12.7783C50.4564 12.7969 50.478 12.8092 50.4966 12.8154C50.5213 12.8154 50.543 12.8154 50.5615 12.8154C50.6048 12.8154 50.645 12.8 50.6821 12.769C50.7192 12.7381 50.7533 12.701 50.7842 12.6577C50.8213 12.6144 50.8522 12.5711 50.877 12.5278C50.9079 12.4784 50.9388 12.4382 50.9697 12.4072C51.18 12.2217 51.3377 12.0516 51.4429 11.897C51.548 11.7362 51.6346 11.597 51.7026 11.4795C51.7707 11.362 51.8356 11.2692 51.8975 11.2012C51.9593 11.1331 52.0552 11.0991 52.1851 11.0991H52.2222ZM56.1929 11.0991C56.1805 11.1795 56.165 11.2599 56.1465 11.3403C56.1341 11.4207 56.1032 11.5011 56.0537 11.5815C56.0228 11.6372 55.9764 11.6867 55.9146 11.73C55.8527 11.7671 55.8063 11.8104 55.7754 11.8599C55.7383 11.9093 55.7043 11.9681 55.6733 12.0361C55.6424 12.098 55.6084 12.1536 55.5713 12.2031C55.5094 12.2835 55.4383 12.3608 55.3579 12.4351C55.2837 12.5031 55.2157 12.5897 55.1538 12.6948C55.0796 12.8185 54.9961 12.9329 54.9033 13.0381C54.8167 13.1432 54.693 13.2793 54.5322 13.4463C54.4827 13.502 54.4425 13.57 54.4116 13.6504C54.3807 13.7308 54.3498 13.7803 54.3188 13.7988C54.2879 13.8236 54.2415 13.8359 54.1797 13.8359C54.124 13.8421 54.0807 13.8514 54.0498 13.8638C54.0498 13.8638 54.0343 13.873 54.0034 13.8916C53.9787 13.9102 53.9478 13.9287 53.9106 13.9473C53.8797 13.972 53.8426 13.9906 53.7993 14.0029C53.7622 14.0215 53.7282 14.0308 53.6973 14.0308C53.5674 14.0308 53.4684 13.9967 53.4004 13.9287C53.3324 13.8607 53.2829 13.7617 53.252 13.6318C53.2272 13.502 53.2118 13.3411 53.2056 13.1494C53.2056 12.9577 53.2056 12.7381 53.2056 12.4907C53.2056 12.3732 53.2087 12.2743 53.2148 12.1938C53.2272 12.1073 53.2396 12.0299 53.252 11.9619C53.2705 11.8877 53.286 11.8166 53.2983 11.7485C53.3169 11.6805 53.3354 11.6032 53.354 11.5166C53.3911 11.3187 53.4128 11.1177 53.4189 10.9136C53.4313 10.7095 53.4561 10.493 53.4932 10.2642C53.5055 10.1776 53.5272 10.0879 53.5581 9.99512C53.5952 9.90234 53.62 9.80648 53.6323 9.70752C53.6756 9.34261 53.6973 8.96842 53.6973 8.58496C53.7035 8.2015 53.7282 7.81494 53.7715 7.42529C53.79 7.22119 53.8179 7.014 53.855 6.80371C53.8983 6.58724 53.9385 6.37695 53.9756 6.17285C54.0251 5.9069 54.0684 5.6224 54.1055 5.31934C54.1488 5.01009 54.189 4.69775 54.2261 4.38232C54.2694 4.06689 54.3096 3.75146 54.3467 3.43604C54.3838 3.11442 54.4209 2.80518 54.458 2.5083C54.4704 2.40316 54.4951 2.29801 54.5322 2.19287C54.5755 2.08154 54.5972 1.97331 54.5972 1.86816C54.5972 1.73828 54.5508 1.62695 54.458 1.53418C54.359 1.55273 54.291 1.60221 54.2539 1.68262C54.223 1.75684 54.1766 1.82487 54.1147 1.88672C54.0282 1.97331 53.9478 2.04753 53.8735 2.10938C53.7993 2.17122 53.7189 2.25781 53.6323 2.36914C53.6076 2.40007 53.5828 2.44027 53.5581 2.48975C53.5334 2.53923 53.5024 2.5887 53.4653 2.63818C53.4344 2.68148 53.3942 2.71859 53.3447 2.74951C53.2952 2.78044 53.2334 2.7959 53.1592 2.7959C53.0973 2.7959 53.0602 2.78044 53.0479 2.74951C53.0355 2.7124 53.0293 2.67529 53.0293 2.63818C53.0293 2.58252 53.0448 2.52995 53.0757 2.48047C53.1128 2.4248 53.153 2.37223 53.1963 2.32275C53.2458 2.26709 53.2983 2.21452 53.354 2.16504C53.4097 2.11556 53.4561 2.06608 53.4932 2.0166C53.5921 1.89909 53.6849 1.77848 53.7715 1.65479C53.8643 1.5249 53.957 1.41667 54.0498 1.33008C54.1178 1.26204 54.2044 1.1971 54.3096 1.13525C54.4147 1.0734 54.5137 0.999186 54.6064 0.912598C54.693 0.832194 54.7611 0.733236 54.8105 0.615723C54.8662 0.49821 54.9342 0.411621 55.0146 0.355957C55.0394 0.337402 55.0703 0.328125 55.1074 0.328125C55.1507 0.32194 55.1909 0.315755 55.228 0.30957C55.2713 0.297201 55.3115 0.281738 55.3486 0.263184C55.3857 0.238444 55.4136 0.201335 55.4321 0.151855C55.5249 0.151855 55.6053 0.176595 55.6733 0.226074C55.7414 0.269368 55.797 0.32194 55.8403 0.383789C55.8898 0.439453 55.9269 0.492025 55.9517 0.541504C55.9764 0.590983 55.9888 0.618815 55.9888 0.625C55.9888 0.693034 55.9671 0.770345 55.9238 0.856934C55.8867 0.937337 55.862 1.02702 55.8496 1.12598C55.8372 1.22493 55.828 1.33008 55.8218 1.44141C55.8156 1.54655 55.8063 1.66715 55.7939 1.80322C55.7878 1.93929 55.7723 2.09391 55.7476 2.26709C55.7228 2.43408 55.6888 2.62891 55.6455 2.85156C55.6208 2.96908 55.5806 3.0804 55.5249 3.18555C55.4754 3.29069 55.4445 3.38656 55.4321 3.47314C55.395 3.7391 55.3765 4.02669 55.3765 4.33594C55.3765 4.639 55.3486 4.92969 55.293 5.20801C55.2744 5.30078 55.2466 5.38737 55.2095 5.46777C55.1724 5.54199 55.1538 5.6224 55.1538 5.70898C55.1538 5.73372 55.1538 5.76774 55.1538 5.81104C55.16 5.84814 55.1631 5.88216 55.1631 5.91309C55.1631 5.95638 55.1507 5.9873 55.126 6.00586C55.1074 6.01823 55.0981 6.0306 55.0981 6.04297C55.0981 6.06152 55.1074 6.08008 55.126 6.09863C55.1445 6.111 55.1538 6.14193 55.1538 6.19141C55.1538 6.33366 55.1229 6.47591 55.061 6.61816C54.9992 6.75423 54.959 6.88411 54.9404 7.00781C54.8971 7.31706 54.8755 7.63249 54.8755 7.9541C54.8817 8.27572 54.86 8.58496 54.8105 8.88184C54.7982 8.94987 54.7734 9.0179 54.7363 9.08594C54.6992 9.15397 54.6776 9.22201 54.6714 9.29004C54.659 9.48177 54.6466 9.68896 54.6343 9.91162C54.6281 10.1343 54.6188 10.3446 54.6064 10.5425C54.5879 10.6724 54.5632 10.8177 54.5322 10.9785C54.5013 11.1393 54.4704 11.3063 54.4395 11.4795C54.4147 11.6465 54.39 11.8135 54.3652 11.9805C54.3467 12.1475 54.3374 12.3021 54.3374 12.4443C54.3374 12.5433 54.3436 12.6175 54.356 12.667C54.3683 12.7165 54.3838 12.7536 54.4023 12.7783C54.4271 12.7969 54.4487 12.8092 54.4673 12.8154C54.492 12.8154 54.5137 12.8154 54.5322 12.8154C54.5755 12.8154 54.6157 12.8 54.6528 12.769C54.6899 12.7381 54.724 12.701 54.7549 12.6577C54.792 12.6144 54.8229 12.5711 54.8477 12.5278C54.8786 12.4784 54.9095 12.4382 54.9404 12.4072C55.1507 12.2217 55.3084 12.0516 55.4136 11.897C55.5187 11.7362 55.6053 11.597 55.6733 11.4795C55.7414 11.362 55.8063 11.2692 55.8682 11.2012C55.93 11.1331 56.0259 11.0991 56.1558 11.0991H56.1929ZM61.7036 6.9707C61.6912 7.20573 61.6572 7.41911 61.6016 7.61084C61.5521 7.80257 61.4871 7.97884 61.4067 8.13965C61.3325 8.30046 61.249 8.44889 61.1562 8.58496C61.0635 8.72103 60.9676 8.854 60.8687 8.98389C60.8068 9.06429 60.7573 9.13542 60.7202 9.19727C60.6831 9.25293 60.646 9.30241 60.6089 9.3457C60.5718 9.389 60.5316 9.42611 60.4883 9.45703C60.445 9.48796 60.3862 9.5127 60.312 9.53125C60.2625 9.54362 60.2038 9.55908 60.1357 9.57764C60.0739 9.59001 60.0182 9.62093 59.9688 9.67041C59.9564 9.68278 59.944 9.70752 59.9316 9.74463C59.9193 9.77555 59.9069 9.7972 59.8945 9.80957C59.8451 9.84668 59.7863 9.87142 59.7183 9.88379C59.6564 9.88997 59.6007 9.91162 59.5513 9.94873C59.5018 9.99202 59.4678 10.0291 59.4492 10.0601C59.4307 10.091 59.3966 10.1219 59.3472 10.1528C59.2977 10.1838 59.2389 10.2085 59.1709 10.2271C59.109 10.2394 59.0503 10.2611 58.9946 10.292C58.9513 10.3229 58.9173 10.36 58.8926 10.4033C58.874 10.4404 58.84 10.4744 58.7905 10.5054C58.6916 10.5734 58.6081 10.626 58.54 10.6631C58.472 10.694 58.4163 10.7404 58.373 10.8022C58.3359 10.8641 58.3081 10.9538 58.2896 11.0713C58.271 11.1888 58.2617 11.3682 58.2617 11.6094C58.2617 11.7516 58.2648 11.8877 58.271 12.0176C58.2834 12.1475 58.2957 12.2433 58.3081 12.3052C58.3143 12.3237 58.3328 12.367 58.3638 12.4351C58.4009 12.4969 58.4442 12.5649 58.4937 12.6392C58.5493 12.7134 58.6112 12.7814 58.6792 12.8433C58.7472 12.8989 58.8184 12.9268 58.8926 12.9268C59.0039 12.9268 59.1029 12.8866 59.1895 12.8062C59.276 12.7196 59.3719 12.6453 59.4771 12.5835C59.5575 12.534 59.6626 12.4691 59.7925 12.3887C59.9224 12.3021 60.0275 12.2062 60.1079 12.1011C60.1326 12.064 60.1636 12.0145 60.2007 11.9526C60.2378 11.8846 60.278 11.8197 60.3213 11.7578C60.3708 11.6898 60.4233 11.6341 60.479 11.5908C60.5409 11.5413 60.6089 11.5166 60.6831 11.5166C60.714 11.5166 60.7542 11.5259 60.8037 11.5444C60.7975 11.6496 60.7635 11.7454 60.7017 11.832C60.646 11.9186 60.5811 11.999 60.5068 12.0732C60.4388 12.1413 60.377 12.2031 60.3213 12.2588C60.2656 12.3145 60.2378 12.3608 60.2378 12.3979C60.2378 12.4103 60.2378 12.4289 60.2378 12.4536C60.244 12.4722 60.2471 12.4876 60.2471 12.5C60.2471 12.5309 60.21 12.5557 60.1357 12.5742C60.0677 12.5866 60.012 12.6113 59.9688 12.6484C59.9378 12.6794 59.9131 12.7165 59.8945 12.7598C59.8822 12.7969 59.8605 12.8278 59.8296 12.8525C59.7616 12.9082 59.6904 12.9577 59.6162 13.001C59.542 13.0443 59.474 13.0907 59.4121 13.1401C59.3441 13.202 59.2729 13.2731 59.1987 13.3535C59.1307 13.4339 59.0627 13.5081 58.9946 13.5762C58.9266 13.6504 58.8586 13.7122 58.7905 13.7617C58.7287 13.8112 58.6699 13.8359 58.6143 13.8359C58.5833 13.8359 58.5493 13.8298 58.5122 13.8174C58.4813 13.8112 58.4504 13.8081 58.4194 13.8081C58.3885 13.8081 58.3638 13.8205 58.3452 13.8452C58.3267 13.87 58.3019 13.8823 58.271 13.8823C58.2153 13.8823 58.1504 13.8545 58.0762 13.7988C58.002 13.7493 57.9401 13.7122 57.8906 13.6875C57.804 13.6566 57.702 13.6349 57.5845 13.6226C57.467 13.6164 57.3835 13.5947 57.334 13.5576C57.2907 13.5205 57.2567 13.4525 57.2319 13.3535C57.2134 13.2546 57.1794 13.1587 57.1299 13.0659C57.0804 12.9793 57.0247 12.9082 56.9629 12.8525C56.901 12.7969 56.8639 12.7536 56.8516 12.7227C56.8392 12.6855 56.8299 12.6361 56.8237 12.5742C56.8237 12.5062 56.8237 12.4382 56.8237 12.3701C56.8237 12.2959 56.8206 12.2248 56.8145 12.1567C56.8083 12.0825 56.7959 12.0176 56.7773 11.9619C56.7712 11.9434 56.7588 11.9279 56.7402 11.9155C56.7217 11.897 56.7124 11.863 56.7124 11.8135C56.7124 11.8197 56.7217 11.8073 56.7402 11.7764C56.765 11.7393 56.7773 11.7083 56.7773 11.6836C56.8083 11.195 56.8516 10.7311 56.9072 10.292C56.9691 9.84668 57.0464 9.44157 57.1392 9.07666C57.2319 8.70557 57.3433 8.38395 57.4731 8.11182C57.6092 7.8335 57.77 7.61393 57.9556 7.45312C57.9865 7.42839 58.0205 7.41911 58.0576 7.42529C58.1009 7.42529 58.138 7.41292 58.1689 7.38818C58.1813 7.37581 58.1906 7.35417 58.1968 7.32324C58.2091 7.28613 58.2215 7.26139 58.2339 7.24902C58.2648 7.22428 58.2988 7.21191 58.3359 7.21191C58.3792 7.21191 58.4132 7.19954 58.438 7.1748C58.4565 7.16243 58.4813 7.1377 58.5122 7.10059C58.5431 7.06348 58.5741 7.02327 58.605 6.97998C58.6359 6.93669 58.6668 6.89648 58.6978 6.85938C58.7287 6.81608 58.7596 6.78516 58.7905 6.7666C58.8647 6.71712 58.9544 6.68311 59.0596 6.66455C59.1647 6.646 59.2606 6.60889 59.3472 6.55322C59.3719 6.54085 59.3997 6.51611 59.4307 6.479C59.4616 6.44189 59.4925 6.40479 59.5234 6.36768C59.5605 6.32438 59.5946 6.28727 59.6255 6.25635C59.6564 6.22542 59.6873 6.20996 59.7183 6.20996C59.7306 6.20996 59.7461 6.21305 59.7646 6.21924C59.7832 6.21924 59.7987 6.21924 59.811 6.21924C59.8234 6.21924 59.8698 6.18213 59.9502 6.10791C60.0368 6.03369 60.1141 5.97493 60.1821 5.93164C60.2007 5.91927 60.21 5.89762 60.21 5.8667C60.2161 5.82959 60.2285 5.80485 60.2471 5.79248C60.278 5.76774 60.3275 5.74919 60.3955 5.73682C60.4635 5.71826 60.5285 5.69043 60.5903 5.65332C60.6398 5.6224 60.6769 5.59147 60.7017 5.56055C60.7264 5.52962 60.7821 5.51416 60.8687 5.51416C61.0913 5.53271 61.2614 5.57292 61.3789 5.63477C61.4964 5.69661 61.5768 5.7863 61.6201 5.90381C61.6696 6.01514 61.6943 6.16048 61.6943 6.33984C61.7005 6.51302 61.7036 6.72331 61.7036 6.9707ZM60.3862 6.9707C60.38 6.95833 60.3553 6.93669 60.312 6.90576C60.2749 6.86865 60.2533 6.84391 60.2471 6.83154C60.2285 6.80062 60.2192 6.76969 60.2192 6.73877C60.2192 6.70166 60.2161 6.66764 60.21 6.63672C60.2038 6.60579 60.1914 6.58105 60.1729 6.5625C60.1605 6.54395 60.1326 6.53467 60.0894 6.53467C60.0522 6.53467 59.9966 6.55632 59.9224 6.59961C59.8543 6.63672 59.7801 6.68311 59.6997 6.73877C59.6255 6.79443 59.5544 6.8501 59.4863 6.90576C59.4183 6.96143 59.3719 7.00472 59.3472 7.03564C59.3162 7.07275 59.2729 7.14079 59.2173 7.23975C59.1678 7.33252 59.1152 7.42839 59.0596 7.52734C59.0101 7.6263 58.9637 7.71289 58.9204 7.78711C58.8771 7.86133 58.8524 7.89844 58.8462 7.89844C58.8462 7.91081 58.8462 7.92627 58.8462 7.94482C58.8524 7.96338 58.8555 7.97884 58.8555 7.99121C58.8555 8.02832 58.8307 8.06234 58.7812 8.09326C58.7318 8.118 58.707 8.17057 58.707 8.25098C58.707 8.2819 58.7101 8.31901 58.7163 8.3623C58.7225 8.39941 58.7256 8.43343 58.7256 8.46436C58.7256 8.51383 58.7039 8.56331 58.6606 8.61279C58.6235 8.66227 58.5988 8.71484 58.5864 8.77051C58.5308 8.96842 58.4751 9.1818 58.4194 9.41064C58.3638 9.6333 58.3359 9.85286 58.3359 10.0693C58.3359 10.1374 58.3421 10.1961 58.3545 10.2456C58.373 10.2889 58.4225 10.3105 58.5029 10.3105C58.5586 10.3105 58.5988 10.3013 58.6235 10.2827C58.6545 10.258 58.6792 10.2301 58.6978 10.1992C58.7163 10.1621 58.7318 10.1281 58.7441 10.0972C58.7565 10.0662 58.772 10.0415 58.7905 10.0229C58.8709 9.94873 58.9637 9.87142 59.0688 9.79102C59.174 9.71061 59.2791 9.62712 59.3843 9.54053C59.4956 9.44775 59.6007 9.35498 59.6997 9.26221C59.8049 9.16943 59.8945 9.07666 59.9688 8.98389C59.9873 8.95296 60.0059 8.90348 60.0244 8.83545C60.043 8.76123 60.0708 8.6932 60.1079 8.63135C60.2007 8.47054 60.2718 8.26335 60.3213 8.00977C60.377 7.75618 60.4048 7.47786 60.4048 7.1748C60.4048 7.14388 60.4017 7.10986 60.3955 7.07275C60.3955 7.03564 60.3924 7.00163 60.3862 6.9707ZM65.0713 5.96875C65.0589 6.01823 65.028 6.111 64.9785 6.24707C64.929 6.37695 64.8919 6.51302 64.8672 6.65527C64.8301 6.86556 64.8146 7.07275 64.8208 7.27686C64.827 7.48096 64.8208 7.6696 64.8022 7.84277C64.7713 8.0778 64.7249 8.30664 64.6631 8.5293C64.6074 8.75195 64.561 8.98079 64.5239 9.21582C64.4868 9.43229 64.4559 9.5931 64.4312 9.69824C64.4126 9.80339 64.394 9.89616 64.3755 9.97656C64.3631 10.057 64.3538 10.1436 64.3477 10.2363C64.3415 10.3291 64.3384 10.4652 64.3384 10.6445C64.3384 10.7126 64.3384 10.7744 64.3384 10.8301C64.3446 10.8796 64.3477 10.929 64.3477 10.9785C64.3477 11.0651 64.3291 11.1486 64.292 11.229C64.2549 11.3032 64.2363 11.3836 64.2363 11.4702C64.2363 11.5382 64.2425 11.6094 64.2549 11.6836C64.2673 11.7578 64.2734 11.832 64.2734 11.9062C64.2734 11.9743 64.2642 12.0269 64.2456 12.064C64.2332 12.1011 64.2147 12.1289 64.1899 12.1475C64.1714 12.166 64.1497 12.1815 64.125 12.1938C64.1064 12.2 64.0879 12.2155 64.0693 12.2402C64.0446 12.2835 64.0168 12.3485 63.9858 12.4351C63.9611 12.5155 63.9425 12.5649 63.9302 12.5835C63.8993 12.6206 63.856 12.6453 63.8003 12.6577C63.7446 12.6701 63.6951 12.6917 63.6519 12.7227C63.5591 12.7969 63.4539 12.902 63.3364 13.0381C63.2251 13.168 63.1138 13.3009 63.0024 13.437C62.8973 13.5669 62.7983 13.6782 62.7056 13.771C62.6128 13.87 62.5417 13.9194 62.4922 13.9194C62.4613 13.9194 62.4365 13.9132 62.418 13.9009C62.4056 13.8947 62.3994 13.87 62.3994 13.8267C62.3994 13.771 62.4149 13.7215 62.4458 13.6782C62.4767 13.6349 62.5107 13.5885 62.5479 13.5391C62.5911 13.4958 62.6313 13.4494 62.6685 13.3999C62.7118 13.3442 62.7427 13.2824 62.7612 13.2144V13.2051C62.7612 13.0814 62.7829 12.9824 62.8262 12.9082C62.8695 12.834 62.8911 12.7814 62.8911 12.7505C62.8911 12.7134 62.8787 12.6886 62.854 12.6763C62.8293 12.6639 62.8169 12.6423 62.8169 12.6113C62.8169 12.5866 62.8231 12.5526 62.8354 12.5093C62.854 12.4598 62.8726 12.4072 62.8911 12.3516C62.9097 12.2959 62.9251 12.2402 62.9375 12.1846C62.9561 12.1289 62.9653 12.0856 62.9653 12.0547C62.9653 11.9805 62.9561 11.9186 62.9375 11.8691C62.9251 11.8135 62.9189 11.7547 62.9189 11.6929C62.9189 11.6063 62.9468 11.5259 63.0024 11.4517C63.0643 11.3774 63.0952 11.3156 63.0952 11.2661C63.089 11.2414 63.0859 11.2166 63.0859 11.1919C63.0859 11.1672 63.0859 11.1393 63.0859 11.1084C63.0859 10.9538 63.1014 10.8022 63.1323 10.6538C63.1694 10.5054 63.2096 10.3662 63.2529 10.2363C63.2962 10.1064 63.3333 9.98893 63.3643 9.88379C63.4014 9.77865 63.4199 9.69515 63.4199 9.6333C63.4199 9.60238 63.4168 9.58073 63.4106 9.56836V9.53125C63.4106 9.46322 63.3983 9.39518 63.3735 9.32715C63.355 9.25911 63.3457 9.19108 63.3457 9.12305C63.3457 9.0612 63.3643 8.99316 63.4014 8.91895C63.4447 8.83854 63.4725 8.75505 63.4849 8.66846C63.5096 8.5262 63.522 8.35921 63.522 8.16748C63.522 7.96956 63.5312 7.7902 63.5498 7.62939C63.5622 7.49951 63.59 7.37891 63.6333 7.26758C63.6766 7.15625 63.6982 7.09131 63.6982 7.07275C63.6673 7.01709 63.6302 6.96761 63.5869 6.92432C63.5436 6.87484 63.5065 6.8501 63.4756 6.8501C63.4261 6.8501 63.3797 6.86865 63.3364 6.90576C63.2931 6.94287 63.2498 6.98926 63.2065 7.04492C63.1694 7.0944 63.1323 7.15007 63.0952 7.21191C63.0581 7.26758 63.0241 7.31396 62.9932 7.35107C62.9437 7.41292 62.8664 7.49333 62.7612 7.59229C62.6623 7.69124 62.5788 7.77474 62.5107 7.84277C62.4674 7.89225 62.4334 7.9541 62.4087 8.02832C62.384 8.09635 62.3283 8.13037 62.2417 8.13037C62.217 8.13037 62.1953 8.12728 62.1768 8.12109C62.1644 8.10872 62.1582 8.08089 62.1582 8.0376C62.1582 7.98193 62.1706 7.92936 62.1953 7.87988C62.2262 7.82422 62.2603 7.77165 62.2974 7.72217C62.3345 7.6665 62.3716 7.61702 62.4087 7.57373C62.452 7.52425 62.486 7.47477 62.5107 7.42529C62.5602 7.32633 62.6406 7.20573 62.752 7.06348C62.8633 6.91504 62.9932 6.75732 63.1416 6.59033C63.2962 6.42334 63.4663 6.25326 63.6519 6.08008C63.8436 5.90072 64.0415 5.72445 64.2456 5.55127C64.3075 5.50179 64.3507 5.46159 64.3755 5.43066C64.4064 5.39974 64.4312 5.37809 64.4497 5.36572C64.4683 5.34717 64.4868 5.33789 64.5054 5.33789C64.5239 5.33171 64.5549 5.32861 64.5981 5.32861C64.8022 5.32861 64.9383 5.36263 65.0063 5.43066C65.0744 5.49251 65.1084 5.58529 65.1084 5.70898C65.1084 5.74609 65.1053 5.7863 65.0991 5.82959C65.0929 5.87288 65.0837 5.91927 65.0713 5.96875ZM68.606 6.09863C68.5998 6.13574 68.5812 6.1543 68.5503 6.1543H68.5225C68.4854 6.1543 68.4668 6.17285 68.4668 6.20996C68.4668 6.22852 68.4668 6.24707 68.4668 6.26562C68.473 6.27799 68.4761 6.29036 68.4761 6.30273C68.4761 6.33366 68.4482 6.39551 68.3926 6.48828C68.3369 6.58105 68.2565 6.69238 68.1514 6.82227C68.0524 6.94596 67.9287 7.07585 67.7803 7.21191C67.638 7.3418 67.4772 7.45622 67.2979 7.55518C67.1989 7.61084 67.0876 7.67578 66.9639 7.75C66.8402 7.81803 66.701 7.85205 66.5464 7.85205C66.534 7.85205 66.5186 7.85205 66.5 7.85205C66.4876 7.84587 66.4753 7.84277 66.4629 7.84277C66.4567 7.84277 66.4289 7.83968 66.3794 7.8335C66.3299 7.82731 66.2743 7.82113 66.2124 7.81494C66.1567 7.80876 66.098 7.80257 66.0361 7.79639C65.9743 7.7902 65.931 7.78092 65.9062 7.76855C65.8506 7.75 65.7887 7.68815 65.7207 7.58301C65.6527 7.47168 65.5754 7.37272 65.4888 7.28613C65.4455 7.24284 65.3991 7.20573 65.3496 7.1748C65.3001 7.1377 65.2537 7.10059 65.2104 7.06348C65.1733 7.02637 65.1393 6.98926 65.1084 6.95215C65.0837 6.90885 65.0713 6.86247 65.0713 6.81299C65.0898 6.81299 65.1393 6.76351 65.2197 6.66455C65.3063 6.55941 65.3991 6.44808 65.498 6.33057C65.6032 6.20687 65.7021 6.09245 65.7949 5.9873C65.8877 5.88216 65.9495 5.82959 65.9805 5.82959C66.0052 5.82959 66.0269 5.81104 66.0454 5.77393C66.0701 5.73682 66.0918 5.69661 66.1104 5.65332C66.1289 5.60384 66.1506 5.55745 66.1753 5.51416C66.2 5.46468 66.2279 5.43066 66.2588 5.41211C66.3392 5.41829 66.3949 5.4585 66.4258 5.53271C66.4567 5.60693 66.4784 5.69661 66.4907 5.80176C66.5031 5.9069 66.5124 6.02441 66.5186 6.1543C66.5309 6.27799 66.5557 6.39242 66.5928 6.49756C66.6299 6.6027 66.6917 6.69238 66.7783 6.7666C66.8649 6.83464 66.9917 6.86865 67.1587 6.86865C67.1958 6.86865 67.2298 6.86556 67.2607 6.85938C67.2979 6.85319 67.335 6.84082 67.3721 6.82227C67.4092 6.80371 67.4525 6.77588 67.502 6.73877C67.5576 6.70166 67.6257 6.65218 67.7061 6.59033C67.7803 6.53467 67.8452 6.46973 67.9009 6.39551C67.9627 6.3151 68.0215 6.23779 68.0771 6.16357C68.139 6.08317 68.207 6.01204 68.2812 5.9502C68.3555 5.88835 68.4421 5.84814 68.541 5.82959C68.5534 5.85433 68.5688 5.88525 68.5874 5.92236C68.606 5.95329 68.6152 5.9904 68.6152 6.03369C68.6152 6.04606 68.6121 6.05843 68.606 6.0708C68.606 6.07699 68.606 6.08626 68.606 6.09863Z" fill="#A72450"/>
</svg>
