<svg width="130" height="25" viewBox="0 0 130 25" fill="none" xmlns="http://www.w3.org/2000/svg">
<path d="M5.90984 24.2116C4.48984 24.2116 3.33984 23.8516 2.45984 23.1316C1.59984 22.4316 0.969844 21.5216 0.569844 20.4016C0.189844 19.2816 -0.000156198 18.1116 -0.000156198 16.8916C-0.000156198 15.3116 0.239844 13.7216 0.719844 12.1216C1.19984 10.5216 1.84984 9.00156 2.66984 7.56156C3.50984 6.10156 4.45984 4.81156 5.51984 3.69156C6.57984 2.55156 7.68984 1.66156 8.84984 1.02156C10.0298 0.361561 11.1898 0.0315613 12.3298 0.0315613C13.1498 0.0315613 13.8098 0.231561 14.3098 0.631561C14.8298 1.01156 15.0898 1.67156 15.0898 2.61156C15.0898 3.19156 14.9898 3.85156 14.7898 4.59156C14.5898 5.31156 14.3198 6.01156 13.9798 6.69156C13.6398 7.35156 13.2598 7.90156 12.8398 8.34156C12.4398 8.78156 12.0298 9.00156 11.6098 9.00156C11.4498 9.00156 11.2798 8.95156 11.0998 8.85156C10.9398 8.75156 10.7998 8.57156 10.6798 8.31156C10.9798 7.97156 11.3098 7.55156 11.6698 7.05156C12.0498 6.53156 12.4098 5.99156 12.7498 5.43156C13.0898 4.85156 13.3598 4.29156 13.5598 3.75156C13.7798 3.19156 13.8898 2.70156 13.8898 2.28156C13.8898 1.88156 13.7698 1.56156 13.5298 1.32156C13.3098 1.06156 12.9398 0.931562 12.4198 0.931562C11.5598 0.931562 10.6598 1.28156 9.71984 1.98156C8.79984 2.68156 7.89984 3.62156 7.01984 4.80156C6.15984 5.96156 5.37984 7.26156 4.67984 8.70156C3.97984 10.1416 3.41984 11.6116 2.99984 13.1116C2.59984 14.6116 2.39984 16.0416 2.39984 17.4016C2.39984 18.3816 2.53984 19.3216 2.81984 20.2216C3.09984 21.1016 3.54984 21.8116 4.16984 22.3516C4.80984 22.9116 5.62984 23.1916 6.62984 23.1916C7.68984 23.1916 8.73984 22.8916 9.77984 22.2916C10.8398 21.6916 11.8098 20.9016 12.6898 19.9216C13.5698 18.9416 14.2698 17.8816 14.7898 16.7416L15.2098 17.0416C14.5498 18.3416 13.7498 19.5416 12.8098 20.6416C11.8698 21.7216 10.8198 22.5816 9.65984 23.2216C8.49984 23.8816 7.24984 24.2116 5.90984 24.2116ZM15.6041 23.0116C14.9841 23.0116 14.4641 22.8016 14.0441 22.3816C13.6041 21.9816 13.3841 21.3616 13.3841 20.5216C13.3841 19.8016 13.5441 19.0316 13.8641 18.2116C14.1841 17.3716 14.6241 16.5516 15.1841 15.7516C15.7441 14.9316 16.3741 14.1916 17.0741 13.5316C17.7941 12.8516 18.5441 12.3116 19.3241 11.9116C20.1241 11.5116 20.9141 11.3116 21.6941 11.3116C22.4741 11.3116 23.1241 11.5216 23.6441 11.9416C24.1641 12.3416 24.4241 12.8816 24.4241 13.5616C24.4241 14.0616 24.2841 14.4016 24.0041 14.5816C23.7441 14.7616 23.3941 14.8516 22.9541 14.8516C22.9941 14.6916 23.0241 14.5216 23.0441 14.3416C23.0841 14.1416 23.1041 13.9616 23.1041 13.8016C23.1041 13.3416 22.9941 12.9516 22.7741 12.6316C22.5541 12.2916 22.1741 12.1216 21.6341 12.1216C21.0741 12.1216 20.5041 12.3216 19.9241 12.7216C19.3441 13.1016 18.7841 13.6216 18.2441 14.2816C17.7041 14.9216 17.2241 15.6216 16.8041 16.3816C16.3841 17.1416 16.0541 17.8916 15.8141 18.6316C15.5741 19.3716 15.4541 20.0316 15.4541 20.6116C15.4541 21.3916 15.7241 21.7816 16.2641 21.7816C16.7241 21.7816 17.2241 21.5716 17.7641 21.1516C18.3041 20.7116 18.8541 20.1616 19.4141 19.5016C19.9941 18.8216 20.5441 18.1216 21.0641 17.4016C21.5841 16.6816 22.0441 16.0216 22.4441 15.4216C22.5241 15.3016 22.5741 15.2416 22.5941 15.2416C22.7141 15.2616 22.8641 15.3016 23.0441 15.3616C23.2441 15.4216 23.4141 15.5016 23.5541 15.6016C23.6941 15.7016 23.7641 15.8316 23.7641 15.9916C23.7641 16.1716 23.6741 16.4216 23.4941 16.7416C23.3141 17.0416 23.1141 17.3916 22.8941 17.7916C22.6741 18.1916 22.4741 18.6016 22.2941 19.0216C22.1141 19.4216 22.0241 19.8016 22.0241 20.1616C22.0241 20.4616 22.1041 20.7616 22.2641 21.0616C22.4241 21.3416 22.6841 21.4816 23.0441 21.4816C23.5841 21.4816 24.2941 21.0916 25.1741 20.3116C26.0541 19.5116 26.9441 18.3216 27.8441 16.7416L28.1441 17.0416C27.7241 18.1216 27.1841 19.0716 26.5241 19.8916C25.8641 20.7116 25.1541 21.3516 24.3941 21.8116C23.6541 22.2716 22.9241 22.5016 22.2041 22.5016C21.4641 22.5016 20.9141 22.2816 20.5541 21.8416C20.2141 21.4016 20.0441 20.9216 20.0441 20.4016C20.0441 20.2816 20.0541 20.1516 20.0741 20.0116C20.0941 19.8516 20.1141 19.6916 20.1341 19.5316C19.2741 20.6916 18.4841 21.5616 17.7641 22.1416C17.0641 22.7216 16.3441 23.0116 15.6041 23.0116ZM36.1405 22.7416C35.5805 22.7416 35.1005 22.5516 34.7005 22.1716C34.3005 21.7916 33.9805 21.3116 33.7405 20.7316C33.5205 20.1516 33.3505 19.5616 33.2305 18.9616C33.1305 18.3416 33.0805 17.8016 33.0805 17.3416C33.3005 17.3416 33.6205 17.2916 34.0405 17.1916C34.4605 17.0716 34.8905 16.9016 35.3305 16.6816C35.7705 16.4416 36.1405 16.1416 36.4405 15.7816C36.7605 15.4016 36.9205 14.9616 36.9205 14.4616C36.9205 14.0416 36.7705 13.7116 36.4705 13.4716C36.1705 13.2316 35.8205 13.1116 35.4205 13.1116C34.8005 13.1116 34.2205 13.3316 33.6805 13.7716C33.1405 14.1916 32.6505 14.7516 32.2105 15.4516C31.7905 16.1316 31.4105 16.8616 31.0705 17.6416C30.7305 18.4216 30.4405 19.1616 30.2005 19.8616C29.9605 20.5616 29.7605 21.1416 29.6005 21.6016C29.4805 21.9616 29.3105 22.2016 29.0905 22.3216C28.8705 22.4616 28.6405 22.5316 28.4005 22.5316C28.0605 22.5316 27.8105 22.3916 27.6505 22.1116C27.5105 21.8316 27.4205 21.4816 27.3805 21.0616C27.3605 20.6216 27.3505 20.1716 27.3505 19.7116C27.3505 18.6716 27.5205 17.4716 27.8605 16.1116C28.2005 14.7516 28.6505 13.3416 29.2105 11.8816C29.7905 10.4016 30.4205 8.97156 31.1005 7.59156C31.7805 6.21156 32.4605 4.96156 33.1405 3.84156C33.8205 2.72156 34.4505 1.83156 35.0305 1.17156C35.6105 0.511561 36.0805 0.181561 36.4405 0.181561C36.7205 0.181561 36.9405 0.371561 37.1005 0.751561C37.2805 1.13156 37.3705 1.59156 37.3705 2.13156C37.3705 2.81156 37.2205 3.58156 36.9205 4.44156C36.6205 5.28156 36.1905 6.13156 35.6305 6.99156C35.0905 7.85156 34.4405 8.66156 33.6805 9.42156C32.9405 10.1816 32.1305 10.8316 31.2505 11.3716C30.5905 12.9916 30.0905 14.5716 29.7505 16.1116C29.4305 17.6316 29.2705 18.9116 29.2705 19.9516C29.5905 19.1516 29.9705 18.2716 30.4105 17.3116C30.8705 16.3516 31.3905 15.4316 31.9705 14.5516C32.5505 13.6716 33.1805 12.9516 33.8605 12.3916C34.5405 11.8316 35.2505 11.5516 35.9905 11.5516C36.7305 11.5516 37.3605 11.8116 37.8805 12.3316C38.4005 12.8516 38.6605 13.4816 38.6605 14.2216C38.6605 14.8616 38.4905 15.4116 38.1505 15.8716C37.8305 16.3116 37.4305 16.6716 36.9505 16.9516C36.4905 17.2116 36.0205 17.4116 35.5405 17.5516C35.0805 17.6716 34.7005 17.7316 34.4005 17.7316C34.4205 17.8916 34.4805 18.1816 34.5805 18.6016C34.6805 19.0216 34.8205 19.4616 35.0005 19.9216C35.2005 20.3816 35.4405 20.7816 35.7205 21.1216C36.0005 21.4416 36.3405 21.6016 36.7405 21.6016C37.3205 21.6016 37.8705 21.3816 38.3905 20.9416C38.9105 20.5016 39.4005 19.9216 39.8605 19.2016C40.3405 18.4616 40.7805 17.6316 41.1805 16.7116L41.4805 17.0116C41.2005 17.9916 40.7705 18.9216 40.1905 19.8016C39.6105 20.6616 38.9605 21.3616 38.2405 21.9016C37.5405 22.4616 36.8405 22.7416 36.1405 22.7416ZM31.7605 10.1716C32.6805 9.43156 33.4805 8.59156 34.1605 7.65156C34.8605 6.71156 35.4005 5.81156 35.7805 4.95156C36.1605 4.07156 36.3505 3.38156 36.3505 2.88156C36.3505 2.78156 36.3405 2.71156 36.3205 2.67156C36.3205 2.63156 36.3005 2.61156 36.2605 2.61156C36.0605 2.61156 35.7105 2.96156 35.2105 3.66156C34.7305 4.36156 34.1805 5.29156 33.5605 6.45156C32.9405 7.59156 32.3405 8.83156 31.7605 10.1716ZM43.8591 22.9216C42.6391 22.9216 41.7191 22.5816 41.0991 21.9016C40.4991 21.2416 40.1991 20.4216 40.1991 19.4416C40.1991 18.5416 40.4191 17.5916 40.8591 16.5916C41.3191 15.5916 41.9191 14.6516 42.6591 13.7716C43.4191 12.8916 44.2491 12.1816 45.1491 11.6416C46.0491 11.0816 46.9391 10.8016 47.8191 10.8016C48.2791 10.8016 48.6991 10.9216 49.0791 11.1616C49.4791 11.4016 49.6791 11.8916 49.6791 12.6316C49.6791 13.3916 49.4491 14.1116 48.9891 14.7916C48.5491 15.4516 47.9591 16.0416 47.2191 16.5616C46.4991 17.0816 45.6991 17.5116 44.8191 17.8516C43.9591 18.1716 43.0991 18.3716 42.2391 18.4516C42.1991 18.6516 42.1691 18.8416 42.1491 19.0216C42.1291 19.2016 42.1191 19.3716 42.1191 19.5316C42.1191 19.8316 42.1491 20.1316 42.2091 20.4316C42.2891 20.7316 42.4191 21.0116 42.5991 21.2716C42.7791 21.5116 43.0191 21.7016 43.3191 21.8416C43.6391 21.9816 44.0291 22.0516 44.4891 22.0516C45.3491 22.0516 46.1991 21.8116 47.0391 21.3316C47.8791 20.8316 48.6591 20.1816 49.3791 19.3816C50.0991 18.5816 50.7091 17.7016 51.2091 16.7416L51.5691 17.0116C51.0291 18.2116 50.3391 19.2516 49.4991 20.1316C48.6791 21.0116 47.7791 21.6916 46.7991 22.1716C45.8391 22.6716 44.8591 22.9216 43.8591 22.9216ZM42.3891 17.8816C42.9291 17.7016 43.5391 17.4416 44.2191 17.1016C44.8991 16.7416 45.5491 16.3216 46.1691 15.8416C46.8091 15.3616 47.3291 14.8316 47.7291 14.2516C48.1491 13.6716 48.3591 13.0616 48.3591 12.4216C48.3591 12.2016 48.3191 12.0316 48.2391 11.9116C48.1591 11.7916 47.9891 11.7316 47.7291 11.7316C47.2491 11.7316 46.7391 11.9216 46.1991 12.3016C45.6591 12.6616 45.1391 13.1416 44.6391 13.7416C44.1391 14.3416 43.6891 15.0016 43.2891 15.7216C42.8891 16.4416 42.5891 17.1616 42.3891 17.8816ZM64.4923 24.2116C63.4123 24.2116 62.3923 24.0116 61.4323 23.6116C60.4723 23.2316 59.6923 22.6416 59.0923 21.8416C58.5123 21.0416 58.2223 20.0416 58.2223 18.8416C58.2223 17.8016 58.4223 16.9916 58.8223 16.4116C59.2423 15.8316 59.7523 15.4216 60.3523 15.1816C60.9523 14.9416 61.5223 14.8216 62.0623 14.8216C61.5223 15.4016 61.1123 16.0416 60.8323 16.7416C60.5523 17.4416 60.4123 18.1416 60.4123 18.8416C60.4123 19.5816 60.5723 20.2716 60.8923 20.9116C61.2323 21.5516 61.7423 22.0616 62.4223 22.4416C63.1023 22.8416 63.9623 23.0416 65.0023 23.0416C65.9023 23.0416 66.7823 22.8716 67.6423 22.5316C68.5023 22.2116 69.2023 21.7316 69.7423 21.0916C70.3023 20.4316 70.5823 19.6216 70.5823 18.6616C70.5823 17.8016 70.3623 17.0616 69.9223 16.4416C69.4823 15.8216 68.9123 15.2716 68.2123 14.7916C67.5323 14.3116 66.8023 13.8516 66.0223 13.4116C65.2423 12.9716 64.5023 12.5116 63.8023 12.0316C63.1223 11.5316 62.5623 10.9616 62.1223 10.3216C61.6823 9.68156 61.4623 8.91156 61.4623 8.01156C61.4623 7.17156 61.6623 6.29156 62.0623 5.37156C62.4623 4.45156 63.0323 3.58156 63.7723 2.76156C64.5323 1.94156 65.4323 1.28156 66.4723 0.781562C67.5323 0.261562 68.7123 0.00156164 70.0123 0.00156164C71.1923 0.00156164 72.0123 0.291561 72.4723 0.871561C72.9323 1.43156 73.1623 2.14156 73.1623 3.00156C73.1623 3.72156 73.0323 4.50156 72.7723 5.34156C72.5323 6.16156 72.2323 6.95156 71.8723 7.71156C71.5123 8.45156 71.1723 9.08156 70.8523 9.60156C70.4923 9.52156 70.2323 9.37156 70.0723 9.15156C69.9323 8.91156 69.8623 8.63156 69.8623 8.31156C69.8623 7.89156 69.9523 7.41156 70.1323 6.87156C70.3123 6.33156 70.5123 5.77156 70.7323 5.19156C70.9723 4.61156 71.1823 4.05156 71.3623 3.51156C71.5423 2.95156 71.6323 2.45156 71.6323 2.01156C71.6323 1.61156 71.5123 1.30156 71.2723 1.08156C71.0323 0.841562 70.5923 0.721561 69.9523 0.721561C69.0123 0.721561 68.1423 0.941561 67.3423 1.38156C66.5423 1.82156 65.8423 2.39156 65.2423 3.09156C64.6423 3.77156 64.1723 4.49156 63.8323 5.25156C63.5123 6.01156 63.3523 6.70156 63.3523 7.32156C63.3523 8.06156 63.5623 8.70156 63.9823 9.24156C64.4223 9.76156 64.9823 10.2416 65.6623 10.6816C66.3423 11.1016 67.0623 11.5316 67.8223 11.9716C68.6023 12.3916 69.3323 12.8616 70.0123 13.3816C70.6923 13.9016 71.2423 14.5216 71.6623 15.2416C72.1023 15.9416 72.3223 16.8016 72.3223 17.8216C72.3223 18.8616 72.0923 19.7816 71.6323 20.5816C71.1723 21.3616 70.5523 22.0216 69.7723 22.5616C69.0123 23.1016 68.1723 23.5116 67.2523 23.7916C66.3323 24.0716 65.4123 24.2116 64.4923 24.2116ZM77.0363 22.9816C76.1763 22.9816 75.5163 22.7316 75.0563 22.2316C74.5963 21.7316 74.3663 20.9916 74.3663 20.0116C74.3663 19.1316 74.5263 18.0516 74.8463 16.7716C75.1863 15.4716 75.6063 14.1416 76.1063 12.7816C75.9063 12.7416 75.7163 12.7116 75.5363 12.6916C75.3563 12.6516 75.1863 12.6016 75.0263 12.5416V12.0016C75.1863 12.0216 75.3763 12.0416 75.5963 12.0616C75.8163 12.0816 76.0663 12.1016 76.3463 12.1216C76.7663 11.0416 77.2163 10.0016 77.6963 9.00156C78.1763 7.98156 78.6463 7.08156 79.1063 6.30156C79.5863 5.50156 80.0363 4.87156 80.4563 4.41156C80.8963 3.93156 81.2663 3.69156 81.5663 3.69156C81.7263 3.69156 81.8663 3.75156 81.9863 3.87156C82.1263 3.97156 82.1963 4.13156 82.1963 4.35156C82.1963 4.69156 81.9863 5.25156 81.5663 6.03156C81.1463 6.79156 80.6263 7.70156 80.0063 8.76156C79.3863 9.82156 78.7863 10.9716 78.2063 12.2116C78.3863 12.2116 78.5663 12.2116 78.7463 12.2116C78.9463 12.2116 79.1363 12.2116 79.3163 12.2116C79.9763 12.2116 80.6663 12.2016 81.3863 12.1816C82.1263 12.1616 82.8663 12.1116 83.6063 12.0316V12.5716C82.5063 12.6916 81.5163 12.7816 80.6363 12.8416C79.7763 12.9016 79.0063 12.9316 78.3263 12.9316C78.2463 12.9316 78.1663 12.9316 78.0863 12.9316C78.0263 12.9316 77.9563 12.9316 77.8763 12.9316C77.4163 13.9916 77.0263 15.0816 76.7063 16.2016C76.3863 17.3216 76.2263 18.4116 76.2263 19.4716C76.2263 20.3316 76.3563 20.9516 76.6163 21.3316C76.8763 21.6916 77.3063 21.8716 77.9063 21.8716C78.9463 21.8716 79.9663 21.4116 80.9663 20.4916C81.9663 19.5716 82.8463 18.3216 83.6063 16.7416L83.9963 17.0416C83.5163 18.1616 82.9063 19.1716 82.1663 20.0716C81.4463 20.9716 80.6463 21.6816 79.7663 22.2016C78.8863 22.7216 77.9763 22.9816 77.0363 22.9816ZM85.291 22.5016C84.611 22.5016 84.061 22.2016 83.641 21.6016C83.241 20.9816 83.041 20.2716 83.041 19.4716C83.041 18.8916 83.131 18.2216 83.311 17.4616C83.511 16.7016 83.751 15.9516 84.031 15.2116C84.311 14.4716 84.601 13.8616 84.901 13.3816C85.201 12.9016 85.461 12.6616 85.681 12.6616C85.781 12.6616 85.951 12.7216 86.191 12.8416C86.431 12.9416 86.631 13.0816 86.791 13.2616C86.571 13.6016 86.301 14.1216 85.981 14.8216C85.661 15.5216 85.381 16.2716 85.141 17.0716C84.901 17.8716 84.781 18.6116 84.781 19.2916C84.781 19.4516 84.801 19.7016 84.841 20.0416C84.881 20.3616 84.981 20.6516 85.141 20.9116C85.301 21.1716 85.541 21.3016 85.861 21.3016C86.241 21.3016 86.631 21.1116 87.031 20.7316C87.431 20.3316 87.831 19.8216 88.231 19.2016C88.651 18.5816 89.051 17.9116 89.431 17.1916C89.811 16.4716 90.161 15.7816 90.481 15.1216C90.821 14.4616 91.101 13.9116 91.321 13.4716C91.441 13.4916 91.611 13.5316 91.831 13.5916C92.071 13.6516 92.281 13.7316 92.461 13.8316C92.661 13.9316 92.761 14.0716 92.761 14.2516C92.761 14.3316 92.661 14.6016 92.461 15.0616C92.261 15.5016 92.021 16.0516 91.741 16.7116C91.481 17.3516 91.251 18.0016 91.051 18.6616C90.851 19.3216 90.751 19.9016 90.751 20.4016C90.751 20.7616 90.821 21.0516 90.961 21.2716C91.121 21.4916 91.381 21.6016 91.741 21.6016C92.161 21.6016 92.671 21.4116 93.271 21.0316C93.871 20.6516 94.481 20.1016 95.101 19.3816C95.721 18.6416 96.271 17.7616 96.751 16.7416L97.141 17.0116C96.721 18.0916 96.171 19.0516 95.491 19.8916C94.811 20.7116 94.091 21.3516 93.331 21.8116C92.571 22.2716 91.831 22.5016 91.111 22.5016C90.591 22.5016 90.171 22.4016 89.851 22.2016C89.551 22.0016 89.331 21.7316 89.191 21.3916C89.071 21.0516 89.011 20.6816 89.011 20.2816C89.011 20.0416 89.031 19.8016 89.071 19.5616C89.111 19.3016 89.161 19.0416 89.221 18.7816C88.861 19.4416 88.471 20.0616 88.051 20.6416C87.631 21.2016 87.191 21.6516 86.731 21.9916C86.271 22.3316 85.791 22.5016 85.291 22.5016ZM97.9653 22.5016C97.6253 22.5016 97.2753 22.4116 96.9153 22.2316C96.5753 22.0716 96.2953 21.8016 96.0753 21.4216C95.8353 21.0416 95.7153 20.5616 95.7153 19.9816C95.7153 19.3216 95.8753 18.5816 96.1953 17.7616C96.5153 16.9416 96.9453 16.1316 97.4853 15.3316C98.0253 14.5116 98.6453 13.7616 99.3453 13.0816C100.045 12.3816 100.775 11.8316 101.535 11.4316C102.295 11.0116 103.045 10.8016 103.785 10.8016C104.205 10.8016 104.525 10.8816 104.745 11.0416C104.985 11.1816 105.105 11.4116 105.105 11.7316C105.105 11.8116 105.095 11.8816 105.075 11.9416C105.075 12.0016 105.065 12.0716 105.045 12.1516C104.945 11.9916 104.795 11.8816 104.595 11.8216C104.415 11.7416 104.185 11.7016 103.905 11.7016C103.265 11.7016 102.635 11.9016 102.015 12.3016C101.415 12.6816 100.855 13.1916 100.335 13.8316C99.8353 14.4516 99.3953 15.1216 99.0153 15.8416C98.6353 16.5616 98.3353 17.2616 98.1153 17.9416C97.9153 18.6016 97.8153 19.1616 97.8153 19.6216C97.8153 20.0616 97.9153 20.4116 98.1153 20.6716C98.3153 20.9316 98.5753 21.0616 98.8953 21.0616C99.4353 21.0616 100.085 20.7216 100.845 20.0416C101.625 19.3616 102.415 18.4016 103.215 17.1616C104.015 15.9216 104.735 14.4716 105.375 12.8116C105.815 11.6516 106.265 10.4716 106.725 9.27156C107.205 8.07156 107.685 6.92156 108.165 5.82156C108.645 4.70156 109.105 3.71156 109.545 2.85156C110.005 1.97156 110.435 1.28156 110.835 0.781562C111.255 0.261562 111.625 0.00156164 111.945 0.00156164C112.105 0.00156164 112.245 0.0715613 112.365 0.211561C112.485 0.331562 112.545 0.491562 112.545 0.691562C112.545 1.01156 112.375 1.56156 112.035 2.34156C111.715 3.10156 111.285 4.02156 110.745 5.10156C110.225 6.16156 109.675 7.32156 109.095 8.58156C108.515 9.84156 107.955 11.1216 107.415 12.4216C106.895 13.7216 106.465 14.9816 106.125 16.2016C105.805 17.4016 105.645 18.5016 105.645 19.5016C105.645 20.0616 105.675 20.4816 105.735 20.7616C105.795 21.0416 105.995 21.1816 106.335 21.1816C106.755 21.1816 107.245 21.0016 107.805 20.6416C108.365 20.2816 108.925 19.7716 109.485 19.1116C110.045 18.4516 110.535 17.6616 110.955 16.7416L111.315 17.0116C110.935 18.0316 110.415 18.9516 109.755 19.7716C109.095 20.5716 108.385 21.2016 107.625 21.6616C106.885 22.1416 106.175 22.3816 105.495 22.3816C104.755 22.3816 104.235 22.1316 103.935 21.6316C103.655 21.1516 103.515 20.6516 103.515 20.1316C103.515 19.7916 103.565 19.3416 103.665 18.7816C103.765 18.2216 103.905 17.6016 104.085 16.9216C103.445 17.9816 102.765 18.9416 102.045 19.8016C101.325 20.6416 100.615 21.3016 99.9153 21.7816C99.2353 22.2616 98.5853 22.5016 97.9653 22.5016ZM112.535 22.3816C111.755 22.3816 111.175 22.1316 110.795 21.6316C110.415 21.1516 110.225 20.5616 110.225 19.8616C110.225 19.4016 110.305 18.8216 110.465 18.1216C110.645 17.4216 110.875 16.6916 111.155 15.9316C111.435 15.1516 111.755 14.4216 112.115 13.7416C112.495 13.0616 112.895 12.5116 113.315 12.0916C113.735 11.6516 114.145 11.4316 114.545 11.4316C114.725 11.4316 114.875 11.4916 114.995 11.6116C115.135 11.7116 115.205 11.8716 115.205 12.0916C115.205 12.3316 115.045 12.7216 114.725 13.2616C114.425 13.8016 114.065 14.4216 113.645 15.1216C113.225 15.8216 112.855 16.5616 112.535 17.3416C112.235 18.1016 112.085 18.8316 112.085 19.5316C112.085 20.2516 112.205 20.7316 112.445 20.9716C112.685 21.2116 113.055 21.3316 113.555 21.3316C114.235 21.3316 114.955 20.9916 115.715 20.3116C116.495 19.6316 117.315 18.4416 118.175 16.7416L118.445 17.0416C117.865 18.7616 117.025 20.0816 115.925 21.0016C114.845 21.9216 113.715 22.3816 112.535 22.3816ZM116.135 8.64156C115.815 8.64156 115.525 8.56156 115.265 8.40156C115.025 8.24156 114.905 7.99156 114.905 7.65156C114.905 7.23156 115.145 6.87156 115.625 6.57156C116.125 6.25156 116.615 6.09156 117.095 6.09156C117.395 6.09156 117.635 6.16156 117.815 6.30156C117.995 6.44156 118.085 6.68156 118.085 7.02156C118.085 7.40156 117.875 7.77156 117.455 8.13156C117.055 8.47156 116.615 8.64156 116.135 8.64156ZM119.681 22.5616C118.821 22.5616 118.211 22.2916 117.851 21.7516C117.491 21.2316 117.311 20.5916 117.311 19.8316C117.311 19.2116 117.411 18.5716 117.611 17.9116C117.811 17.2516 118.071 16.6316 118.391 16.0516C118.731 15.4716 119.101 15.0016 119.501 14.6416C119.921 14.2816 120.341 14.1016 120.761 14.1016C120.861 14.1016 120.961 14.1216 121.061 14.1616C121.181 14.1816 121.291 14.2116 121.391 14.2516C121.211 14.4116 120.991 14.7116 120.731 15.1516C120.491 15.5716 120.261 16.0616 120.041 16.6216C119.821 17.1616 119.631 17.7016 119.471 18.2416C119.331 18.7816 119.261 19.2416 119.261 19.6216C119.261 20.2216 119.361 20.6616 119.561 20.9416C119.761 21.2016 120.021 21.3316 120.341 21.3316C120.761 21.3316 121.261 21.1116 121.841 20.6716C122.421 20.2116 122.991 19.6316 123.551 18.9316C122.991 18.4716 122.551 17.8716 122.231 17.1316C121.931 16.3716 121.781 15.6016 121.781 14.8216C121.781 14.1616 121.891 13.5416 122.111 12.9616C122.351 12.3816 122.691 11.9216 123.131 11.5816C123.571 11.2216 124.101 11.0416 124.721 11.0416C125.541 11.0416 126.091 11.2616 126.371 11.7016C126.651 12.1416 126.791 12.6916 126.791 13.3516C126.791 14.1316 126.601 15.0016 126.221 15.9616C125.841 16.9016 125.361 17.8116 124.781 18.6916C125.141 18.8916 125.521 18.9916 125.921 18.9916C126.241 18.9916 126.601 18.9316 127.001 18.8116C127.401 18.6716 127.791 18.4416 128.171 18.1216C128.571 17.8016 128.891 17.3716 129.131 16.8316L129.491 17.1316C129.091 18.0716 128.521 18.7416 127.781 19.1416C127.061 19.5216 126.371 19.7116 125.711 19.7116C125.451 19.7116 125.201 19.6916 124.961 19.6516C124.721 19.5916 124.491 19.5116 124.271 19.4116C123.591 20.3116 122.841 21.0616 122.021 21.6616C121.221 22.2616 120.441 22.5616 119.681 22.5616ZM124.091 18.1516C124.591 17.4116 125.001 16.6416 125.321 15.8416C125.661 15.0216 125.831 14.2516 125.831 13.5316C125.831 12.9516 125.741 12.5316 125.561 12.2716C125.401 11.9916 125.191 11.8516 124.931 11.8516C124.531 11.8516 124.121 12.1416 123.701 12.7216C123.281 13.3016 123.071 14.0316 123.071 14.9116C123.071 15.4916 123.151 16.0816 123.311 16.6816C123.491 17.2616 123.751 17.7516 124.091 18.1516Z" fill="#B5036E"/>
</svg>
