<svg width="121" height="22" viewBox="0 0 121 22" fill="none" xmlns="http://www.w3.org/2000/svg">
<path d="M5.88623 21.7865C4.51823 21.7865 3.39323 21.4625 2.51123 20.8145C1.64723 20.1665 1.00823 19.3295 0.594231 18.3035C0.198231 17.2775 0.00023051 16.2155 0.00023051 15.1175C0.00023051 13.6955 0.216231 12.2735 0.648231 10.8515C1.08023 9.4115 1.67423 8.0435 2.43023 6.7475C3.20423 5.4515 4.07723 4.2995 5.04923 3.2915C6.02123 2.2835 7.05623 1.4915 8.15423 0.915499C9.27023 0.321499 10.3772 0.0244989 11.4752 0.0244989C12.2672 0.0244989 12.9332 0.213499 13.4732 0.5915C14.0132 0.951499 14.2832 1.5815 14.2832 2.4815C14.2832 3.0215 14.1842 3.6245 13.9862 4.2905C13.8062 4.9565 13.5542 5.6045 13.2302 6.2345C12.9242 6.8465 12.5732 7.3505 12.1772 7.7465C11.7812 8.1425 11.3762 8.3405 10.9622 8.3405C10.7822 8.3405 10.5932 8.2775 10.3952 8.1515C10.1972 8.0255 10.0172 7.8095 9.85523 7.5035C10.1252 7.1975 10.4312 6.8285 10.7732 6.3965C11.1152 5.9465 11.4392 5.4785 11.7452 4.9925C12.0512 4.4885 12.3032 4.0025 12.5012 3.5345C12.6992 3.0485 12.7982 2.6255 12.7982 2.2655C12.7982 1.9415 12.7082 1.6895 12.5282 1.5095C12.3482 1.3115 12.0332 1.2125 11.5832 1.2125C10.7912 1.2125 9.97223 1.5095 9.12623 2.1035C8.29823 2.6975 7.49723 3.4985 6.72323 4.5065C5.94923 5.4965 5.24723 6.6125 4.61723 7.8545C4.00523 9.0785 3.51923 10.3475 3.15923 11.6615C2.79923 12.9575 2.61923 14.1905 2.61923 15.3605C2.61923 16.2245 2.74523 17.0525 2.99723 17.8445C3.26723 18.6185 3.69023 19.2485 4.26623 19.7345C4.84223 20.2385 5.59823 20.4905 6.53423 20.4905C7.50623 20.4905 8.46923 20.2205 9.42323 19.6805C10.3952 19.1405 11.2772 18.4295 12.0692 17.5475C12.8792 16.6655 13.5272 15.7205 14.0132 14.7125L14.7152 15.1715C14.0852 16.3775 13.3292 17.4845 12.4472 18.4925C11.5652 19.4825 10.5662 20.2745 9.45023 20.8685C8.35223 21.4805 7.16423 21.7865 5.88623 21.7865ZM14.8865 20.7065C14.2925 20.7065 13.7795 20.5085 13.3475 20.1125C12.8975 19.7165 12.6725 19.1225 12.6725 18.3305C12.6725 17.7005 12.8165 17.0165 13.1045 16.2785C13.3925 15.5405 13.7885 14.8115 14.2925 14.0915C14.7965 13.3715 15.3725 12.7235 16.0205 12.1475C16.6685 11.5535 17.3615 11.0765 18.0995 10.7165C18.8375 10.3565 19.5755 10.1765 20.3135 10.1765C21.0875 10.1765 21.7445 10.3745 22.2845 10.7705C22.8245 11.1665 23.0945 11.6885 23.0945 12.3365C23.0945 12.8225 22.9235 13.1735 22.5815 13.3895C22.2395 13.6055 21.8345 13.6685 21.3665 13.5785C21.4025 13.4165 21.4295 13.2545 21.4475 13.0925C21.4835 12.9305 21.5015 12.7595 21.5015 12.5795C21.5015 12.2195 21.4295 11.8955 21.2855 11.6075C21.1415 11.3195 20.8355 11.1755 20.3675 11.1755C19.8635 11.1755 19.3505 11.3465 18.8285 11.6885C18.3065 12.0305 17.8025 12.4805 17.3165 13.0385C16.8485 13.5785 16.4255 14.1815 16.0475 14.8475C15.6695 15.4955 15.3725 16.1345 15.1565 16.7645C14.9405 17.3945 14.8325 17.9615 14.8325 18.4655C14.8325 19.0415 15.0395 19.3295 15.4535 19.3295C15.8675 19.3295 16.3265 19.1315 16.8305 18.7355C17.3345 18.3215 17.8385 17.8085 18.3425 17.1965C18.8645 16.5845 19.3595 15.9635 19.8275 15.3335C20.2955 14.6855 20.7005 14.1365 21.0425 13.6865C21.0965 13.5965 21.1685 13.5515 21.2585 13.5515C21.3305 13.5695 21.4655 13.6145 21.6635 13.6865C21.8795 13.7405 22.0775 13.8305 22.2575 13.9565C22.4375 14.0825 22.5275 14.2445 22.5275 14.4425C22.5275 14.6225 22.4465 14.8565 22.2845 15.1445C22.1405 15.4145 21.9605 15.7205 21.7445 16.0625C21.5465 16.3865 21.3665 16.7195 21.2045 17.0615C21.0605 17.3855 20.9885 17.7005 20.9885 18.0065C20.9885 18.2405 21.0515 18.4655 21.1775 18.6815C21.3035 18.8795 21.5105 18.9785 21.7985 18.9785C22.2305 18.9785 22.8335 18.6635 23.6075 18.0335C24.3995 17.3855 25.2005 16.2965 26.0105 14.7665L26.5235 15.2795C26.0915 16.2515 25.5695 17.1155 24.9575 17.8715C24.3635 18.6095 23.7335 19.1855 23.0675 19.5995C22.4015 20.0315 21.7265 20.2475 21.0425 20.2475C20.3045 20.2475 19.7555 20.0135 19.3955 19.5455C19.0355 19.0775 18.8375 18.5735 18.8015 18.0335C18.8015 17.9975 18.8015 17.9705 18.8015 17.9525C18.8015 17.9345 18.8015 17.9165 18.8015 17.8985C18.0815 18.7625 17.4155 19.4465 16.8035 19.9505C16.2095 20.4545 15.5705 20.7065 14.8865 20.7065ZM33.9306 20.4635C33.3726 20.4635 32.8866 20.2835 32.4726 19.9235C32.0586 19.5635 31.7256 19.1135 31.4736 18.5735C31.2216 18.0335 31.0326 17.4845 30.9066 16.9265C30.7806 16.3505 30.7176 15.8555 30.7176 15.4415C30.9696 15.3875 31.2846 15.3065 31.6626 15.1985C32.0406 15.0905 32.4276 14.9465 32.8236 14.7665C33.2196 14.5685 33.5436 14.3345 33.7956 14.0645C34.0656 13.7765 34.2006 13.4345 34.2006 13.0385C34.2006 12.7145 34.0926 12.4535 33.8766 12.2555C33.6786 12.0575 33.3906 11.9585 33.0126 11.9585C32.5086 11.9585 32.0316 12.1295 31.5816 12.4715C31.1316 12.7955 30.7086 13.2275 30.3126 13.7675C29.9346 14.3075 29.5836 14.8925 29.2596 15.5225C28.9536 16.1525 28.6746 16.7645 28.4226 17.3585C28.1886 17.9525 27.9906 18.4655 27.8286 18.8975C27.6306 19.4375 27.4416 19.7975 27.2616 19.9775C27.0816 20.1755 26.8206 20.2745 26.4786 20.2745C26.3526 20.2745 26.1996 20.2385 26.0196 20.1665C25.8576 20.0945 25.7136 19.9145 25.5876 19.6265C25.4796 19.3385 25.4256 18.8795 25.4256 18.2495C25.4256 17.1515 25.5786 15.9455 25.8846 14.6315C26.1906 13.3175 26.5956 11.9855 27.0996 10.6355C27.6216 9.2675 28.1886 7.9625 28.8006 6.7205C29.4126 5.4785 30.0336 4.3625 30.6636 3.3725C31.2936 2.3825 31.8786 1.5995 32.4186 1.0235C32.9766 0.447499 33.4356 0.159499 33.7956 0.159499C34.1016 0.159499 34.3536 0.348499 34.5516 0.726499C34.7676 1.0865 34.8756 1.5545 34.8756 2.1305C34.8756 2.7425 34.7406 3.4265 34.4706 4.1825C34.2006 4.9205 33.8136 5.6765 33.3096 6.4505C32.8236 7.2065 32.2386 7.9265 31.5546 8.6105C30.8706 9.2945 30.1146 9.8795 29.2866 10.3655C28.7826 11.5355 28.3956 12.6965 28.1256 13.8485C27.8556 14.9825 27.6846 15.9905 27.6126 16.8725C27.9366 16.1345 28.3056 15.3785 28.7196 14.6045C29.1336 13.8305 29.5926 13.1105 30.0966 12.4445C30.6006 11.7605 31.1406 11.2115 31.7166 10.7975C32.3106 10.3835 32.9406 10.1765 33.6066 10.1765C34.3266 10.1765 34.9566 10.4285 35.4966 10.9325C36.0366 11.4365 36.3066 12.0665 36.3066 12.8225C36.3066 13.3625 36.1626 13.8305 35.8746 14.2265C35.5866 14.6225 35.2266 14.9555 34.7946 15.2255C34.3806 15.4775 33.9576 15.6665 33.5256 15.7925C33.0936 15.9185 32.7246 15.9905 32.4186 16.0085C32.4726 16.2425 32.5446 16.5395 32.6346 16.8995C32.7426 17.2595 32.8776 17.6105 33.0396 17.9525C33.2016 18.2945 33.4086 18.5825 33.6606 18.8165C33.9126 19.0505 34.2096 19.1675 34.5516 19.1675C35.0016 19.1675 35.4606 18.9605 35.9286 18.5465C36.4146 18.1325 36.8826 17.5835 37.3326 16.8995C37.8006 16.2155 38.2146 15.4595 38.5746 14.6315L38.9526 15.0905C38.6466 15.9905 38.2236 16.8545 37.6836 17.6825C37.1616 18.5105 36.5766 19.1765 35.9286 19.6805C35.2806 20.2025 34.6146 20.4635 33.9306 20.4635ZM30.0696 8.5295C30.5556 8.0975 31.0686 7.5665 31.6086 6.9365C32.1486 6.2885 32.6076 5.6045 32.9856 4.8845C33.3816 4.1465 33.5886 3.4445 33.6066 2.7785C33.6066 2.7605 33.6066 2.7515 33.6066 2.7515C33.6066 2.7335 33.6066 2.7155 33.6066 2.6975C33.4266 2.7695 33.1386 3.0845 32.7426 3.6425C32.3646 4.1825 31.9416 4.8755 31.4736 5.7215C31.0056 6.5675 30.5376 7.5035 30.0696 8.5295ZM40.9753 20.6255C39.8233 20.6255 38.9323 20.3105 38.3023 19.6805C37.6903 19.0685 37.3843 18.2945 37.3843 17.3585C37.3843 16.5665 37.5823 15.7295 37.9783 14.8475C38.3923 13.9475 38.9413 13.1105 39.6253 12.3365C40.3093 11.5445 41.0653 10.9055 41.8933 10.4195C42.7213 9.9335 43.5493 9.6905 44.3773 9.6905C44.8453 9.6905 45.2863 9.8165 45.7003 10.0685C46.1323 10.3025 46.3483 10.7795 46.3483 11.4995C46.3483 12.1835 46.1503 12.8225 45.7543 13.4165C45.3583 14.0105 44.8273 14.5415 44.1613 15.0095C43.4953 15.4775 42.7573 15.8645 41.9473 16.1705C41.1553 16.4585 40.3543 16.6475 39.5443 16.7375C39.5263 16.8095 39.5083 16.8905 39.4903 16.9805C39.4903 17.0525 39.4903 17.1785 39.4903 17.3585C39.4903 17.4485 39.4993 17.6105 39.5173 17.8445C39.5533 18.0605 39.6343 18.2945 39.7603 18.5465C39.8863 18.7985 40.0933 19.0145 40.3813 19.1945C40.6693 19.3745 41.0653 19.4645 41.5693 19.4645C42.3253 19.4645 43.0813 19.2575 43.8373 18.8435C44.6113 18.4115 45.3313 17.8445 45.9973 17.1425C46.6813 16.4405 47.2483 15.6575 47.6983 14.7935L48.2383 15.2255C47.7523 16.3055 47.1223 17.2505 46.3483 18.0605C45.5923 18.8705 44.7463 19.5005 43.8103 19.9505C42.8923 20.4005 41.9473 20.6255 40.9753 20.6255ZM39.8413 15.7385C40.3093 15.6845 40.8313 15.5225 41.4073 15.2525C41.9833 14.9825 42.5323 14.6405 43.0543 14.2265C43.5943 13.8125 44.0353 13.3625 44.3773 12.8765C44.7193 12.3725 44.8903 11.8685 44.8903 11.3645C44.8903 11.1665 44.8543 11.0315 44.7823 10.9595C44.7103 10.8875 44.5933 10.8515 44.4313 10.8515C44.0173 10.8515 43.5853 11.0045 43.1353 11.3105C42.6853 11.5985 42.2443 11.9855 41.8123 12.4715C41.3803 12.9395 40.9933 13.4615 40.6513 14.0375C40.3093 14.6135 40.0393 15.1805 39.8413 15.7385ZM60.3501 21.7865C59.3061 21.7865 58.3071 21.6065 57.3531 21.2465C56.4171 20.8865 55.6521 20.3375 55.0581 19.5995C54.4641 18.8615 54.1671 17.9435 54.1671 16.8455C54.1671 15.8735 54.3831 15.1175 54.8151 14.5775C55.2471 14.0195 55.7871 13.6325 56.4351 13.4165C57.0831 13.2005 57.7131 13.0925 58.3251 13.0925C57.7491 13.7045 57.3081 14.3345 57.0021 14.9825C56.7141 15.6305 56.5701 16.2515 56.5701 16.8455C56.5701 17.4575 56.7231 18.0335 57.0291 18.5735C57.3531 19.0955 57.8301 19.5185 58.4601 19.8425C59.0901 20.1845 59.8731 20.3555 60.8091 20.3555C61.6191 20.3555 62.4021 20.2205 63.1581 19.9505C63.9321 19.6805 64.5621 19.2755 65.0481 18.7355C65.5521 18.1955 65.8041 17.5205 65.8041 16.7105C65.8041 15.9725 65.5881 15.3425 65.1561 14.8205C64.7421 14.2805 64.2021 13.8035 63.5361 13.3895C62.8701 12.9575 62.1681 12.5525 61.4301 12.1745C60.6921 11.7785 59.9901 11.3555 59.3241 10.9055C58.6581 10.4555 58.1091 9.9335 57.6771 9.3395C57.2631 8.7455 57.0561 8.0345 57.0561 7.2065C57.0561 6.4685 57.2361 5.6855 57.5961 4.8575C57.9741 4.0115 58.5051 3.2195 59.1891 2.4815C59.8731 1.7435 60.7011 1.1495 61.6731 0.6995C62.6451 0.231499 63.7251 -0.00250077 64.9131 -0.00250077C66.1551 -0.00250077 67.0281 0.258499 67.5321 0.780499C68.0361 1.3025 68.2881 1.9865 68.2881 2.8325C68.2881 3.4985 68.1711 4.2095 67.9371 4.9655C67.7031 5.7215 67.4151 6.4415 67.0731 7.1255C66.7491 7.8095 66.4341 8.3945 66.1281 8.8805C65.7321 8.7905 65.4351 8.6375 65.2371 8.4215C65.0391 8.1875 64.9401 7.8815 64.9401 7.5035C64.9401 7.1255 65.0121 6.7025 65.1561 6.2345C65.3181 5.7665 65.4981 5.2805 65.6961 4.7765C65.9121 4.2725 66.0921 3.7865 66.2361 3.3185C66.3981 2.8325 66.4791 2.4095 66.4791 2.0495C66.4791 1.7255 66.3801 1.4735 66.1821 1.2935C66.0021 1.1135 65.6241 1.0235 65.0481 1.0235C64.1841 1.0235 63.3921 1.2125 62.6721 1.5905C61.9521 1.9685 61.3221 2.4455 60.7821 3.0215C60.2601 3.5975 59.8551 4.2095 59.5671 4.8575C59.2791 5.4875 59.1351 6.0635 59.1351 6.5855C59.1351 7.2335 59.3421 7.7915 59.7561 8.2595C60.1701 8.7095 60.7011 9.1235 61.3491 9.5015C62.0151 9.8795 62.7081 10.2575 63.4281 10.6355C64.1661 11.0135 64.8591 11.4365 65.5071 11.9045C66.1731 12.3725 66.7131 12.9305 67.1271 13.5785C67.5411 14.2265 67.7481 15.0185 67.7481 15.9545C67.7481 16.8905 67.5321 17.7185 67.1001 18.4385C66.6861 19.1585 66.1191 19.7615 65.3991 20.2475C64.6791 20.7515 63.8781 21.1295 62.9961 21.3815C62.1321 21.6515 61.2501 21.7865 60.3501 21.7865ZM71.8354 20.6795C71.0434 20.6795 70.4044 20.4455 69.9184 19.9775C69.4324 19.5095 69.1894 18.7985 69.1894 17.8445C69.1894 17.1065 69.3244 16.1885 69.5944 15.0905C69.8824 13.9925 70.2424 12.8585 70.6744 11.6885C70.5484 11.6525 70.3954 11.6255 70.2154 11.6075C70.0534 11.5715 69.8914 11.5175 69.7294 11.4455V10.6085C70.0174 10.6445 70.2514 10.6715 70.4314 10.6895C70.6294 10.7075 70.8274 10.7255 71.0254 10.7435C71.4034 9.7895 71.8084 8.8715 72.2404 7.9895C72.6904 7.0895 73.1314 6.2885 73.5634 5.5865C74.0134 4.8845 74.4364 4.3355 74.8324 3.9395C75.2284 3.5255 75.5794 3.3185 75.8854 3.3185C76.0654 3.3185 76.2364 3.3905 76.3984 3.5345C76.5604 3.6605 76.6414 3.8495 76.6414 4.1015C76.6414 4.4615 76.4524 4.9745 76.0744 5.6405C75.7144 6.3065 75.2644 7.0895 74.7244 7.9895C74.1844 8.8715 73.6624 9.8165 73.1584 10.8245C73.3024 10.8245 73.4464 10.8245 73.5904 10.8245C73.7344 10.8245 73.8694 10.8245 73.9954 10.8245C74.7874 10.8245 75.4984 10.8155 76.1284 10.7975C76.7764 10.7615 77.4334 10.7075 78.0994 10.6355V11.5265C77.1094 11.6165 76.2004 11.6885 75.3724 11.7425C74.5444 11.7965 73.7524 11.8325 72.9964 11.8505C72.9424 11.8505 72.8884 11.8505 72.8344 11.8505C72.7804 11.8505 72.7264 11.8505 72.6724 11.8505C72.2944 12.7325 71.9614 13.6415 71.6734 14.5775C71.4034 15.4955 71.2684 16.3955 71.2684 17.2775C71.2684 18.0155 71.3854 18.5375 71.6194 18.8435C71.8534 19.1495 72.2224 19.3025 72.7264 19.3025C73.6264 19.3025 74.5444 18.8975 75.4804 18.0875C76.4344 17.2595 77.2624 16.1435 77.9644 14.7395L78.3424 15.0095C77.8744 16.0715 77.2894 17.0345 76.5874 17.8985C75.9034 18.7625 75.1564 19.4375 74.3464 19.9235C73.5364 20.4275 72.6994 20.6795 71.8354 20.6795ZM79.2087 20.2475C78.5967 20.2475 78.0927 19.9685 77.6967 19.4105C77.3187 18.8345 77.1297 18.1775 77.1297 17.4395C77.1297 16.9355 77.2107 16.3415 77.3727 15.6575C77.5347 14.9735 77.7417 14.3075 77.9937 13.6595C78.2637 13.0115 78.5337 12.4715 78.8037 12.0395C79.0917 11.6075 79.3527 11.3915 79.5867 11.3915C79.7127 11.3915 79.9017 11.4635 80.1537 11.6075C80.4237 11.7335 80.6577 11.8955 80.8557 12.0935C80.6577 12.3815 80.4147 12.8225 80.1267 13.4165C79.8567 14.0105 79.6137 14.6495 79.3977 15.3335C79.1817 16.0175 79.0737 16.6385 79.0737 17.1965C79.0737 17.2685 79.0827 17.4395 79.1007 17.7095C79.1367 17.9795 79.2087 18.2315 79.3167 18.4655C79.4247 18.6995 79.6137 18.8165 79.8837 18.8165C80.1897 18.8165 80.5137 18.6545 80.8557 18.3305C81.2157 17.9885 81.5757 17.5565 81.9357 17.0345C82.3137 16.4945 82.6737 15.9185 83.0157 15.3065C83.3757 14.6945 83.6907 14.1005 83.9607 13.5245C84.2487 12.9485 84.4827 12.4625 84.6627 12.0665C84.8247 12.0845 85.0317 12.1295 85.2837 12.2015C85.5537 12.2735 85.7877 12.3725 85.9857 12.4985C86.1837 12.6065 86.2827 12.7685 86.2827 12.9845C86.2827 13.0385 86.1927 13.2635 86.0127 13.6595C85.8507 14.0375 85.6527 14.4965 85.4187 15.0365C85.2027 15.5765 85.0047 16.1345 84.8247 16.7105C84.6627 17.2685 84.5817 17.7635 84.5817 18.1955C84.5817 18.4475 84.6267 18.6725 84.7167 18.8705C84.8247 19.0505 85.0227 19.1405 85.3107 19.1405C85.6887 19.1405 86.1387 18.9695 86.6607 18.6275C87.1827 18.2855 87.7227 17.7905 88.2807 17.1425C88.8387 16.4945 89.3337 15.7205 89.7657 14.8205L90.1707 15.1445C89.7747 16.1165 89.2617 16.9895 88.6317 17.7635C88.0017 18.5375 87.3267 19.1405 86.6067 19.5725C85.8867 20.0225 85.1847 20.2475 84.5007 20.2475C83.9787 20.2475 83.5827 20.1215 83.3127 19.8695C83.0607 19.6355 82.8897 19.3295 82.7997 18.9515C82.7097 18.5555 82.6557 18.1595 82.6377 17.7635C82.6377 17.6735 82.6377 17.5835 82.6377 17.4935C82.6377 17.3855 82.6377 17.2955 82.6377 17.2235C82.3317 17.7095 81.9987 18.1865 81.6387 18.6545C81.2787 19.1045 80.8917 19.4825 80.4777 19.7885C80.0817 20.0945 79.6587 20.2475 79.2087 20.2475ZM90.9377 20.2475C90.5957 20.2475 90.2447 20.1575 89.8847 19.9775C89.5427 19.8155 89.2547 19.5545 89.0207 19.1945C88.7687 18.8345 88.6427 18.3755 88.6427 17.8175C88.6427 17.2235 88.7867 16.5575 89.0747 15.8195C89.3627 15.0815 89.7497 14.3435 90.2357 13.6055C90.7397 12.8675 91.3157 12.1925 91.9637 11.5805C92.6297 10.9685 93.3317 10.4735 94.0697 10.0955C94.8077 9.7175 95.5547 9.5285 96.3107 9.5285C96.7247 9.5285 97.0487 9.6005 97.2827 9.7445C97.5167 9.8705 97.6337 10.0865 97.6337 10.3925C97.6337 10.4825 97.6157 10.5905 97.5797 10.7165C97.5437 10.8245 97.4537 10.9235 97.3097 11.0135C97.2377 10.9055 97.1117 10.8335 96.9317 10.7975C96.7517 10.7435 96.5627 10.7165 96.3647 10.7165C95.7707 10.7165 95.2037 10.8875 94.6637 11.2295C94.1237 11.5535 93.6287 11.9765 93.1787 12.4985C92.7287 13.0205 92.3327 13.5875 91.9907 14.1995C91.6667 14.8115 91.4147 15.4055 91.2347 15.9815C91.0547 16.5395 90.9647 17.0255 90.9647 17.4395C90.9647 17.7815 91.0367 18.0605 91.1807 18.2765C91.3247 18.4745 91.5407 18.5735 91.8287 18.5735C92.3147 18.5735 92.8907 18.2945 93.5567 17.7365C94.2407 17.1605 94.9337 16.3415 95.6357 15.2795C96.3557 14.1995 97.0037 12.9125 97.5797 11.4185C97.9757 10.3925 98.3897 9.3485 98.8217 8.2865C99.2537 7.2065 99.6857 6.1715 100.118 5.1815C100.55 4.1915 100.973 3.3095 101.387 2.5355C101.819 1.7615 102.224 1.1495 102.602 0.6995C102.998 0.231499 103.358 -0.00250077 103.682 -0.00250077C103.88 -0.00250077 104.051 0.0784993 104.195 0.240499C104.357 0.3845 104.438 0.573499 104.438 0.807498C104.438 1.1135 104.285 1.6085 103.979 2.2925C103.691 2.9585 103.313 3.7595 102.845 4.6955C102.395 5.6315 101.9 6.6485 101.36 7.7465C100.838 8.8265 100.343 9.9425 99.8747 11.0945C99.4247 12.2285 99.0467 13.3535 98.7407 14.4695C98.4527 15.5675 98.3087 16.6025 98.3087 17.5745C98.3087 18.0065 98.3447 18.3035 98.4167 18.4655C98.5067 18.6095 98.6507 18.6815 98.8487 18.6815C99.2447 18.6815 99.6857 18.5285 100.172 18.2225C100.658 17.9165 101.153 17.4665 101.657 16.8725C102.161 16.2605 102.62 15.5315 103.034 14.6855L103.547 15.1175C103.151 16.1075 102.647 16.9805 102.035 17.7365C101.423 18.4925 100.766 19.0775 100.064 19.4915C99.3617 19.9235 98.6687 20.1395 97.9847 20.1395C97.2467 20.1395 96.7337 19.9055 96.4457 19.4375C96.1577 18.9695 96.0137 18.4205 96.0137 17.7905C96.0137 17.5025 96.0317 17.2145 96.0677 16.9265C96.1217 16.6205 96.1757 16.3235 96.2297 16.0355C95.6717 16.8455 95.0777 17.5745 94.4477 18.2225C93.8357 18.8525 93.2327 19.3475 92.6387 19.7075C92.0447 20.0675 91.4777 20.2475 90.9377 20.2475ZM104.497 20.2475C103.705 20.2475 103.111 20.0135 102.715 19.5455C102.319 19.0775 102.121 18.5105 102.121 17.8445C102.121 17.4305 102.193 16.9085 102.337 16.2785C102.481 15.6485 102.679 14.9915 102.931 14.3075C103.201 13.6055 103.507 12.9485 103.849 12.3365C104.191 11.7245 104.56 11.2295 104.956 10.8515C105.352 10.4555 105.748 10.2575 106.144 10.2575C106.36 10.2575 106.549 10.3295 106.711 10.4735C106.873 10.5995 106.954 10.7885 106.954 11.0405C106.954 11.2745 106.81 11.6255 106.522 12.0935C106.252 12.5615 105.928 13.1015 105.55 13.7135C105.19 14.3255 104.866 14.9645 104.578 15.6305C104.308 16.2785 104.173 16.8995 104.173 17.4935C104.173 18.0695 104.272 18.4565 104.47 18.6545C104.686 18.8345 104.992 18.9245 105.388 18.9245C106 18.9245 106.666 18.6185 107.386 18.0065C108.106 17.3945 108.853 16.3235 109.627 14.7935L110.032 15.2255C109.402 16.8095 108.601 18.0425 107.629 18.9245C106.657 19.8065 105.613 20.2475 104.497 20.2475ZM107.683 8.0705C107.341 8.0705 107.026 7.9895 106.738 7.8275C106.468 7.6475 106.333 7.3775 106.333 7.0175C106.333 6.5855 106.567 6.2165 107.035 5.9105C107.503 5.6045 107.989 5.4515 108.493 5.4515C108.817 5.4515 109.087 5.5235 109.303 5.6675C109.537 5.8115 109.654 6.0725 109.654 6.4505C109.654 6.8285 109.447 7.1975 109.033 7.5575C108.619 7.8995 108.169 8.0705 107.683 8.0705ZM110.711 20.3015C109.901 20.3015 109.343 20.0315 109.037 19.4915C108.749 18.9695 108.605 18.3935 108.605 17.7635C108.605 17.1875 108.695 16.6025 108.875 16.0085C109.055 15.3965 109.298 14.8295 109.604 14.3075C109.928 13.7855 110.279 13.3715 110.657 13.0655C111.053 12.7415 111.449 12.5795 111.845 12.5795C111.971 12.5795 112.115 12.6065 112.277 12.6605C112.457 12.6965 112.583 12.7595 112.655 12.8495C112.439 13.1195 112.214 13.4525 111.98 13.8485C111.764 14.2445 111.557 14.6675 111.359 15.1175C111.179 15.5495 111.035 15.9905 110.927 16.4405C110.819 16.8905 110.765 17.3045 110.765 17.6825C110.765 18.0425 110.828 18.3395 110.954 18.5735C111.098 18.8075 111.341 18.9245 111.683 18.9245C112.025 18.9245 112.43 18.7355 112.898 18.3575C113.384 17.9615 113.843 17.5115 114.275 17.0075C113.699 16.4855 113.285 15.9185 113.033 15.3065C112.781 14.6765 112.655 13.9205 112.655 13.0385C112.655 12.6605 112.745 12.2285 112.925 11.7425C113.123 11.2565 113.429 10.8335 113.843 10.4735C114.275 10.1135 114.851 9.9335 115.571 9.9335C116.345 9.9335 116.885 10.1495 117.191 10.5815C117.515 11.0135 117.677 11.5265 117.677 12.1205C117.677 12.7865 117.497 13.5335 117.137 14.3615C116.795 15.1895 116.381 15.9725 115.895 16.7105C116.111 16.8185 116.363 16.8725 116.651 16.8725C116.921 16.8725 117.245 16.8095 117.623 16.6835C118.001 16.5575 118.37 16.3505 118.73 16.0625C119.09 15.7565 119.378 15.3515 119.594 14.8475L120.08 15.1985C119.684 16.1165 119.153 16.7915 118.487 17.2235C117.839 17.6375 117.2 17.8445 116.57 17.8445C116.336 17.8445 116.102 17.8265 115.868 17.7905C115.634 17.7365 115.418 17.6735 115.22 17.6015C114.608 18.3215 113.906 18.9515 113.114 19.4915C112.322 20.0315 111.521 20.3015 110.711 20.3015ZM114.977 16.1435C115.409 15.5135 115.778 14.8385 116.084 14.1185C116.39 13.3985 116.543 12.7325 116.543 12.1205C116.543 11.7065 116.48 11.4095 116.354 11.2295C116.228 11.0315 116.039 10.9325 115.787 10.9325C115.445 10.9325 115.094 11.1755 114.734 11.6615C114.374 12.1475 114.194 12.7595 114.194 13.4975C114.194 13.8755 114.257 14.3345 114.383 14.8745C114.527 15.4145 114.725 15.8375 114.977 16.1435Z" fill="white"/>
</svg>
