<svg width="85" height="14" viewBox="0 0 85 14" fill="none" xmlns="http://www.w3.org/2000/svg">
<path d="M8.71143 8.52002C8.71143 8.75505 8.69287 9.00244 8.65576 9.26221C8.62484 9.52197 8.57845 9.77555 8.5166 10.0229C8.45475 10.2703 8.38053 10.5054 8.29395 10.728C8.21354 10.9445 8.12386 11.1331 8.0249 11.2939C8.01253 11.3125 7.99707 11.3187 7.97852 11.3125C7.96615 11.3001 7.95996 11.3156 7.95996 11.3589C7.94141 11.4207 7.91667 11.4671 7.88574 11.498C7.861 11.5228 7.83317 11.5413 7.80225 11.5537C7.77132 11.5661 7.7373 11.5785 7.7002 11.5908C7.66309 11.597 7.63216 11.6125 7.60742 11.6372C7.5765 11.6619 7.53011 11.7176 7.46826 11.8042C7.40641 11.8846 7.33838 11.9712 7.26416 12.064C7.18994 12.1506 7.11882 12.231 7.05078 12.3052C6.98275 12.3732 6.93018 12.4072 6.89307 12.4072C6.8807 12.4072 6.86523 12.4041 6.84668 12.3979C6.82812 12.3918 6.81266 12.3887 6.80029 12.3887C6.78174 12.3887 6.77246 12.3918 6.77246 12.3979C6.7168 12.466 6.63021 12.5371 6.5127 12.6113C6.40137 12.6855 6.28385 12.7567 6.16016 12.8247C6.03646 12.8866 5.92204 12.9422 5.81689 12.9917C5.71175 13.0412 5.63753 13.0752 5.59424 13.0938C5.51383 13.137 5.43343 13.1711 5.35303 13.1958C5.27262 13.2144 5.17057 13.2484 5.04688 13.2979C5.01595 13.3102 4.97575 13.335 4.92627 13.3721C4.88298 13.4092 4.85514 13.4308 4.84277 13.437C4.60156 13.4989 4.28613 13.5298 3.89648 13.5298C3.50684 13.536 3.08008 13.5514 2.61621 13.5762C2.52962 13.5824 2.43685 13.5947 2.33789 13.6133C2.23893 13.6318 2.14616 13.6411 2.05957 13.6411C1.95443 13.6411 1.85547 13.6349 1.7627 13.6226C1.66992 13.6164 1.57096 13.6133 1.46582 13.6133C1.37305 13.6133 1.271 13.6257 1.15967 13.6504C1.04834 13.6813 0.958659 13.703 0.890625 13.7153C0.847331 13.7153 0.813314 13.703 0.788574 13.6782C0.77002 13.6535 0.75765 13.6411 0.751465 13.6411C0.695801 13.6411 0.624674 13.6442 0.538086 13.6504C0.457682 13.6628 0.374186 13.6689 0.287598 13.6689C0.207194 13.6689 0.13916 13.6628 0.0834961 13.6504C0.027832 13.638 0 13.6102 0 13.5669C0 13.505 0.0556641 13.4308 0.166992 13.3442C0.27832 13.2576 0.380371 13.1494 0.473145 13.0195C0.528809 12.9329 0.572103 12.8742 0.603027 12.8433C0.633952 12.8123 0.661784 12.7938 0.686523 12.7876C0.717448 12.7814 0.748372 12.7814 0.779297 12.7876C0.810221 12.7876 0.847331 12.7721 0.890625 12.7412C0.933919 12.7227 0.971029 12.6825 1.00195 12.6206C1.03906 12.5588 1.09473 12.5093 1.16895 12.4722C1.19987 12.4536 1.23698 12.4443 1.28027 12.4443C1.32975 12.4443 1.36068 12.4289 1.37305 12.3979C1.38542 12.3794 1.39779 12.333 1.41016 12.2588C1.42871 12.1784 1.44417 12.0918 1.45654 11.999C1.46891 11.9001 1.47819 11.8042 1.48438 11.7114C1.49674 11.6187 1.50602 11.5475 1.51221 11.498C1.53695 11.3311 1.5555 11.1826 1.56787 11.0527C1.58643 10.9167 1.60189 10.7868 1.61426 10.6631C1.63281 10.5394 1.64827 10.4126 1.66064 10.2827C1.6792 10.1466 1.70085 9.99821 1.72559 9.8374C1.73177 9.79411 1.73796 9.73535 1.74414 9.66113C1.75033 9.58691 1.75651 9.50651 1.7627 9.41992C1.77507 9.33333 1.78743 9.24984 1.7998 9.16943C1.81836 9.08285 1.83691 9.00553 1.85547 8.9375C1.91732 8.75195 1.96061 8.5262 1.98535 8.26025C2.01009 7.9943 2.02865 7.72526 2.04102 7.45312C2.05339 7.18099 2.06266 6.92432 2.06885 6.68311C2.08122 6.43571 2.10286 6.24089 2.13379 6.09863C2.15234 6.01204 2.18018 5.92546 2.21729 5.83887C2.26058 5.75228 2.28223 5.66569 2.28223 5.5791C2.28223 5.52962 2.27913 5.48324 2.27295 5.43994C2.26676 5.39665 2.26367 5.35026 2.26367 5.30078C2.26367 5.26367 2.27295 5.20801 2.2915 5.13379C2.31006 5.05339 2.32861 4.96989 2.34717 4.8833C2.36572 4.79671 2.38428 4.71012 2.40283 4.62354C2.42139 4.53695 2.43066 4.46273 2.43066 4.40088C2.43066 4.30192 2.39046 4.23698 2.31006 4.20605C2.23584 4.17513 2.15853 4.15967 2.07812 4.15967C1.97298 4.15967 1.85856 4.17204 1.73486 4.19678C1.61735 4.21533 1.50293 4.22461 1.3916 4.22461C1.36068 4.22461 1.32666 4.22461 1.28955 4.22461C1.25244 4.21842 1.21842 4.21533 1.1875 4.21533C1.08236 4.21533 0.995768 4.23079 0.927734 4.26172C0.865885 4.29264 0.807129 4.32975 0.751465 4.37305C0.701986 4.41016 0.652507 4.44417 0.603027 4.4751C0.559733 4.50602 0.510254 4.52148 0.45459 4.52148C0.405111 4.52148 0.364909 4.5153 0.333984 4.50293C0.346354 4.40397 0.380371 4.31429 0.436035 4.23389C0.497884 4.15348 0.56901 4.07926 0.649414 4.01123C0.729818 3.93701 0.813314 3.86898 0.899902 3.80713C0.992676 3.74528 1.08236 3.67725 1.16895 3.60303C1.21842 3.55973 1.271 3.50407 1.32666 3.43604C1.38232 3.368 1.44108 3.29997 1.50293 3.23193C1.57096 3.1639 1.639 3.10205 1.70703 3.04639C1.77507 2.98454 1.84928 2.93815 1.92969 2.90723C1.9668 2.89486 2.03792 2.88867 2.14307 2.88867C2.24821 2.88867 2.35954 2.88558 2.47705 2.87939C2.60075 2.87321 2.71517 2.86393 2.82031 2.85156C2.92546 2.83919 2.99658 2.81136 3.03369 2.76807C3.05843 2.74333 3.06771 2.70931 3.06152 2.66602C3.06152 2.62272 3.07389 2.5887 3.09863 2.56396C3.12337 2.53923 3.1543 2.51758 3.19141 2.49902C3.2347 2.48047 3.2749 2.46191 3.31201 2.44336C3.34912 2.4248 3.38005 2.40625 3.40479 2.3877C3.43571 2.36914 3.45117 2.35059 3.45117 2.33203C3.45117 2.31966 3.44808 2.3042 3.44189 2.28564C3.44189 2.26709 3.44189 2.25163 3.44189 2.23926C3.44189 2.21452 3.46045 2.19287 3.49756 2.17432C3.54085 2.14958 3.57178 2.11865 3.59033 2.08154C3.59652 2.06917 3.60889 2.04134 3.62744 1.99805C3.646 1.94857 3.66764 1.89909 3.69238 1.84961C3.71712 1.80013 3.74186 1.75684 3.7666 1.71973C3.79134 1.68262 3.81299 1.66406 3.83154 1.66406C3.85628 1.66406 3.8903 1.67643 3.93359 1.70117C3.98307 1.71973 4.00781 1.73519 4.00781 1.74756C4.00781 1.78467 4.00163 1.84033 3.98926 1.91455C3.97689 1.98258 3.96143 2.0599 3.94287 2.14648C3.92432 2.22689 3.90885 2.31348 3.89648 2.40625C3.88411 2.49284 3.87793 2.57633 3.87793 2.65674C3.87793 2.74951 3.8903 2.82682 3.91504 2.88867C3.94596 2.94434 4.00472 2.97217 4.09131 2.97217C4.12223 2.97217 4.15007 2.97217 4.1748 2.97217C4.20573 2.96598 4.24593 2.96289 4.29541 2.96289C4.33252 2.96289 4.382 2.96908 4.44385 2.98145C4.5057 2.98763 4.58919 3.00928 4.69434 3.04639C4.72526 3.05876 4.75309 3.08659 4.77783 3.12988C4.80876 3.17318 4.84277 3.19482 4.87988 3.19482C4.89844 3.19482 4.91699 3.19482 4.93555 3.19482C4.96029 3.18864 4.98193 3.18555 5.00049 3.18555H5.04688C5.06543 3.19173 5.10254 3.20719 5.1582 3.23193C5.22005 3.25049 5.28809 3.27523 5.3623 3.30615C5.43652 3.33089 5.50765 3.35872 5.57568 3.38965C5.64372 3.42057 5.69629 3.44531 5.7334 3.46387C5.75195 3.47005 5.76432 3.4917 5.77051 3.52881C5.78288 3.56592 5.79525 3.59066 5.80762 3.60303C5.88802 3.64014 5.98389 3.68962 6.09521 3.75146C6.21273 3.80713 6.32406 3.87207 6.4292 3.94629C6.47868 3.9834 6.52197 4.02979 6.55908 4.08545C6.60238 4.13493 6.65186 4.18132 6.70752 4.22461C6.77555 4.28027 6.84049 4.32048 6.90234 4.34521C6.97038 4.36995 7.01986 4.39779 7.05078 4.42871C7.10026 4.48438 7.12809 4.54622 7.13428 4.61426C7.14046 4.67611 7.15902 4.73177 7.18994 4.78125C7.25798 4.88639 7.34456 4.99463 7.44971 5.10596C7.56104 5.2111 7.65999 5.33171 7.74658 5.46777C7.77751 5.52344 7.79915 5.58838 7.81152 5.6626C7.82389 5.73682 7.84863 5.81104 7.88574 5.88525C7.89811 5.90999 7.91976 5.94401 7.95068 5.9873C7.98161 6.02441 8.01253 6.06771 8.04346 6.11719C8.07438 6.16048 8.10221 6.20687 8.12695 6.25635C8.15169 6.29964 8.16406 6.34294 8.16406 6.38623C8.16406 6.3986 8.16097 6.41715 8.15479 6.44189C8.15479 6.46045 8.15479 6.47591 8.15479 6.48828C8.15479 6.50065 8.17952 6.53776 8.229 6.59961C8.27848 6.66146 8.30322 6.71094 8.30322 6.74805C8.30322 6.76042 8.30013 6.77897 8.29395 6.80371C8.29395 6.82227 8.29395 6.83773 8.29395 6.8501V6.85938C8.35579 6.90885 8.41146 7.00163 8.46094 7.1377C8.51042 7.27376 8.55371 7.42529 8.59082 7.59229C8.62793 7.75928 8.65576 7.92627 8.67432 8.09326C8.69906 8.26025 8.71143 8.40251 8.71143 8.52002ZM7.67236 10.0415C7.67855 9.97965 7.68164 9.9209 7.68164 9.86523C7.68164 9.80339 7.68164 9.74154 7.68164 9.67969C7.68164 9.48177 7.67236 9.29622 7.65381 9.12305C7.64144 8.94987 7.62598 8.81999 7.60742 8.7334C7.55794 8.52311 7.51156 8.31283 7.46826 8.10254C7.43115 7.89225 7.38477 7.70671 7.3291 7.5459C7.27344 7.39128 7.22396 7.27067 7.18066 7.18408C7.13737 7.09131 7.09408 7.00472 7.05078 6.92432C6.99512 6.81299 6.93945 6.69238 6.88379 6.5625C6.83431 6.43262 6.78174 6.30583 6.72607 6.18213C6.67041 6.05843 6.61165 5.94092 6.5498 5.82959C6.49414 5.71208 6.43229 5.61621 6.36426 5.54199C6.3457 5.52344 6.31478 5.50179 6.27148 5.47705C6.22819 5.45231 6.17871 5.42757 6.12305 5.40283C6.07357 5.37191 6.02409 5.34408 5.97461 5.31934C5.93132 5.2946 5.90039 5.27604 5.88184 5.26367C5.70866 5.16471 5.56331 5.08122 5.4458 5.01318C5.32829 4.94515 5.21696 4.88639 5.11182 4.83691C5.00667 4.78125 4.90153 4.73486 4.79639 4.69775C4.69124 4.65446 4.56755 4.61426 4.42529 4.57715C4.3016 4.5153 4.19027 4.4751 4.09131 4.45654C3.99235 4.43799 3.87174 4.42871 3.72949 4.42871C3.6429 4.42871 3.59961 4.44727 3.59961 4.48438C3.60579 4.5153 3.6027 4.56787 3.59033 4.64209C3.55322 4.85856 3.51302 5.07812 3.46973 5.30078C3.43262 5.51725 3.40479 5.73372 3.38623 5.9502C3.35531 6.33366 3.33057 6.72949 3.31201 7.1377C3.29964 7.53971 3.27799 7.90771 3.24707 8.2417C3.22852 8.34066 3.20068 8.43652 3.16357 8.5293C3.12646 8.62207 3.10482 8.6901 3.09863 8.7334C3.09863 8.75195 3.111 8.77979 3.13574 8.81689C3.16048 8.854 3.17285 8.86947 3.17285 8.86328C3.14193 9.09212 3.10791 9.32406 3.0708 9.55908C3.03369 9.79411 2.99967 10.026 2.96875 10.2549C2.94401 10.4528 2.92546 10.6538 2.91309 10.8579C2.90072 11.0558 2.88216 11.2476 2.85742 11.4331C2.83268 11.6187 2.79557 11.7918 2.74609 11.9526C2.7028 12.1073 2.63786 12.234 2.55127 12.333C2.50798 12.3577 2.48633 12.3763 2.48633 12.3887C2.48633 12.4072 2.51416 12.4289 2.56982 12.4536C2.62549 12.4784 2.67806 12.4907 2.72754 12.4907C2.83887 12.4907 2.96566 12.4814 3.10791 12.4629C3.25635 12.4443 3.40169 12.4227 3.54395 12.3979C3.6862 12.367 3.82227 12.3392 3.95215 12.3145C4.08822 12.2897 4.19954 12.2712 4.28613 12.2588C4.47786 12.234 4.69434 12.2124 4.93555 12.1938C5.17676 12.1753 5.37467 12.1506 5.5293 12.1196C5.6901 12.0887 5.80452 12.0547 5.87256 12.0176C5.94678 11.9805 6.0179 11.9465 6.08594 11.9155C6.22819 11.8475 6.37044 11.7856 6.5127 11.73C6.65495 11.6681 6.79102 11.6063 6.9209 11.5444C7.05697 11.4826 7.18066 11.4176 7.29199 11.3496C7.40951 11.2754 7.51465 11.1857 7.60742 11.0806C7.62598 11.0435 7.63835 10.9878 7.64453 10.9136C7.6569 10.8332 7.66309 10.7466 7.66309 10.6538C7.66927 10.5549 7.67236 10.4528 7.67236 10.3477C7.67236 10.2363 7.67236 10.1343 7.67236 10.0415ZM15.9849 10.9507C16.0282 10.994 16.0498 11.0435 16.0498 11.0991C16.0498 11.1919 16.022 11.2754 15.9663 11.3496C15.9106 11.4176 15.8395 11.4857 15.7529 11.5537C15.6725 11.6156 15.5828 11.6805 15.4839 11.7485C15.3911 11.8166 15.3045 11.897 15.2241 11.9897C15.119 12.1134 14.9953 12.2557 14.853 12.4165C14.717 12.5711 14.6087 12.7288 14.5283 12.8896C14.516 12.9206 14.4757 12.9793 14.4077 13.0659C14.3459 13.1525 14.2686 13.2453 14.1758 13.3442C14.0892 13.4432 13.9902 13.5298 13.8789 13.604C13.7738 13.6782 13.6717 13.7153 13.5728 13.7153C13.5047 13.7153 13.4367 13.703 13.3687 13.6782C13.3068 13.6597 13.248 13.6318 13.1924 13.5947C13.1367 13.5638 13.0903 13.5267 13.0532 13.4834C13.0223 13.4463 13.0068 13.4092 13.0068 13.3721C13.0068 13.3164 13.0285 13.2607 13.0718 13.2051C13.1213 13.1494 13.146 13.0628 13.146 12.9453C13.146 12.9144 13.1398 12.8927 13.1274 12.8804C13.1213 12.868 13.112 12.8525 13.0996 12.834C13.0934 12.8154 13.0872 12.7907 13.0811 12.7598C13.0749 12.7288 13.0718 12.6794 13.0718 12.6113C13.0718 12.5433 13.0811 12.4722 13.0996 12.3979C13.1243 12.3175 13.1491 12.2371 13.1738 12.1567C13.2048 12.0701 13.2295 11.9867 13.248 11.9062C13.2728 11.8197 13.2852 11.7362 13.2852 11.6558C13.2852 11.6372 13.2821 11.6187 13.2759 11.6001C13.2759 11.5754 13.2759 11.5537 13.2759 11.5352C13.2759 11.498 13.2852 11.4424 13.3037 11.3682C13.3223 11.2939 13.3439 11.2135 13.3687 11.127C13.3934 11.0404 13.415 10.9476 13.4336 10.8486C13.4521 10.7435 13.4614 10.6445 13.4614 10.5518C13.4614 10.4342 13.4491 10.3353 13.4243 10.2549C13.3563 10.2796 13.2975 10.3167 13.248 10.3662C13.1986 10.4095 13.1522 10.4621 13.1089 10.5239C13.0718 10.5796 13.0316 10.6414 12.9883 10.7095C12.9512 10.7713 12.911 10.8301 12.8677 10.8857C12.8429 10.9167 12.7996 10.9569 12.7378 11.0063C12.6759 11.0558 12.611 11.1084 12.543 11.1641C12.4811 11.2197 12.4255 11.2754 12.376 11.3311C12.3265 11.3805 12.3018 11.4207 12.3018 11.4517C12.3018 11.464 12.3049 11.4795 12.311 11.498C12.3172 11.5166 12.3203 11.5321 12.3203 11.5444C12.3203 11.563 12.3049 11.5908 12.2739 11.6279C12.243 11.665 12.209 11.7052 12.1719 11.7485C12.141 11.7856 12.11 11.8228 12.0791 11.8599C12.0482 11.8908 12.0327 11.9124 12.0327 11.9248C12.0265 11.9928 11.974 12.0578 11.875 12.1196C11.776 12.1753 11.6895 12.2464 11.6152 12.333C11.5596 12.3949 11.5132 12.4598 11.4761 12.5278C11.439 12.5959 11.4049 12.6577 11.374 12.7134C11.3431 12.769 11.3122 12.8154 11.2812 12.8525C11.2503 12.8835 11.2132 12.8989 11.1699 12.8989C11.1576 12.8989 11.1359 12.8958 11.105 12.8896C11.0802 12.8835 11.0586 12.8804 11.04 12.8804C10.9967 12.8804 10.9689 12.9082 10.9565 12.9639C10.9504 13.0195 10.9411 13.0628 10.9287 13.0938C10.8792 13.1742 10.8205 13.236 10.7524 13.2793C10.6906 13.3164 10.6102 13.3721 10.5112 13.4463C10.4679 13.4772 10.437 13.5112 10.4185 13.5483C10.4061 13.5916 10.3875 13.6287 10.3628 13.6597C10.3381 13.6906 10.2979 13.7153 10.2422 13.7339C10.1927 13.7586 10.1123 13.771 10.001 13.771C9.93913 13.771 9.88037 13.7648 9.82471 13.7524C9.76904 13.7401 9.74121 13.7215 9.74121 13.6968C9.74121 13.6844 9.7443 13.6689 9.75049 13.6504C9.75667 13.6318 9.75977 13.6164 9.75977 13.604C9.75977 13.5978 9.7474 13.5854 9.72266 13.5669C9.69792 13.5483 9.66699 13.5205 9.62988 13.4834C9.59896 13.4525 9.57113 13.4092 9.54639 13.3535C9.52165 13.2917 9.50928 13.2174 9.50928 13.1309C9.50928 13.0319 9.51855 12.9299 9.53711 12.8247C9.56185 12.7134 9.58659 12.6051 9.61133 12.5C9.64225 12.3949 9.67008 12.2959 9.69482 12.2031C9.71956 12.1042 9.73812 12.0114 9.75049 11.9248C9.77523 11.7207 9.7876 11.5135 9.7876 11.3032C9.7876 11.0929 9.82161 10.9043 9.88965 10.7373C9.92057 10.6755 9.95459 10.592 9.9917 10.4868C10.0288 10.3817 10.0628 10.258 10.0938 10.1157C10.0999 10.0786 10.1092 10.026 10.1216 9.95801C10.134 9.88379 10.1494 9.80339 10.168 9.7168C10.1865 9.63021 10.2051 9.54362 10.2236 9.45703C10.2484 9.36426 10.2762 9.28385 10.3071 9.21582C10.3195 9.19727 10.3411 9.17562 10.3721 9.15088C10.4092 9.11995 10.4339 9.09521 10.4463 9.07666C10.4587 9.03955 10.4648 8.99935 10.4648 8.95605C10.471 8.90658 10.4865 8.8571 10.5112 8.80762C10.5236 8.78288 10.5483 8.75814 10.5854 8.7334C10.6226 8.70247 10.6442 8.67773 10.6504 8.65918C10.6813 8.60352 10.703 8.53548 10.7153 8.45508C10.7277 8.37467 10.7524 8.30664 10.7896 8.25098C10.8143 8.21387 10.8576 8.18294 10.9194 8.1582C10.9813 8.12728 11.0308 8.08708 11.0679 8.0376C11.0988 7.9943 11.1204 7.94792 11.1328 7.89844C11.1514 7.84896 11.173 7.80566 11.1978 7.76855C11.2658 7.69434 11.3215 7.62939 11.3647 7.57373C11.4142 7.51188 11.4575 7.45622 11.4946 7.40674C11.5379 7.35726 11.5781 7.31087 11.6152 7.26758C11.6523 7.22428 11.6987 7.18099 11.7544 7.1377C11.7915 7.11296 11.8348 7.06657 11.8843 6.99854C11.9399 6.9305 11.9894 6.88411 12.0327 6.85938C12.0822 6.84082 12.1255 6.82536 12.1626 6.81299C12.2059 6.80062 12.2554 6.77279 12.311 6.72949C12.3234 6.71712 12.3358 6.69238 12.3481 6.65527C12.3605 6.61198 12.3729 6.58724 12.3853 6.58105C12.4285 6.5625 12.4688 6.54704 12.5059 6.53467C12.5492 6.5223 12.5986 6.49137 12.6543 6.44189C12.7223 6.38005 12.7749 6.3182 12.812 6.25635C12.8491 6.1945 12.8924 6.14193 12.9419 6.09863C12.9914 6.06152 13.047 6.03678 13.1089 6.02441C13.1707 6.01204 13.2264 5.9904 13.2759 5.95947C13.3687 5.90999 13.4614 5.84505 13.5542 5.76465C13.6532 5.67806 13.7552 5.59456 13.8604 5.51416C13.9655 5.42757 14.0737 5.35645 14.1851 5.30078C14.3026 5.23893 14.4232 5.20801 14.5469 5.20801C14.6273 5.20801 14.7077 5.20182 14.7881 5.18945C14.8747 5.1709 14.9551 5.16162 15.0293 5.16162C15.0973 5.16162 15.1592 5.17399 15.2148 5.19873C15.2705 5.22347 15.2983 5.27604 15.2983 5.35645C15.2983 5.59147 15.2705 5.85433 15.2148 6.14502C15.1592 6.43571 15.0973 6.74805 15.0293 7.08203C14.9674 7.41602 14.9087 7.76855 14.853 8.13965C14.8035 8.51074 14.7788 8.89421 14.7788 9.29004C14.7788 9.30241 14.7819 9.32096 14.7881 9.3457C14.8005 9.37044 14.8066 9.40755 14.8066 9.45703C14.8066 9.49414 14.7974 9.54053 14.7788 9.59619C14.7664 9.64567 14.751 9.69824 14.7324 9.75391C14.7139 9.80339 14.6953 9.85286 14.6768 9.90234C14.6644 9.95182 14.6582 9.99512 14.6582 10.0322C14.6582 10.0941 14.6582 10.1559 14.6582 10.2178C14.6644 10.2796 14.6675 10.3353 14.6675 10.3848C14.6675 10.4899 14.6551 10.6074 14.6304 10.7373C14.6056 10.8672 14.5747 11.0033 14.5376 11.1455C14.5067 11.2816 14.4788 11.4176 14.4541 11.5537C14.4294 11.6898 14.417 11.8166 14.417 11.9341C14.417 11.9959 14.4201 12.0547 14.4263 12.1104C14.4325 12.1598 14.4448 12.2093 14.4634 12.2588C14.5438 12.2217 14.6087 12.1753 14.6582 12.1196C14.7139 12.064 14.7633 12.0021 14.8066 11.9341C14.8561 11.8599 14.9056 11.7826 14.9551 11.7021C15.0046 11.6156 15.0695 11.5259 15.1499 11.4331C15.1808 11.396 15.2241 11.3465 15.2798 11.2847C15.3354 11.2228 15.3942 11.1641 15.4561 11.1084C15.5179 11.0527 15.5828 11.0033 15.6509 10.96C15.7189 10.9167 15.7839 10.895 15.8457 10.895C15.889 10.895 15.9354 10.9136 15.9849 10.9507ZM13.8325 6.17285C13.814 6.17285 13.7954 6.17285 13.7769 6.17285C13.7583 6.16667 13.7428 6.16357 13.7305 6.16357C13.6377 6.16357 13.5666 6.19141 13.5171 6.24707C13.4738 6.29655 13.4367 6.32129 13.4058 6.32129C13.3934 6.32129 13.3779 6.32129 13.3594 6.32129C13.3408 6.3151 13.3223 6.31201 13.3037 6.31201C13.2728 6.31201 13.2573 6.33057 13.2573 6.36768C13.2573 6.3986 13.2419 6.42334 13.2109 6.44189C13.1862 6.47282 13.1522 6.48828 13.1089 6.48828C13.0656 6.4821 13.0316 6.49137 13.0068 6.51611C12.9759 6.54704 12.945 6.59652 12.9141 6.66455C12.8893 6.7264 12.8491 6.79134 12.7935 6.85938C12.744 6.91504 12.6821 6.96452 12.6079 7.00781C12.5399 7.05111 12.4873 7.0944 12.4502 7.1377C12.4378 7.16243 12.4255 7.19954 12.4131 7.24902C12.4069 7.29232 12.3976 7.32633 12.3853 7.35107C12.3358 7.43766 12.2739 7.54281 12.1997 7.6665C12.1317 7.78402 12.0575 7.90771 11.9771 8.0376C11.8966 8.16748 11.8162 8.29427 11.7358 8.41797C11.6616 8.53548 11.5998 8.64062 11.5503 8.7334C11.5008 8.81999 11.4668 8.92204 11.4482 9.03955C11.4297 9.15706 11.4142 9.28076 11.4019 9.41064C11.3957 9.53434 11.3895 9.65495 11.3833 9.77246C11.3771 9.88379 11.3647 9.97656 11.3462 10.0508C11.2287 10.459 11.1174 10.8703 11.0122 11.2847C10.9132 11.6929 10.8638 12.0887 10.8638 12.4722C10.9937 12.4536 11.0926 12.4041 11.1606 12.3237C11.2349 12.2371 11.2936 12.1413 11.3369 12.0361C11.3802 11.931 11.4204 11.8289 11.4575 11.73C11.4946 11.631 11.5472 11.5568 11.6152 11.5073C11.6647 11.4764 11.7142 11.4331 11.7637 11.3774C11.8193 11.3218 11.8657 11.2692 11.9028 11.2197C11.9214 11.195 11.9307 11.1641 11.9307 11.127C11.9307 11.0837 11.943 11.0465 11.9678 11.0156C12.0049 10.9723 12.0482 10.9259 12.0977 10.8765C12.1533 10.827 12.209 10.7775 12.2646 10.728C12.3203 10.6785 12.3698 10.6322 12.4131 10.5889C12.4626 10.5394 12.4997 10.4992 12.5244 10.4683C12.5492 10.4373 12.5615 10.391 12.5615 10.3291C12.5677 10.2611 12.577 10.2116 12.5894 10.1807C12.6512 10.0632 12.7192 9.95801 12.7935 9.86523C12.8677 9.76628 12.9388 9.66423 13.0068 9.55908C13.1182 9.3859 13.2109 9.21582 13.2852 9.04883C13.3656 8.88184 13.4336 8.71175 13.4893 8.53857C13.5449 8.3654 13.5944 8.18913 13.6377 8.00977C13.681 7.82422 13.7243 7.6263 13.7676 7.41602C13.7923 7.29232 13.8201 7.15934 13.8511 7.01709C13.8882 6.87484 13.9067 6.72949 13.9067 6.58105C13.9067 6.42643 13.882 6.29036 13.8325 6.17285ZM23.7407 11.2847C23.7407 11.3836 23.7129 11.4733 23.6572 11.5537C23.6016 11.6279 23.5304 11.7021 23.4438 11.7764C23.3573 11.8506 23.2614 11.9248 23.1562 11.999C23.0511 12.0732 22.9491 12.1567 22.8501 12.2495C22.8192 12.2743 22.7944 12.3114 22.7759 12.3608C22.7573 12.4041 22.7326 12.4351 22.7017 12.4536C22.6707 12.4845 22.6367 12.4969 22.5996 12.4907C22.5625 12.4845 22.5285 12.4969 22.4976 12.5278C22.4543 12.5711 22.411 12.633 22.3677 12.7134C22.3306 12.7876 22.2811 12.8649 22.2192 12.9453C22.2007 12.9762 22.1512 13.0381 22.0708 13.1309C21.9966 13.2236 21.9069 13.3195 21.8018 13.4185C21.7028 13.5174 21.5977 13.6071 21.4863 13.6875C21.3812 13.7679 21.2853 13.8081 21.1987 13.8081C21.1493 13.8081 21.1121 13.7957 21.0874 13.771C21.0627 13.7463 21.0503 13.7184 21.0503 13.6875C21.0503 13.6504 21.0596 13.6071 21.0781 13.5576C21.0967 13.5081 21.106 13.4432 21.106 13.3628C21.106 13.2267 21.0843 13.1123 21.041 13.0195C20.9977 12.9268 20.9761 12.8556 20.9761 12.8062C20.9823 12.6763 21.0163 12.534 21.0781 12.3794C21.1462 12.2248 21.1802 12.0671 21.1802 11.9062C21.1802 11.8197 21.1678 11.7393 21.1431 11.665C21.1183 11.5846 21.106 11.5011 21.106 11.4146C21.106 11.328 21.1276 11.2383 21.1709 11.1455C21.2142 11.0465 21.242 10.9538 21.2544 10.8672C21.2668 10.7682 21.276 10.6693 21.2822 10.5703C21.2884 10.4714 21.2915 10.3724 21.2915 10.2734V10.0137C21.2915 9.8776 21.3008 9.75391 21.3193 9.64258C21.3379 9.53125 21.3564 9.42611 21.375 9.32715C21.3997 9.22819 21.4245 9.12923 21.4492 9.03027C21.4801 8.93132 21.5049 8.82617 21.5234 8.71484C21.5482 8.56641 21.5636 8.41797 21.5698 8.26953C21.576 8.12109 21.5791 7.97266 21.5791 7.82422C21.5853 7.67578 21.5915 7.53353 21.5977 7.39746C21.61 7.25521 21.6317 7.11914 21.6626 6.98926C21.644 6.98307 21.6162 6.97998 21.5791 6.97998C21.4987 6.97998 21.4307 7.00472 21.375 7.0542C21.3193 7.09749 21.2699 7.15007 21.2266 7.21191C21.1895 7.26758 21.1554 7.32943 21.1245 7.39746C21.0998 7.45931 21.0719 7.50879 21.041 7.5459C21.0163 7.57682 20.9823 7.59847 20.939 7.61084C20.8957 7.62321 20.8617 7.64486 20.8369 7.67578C20.806 7.71289 20.7812 7.75928 20.7627 7.81494C20.7441 7.87061 20.7225 7.91699 20.6978 7.9541C20.6854 7.97884 20.6576 7.9943 20.6143 8.00049C20.5771 8.00049 20.5586 8.01595 20.5586 8.04688C20.5586 8.05924 20.5586 8.07471 20.5586 8.09326C20.5648 8.11182 20.5679 8.12728 20.5679 8.13965C20.5679 8.16439 20.5493 8.19531 20.5122 8.23242C20.4751 8.26335 20.4318 8.29736 20.3823 8.33447C20.339 8.37158 20.2988 8.40869 20.2617 8.4458C20.2246 8.48291 20.2061 8.51383 20.2061 8.53857C20.2061 8.55094 20.2061 8.56641 20.2061 8.58496C20.2122 8.60352 20.2153 8.61898 20.2153 8.63135C20.2153 8.64372 20.1937 8.68083 20.1504 8.74268C20.1071 8.80452 20.0545 8.87256 19.9927 8.94678C19.9308 9.021 19.869 9.09521 19.8071 9.16943C19.7453 9.24365 19.6958 9.29932 19.6587 9.33643C19.5474 9.44775 19.467 9.5529 19.4175 9.65186C19.368 9.75081 19.3309 9.84668 19.3062 9.93945C19.2876 10.026 19.269 10.1126 19.2505 10.1992C19.2381 10.2858 19.2134 10.3693 19.1763 10.4497C19.1639 10.4621 19.1392 10.4744 19.1021 10.4868C19.0649 10.493 19.0402 10.5023 19.0278 10.5146C18.9969 10.5827 18.9691 10.6569 18.9443 10.7373C18.9196 10.8177 18.8794 10.9043 18.8237 10.9971C18.8114 11.0156 18.7866 11.0404 18.7495 11.0713C18.7124 11.1022 18.6938 11.127 18.6938 11.1455C18.6629 11.2135 18.6382 11.2939 18.6196 11.3867C18.6011 11.4795 18.5856 11.5754 18.5732 11.6743C18.5609 11.7733 18.5516 11.8722 18.5454 11.9712C18.5392 12.064 18.5361 12.1444 18.5361 12.2124C18.5361 12.2804 18.5516 12.333 18.5825 12.3701C18.6134 12.4072 18.6289 12.4629 18.6289 12.5371C18.6289 12.5804 18.6134 12.6144 18.5825 12.6392C18.5578 12.6639 18.5238 12.6886 18.4805 12.7134C18.4434 12.7319 18.397 12.7536 18.3413 12.7783C18.2918 12.8031 18.2454 12.834 18.2021 12.8711C18.0599 12.9948 17.9393 13.1061 17.8403 13.2051C17.7414 13.2979 17.6517 13.3844 17.5713 13.4648C17.4909 13.5514 17.4198 13.6287 17.3579 13.6968C17.2961 13.771 17.2311 13.8421 17.1631 13.9102C17.1198 13.904 17.0981 13.8823 17.0981 13.8452C17.0981 13.7772 17.1322 13.7091 17.2002 13.6411C17.2682 13.5731 17.3022 13.5112 17.3022 13.4556C17.3022 13.4123 17.2899 13.3783 17.2651 13.3535C17.2466 13.3226 17.2373 13.2793 17.2373 13.2236C17.2373 13.2051 17.2404 13.168 17.2466 13.1123C17.259 13.0505 17.2713 12.9824 17.2837 12.9082C17.2961 12.8278 17.3084 12.7474 17.3208 12.667C17.3394 12.5866 17.3548 12.5155 17.3672 12.4536C17.3919 12.3485 17.4229 12.2433 17.46 12.1382C17.5033 12.0269 17.5435 11.9155 17.5806 11.8042C17.6239 11.6867 17.6579 11.5692 17.6826 11.4517C17.7135 11.3341 17.729 11.2135 17.729 11.0898C17.729 11.0342 17.7259 10.9878 17.7197 10.9507C17.7135 10.9074 17.7104 10.8672 17.7104 10.8301C17.7104 10.7744 17.7166 10.6971 17.729 10.5981C17.7414 10.493 17.7537 10.3786 17.7661 10.2549C17.7847 10.1312 17.8001 10.0075 17.8125 9.88379C17.8311 9.76009 17.8465 9.64876 17.8589 9.5498C17.8774 9.33333 17.8867 9.11377 17.8867 8.89111C17.8867 8.66846 17.8991 8.44889 17.9238 8.23242C17.9486 8.03451 17.9826 7.83659 18.0259 7.63867C18.0754 7.44076 18.1001 7.24284 18.1001 7.04492C18.1001 6.92122 18.0877 6.8099 18.063 6.71094C17.9888 6.72331 17.9146 6.76969 17.8403 6.8501C17.7661 6.9305 17.695 7.01709 17.627 7.10986C17.5651 7.20264 17.5094 7.28613 17.46 7.36035C17.4105 7.43457 17.3734 7.47168 17.3486 7.47168C17.3363 7.47168 17.3208 7.47168 17.3022 7.47168C17.2837 7.46549 17.2682 7.4624 17.2559 7.4624C17.2249 7.4624 17.2002 7.49642 17.1816 7.56445C17.1631 7.63249 17.1383 7.70671 17.1074 7.78711C17.0765 7.86133 17.0332 7.93245 16.9775 8.00049C16.9281 8.06852 16.8569 8.10254 16.7642 8.10254C16.7394 8.10254 16.693 8.09326 16.625 8.07471C16.557 8.05615 16.5229 8.01286 16.5229 7.94482C16.5229 7.90153 16.5353 7.86133 16.5601 7.82422C16.591 7.78711 16.625 7.75309 16.6621 7.72217C16.7054 7.69124 16.7456 7.66341 16.7827 7.63867C16.826 7.60775 16.86 7.57682 16.8848 7.5459C16.9033 7.51497 16.9126 7.48096 16.9126 7.44385C16.9188 7.40055 16.9312 7.36344 16.9497 7.33252C17.0981 7.14697 17.2744 6.96452 17.4785 6.78516C17.6888 6.60579 17.8836 6.41715 18.063 6.21924C18.0877 6.1945 18.097 6.16048 18.0908 6.11719C18.0908 6.07389 18.1063 6.03988 18.1372 6.01514C18.1619 5.9904 18.196 5.98112 18.2393 5.9873C18.2826 5.9873 18.3166 5.97493 18.3413 5.9502C18.3599 5.93164 18.3753 5.89762 18.3877 5.84814C18.4062 5.79867 18.431 5.74919 18.4619 5.69971C18.499 5.64404 18.5423 5.59766 18.5918 5.56055C18.6475 5.52344 18.7217 5.50488 18.8145 5.50488C18.8639 5.50488 18.9165 5.51416 18.9722 5.53271C19.034 5.54508 19.0897 5.56673 19.1392 5.59766C19.1948 5.6224 19.2381 5.65332 19.269 5.69043C19.3062 5.72135 19.3247 5.75537 19.3247 5.79248C19.3247 5.85433 19.3092 5.93473 19.2783 6.03369C19.2536 6.13265 19.2412 6.24089 19.2412 6.3584C19.2412 6.43262 19.2536 6.50374 19.2783 6.57178C19.3031 6.63363 19.3154 6.68001 19.3154 6.71094C19.3031 6.79134 19.2752 6.87174 19.2319 6.95215C19.1886 7.02637 19.167 7.12533 19.167 7.24902C19.167 7.30469 19.167 7.36654 19.167 7.43457C19.1732 7.5026 19.1763 7.57064 19.1763 7.63867C19.1763 7.75 19.1608 7.87679 19.1299 8.01904C19.099 8.15511 19.0649 8.28809 19.0278 8.41797C18.9969 8.54785 18.966 8.66846 18.9351 8.77979C18.9041 8.88493 18.8887 8.96533 18.8887 9.021C18.8887 9.07048 18.9103 9.09521 18.9536 9.09521C19.0155 9.09521 19.0959 9.05192 19.1948 8.96533C19.2938 8.87874 19.3773 8.79525 19.4453 8.71484C19.4701 8.6901 19.4824 8.65609 19.4824 8.61279C19.4886 8.5695 19.501 8.53548 19.5195 8.51074C19.5319 8.49219 19.5597 8.46745 19.603 8.43652C19.6525 8.39941 19.702 8.3623 19.7515 8.3252C19.8009 8.28809 19.8442 8.25407 19.8813 8.22314C19.9185 8.18604 19.937 8.1582 19.937 8.13965C19.937 8.12728 19.9339 8.11182 19.9277 8.09326C19.9277 8.07471 19.9277 8.05924 19.9277 8.04688C19.9277 8.01595 19.9494 7.97266 19.9927 7.91699C20.036 7.86133 20.0854 7.80257 20.1411 7.74072C20.1968 7.67269 20.2493 7.60775 20.2988 7.5459C20.3545 7.48405 20.3947 7.43457 20.4194 7.39746C20.4442 7.36035 20.4535 7.31706 20.4473 7.26758C20.4473 7.21191 20.4596 7.16553 20.4844 7.12842C20.5586 7.02946 20.6576 6.91813 20.7812 6.79443C20.9111 6.67074 21.0194 6.57487 21.106 6.50684C21.1554 6.46973 21.2049 6.44499 21.2544 6.43262C21.3039 6.42025 21.3503 6.39551 21.3936 6.3584C21.4863 6.27181 21.5729 6.17594 21.6533 6.0708C21.7337 5.96566 21.8141 5.86979 21.8945 5.7832C21.9749 5.69043 22.0553 5.61312 22.1357 5.55127C22.2223 5.48942 22.3182 5.4585 22.4233 5.4585C22.4543 5.4585 22.5007 5.47396 22.5625 5.50488C22.6243 5.53581 22.6862 5.5791 22.748 5.63477C22.8099 5.69043 22.8625 5.75537 22.9058 5.82959C22.9552 5.89762 22.98 5.97184 22.98 6.05225C22.98 6.10173 22.9707 6.16667 22.9521 6.24707C22.9336 6.32129 22.9212 6.40788 22.915 6.50684C22.8965 6.72949 22.8748 6.93669 22.8501 7.12842C22.8315 7.32015 22.8068 7.52734 22.7759 7.75C22.7511 7.91699 22.7357 8.0778 22.7295 8.23242C22.7295 8.38086 22.7202 8.49837 22.7017 8.58496C22.6707 8.70866 22.6213 8.82926 22.5532 8.94678C22.4914 9.06429 22.4604 9.20345 22.4604 9.36426C22.4604 9.40137 22.4635 9.44157 22.4697 9.48486C22.4759 9.52816 22.4852 9.57454 22.4976 9.62402C22.5037 9.64258 22.513 9.65804 22.5254 9.67041C22.5439 9.6766 22.5594 9.68896 22.5718 9.70752C22.5903 9.71989 22.6058 9.74154 22.6182 9.77246C22.6305 9.80339 22.6367 9.84977 22.6367 9.91162C22.6367 10.0724 22.6027 10.2332 22.5347 10.394C22.4666 10.5487 22.4326 10.7157 22.4326 10.895C22.4326 10.9631 22.4419 11.0342 22.4604 11.1084C22.4852 11.1764 22.4976 11.2445 22.4976 11.3125C22.4976 11.4362 22.4697 11.5599 22.4141 11.6836C22.3646 11.8011 22.3398 11.931 22.3398 12.0732C22.3398 12.1042 22.3429 12.132 22.3491 12.1567C22.3553 12.1815 22.3739 12.1938 22.4048 12.1938C22.5409 12.1938 22.6522 12.1444 22.7388 12.0454C22.8315 11.9465 22.9181 11.8382 22.9985 11.7207C23.0789 11.6032 23.1624 11.495 23.249 11.396C23.3418 11.297 23.4531 11.2476 23.583 11.2476C23.6387 11.2476 23.6912 11.2599 23.7407 11.2847ZM27.8228 11.0898C27.8475 11.1455 27.8599 11.2043 27.8599 11.2661C27.8599 11.328 27.8444 11.3836 27.8135 11.4331C27.7887 11.4764 27.7547 11.5197 27.7114 11.563C27.6743 11.6001 27.631 11.6372 27.5815 11.6743C27.5382 11.7052 27.5011 11.7393 27.4702 11.7764C27.4578 11.8011 27.4486 11.8382 27.4424 11.8877C27.4424 11.931 27.43 11.965 27.4053 11.9897C27.3311 12.0701 27.2383 12.1382 27.127 12.1938C27.0218 12.2495 26.929 12.3206 26.8486 12.4072C26.7992 12.4629 26.762 12.5186 26.7373 12.5742C26.7126 12.6237 26.6569 12.6825 26.5703 12.7505C26.5023 12.8 26.4373 12.868 26.3755 12.9546C26.3136 13.0412 26.2456 13.1278 26.1714 13.2144C26.0972 13.2948 26.0106 13.3659 25.9116 13.4277C25.8127 13.4958 25.6951 13.5298 25.5591 13.5298C25.5282 13.5298 25.5003 13.5267 25.4756 13.5205C25.4508 13.5205 25.423 13.5174 25.3921 13.5112C25.3921 13.5112 25.3704 13.4989 25.3271 13.4741C25.2839 13.4494 25.2344 13.3999 25.1787 13.3257C25.1292 13.2515 25.0828 13.1463 25.0396 13.0103C24.9963 12.8742 24.9746 12.6948 24.9746 12.4722C24.9746 12.4165 24.9839 12.3577 25.0024 12.2959C25.0272 12.2279 25.0519 12.1629 25.0767 12.1011C25.1076 12.0392 25.1323 11.9774 25.1509 11.9155C25.1756 11.8475 25.188 11.7856 25.188 11.73C25.188 11.6743 25.1756 11.6217 25.1509 11.5723C25.1261 11.5228 25.1138 11.4702 25.1138 11.4146C25.1138 11.3589 25.1385 11.3218 25.188 11.3032C25.2375 11.2785 25.2622 11.2352 25.2622 11.1733C25.2622 11.1424 25.2591 11.1146 25.2529 11.0898C25.2529 11.0651 25.2529 11.0373 25.2529 11.0063C25.2529 10.9321 25.2653 10.8826 25.29 10.8579C25.3148 10.827 25.3271 10.7868 25.3271 10.7373C25.3271 10.694 25.3179 10.6631 25.2993 10.6445C25.2869 10.6198 25.2808 10.5889 25.2808 10.5518C25.2808 10.5085 25.2962 10.4683 25.3271 10.4312C25.3581 10.3879 25.3797 10.3291 25.3921 10.2549C25.4354 10.1126 25.4694 9.94564 25.4941 9.75391C25.5189 9.55599 25.5467 9.3457 25.5776 9.12305C25.6147 8.89421 25.6549 8.65299 25.6982 8.39941C25.7415 8.13965 25.8034 7.87988 25.8838 7.62012C25.9085 7.53353 25.9333 7.40983 25.958 7.24902C25.9889 7.08203 26.0075 6.90885 26.0137 6.72949C25.9827 6.71094 25.9611 6.70166 25.9487 6.70166C25.8993 6.70166 25.8621 6.74186 25.8374 6.82227C25.8188 6.90267 25.7879 6.96143 25.7446 6.99854C25.7137 7.02327 25.6766 7.03564 25.6333 7.03564C25.5962 7.03564 25.5622 7.04492 25.5312 7.06348C25.4941 7.0944 25.4632 7.13151 25.4385 7.1748C25.4199 7.21191 25.3983 7.24902 25.3735 7.28613C25.355 7.32324 25.3271 7.36035 25.29 7.39746C25.2529 7.43457 25.1973 7.4624 25.123 7.48096C25.1107 7.48714 25.1045 7.5026 25.1045 7.52734C25.1045 7.5459 25.0921 7.55518 25.0674 7.55518H25.0488C25.0488 7.53662 25.0334 7.52116 25.0024 7.50879C24.9777 7.49023 24.9468 7.47168 24.9097 7.45312C24.8726 7.43457 24.8385 7.41292 24.8076 7.38818C24.7829 7.36344 24.7705 7.33252 24.7705 7.29541C24.7705 7.23975 24.7829 7.19645 24.8076 7.16553C24.8324 7.1346 24.8664 7.10986 24.9097 7.09131C24.953 7.07275 24.9963 7.0542 25.0396 7.03564C25.089 7.0109 25.1385 6.97689 25.188 6.93359C25.2498 6.87174 25.3179 6.80062 25.3921 6.72021C25.4725 6.63981 25.5529 6.55941 25.6333 6.479C25.7137 6.39242 25.7972 6.31201 25.8838 6.23779C25.9766 6.15739 26.0693 6.08626 26.1621 6.02441C26.1807 6.01204 26.1838 5.99967 26.1714 5.9873C26.1652 5.97493 26.1838 5.96566 26.2271 5.95947C26.2456 5.95947 26.2703 5.9502 26.3013 5.93164C26.3384 5.9069 26.3724 5.88216 26.4033 5.85742C26.4404 5.8265 26.4714 5.80176 26.4961 5.7832C26.5208 5.75846 26.5363 5.74609 26.5425 5.74609C26.5549 5.74609 26.5672 5.74919 26.5796 5.75537C26.5981 5.75537 26.6136 5.75537 26.626 5.75537C26.6755 5.75537 26.7311 5.743 26.793 5.71826C26.861 5.68734 26.9816 5.67188 27.1548 5.67188C27.2228 5.67188 27.2816 5.69352 27.3311 5.73682C27.3867 5.77393 27.4146 5.85433 27.4146 5.97803C27.4146 6.01514 27.3991 6.07389 27.3682 6.1543C27.3372 6.2347 27.3032 6.33057 27.2661 6.44189C27.229 6.55322 27.195 6.67692 27.1641 6.81299C27.1331 6.94906 27.1177 7.09131 27.1177 7.23975C27.1177 7.3016 27.1208 7.36654 27.127 7.43457C27.1331 7.49642 27.1362 7.55827 27.1362 7.62012C27.1362 7.73145 27.1146 7.82731 27.0713 7.90771C27.0342 7.98193 27.0063 8.07161 26.9878 8.17676C26.9631 8.30664 26.9507 8.44271 26.9507 8.58496C26.9507 8.72721 26.9414 8.86947 26.9229 9.01172C26.8734 9.30859 26.8146 9.59619 26.7466 9.87451C26.6785 10.1528 26.6198 10.4404 26.5703 10.7373C26.5518 10.8363 26.5208 10.9631 26.4775 11.1177C26.4404 11.2723 26.4219 11.4362 26.4219 11.6094C26.4219 11.7702 26.4497 11.9186 26.5054 12.0547C26.5981 12.0485 26.6755 12.0207 26.7373 11.9712C26.7992 11.9217 26.8548 11.866 26.9043 11.8042C26.9538 11.7424 27.0002 11.6774 27.0435 11.6094C27.0929 11.5413 27.1455 11.4826 27.2012 11.4331C27.2383 11.4022 27.2909 11.3805 27.3589 11.3682C27.4331 11.3496 27.495 11.3249 27.5444 11.2939C27.5939 11.263 27.6279 11.2197 27.6465 11.1641C27.665 11.1084 27.7052 11.0806 27.7671 11.0806C27.7795 11.0806 27.7887 11.0837 27.7949 11.0898C27.8011 11.0898 27.8104 11.0898 27.8228 11.0898ZM28.166 1.73828C28.1846 1.77539 28.1938 1.81559 28.1938 1.85889C28.1938 1.93311 28.1691 2.01351 28.1196 2.1001C28.0701 2.18669 28.0145 2.27018 27.9526 2.35059C27.897 2.43099 27.8413 2.50521 27.7856 2.57324C27.73 2.63509 27.696 2.67839 27.6836 2.70312C27.6465 2.78353 27.6156 2.89176 27.5908 3.02783C27.5723 3.1639 27.5321 3.2876 27.4702 3.39893C27.4455 3.4484 27.4238 3.48551 27.4053 3.51025C27.3867 3.53499 27.3651 3.59066 27.3403 3.67725C27.3156 3.73291 27.2847 3.79785 27.2476 3.87207C27.2104 3.94629 27.1702 4.01742 27.127 4.08545C27.0837 4.1473 27.0404 4.20296 26.9971 4.25244C26.9538 4.29574 26.9136 4.31738 26.8765 4.31738C26.7157 4.31738 26.6043 4.24007 26.5425 4.08545C26.4868 3.92464 26.459 3.736 26.459 3.51953C26.459 3.43294 26.4621 3.34326 26.4683 3.25049C26.4806 3.15771 26.493 3.06803 26.5054 2.98145C26.5177 2.88867 26.5487 2.82064 26.5981 2.77734C26.6476 2.73405 26.6878 2.66602 26.7188 2.57324C26.7497 2.49284 26.7713 2.41553 26.7837 2.34131C26.7961 2.2609 26.8084 2.18669 26.8208 2.11865C26.8394 2.05062 26.8579 1.99186 26.8765 1.94238C26.9012 1.88672 26.9383 1.84033 26.9878 1.80322C27.0249 1.77848 27.0682 1.75684 27.1177 1.73828C27.1733 1.71973 27.229 1.70736 27.2847 1.70117C27.3465 1.6888 27.4053 1.67952 27.4609 1.67334C27.5228 1.66715 27.5723 1.66406 27.6094 1.66406C27.6094 1.67025 27.6372 1.66097 27.6929 1.63623C27.7485 1.60531 27.8104 1.58984 27.8784 1.58984C27.8908 1.58984 27.931 1.60221 27.999 1.62695C28.0732 1.64551 28.1289 1.68262 28.166 1.73828ZM33.7695 6.82227C33.7572 7.05729 33.7231 7.27067 33.6675 7.4624C33.618 7.65413 33.5531 7.8304 33.4727 7.99121C33.3984 8.15202 33.3149 8.30046 33.2222 8.43652C33.1294 8.57259 33.0335 8.70557 32.9346 8.83545C32.8727 8.91585 32.8232 8.98698 32.7861 9.04883C32.749 9.10449 32.7119 9.15397 32.6748 9.19727C32.6377 9.24056 32.5975 9.27767 32.5542 9.30859C32.5109 9.33952 32.4521 9.36426 32.3779 9.38281C32.3285 9.39518 32.2697 9.41064 32.2017 9.4292C32.1398 9.44157 32.0841 9.47249 32.0347 9.52197C32.0223 9.53434 32.0099 9.55908 31.9976 9.59619C31.9852 9.62712 31.9728 9.64876 31.9604 9.66113C31.911 9.69824 31.8522 9.72298 31.7842 9.73535C31.7223 9.74154 31.6667 9.76318 31.6172 9.80029C31.5677 9.84359 31.5337 9.8807 31.5151 9.91162C31.4966 9.94255 31.4626 9.97347 31.4131 10.0044C31.3636 10.0353 31.3049 10.0601 31.2368 10.0786C31.175 10.091 31.1162 10.1126 31.0605 10.1436C31.0173 10.1745 30.9832 10.2116 30.9585 10.2549C30.9399 10.292 30.9059 10.326 30.8564 10.3569C30.7575 10.425 30.674 10.4775 30.606 10.5146C30.5379 10.5456 30.4823 10.592 30.439 10.6538C30.4019 10.7157 30.374 10.8053 30.3555 10.9229C30.3369 11.0404 30.3276 11.2197 30.3276 11.4609C30.3276 11.6032 30.3307 11.7393 30.3369 11.8691C30.3493 11.999 30.3617 12.0949 30.374 12.1567C30.3802 12.1753 30.3988 12.2186 30.4297 12.2866C30.4668 12.3485 30.5101 12.4165 30.5596 12.4907C30.6152 12.5649 30.6771 12.633 30.7451 12.6948C30.8132 12.7505 30.8843 12.7783 30.9585 12.7783C31.0698 12.7783 31.1688 12.7381 31.2554 12.6577C31.342 12.5711 31.4378 12.4969 31.543 12.4351C31.6234 12.3856 31.7285 12.3206 31.8584 12.2402C31.9883 12.1536 32.0934 12.0578 32.1738 11.9526C32.1986 11.9155 32.2295 11.866 32.2666 11.8042C32.3037 11.7362 32.3439 11.6712 32.3872 11.6094C32.4367 11.5413 32.4893 11.4857 32.5449 11.4424C32.6068 11.3929 32.6748 11.3682 32.749 11.3682C32.7799 11.3682 32.8201 11.3774 32.8696 11.396C32.8634 11.5011 32.8294 11.597 32.7676 11.6836C32.7119 11.7702 32.647 11.8506 32.5728 11.9248C32.5047 11.9928 32.4429 12.0547 32.3872 12.1104C32.3315 12.166 32.3037 12.2124 32.3037 12.2495C32.3037 12.2619 32.3037 12.2804 32.3037 12.3052C32.3099 12.3237 32.313 12.3392 32.313 12.3516C32.313 12.3825 32.2759 12.4072 32.2017 12.4258C32.1336 12.4382 32.078 12.4629 32.0347 12.5C32.0037 12.5309 31.979 12.568 31.9604 12.6113C31.9481 12.6484 31.9264 12.6794 31.8955 12.7041C31.8275 12.7598 31.7563 12.8092 31.6821 12.8525C31.6079 12.8958 31.5399 12.9422 31.478 12.9917C31.41 13.0535 31.3389 13.1247 31.2646 13.2051C31.1966 13.2855 31.1286 13.3597 31.0605 13.4277C30.9925 13.502 30.9245 13.5638 30.8564 13.6133C30.7946 13.6628 30.7358 13.6875 30.6802 13.6875C30.6493 13.6875 30.6152 13.6813 30.5781 13.6689C30.5472 13.6628 30.5163 13.6597 30.4854 13.6597C30.4544 13.6597 30.4297 13.672 30.4111 13.6968C30.3926 13.7215 30.3678 13.7339 30.3369 13.7339C30.2812 13.7339 30.2163 13.7061 30.1421 13.6504C30.0679 13.6009 30.006 13.5638 29.9565 13.5391C29.87 13.5081 29.7679 13.4865 29.6504 13.4741C29.5329 13.4679 29.4494 13.4463 29.3999 13.4092C29.3566 13.3721 29.3226 13.304 29.2979 13.2051C29.2793 13.1061 29.2453 13.0103 29.1958 12.9175C29.1463 12.8309 29.0907 12.7598 29.0288 12.7041C28.967 12.6484 28.9299 12.6051 28.9175 12.5742C28.9051 12.5371 28.8958 12.4876 28.8896 12.4258C28.8896 12.3577 28.8896 12.2897 28.8896 12.2217C28.8896 12.1475 28.8866 12.0763 28.8804 12.0083C28.8742 11.9341 28.8618 11.8691 28.8433 11.8135C28.8371 11.7949 28.8247 11.7795 28.8062 11.7671C28.7876 11.7485 28.7783 11.7145 28.7783 11.665C28.7783 11.6712 28.7876 11.6589 28.8062 11.6279C28.8309 11.5908 28.8433 11.5599 28.8433 11.5352C28.8742 11.0465 28.9175 10.5827 28.9731 10.1436C29.035 9.69824 29.1123 9.29313 29.2051 8.92822C29.2979 8.55713 29.4092 8.23551 29.5391 7.96338C29.6751 7.68506 29.8359 7.46549 30.0215 7.30469C30.0524 7.27995 30.0864 7.27067 30.1235 7.27686C30.1668 7.27686 30.2039 7.26449 30.2349 7.23975C30.2472 7.22738 30.2565 7.20573 30.2627 7.1748C30.2751 7.1377 30.2874 7.11296 30.2998 7.10059C30.3307 7.07585 30.3647 7.06348 30.4019 7.06348C30.4451 7.06348 30.4792 7.05111 30.5039 7.02637C30.5225 7.014 30.5472 6.98926 30.5781 6.95215C30.609 6.91504 30.64 6.87484 30.6709 6.83154C30.7018 6.78825 30.7327 6.74805 30.7637 6.71094C30.7946 6.66764 30.8255 6.63672 30.8564 6.61816C30.9307 6.56868 31.0203 6.53467 31.1255 6.51611C31.2306 6.49756 31.3265 6.46045 31.4131 6.40479C31.4378 6.39242 31.4657 6.36768 31.4966 6.33057C31.5275 6.29346 31.5584 6.25635 31.5894 6.21924C31.6265 6.17594 31.6605 6.13883 31.6914 6.10791C31.7223 6.07699 31.7533 6.06152 31.7842 6.06152C31.7965 6.06152 31.812 6.06462 31.8306 6.0708C31.8491 6.0708 31.8646 6.0708 31.877 6.0708C31.8893 6.0708 31.9357 6.03369 32.0161 5.95947C32.1027 5.88525 32.18 5.8265 32.248 5.7832C32.2666 5.77083 32.2759 5.74919 32.2759 5.71826C32.2821 5.68115 32.2944 5.65641 32.313 5.64404C32.3439 5.6193 32.3934 5.60075 32.4614 5.58838C32.5295 5.56982 32.5944 5.54199 32.6562 5.50488C32.7057 5.47396 32.7428 5.44303 32.7676 5.41211C32.7923 5.38118 32.848 5.36572 32.9346 5.36572C33.1572 5.38428 33.3273 5.42448 33.4448 5.48633C33.5623 5.54818 33.6427 5.63786 33.686 5.75537C33.7355 5.8667 33.7603 6.01204 33.7603 6.19141C33.7664 6.36458 33.7695 6.57487 33.7695 6.82227ZM32.4521 6.82227C32.446 6.8099 32.4212 6.78825 32.3779 6.75732C32.3408 6.72021 32.3192 6.69548 32.313 6.68311C32.2944 6.65218 32.2852 6.62126 32.2852 6.59033C32.2852 6.55322 32.2821 6.51921 32.2759 6.48828C32.2697 6.45736 32.2573 6.43262 32.2388 6.41406C32.2264 6.39551 32.1986 6.38623 32.1553 6.38623C32.1182 6.38623 32.0625 6.40788 31.9883 6.45117C31.9202 6.48828 31.846 6.53467 31.7656 6.59033C31.6914 6.646 31.6203 6.70166 31.5522 6.75732C31.4842 6.81299 31.4378 6.85628 31.4131 6.88721C31.3822 6.92432 31.3389 6.99235 31.2832 7.09131C31.2337 7.18408 31.1812 7.27995 31.1255 7.37891C31.076 7.47786 31.0296 7.56445 30.9863 7.63867C30.943 7.71289 30.9183 7.75 30.9121 7.75C30.9121 7.76237 30.9121 7.77783 30.9121 7.79639C30.9183 7.81494 30.9214 7.8304 30.9214 7.84277C30.9214 7.87988 30.8966 7.9139 30.8472 7.94482C30.7977 7.96956 30.7729 8.02214 30.7729 8.10254C30.7729 8.13346 30.776 8.17057 30.7822 8.21387C30.7884 8.25098 30.7915 8.28499 30.7915 8.31592C30.7915 8.3654 30.7699 8.41488 30.7266 8.46436C30.6895 8.51383 30.6647 8.56641 30.6523 8.62207C30.5967 8.81999 30.541 9.03337 30.4854 9.26221C30.4297 9.48486 30.4019 9.70443 30.4019 9.9209C30.4019 9.98893 30.408 10.0477 30.4204 10.0972C30.439 10.1405 30.4884 10.1621 30.5688 10.1621C30.6245 10.1621 30.6647 10.1528 30.6895 10.1343C30.7204 10.1095 30.7451 10.0817 30.7637 10.0508C30.7822 10.0137 30.7977 9.97965 30.8101 9.94873C30.8224 9.91781 30.8379 9.89307 30.8564 9.87451C30.9368 9.80029 31.0296 9.72298 31.1348 9.64258C31.2399 9.56217 31.3451 9.47868 31.4502 9.39209C31.5615 9.29932 31.6667 9.20654 31.7656 9.11377C31.8708 9.021 31.9604 8.92822 32.0347 8.83545C32.0532 8.80452 32.0718 8.75505 32.0903 8.68701C32.1089 8.61279 32.1367 8.54476 32.1738 8.48291C32.2666 8.3221 32.3377 8.11491 32.3872 7.86133C32.4429 7.60775 32.4707 7.32943 32.4707 7.02637C32.4707 6.99544 32.4676 6.96143 32.4614 6.92432C32.4614 6.88721 32.4583 6.85319 32.4521 6.82227ZM37.6475 10.9507C37.6351 11.0311 37.6196 11.1115 37.6011 11.1919C37.5887 11.2723 37.5578 11.3527 37.5083 11.4331C37.4774 11.4888 37.431 11.5382 37.3691 11.5815C37.3073 11.6187 37.2609 11.6619 37.23 11.7114C37.1929 11.7609 37.1589 11.8197 37.1279 11.8877C37.097 11.9495 37.063 12.0052 37.0259 12.0547C36.964 12.1351 36.8929 12.2124 36.8125 12.2866C36.7383 12.3547 36.6702 12.4412 36.6084 12.5464C36.5342 12.6701 36.4507 12.7845 36.3579 12.8896C36.2713 12.9948 36.1476 13.1309 35.9868 13.2979C35.9373 13.3535 35.8971 13.4215 35.8662 13.502C35.8353 13.5824 35.8044 13.6318 35.7734 13.6504C35.7425 13.6751 35.6961 13.6875 35.6343 13.6875C35.5786 13.6937 35.5353 13.703 35.5044 13.7153C35.5044 13.7153 35.4889 13.7246 35.458 13.7432C35.4333 13.7617 35.4023 13.7803 35.3652 13.7988C35.3343 13.8236 35.2972 13.8421 35.2539 13.8545C35.2168 13.873 35.1828 13.8823 35.1519 13.8823C35.022 13.8823 34.923 13.8483 34.855 13.7803C34.7869 13.7122 34.7375 13.6133 34.7065 13.4834C34.6818 13.3535 34.6663 13.1927 34.6602 13.001C34.6602 12.8092 34.6602 12.5897 34.6602 12.3423C34.6602 12.2248 34.6632 12.1258 34.6694 12.0454C34.6818 11.9588 34.6942 11.8815 34.7065 11.8135C34.7251 11.7393 34.7406 11.6681 34.7529 11.6001C34.7715 11.5321 34.79 11.4548 34.8086 11.3682C34.8457 11.1702 34.8674 10.9692 34.8735 10.7651C34.8859 10.561 34.9106 10.3446 34.9478 10.1157C34.9601 10.0291 34.9818 9.93945 35.0127 9.84668C35.0498 9.75391 35.0745 9.65804 35.0869 9.55908C35.1302 9.19417 35.1519 8.81999 35.1519 8.43652C35.158 8.05306 35.1828 7.6665 35.2261 7.27686C35.2446 7.07275 35.2725 6.86556 35.3096 6.65527C35.3529 6.4388 35.3931 6.22852 35.4302 6.02441C35.4797 5.75846 35.5229 5.47396 35.5601 5.1709C35.6034 4.86165 35.6436 4.54932 35.6807 4.23389C35.724 3.91846 35.7642 3.60303 35.8013 3.2876C35.8384 2.96598 35.8755 2.65674 35.9126 2.35986C35.925 2.25472 35.9497 2.14958 35.9868 2.04443C36.0301 1.93311 36.0518 1.82487 36.0518 1.71973C36.0518 1.58984 36.0054 1.47852 35.9126 1.38574C35.8136 1.4043 35.7456 1.45378 35.7085 1.53418C35.6776 1.6084 35.6312 1.67643 35.5693 1.73828C35.4827 1.82487 35.4023 1.89909 35.3281 1.96094C35.2539 2.02279 35.1735 2.10938 35.0869 2.2207C35.0622 2.25163 35.0374 2.29183 35.0127 2.34131C34.988 2.39079 34.957 2.44027 34.9199 2.48975C34.889 2.53304 34.8488 2.57015 34.7993 2.60107C34.7498 2.632 34.688 2.64746 34.6138 2.64746C34.5519 2.64746 34.5148 2.632 34.5024 2.60107C34.4901 2.56396 34.4839 2.52686 34.4839 2.48975C34.4839 2.43408 34.4993 2.38151 34.5303 2.33203C34.5674 2.27637 34.6076 2.2238 34.6509 2.17432C34.7004 2.11865 34.7529 2.06608 34.8086 2.0166C34.8643 1.96712 34.9106 1.91764 34.9478 1.86816C35.0467 1.75065 35.1395 1.63005 35.2261 1.50635C35.3188 1.37646 35.4116 1.26823 35.5044 1.18164C35.5724 1.11361 35.659 1.04867 35.7642 0.986816C35.8693 0.924967 35.9683 0.850749 36.061 0.76416C36.1476 0.683757 36.2157 0.584798 36.2651 0.467285C36.3208 0.349772 36.3888 0.263184 36.4692 0.20752C36.494 0.188965 36.5249 0.179688 36.562 0.179688C36.6053 0.173503 36.6455 0.167318 36.6826 0.161133C36.7259 0.148763 36.7661 0.133301 36.8032 0.114746C36.8403 0.0900065 36.8682 0.0528971 36.8867 0.00341797C36.9795 0.00341797 37.0599 0.0281576 37.1279 0.0776367C37.196 0.120931 37.2516 0.173503 37.2949 0.235352C37.3444 0.291016 37.3815 0.343587 37.4062 0.393066C37.431 0.442546 37.4434 0.470378 37.4434 0.476562C37.4434 0.544596 37.4217 0.621908 37.3784 0.708496C37.3413 0.7889 37.3166 0.878581 37.3042 0.977539C37.2918 1.0765 37.2826 1.18164 37.2764 1.29297C37.2702 1.39811 37.2609 1.51872 37.2485 1.65479C37.2424 1.79085 37.2269 1.94548 37.2021 2.11865C37.1774 2.28564 37.1434 2.48047 37.1001 2.70312C37.0754 2.82064 37.0352 2.93197 36.9795 3.03711C36.93 3.14225 36.8991 3.23812 36.8867 3.32471C36.8496 3.59066 36.8311 3.87826 36.8311 4.1875C36.8311 4.49056 36.8032 4.78125 36.7476 5.05957C36.729 5.15234 36.7012 5.23893 36.6641 5.31934C36.627 5.39355 36.6084 5.47396 36.6084 5.56055C36.6084 5.58529 36.6084 5.6193 36.6084 5.6626C36.6146 5.69971 36.6177 5.73372 36.6177 5.76465C36.6177 5.80794 36.6053 5.83887 36.5806 5.85742C36.562 5.86979 36.5527 5.88216 36.5527 5.89453C36.5527 5.91309 36.562 5.93164 36.5806 5.9502C36.5991 5.96257 36.6084 5.99349 36.6084 6.04297C36.6084 6.18522 36.5775 6.32747 36.5156 6.46973C36.4538 6.60579 36.4136 6.73568 36.395 6.85938C36.3517 7.16862 36.3301 7.48405 36.3301 7.80566C36.3363 8.12728 36.3146 8.43652 36.2651 8.7334C36.2528 8.80143 36.228 8.86947 36.1909 8.9375C36.1538 9.00553 36.1322 9.07357 36.126 9.1416C36.1136 9.33333 36.1012 9.54053 36.0889 9.76318C36.0827 9.98584 36.0734 10.1961 36.061 10.394C36.0425 10.5239 36.0177 10.6693 35.9868 10.8301C35.9559 10.9909 35.925 11.1579 35.894 11.3311C35.8693 11.498 35.8446 11.665 35.8198 11.832C35.8013 11.999 35.792 12.1536 35.792 12.2959C35.792 12.3949 35.7982 12.4691 35.8105 12.5186C35.8229 12.568 35.8384 12.6051 35.8569 12.6299C35.8817 12.6484 35.9033 12.6608 35.9219 12.667C35.9466 12.667 35.9683 12.667 35.9868 12.667C36.0301 12.667 36.0703 12.6515 36.1074 12.6206C36.1445 12.5897 36.1785 12.5526 36.2095 12.5093C36.2466 12.466 36.2775 12.4227 36.3022 12.3794C36.3332 12.3299 36.3641 12.2897 36.395 12.2588C36.6053 12.0732 36.763 11.9032 36.8682 11.7485C36.9733 11.5877 37.0599 11.4486 37.1279 11.3311C37.196 11.2135 37.2609 11.1208 37.3228 11.0527C37.3846 10.9847 37.4805 10.9507 37.6104 10.9507H37.6475ZM59.2544 2.48047C59.2544 2.57943 59.2266 2.65674 59.1709 2.7124C59.1214 2.76807 59.0565 2.81136 58.9761 2.84229C58.8957 2.86702 58.806 2.88867 58.707 2.90723C58.6081 2.9196 58.5122 2.93815 58.4194 2.96289C58.4009 2.97526 58.3823 2.99072 58.3638 3.00928C58.3514 3.02165 58.3236 3.03092 58.2803 3.03711C58.2493 3.03711 58.1937 3.04639 58.1133 3.06494C58.0329 3.07731 57.9463 3.09277 57.8535 3.11133C57.7669 3.12988 57.6834 3.15153 57.603 3.17627C57.5226 3.20101 57.4701 3.22266 57.4453 3.24121C57.4082 3.27214 57.3742 3.32471 57.3433 3.39893C57.3185 3.47314 57.2907 3.55664 57.2598 3.64941C57.235 3.74219 57.2103 3.83805 57.1855 3.93701C57.1608 4.03597 57.1361 4.12565 57.1113 4.20605C57.099 4.23698 57.0742 4.27718 57.0371 4.32666C57 4.36995 56.9753 4.40088 56.9629 4.41943C56.9196 4.52458 56.8732 4.64518 56.8237 4.78125C56.7804 4.91113 56.7371 5.04411 56.6938 5.18018C56.6567 5.31624 56.6165 5.44613 56.5732 5.56982C56.5361 5.69352 56.5052 5.79557 56.4805 5.87598C56.4681 5.89453 56.4434 5.91927 56.4062 5.9502C56.3753 5.98112 56.3537 6.00277 56.3413 6.01514C56.3104 6.08317 56.2856 6.16048 56.2671 6.24707C56.2547 6.32747 56.2331 6.41097 56.2021 6.49756C56.1898 6.52848 56.165 6.56559 56.1279 6.60889C56.0908 6.65218 56.0723 6.68311 56.0723 6.70166C56.0537 6.76969 56.0444 6.84082 56.0444 6.91504C56.0444 6.98926 56.029 7.05729 55.998 7.11914C55.9857 7.1377 55.9702 7.14697 55.9517 7.14697C55.9331 7.14079 55.9238 7.15625 55.9238 7.19336C55.9238 7.2181 55.9084 7.26449 55.8774 7.33252C55.8527 7.39437 55.8218 7.46549 55.7847 7.5459C55.7476 7.62012 55.7074 7.69743 55.6641 7.77783C55.627 7.85205 55.5991 7.91081 55.5806 7.9541C55.5496 8.01595 55.5187 8.07471 55.4878 8.13037C55.4631 8.18604 55.4229 8.2417 55.3672 8.29736C55.3301 8.33447 55.3146 8.37467 55.3208 8.41797C55.327 8.46126 55.3208 8.51383 55.3022 8.57568C55.2775 8.69938 55.2033 8.84163 55.0796 9.00244C54.9559 9.15706 54.8446 9.31478 54.7456 9.47559C54.6652 9.60547 54.5941 9.73535 54.5322 9.86523C54.4766 9.98893 54.4085 10.1126 54.3281 10.2363C54.2539 10.3538 54.1921 10.4775 54.1426 10.6074C54.0931 10.7373 54.0189 10.8672 53.9199 10.9971C53.889 11.0465 53.8519 11.0837 53.8086 11.1084C53.7653 11.1331 53.7313 11.1672 53.7065 11.2104C53.6818 11.2599 53.6663 11.3094 53.6602 11.3589C53.6602 11.4022 53.654 11.4424 53.6416 11.4795C53.6045 11.5661 53.5705 11.6403 53.5396 11.7021C53.5148 11.764 53.4808 11.8537 53.4375 11.9712C53.4251 12.0021 53.4004 12.0392 53.3633 12.0825C53.3262 12.1258 53.3014 12.1598 53.2891 12.1846C53.252 12.2959 53.2365 12.4134 53.2427 12.5371C53.255 12.6608 53.2489 12.7505 53.2241 12.8062C53.1746 12.8927 53.1221 12.9422 53.0664 12.9546C53.0169 12.967 52.9551 13.0072 52.8809 13.0752C52.8499 13.1061 52.8097 13.1556 52.7603 13.2236C52.7108 13.2855 52.6582 13.3504 52.6025 13.4185C52.5469 13.4927 52.4881 13.5576 52.4263 13.6133C52.3644 13.6689 52.3057 13.6999 52.25 13.7061C52.0459 13.7061 51.9067 13.6659 51.8325 13.5854C51.7583 13.5112 51.7119 13.4123 51.6934 13.2886C51.681 13.1649 51.6779 13.0257 51.6841 12.8711C51.6903 12.7103 51.6717 12.5495 51.6284 12.3887C51.6222 12.3701 51.6068 12.333 51.582 12.2773C51.5635 12.2217 51.5387 12.1629 51.5078 12.1011C51.4831 12.033 51.4552 11.9681 51.4243 11.9062C51.3996 11.8444 51.3779 11.798 51.3594 11.7671C51.347 11.7547 51.3192 11.7331 51.2759 11.7021C51.2388 11.665 51.2171 11.6403 51.2109 11.6279C51.1924 11.5723 51.18 11.5166 51.1738 11.4609C51.1738 11.4053 51.1738 11.3527 51.1738 11.3032V11.0806C51.1738 10.9507 51.1584 10.8208 51.1274 10.6909C51.0965 10.561 51.0594 10.4312 51.0161 10.3013C50.979 10.1652 50.9388 10.0291 50.8955 9.89307C50.8584 9.757 50.8275 9.61784 50.8027 9.47559C50.7533 9.32096 50.7007 9.12614 50.645 8.89111C50.5955 8.65609 50.5553 8.43652 50.5244 8.23242C50.5059 8.09017 50.4935 7.95101 50.4873 7.81494C50.4873 7.67269 50.4842 7.53662 50.478 7.40674C50.478 7.27686 50.4718 7.15316 50.4595 7.03564C50.4471 6.91813 50.4224 6.8068 50.3853 6.70166C50.3543 6.62126 50.3265 6.51611 50.3018 6.38623C50.277 6.25016 50.2492 6.12028 50.2183 5.99658C50.1935 5.87288 50.1657 5.76774 50.1348 5.68115C50.1038 5.58838 50.0667 5.54199 50.0234 5.54199C50.0234 5.54199 49.9894 5.58838 49.9214 5.68115C49.8534 5.76774 49.7699 5.87598 49.6709 6.00586C49.5781 6.12956 49.4792 6.26253 49.374 6.40479C49.2751 6.54704 49.1947 6.67074 49.1328 6.77588C49.1143 6.8068 49.105 6.84082 49.105 6.87793C49.105 6.91504 49.0926 6.95215 49.0679 6.98926C49.0617 7.00163 49.04 7.014 49.0029 7.02637C48.9658 7.03255 48.9411 7.04183 48.9287 7.0542C48.8978 7.11605 48.87 7.19027 48.8452 7.27686C48.8205 7.36344 48.7803 7.45003 48.7246 7.53662C48.6257 7.67269 48.5174 7.81185 48.3999 7.9541C48.2886 8.09635 48.1865 8.23242 48.0938 8.3623C48.069 8.41178 48.0597 8.46126 48.0659 8.51074C48.0721 8.55404 48.0597 8.60042 48.0288 8.6499C47.9917 8.71175 47.9268 8.78906 47.834 8.88184C47.7412 8.97461 47.667 9.05811 47.6113 9.13232C47.5866 9.17562 47.5773 9.22201 47.5835 9.27148C47.5897 9.32096 47.5773 9.36426 47.5464 9.40137C47.4351 9.57454 47.3052 9.76628 47.1567 9.97656C47.0145 10.1807 46.8908 10.4064 46.7856 10.6538C46.7547 10.728 46.73 10.8084 46.7114 10.895C46.6991 10.9754 46.6774 11.0589 46.6465 11.1455C46.6279 11.1764 46.597 11.2043 46.5537 11.229C46.5166 11.2537 46.498 11.2816 46.498 11.3125C46.498 11.3249 46.498 11.3403 46.498 11.3589C46.5042 11.3713 46.5073 11.3836 46.5073 11.396C46.5073 11.4269 46.5011 11.4486 46.4888 11.4609C46.4826 11.4671 46.4733 11.4733 46.4609 11.4795C46.4548 11.4795 46.4455 11.4888 46.4331 11.5073C46.4269 11.5197 46.4238 11.5475 46.4238 11.5908C46.4238 11.6465 46.4269 11.7052 46.4331 11.7671C46.4393 11.8228 46.4424 11.8691 46.4424 11.9062C46.4424 11.9434 46.4362 11.965 46.4238 11.9712C46.4176 11.9774 46.4084 11.9836 46.396 11.9897C46.3898 11.9897 46.3836 11.9928 46.3774 11.999C46.3713 11.999 46.3682 12.0114 46.3682 12.0361C46.3682 12.1042 46.3465 12.1629 46.3032 12.2124C46.2661 12.2619 46.2228 12.3114 46.1733 12.3608C46.1239 12.4041 46.0713 12.4505 46.0156 12.5C45.9661 12.5433 45.9229 12.599 45.8857 12.667C45.8363 12.7412 45.7992 12.8278 45.7744 12.9268C45.7497 13.0195 45.7188 13.1092 45.6816 13.1958C45.6445 13.2762 45.5951 13.3442 45.5332 13.3999C45.4714 13.4618 45.3817 13.4927 45.2642 13.4927C45.0848 13.4927 44.9425 13.403 44.8374 13.2236C44.7384 13.0443 44.6611 12.8123 44.6055 12.5278C44.556 12.2371 44.5189 11.9093 44.4941 11.5444C44.4756 11.1795 44.4539 10.8115 44.4292 10.4404C44.4168 10.2301 44.3921 10.0013 44.355 9.75391C44.3179 9.50651 44.2808 9.25602 44.2437 9.00244C44.2065 8.74268 44.1725 8.4891 44.1416 8.2417C44.1107 7.98812 44.0921 7.75309 44.0859 7.53662C44.0798 7.43766 44.055 7.34489 44.0117 7.2583C43.9746 7.17171 43.9499 7.08203 43.9375 6.98926C43.9189 6.85938 43.9066 6.68929 43.9004 6.479C43.8942 6.26872 43.888 6.04606 43.8818 5.81104C43.8818 5.56982 43.8787 5.33171 43.8726 5.09668C43.8726 4.85547 43.8664 4.639 43.854 4.44727C43.8416 4.24935 43.8231 4.09163 43.7983 3.97412C43.7736 3.85042 43.7365 3.78857 43.687 3.78857C43.6252 3.78857 43.5355 3.80094 43.418 3.82568C43.3066 3.84424 43.1891 3.86589 43.0654 3.89062C42.9417 3.91536 42.8242 3.9401 42.7129 3.96484C42.6077 3.9834 42.5273 3.99268 42.4717 3.99268C42.4222 3.99268 42.382 3.98031 42.3511 3.95557C42.3201 3.92464 42.2954 3.89062 42.2769 3.85352C42.2645 3.81641 42.2521 3.78548 42.2397 3.76074C42.2336 3.72982 42.2243 3.71436 42.2119 3.71436C42.2119 3.62777 42.2428 3.56283 42.3047 3.51953C42.3727 3.47005 42.4593 3.43604 42.5645 3.41748C42.6696 3.39274 42.7902 3.37728 42.9263 3.37109C43.0623 3.35872 43.1984 3.34945 43.3345 3.34326C43.4705 3.33089 43.6035 3.31234 43.7334 3.2876C43.8695 3.26286 43.987 3.22266 44.0859 3.16699C44.0983 3.16081 44.1076 3.13916 44.1138 3.10205C44.1261 3.06494 44.1385 3.04329 44.1509 3.03711C44.1694 3.03092 44.2035 3.01855 44.2529 3C44.3024 2.97526 44.355 2.95052 44.4106 2.92578C44.4663 2.90104 44.522 2.87939 44.5776 2.86084C44.6333 2.84229 44.6797 2.83301 44.7168 2.83301C44.7848 2.83301 44.8498 2.84847 44.9116 2.87939C44.9735 2.91032 45.0353 2.94434 45.0972 2.98145C45.159 3.01237 45.2209 3.04329 45.2827 3.07422C45.3507 3.10514 45.425 3.12061 45.5054 3.12061C45.6414 3.12061 45.7682 3.10514 45.8857 3.07422C46.0033 3.03711 46.161 3.01855 46.3589 3.01855C46.4084 3.01855 46.4671 3.02165 46.5352 3.02783C46.6094 3.02783 46.6805 3.03092 46.7485 3.03711C46.8166 3.03711 46.8722 3.04329 46.9155 3.05566C46.965 3.06185 46.9897 3.07422 46.9897 3.09277C46.9897 3.17318 46.965 3.21338 46.9155 3.21338C46.8722 3.21338 46.8073 3.22266 46.7207 3.24121C46.6898 3.25358 46.6496 3.27214 46.6001 3.29688C46.5506 3.31543 46.495 3.34017 46.4331 3.37109C46.3774 3.39583 46.3187 3.41748 46.2568 3.43604C46.2012 3.45459 46.1455 3.46387 46.0898 3.46387C45.9971 3.46387 45.9074 3.46387 45.8208 3.46387C45.7404 3.45768 45.6569 3.45459 45.5703 3.45459C45.4652 3.45459 45.3755 3.47314 45.3013 3.51025C45.2271 3.54736 45.1899 3.64632 45.1899 3.80713C45.1899 3.97412 45.2116 4.18132 45.2549 4.42871C45.3044 4.67611 45.3291 4.9235 45.3291 5.1709C45.3291 5.23275 45.326 5.29769 45.3198 5.36572C45.3198 5.42757 45.3198 5.48942 45.3198 5.55127C45.3198 5.73063 45.3384 5.91927 45.3755 6.11719C45.4188 6.30892 45.4497 6.4821 45.4683 6.63672C45.493 6.82845 45.5023 7.0109 45.4961 7.18408C45.4961 7.35107 45.5085 7.51497 45.5332 7.67578C45.5332 7.69434 45.5394 7.72526 45.5518 7.76855C45.5703 7.80566 45.5858 7.84896 45.5981 7.89844C45.6167 7.94173 45.6322 7.98812 45.6445 8.0376C45.6631 8.08708 45.6755 8.12728 45.6816 8.1582C45.7126 8.33138 45.7218 8.52311 45.7095 8.7334C45.6971 8.94368 45.7095 9.14469 45.7466 9.33643C45.7466 9.35498 45.7559 9.37972 45.7744 9.41064C45.7992 9.43538 45.8115 9.4694 45.8115 9.5127C45.8115 9.54362 45.8084 9.57454 45.8022 9.60547C45.8022 9.63021 45.8022 9.65804 45.8022 9.68896C45.8022 9.71989 45.8053 9.74154 45.8115 9.75391C45.8177 9.77246 45.8301 9.81266 45.8486 9.87451C45.8672 9.93636 45.8888 10.0013 45.9136 10.0693C45.9383 10.1312 45.96 10.1868 45.9785 10.2363C45.9971 10.2858 46.0125 10.3105 46.0249 10.3105C46.0373 10.3105 46.0775 10.2642 46.1455 10.1714C46.2135 10.0786 46.2847 9.97656 46.3589 9.86523C46.4393 9.74772 46.5135 9.63639 46.5815 9.53125C46.6558 9.42611 46.7021 9.36117 46.7207 9.33643C46.7764 9.26839 46.8258 9.20964 46.8691 9.16016C46.9186 9.11068 46.965 9.0612 47.0083 9.01172C47.0516 8.96224 47.0949 8.90967 47.1382 8.854C47.1815 8.79834 47.2248 8.73031 47.2681 8.6499C47.2866 8.61898 47.3114 8.58496 47.3423 8.54785C47.3794 8.51074 47.401 8.47363 47.4072 8.43652C47.4072 8.39941 47.4196 8.37158 47.4443 8.35303C47.4691 8.32829 47.5 8.30664 47.5371 8.28809C47.5742 8.26953 47.6113 8.25098 47.6484 8.23242C47.6917 8.21387 47.7288 8.18913 47.7598 8.1582C47.7783 8.13346 47.7876 8.09945 47.7876 8.05615C47.7876 8.01286 47.8 7.97884 47.8247 7.9541C47.9175 7.85514 48.0133 7.73454 48.1123 7.59229C48.2174 7.45003 48.3226 7.29232 48.4277 7.11914C48.5391 6.94596 48.6473 6.76042 48.7524 6.5625C48.8638 6.36458 48.9689 6.16048 49.0679 5.9502C49.0988 5.88835 49.1204 5.81722 49.1328 5.73682C49.1514 5.65641 49.1761 5.58838 49.207 5.53271C49.2256 5.49561 49.2472 5.47087 49.272 5.4585C49.3029 5.44613 49.3276 5.42448 49.3462 5.39355C49.3647 5.36882 49.3864 5.31624 49.4111 5.23584C49.4421 5.15544 49.4699 5.06885 49.4946 4.97607C49.5194 4.8833 49.5441 4.79362 49.5688 4.70703C49.5936 4.61426 49.6121 4.54313 49.6245 4.49365C49.6554 4.37614 49.6895 4.24935 49.7266 4.11328C49.7637 3.97103 49.8008 3.8195 49.8379 3.65869C49.8503 3.59066 49.875 3.52572 49.9121 3.46387C49.9492 3.39583 49.9709 3.31852 49.9771 3.23193C49.9771 3.18245 49.9709 3.13298 49.9585 3.0835C49.9523 3.02783 49.9492 2.97835 49.9492 2.93506C49.9492 2.85465 49.9678 2.80827 50.0049 2.7959C50.042 2.77734 50.076 2.74023 50.1069 2.68457C50.1193 2.65983 50.144 2.62272 50.1812 2.57324C50.2244 2.52376 50.2739 2.47428 50.3296 2.4248C50.3853 2.37533 50.444 2.33203 50.5059 2.29492C50.5677 2.25163 50.6265 2.22998 50.6821 2.22998C50.6759 2.22998 50.6914 2.23307 50.7285 2.23926C50.7656 2.24544 50.8058 2.25472 50.8491 2.26709C50.8986 2.27946 50.945 2.29183 50.9883 2.3042C51.0316 2.31657 51.0625 2.32894 51.0811 2.34131C51.1182 2.3846 51.1398 2.4681 51.146 2.5918C51.1584 2.70931 51.18 2.81136 51.2109 2.89795C51.2419 3.00309 51.2821 3.09277 51.3315 3.16699C51.381 3.24121 51.4119 3.31234 51.4243 3.38037C51.4614 3.55973 51.48 3.74528 51.48 3.93701C51.4862 4.12874 51.5356 4.31429 51.6284 4.49365V4.54932C51.6284 4.61735 51.616 4.66374 51.5913 4.68848C51.5666 4.71322 51.5542 4.75651 51.5542 4.81836C51.5542 4.85547 51.5573 4.88639 51.5635 4.91113C51.6006 5.05957 51.6315 5.22965 51.6562 5.42139C51.681 5.61312 51.7026 5.81104 51.7212 6.01514C51.7397 6.21924 51.7583 6.42334 51.7769 6.62744C51.7954 6.83154 51.8171 7.02018 51.8418 7.19336C51.8789 7.19336 51.9006 7.22119 51.9067 7.27686C51.9191 7.32633 51.9284 7.39128 51.9346 7.47168C51.9408 7.5459 51.9438 7.6263 51.9438 7.71289C51.95 7.79948 51.9624 7.87988 51.981 7.9541C51.9871 7.98503 51.9964 8.01595 52.0088 8.04688C52.0212 8.07161 52.0335 8.10872 52.0459 8.1582C52.0645 8.24479 52.0737 8.33138 52.0737 8.41797C52.0799 8.50456 52.0954 8.58187 52.1201 8.6499C52.1201 8.66227 52.1325 8.68392 52.1572 8.71484C52.182 8.73958 52.2067 8.77051 52.2314 8.80762C52.2562 8.84473 52.2778 8.88184 52.2964 8.91895C52.3211 8.95605 52.3335 8.99316 52.3335 9.03027C52.3335 9.04264 52.3304 9.05811 52.3242 9.07666C52.3242 9.08903 52.3242 9.1014 52.3242 9.11377C52.3242 9.13851 52.3335 9.17253 52.3521 9.21582C52.3706 9.25293 52.3861 9.29313 52.3984 9.33643C52.4046 9.41683 52.417 9.5498 52.4355 9.73535C52.4603 9.91471 52.5376 10.1745 52.6675 10.5146C52.6737 10.527 52.686 10.5363 52.7046 10.5425C52.7231 10.5425 52.7355 10.5579 52.7417 10.5889C52.7479 10.6136 52.751 10.6538 52.751 10.7095C52.751 10.759 52.7541 10.8115 52.7603 10.8672C52.7726 10.9229 52.7881 10.9723 52.8066 11.0156C52.8252 11.0527 52.853 11.0713 52.8901 11.0713C52.9087 11.0713 52.9396 11.062 52.9829 11.0435C53.0262 11.0249 53.0726 11.0002 53.1221 10.9692C53.1777 10.9383 53.2334 10.9043 53.2891 10.8672C53.3447 10.8239 53.3942 10.7775 53.4375 10.728V10.7095C53.4375 10.6971 53.4344 10.6816 53.4282 10.6631C53.4282 10.6445 53.4282 10.6291 53.4282 10.6167C53.6014 10.3384 53.7529 10.0879 53.8828 9.86523C54.0127 9.64258 54.1302 9.42611 54.2354 9.21582C54.3467 9.00553 54.4487 8.78906 54.5415 8.56641C54.6343 8.34375 54.7271 8.09326 54.8198 7.81494C54.8693 7.67887 54.9157 7.53971 54.959 7.39746C55.0023 7.25521 55.0487 7.11914 55.0981 6.98926V6.97998C55.0981 6.96143 55.0951 6.94287 55.0889 6.92432C55.0889 6.90576 55.0889 6.88721 55.0889 6.86865C55.0889 6.85628 55.1074 6.83464 55.1445 6.80371C55.1816 6.7666 55.2126 6.73258 55.2373 6.70166C55.262 6.65837 55.2775 6.59961 55.2837 6.52539C55.2899 6.45117 55.2961 6.37386 55.3022 6.29346C55.3084 6.21305 55.3146 6.12956 55.3208 6.04297C55.327 5.95638 55.3424 5.87598 55.3672 5.80176C55.3734 5.79557 55.4012 5.75846 55.4507 5.69043C55.5002 5.61621 55.5435 5.51725 55.5806 5.39355C55.6115 5.2946 55.6331 5.21419 55.6455 5.15234C55.6579 5.08431 55.6702 5.01937 55.6826 4.95752C55.695 4.89567 55.7135 4.82454 55.7383 4.74414C55.763 4.66374 55.8032 4.5555 55.8589 4.41943C55.8713 4.39469 55.8929 4.36068 55.9238 4.31738C55.9609 4.2679 55.9857 4.23079 55.998 4.20605C56.0166 4.15658 56.029 4.09782 56.0352 4.02979C56.0475 3.96175 56.0599 3.90918 56.0723 3.87207C56.0723 3.84115 56.0815 3.81331 56.1001 3.78857C56.1248 3.75765 56.1372 3.68962 56.1372 3.58447C56.1125 3.55973 56.0785 3.54736 56.0352 3.54736C55.9609 3.54736 55.8991 3.56283 55.8496 3.59375C55.8001 3.61849 55.7568 3.64632 55.7197 3.67725C55.6826 3.70817 55.6486 3.7391 55.6177 3.77002C55.5868 3.79476 55.5527 3.80713 55.5156 3.80713C55.4538 3.80713 55.4012 3.79167 55.3579 3.76074C55.3146 3.72982 55.2682 3.71436 55.2188 3.71436C55.1693 3.71436 55.1476 3.72982 55.1538 3.76074C55.1662 3.78548 55.1538 3.79785 55.1167 3.79785C55.0981 3.79785 55.0703 3.78857 55.0332 3.77002C54.9961 3.75146 54.9559 3.72363 54.9126 3.68652C54.8755 3.64323 54.8415 3.59375 54.8105 3.53809C54.7796 3.47624 54.7642 3.40511 54.7642 3.32471C54.7642 3.20101 54.8075 3.11442 54.894 3.06494C54.9868 3.01546 55.1414 2.99072 55.3579 2.99072C55.4631 2.99072 55.5713 2.99382 55.6826 3C55.8001 3 55.9146 3 56.0259 3C56.131 3 56.2331 2.99691 56.332 2.99072C56.4372 2.97835 56.533 2.94743 56.6196 2.89795C56.6753 2.86702 56.7248 2.81445 56.7681 2.74023C56.8114 2.65983 56.8577 2.57943 56.9072 2.49902C56.9629 2.41862 57.0186 2.34749 57.0742 2.28564C57.1361 2.2238 57.2103 2.19287 57.2969 2.19287C57.3958 2.19287 57.4639 2.21761 57.501 2.26709C57.5443 2.31038 57.5721 2.35986 57.5845 2.41553C57.603 2.47119 57.6154 2.52686 57.6216 2.58252C57.6278 2.632 57.6401 2.66602 57.6587 2.68457C57.7205 2.65365 57.8133 2.62272 57.937 2.5918C58.0669 2.55469 58.203 2.52067 58.3452 2.48975C58.4937 2.45882 58.6359 2.43408 58.772 2.41553C58.908 2.39079 59.0194 2.37842 59.106 2.37842C59.1864 2.37842 59.2358 2.41243 59.2544 2.48047ZM61.5552 11.0898C61.5799 11.1455 61.5923 11.2043 61.5923 11.2661C61.5923 11.328 61.5768 11.3836 61.5459 11.4331C61.5212 11.4764 61.4871 11.5197 61.4438 11.563C61.4067 11.6001 61.3634 11.6372 61.314 11.6743C61.2707 11.7052 61.2336 11.7393 61.2026 11.7764C61.1903 11.8011 61.181 11.8382 61.1748 11.8877C61.1748 11.931 61.1624 11.965 61.1377 11.9897C61.0635 12.0701 60.9707 12.1382 60.8594 12.1938C60.7542 12.2495 60.6615 12.3206 60.5811 12.4072C60.5316 12.4629 60.4945 12.5186 60.4697 12.5742C60.445 12.6237 60.3893 12.6825 60.3027 12.7505C60.2347 12.8 60.1698 12.868 60.1079 12.9546C60.0461 13.0412 59.978 13.1278 59.9038 13.2144C59.8296 13.2948 59.743 13.3659 59.644 13.4277C59.5451 13.4958 59.4276 13.5298 59.2915 13.5298C59.2606 13.5298 59.2327 13.5267 59.208 13.5205C59.1833 13.5205 59.1554 13.5174 59.1245 13.5112C59.1245 13.5112 59.1029 13.4989 59.0596 13.4741C59.0163 13.4494 58.9668 13.3999 58.9111 13.3257C58.8617 13.2515 58.8153 13.1463 58.772 13.0103C58.7287 12.8742 58.707 12.6948 58.707 12.4722C58.707 12.4165 58.7163 12.3577 58.7349 12.2959C58.7596 12.2279 58.7843 12.1629 58.8091 12.1011C58.84 12.0392 58.8647 11.9774 58.8833 11.9155C58.908 11.8475 58.9204 11.7856 58.9204 11.73C58.9204 11.6743 58.908 11.6217 58.8833 11.5723C58.8586 11.5228 58.8462 11.4702 58.8462 11.4146C58.8462 11.3589 58.8709 11.3218 58.9204 11.3032C58.9699 11.2785 58.9946 11.2352 58.9946 11.1733C58.9946 11.1424 58.9915 11.1146 58.9854 11.0898C58.9854 11.0651 58.9854 11.0373 58.9854 11.0063C58.9854 10.9321 58.9977 10.8826 59.0225 10.8579C59.0472 10.827 59.0596 10.7868 59.0596 10.7373C59.0596 10.694 59.0503 10.6631 59.0317 10.6445C59.0194 10.6198 59.0132 10.5889 59.0132 10.5518C59.0132 10.5085 59.0286 10.4683 59.0596 10.4312C59.0905 10.3879 59.1121 10.3291 59.1245 10.2549C59.1678 10.1126 59.2018 9.94564 59.2266 9.75391C59.2513 9.55599 59.2791 9.3457 59.3101 9.12305C59.3472 8.89421 59.3874 8.65299 59.4307 8.39941C59.474 8.13965 59.5358 7.87988 59.6162 7.62012C59.641 7.53353 59.6657 7.40983 59.6904 7.24902C59.7214 7.08203 59.7399 6.90885 59.7461 6.72949C59.7152 6.71094 59.6935 6.70166 59.6812 6.70166C59.6317 6.70166 59.5946 6.74186 59.5698 6.82227C59.5513 6.90267 59.5203 6.96143 59.4771 6.99854C59.4461 7.02327 59.409 7.03564 59.3657 7.03564C59.3286 7.03564 59.2946 7.04492 59.2637 7.06348C59.2266 7.0944 59.1956 7.13151 59.1709 7.1748C59.1523 7.21191 59.1307 7.24902 59.106 7.28613C59.0874 7.32324 59.0596 7.36035 59.0225 7.39746C58.9854 7.43457 58.9297 7.4624 58.8555 7.48096C58.8431 7.48714 58.8369 7.5026 58.8369 7.52734C58.8369 7.5459 58.8245 7.55518 58.7998 7.55518H58.7812C58.7812 7.53662 58.7658 7.52116 58.7349 7.50879C58.7101 7.49023 58.6792 7.47168 58.6421 7.45312C58.605 7.43457 58.571 7.41292 58.54 7.38818C58.5153 7.36344 58.5029 7.33252 58.5029 7.29541C58.5029 7.23975 58.5153 7.19645 58.54 7.16553C58.5648 7.1346 58.5988 7.10986 58.6421 7.09131C58.6854 7.07275 58.7287 7.0542 58.772 7.03564C58.8215 7.0109 58.8709 6.97689 58.9204 6.93359C58.9823 6.87174 59.0503 6.80062 59.1245 6.72021C59.2049 6.63981 59.2853 6.55941 59.3657 6.479C59.4461 6.39242 59.5296 6.31201 59.6162 6.23779C59.709 6.15739 59.8018 6.08626 59.8945 6.02441C59.9131 6.01204 59.9162 5.99967 59.9038 5.9873C59.8976 5.97493 59.9162 5.96566 59.9595 5.95947C59.978 5.95947 60.0028 5.9502 60.0337 5.93164C60.0708 5.9069 60.1048 5.88216 60.1357 5.85742C60.1729 5.8265 60.2038 5.80176 60.2285 5.7832C60.2533 5.75846 60.2687 5.74609 60.2749 5.74609C60.2873 5.74609 60.2996 5.74919 60.312 5.75537C60.3306 5.75537 60.346 5.75537 60.3584 5.75537C60.4079 5.75537 60.4635 5.743 60.5254 5.71826C60.5934 5.68734 60.714 5.67188 60.8872 5.67188C60.9552 5.67188 61.014 5.69352 61.0635 5.73682C61.1191 5.77393 61.147 5.85433 61.147 5.97803C61.147 6.01514 61.1315 6.07389 61.1006 6.1543C61.0697 6.2347 61.0356 6.33057 60.9985 6.44189C60.9614 6.55322 60.9274 6.67692 60.8965 6.81299C60.8656 6.94906 60.8501 7.09131 60.8501 7.23975C60.8501 7.3016 60.8532 7.36654 60.8594 7.43457C60.8656 7.49642 60.8687 7.55827 60.8687 7.62012C60.8687 7.73145 60.847 7.82731 60.8037 7.90771C60.7666 7.98193 60.7388 8.07161 60.7202 8.17676C60.6955 8.30664 60.6831 8.44271 60.6831 8.58496C60.6831 8.72721 60.6738 8.86947 60.6553 9.01172C60.6058 9.30859 60.547 9.59619 60.479 9.87451C60.411 10.1528 60.3522 10.4404 60.3027 10.7373C60.2842 10.8363 60.2533 10.9631 60.21 11.1177C60.1729 11.2723 60.1543 11.4362 60.1543 11.6094C60.1543 11.7702 60.1821 11.9186 60.2378 12.0547C60.3306 12.0485 60.4079 12.0207 60.4697 11.9712C60.5316 11.9217 60.5872 11.866 60.6367 11.8042C60.6862 11.7424 60.7326 11.6774 60.7759 11.6094C60.8254 11.5413 60.8779 11.4826 60.9336 11.4331C60.9707 11.4022 61.0233 11.3805 61.0913 11.3682C61.1655 11.3496 61.2274 11.3249 61.2769 11.2939C61.3263 11.263 61.3604 11.2197 61.3789 11.1641C61.3975 11.1084 61.4377 11.0806 61.4995 11.0806C61.5119 11.0806 61.5212 11.0837 61.5273 11.0898C61.5335 11.0898 61.5428 11.0898 61.5552 11.0898ZM61.8984 1.73828C61.917 1.77539 61.9263 1.81559 61.9263 1.85889C61.9263 1.93311 61.9015 2.01351 61.8521 2.1001C61.8026 2.18669 61.7469 2.27018 61.6851 2.35059C61.6294 2.43099 61.5737 2.50521 61.5181 2.57324C61.4624 2.63509 61.4284 2.67839 61.416 2.70312C61.3789 2.78353 61.348 2.89176 61.3232 3.02783C61.3047 3.1639 61.2645 3.2876 61.2026 3.39893C61.1779 3.4484 61.1562 3.48551 61.1377 3.51025C61.1191 3.53499 61.0975 3.59066 61.0728 3.67725C61.048 3.73291 61.0171 3.79785 60.98 3.87207C60.9429 3.94629 60.9027 4.01742 60.8594 4.08545C60.8161 4.1473 60.7728 4.20296 60.7295 4.25244C60.6862 4.29574 60.646 4.31738 60.6089 4.31738C60.4481 4.31738 60.3368 4.24007 60.2749 4.08545C60.2192 3.92464 60.1914 3.736 60.1914 3.51953C60.1914 3.43294 60.1945 3.34326 60.2007 3.25049C60.2131 3.15771 60.2254 3.06803 60.2378 2.98145C60.2502 2.88867 60.2811 2.82064 60.3306 2.77734C60.38 2.73405 60.4202 2.66602 60.4512 2.57324C60.4821 2.49284 60.5037 2.41553 60.5161 2.34131C60.5285 2.2609 60.5409 2.18669 60.5532 2.11865C60.5718 2.05062 60.5903 1.99186 60.6089 1.94238C60.6336 1.88672 60.6707 1.84033 60.7202 1.80322C60.7573 1.77848 60.8006 1.75684 60.8501 1.73828C60.9058 1.71973 60.9614 1.70736 61.0171 1.70117C61.0789 1.6888 61.1377 1.67952 61.1934 1.67334C61.2552 1.66715 61.3047 1.66406 61.3418 1.66406C61.3418 1.67025 61.3696 1.66097 61.4253 1.63623C61.481 1.60531 61.5428 1.58984 61.6108 1.58984C61.6232 1.58984 61.6634 1.60221 61.7314 1.62695C61.8057 1.64551 61.8613 1.68262 61.8984 1.73828ZM65.9619 10.9507C65.9495 11.0311 65.9341 11.1115 65.9155 11.1919C65.9032 11.2723 65.8722 11.3527 65.8228 11.4331C65.7918 11.4888 65.7454 11.5382 65.6836 11.5815C65.6217 11.6187 65.5754 11.6619 65.5444 11.7114C65.5073 11.7609 65.4733 11.8197 65.4424 11.8877C65.4115 11.9495 65.3774 12.0052 65.3403 12.0547C65.2785 12.1351 65.2074 12.2124 65.127 12.2866C65.0527 12.3547 64.9847 12.4412 64.9229 12.5464C64.8486 12.6701 64.7651 12.7845 64.6724 12.8896C64.5858 12.9948 64.4621 13.1309 64.3013 13.2979C64.2518 13.3535 64.2116 13.4215 64.1807 13.502C64.1497 13.5824 64.1188 13.6318 64.0879 13.6504C64.057 13.6751 64.0106 13.6875 63.9487 13.6875C63.8931 13.6937 63.8498 13.703 63.8188 13.7153C63.8188 13.7153 63.8034 13.7246 63.7725 13.7432C63.7477 13.7617 63.7168 13.7803 63.6797 13.7988C63.6488 13.8236 63.6117 13.8421 63.5684 13.8545C63.5312 13.873 63.4972 13.8823 63.4663 13.8823C63.3364 13.8823 63.2375 13.8483 63.1694 13.7803C63.1014 13.7122 63.0519 13.6133 63.021 13.4834C62.9963 13.3535 62.9808 13.1927 62.9746 13.001C62.9746 12.8092 62.9746 12.5897 62.9746 12.3423C62.9746 12.2248 62.9777 12.1258 62.9839 12.0454C62.9963 11.9588 63.0086 11.8815 63.021 11.8135C63.0396 11.7393 63.055 11.6681 63.0674 11.6001C63.0859 11.5321 63.1045 11.4548 63.123 11.3682C63.1602 11.1702 63.1818 10.9692 63.188 10.7651C63.2004 10.561 63.2251 10.3446 63.2622 10.1157C63.2746 10.0291 63.2962 9.93945 63.3271 9.84668C63.3643 9.75391 63.389 9.65804 63.4014 9.55908C63.4447 9.19417 63.4663 8.81999 63.4663 8.43652C63.4725 8.05306 63.4972 7.6665 63.5405 7.27686C63.5591 7.07275 63.5869 6.86556 63.624 6.65527C63.6673 6.4388 63.7075 6.22852 63.7446 6.02441C63.7941 5.75846 63.8374 5.47396 63.8745 5.1709C63.9178 4.86165 63.958 4.54932 63.9951 4.23389C64.0384 3.91846 64.0786 3.60303 64.1157 3.2876C64.1528 2.96598 64.1899 2.65674 64.2271 2.35986C64.2394 2.25472 64.2642 2.14958 64.3013 2.04443C64.3446 1.93311 64.3662 1.82487 64.3662 1.71973C64.3662 1.58984 64.3198 1.47852 64.2271 1.38574C64.1281 1.4043 64.0601 1.45378 64.0229 1.53418C63.992 1.6084 63.9456 1.67643 63.8838 1.73828C63.7972 1.82487 63.7168 1.89909 63.6426 1.96094C63.5684 2.02279 63.488 2.10938 63.4014 2.2207C63.3766 2.25163 63.3519 2.29183 63.3271 2.34131C63.3024 2.39079 63.2715 2.44027 63.2344 2.48975C63.2035 2.53304 63.1632 2.57015 63.1138 2.60107C63.0643 2.632 63.0024 2.64746 62.9282 2.64746C62.8664 2.64746 62.8293 2.632 62.8169 2.60107C62.8045 2.56396 62.7983 2.52686 62.7983 2.48975C62.7983 2.43408 62.8138 2.38151 62.8447 2.33203C62.8818 2.27637 62.922 2.2238 62.9653 2.17432C63.0148 2.11865 63.0674 2.06608 63.123 2.0166C63.1787 1.96712 63.2251 1.91764 63.2622 1.86816C63.3612 1.75065 63.4539 1.63005 63.5405 1.50635C63.6333 1.37646 63.7261 1.26823 63.8188 1.18164C63.8869 1.11361 63.9735 1.04867 64.0786 0.986816C64.1838 0.924967 64.2827 0.850749 64.3755 0.76416C64.4621 0.683757 64.5301 0.584798 64.5796 0.467285C64.6353 0.349772 64.7033 0.263184 64.7837 0.20752C64.8084 0.188965 64.8394 0.179688 64.8765 0.179688C64.9198 0.173503 64.96 0.167318 64.9971 0.161133C65.0404 0.148763 65.0806 0.133301 65.1177 0.114746C65.1548 0.0900065 65.1826 0.0528971 65.2012 0.00341797C65.2939 0.00341797 65.3743 0.0281576 65.4424 0.0776367C65.5104 0.120931 65.5661 0.173503 65.6094 0.235352C65.6589 0.291016 65.696 0.343587 65.7207 0.393066C65.7454 0.442546 65.7578 0.470378 65.7578 0.476562C65.7578 0.544596 65.7362 0.621908 65.6929 0.708496C65.6558 0.7889 65.631 0.878581 65.6187 0.977539C65.6063 1.0765 65.597 1.18164 65.5908 1.29297C65.5846 1.39811 65.5754 1.51872 65.563 1.65479C65.5568 1.79085 65.5413 1.94548 65.5166 2.11865C65.4919 2.28564 65.4578 2.48047 65.4146 2.70312C65.3898 2.82064 65.3496 2.93197 65.2939 3.03711C65.2445 3.14225 65.2135 3.23812 65.2012 3.32471C65.1641 3.59066 65.1455 3.87826 65.1455 4.1875C65.1455 4.49056 65.1177 4.78125 65.062 5.05957C65.0435 5.15234 65.0156 5.23893 64.9785 5.31934C64.9414 5.39355 64.9229 5.47396 64.9229 5.56055C64.9229 5.58529 64.9229 5.6193 64.9229 5.6626C64.929 5.69971 64.9321 5.73372 64.9321 5.76465C64.9321 5.80794 64.9198 5.83887 64.895 5.85742C64.8765 5.86979 64.8672 5.88216 64.8672 5.89453C64.8672 5.91309 64.8765 5.93164 64.895 5.9502C64.9136 5.96257 64.9229 5.99349 64.9229 6.04297C64.9229 6.18522 64.8919 6.32747 64.8301 6.46973C64.7682 6.60579 64.728 6.73568 64.7095 6.85938C64.6662 7.16862 64.6445 7.48405 64.6445 7.80566C64.6507 8.12728 64.6291 8.43652 64.5796 8.7334C64.5672 8.80143 64.5425 8.86947 64.5054 8.9375C64.4683 9.00553 64.4466 9.07357 64.4404 9.1416C64.4281 9.33333 64.4157 9.54053 64.4033 9.76318C64.3971 9.98584 64.3879 10.1961 64.3755 10.394C64.3569 10.5239 64.3322 10.6693 64.3013 10.8301C64.2703 10.9909 64.2394 11.1579 64.2085 11.3311C64.1838 11.498 64.159 11.665 64.1343 11.832C64.1157 11.999 64.1064 12.1536 64.1064 12.2959C64.1064 12.3949 64.1126 12.4691 64.125 12.5186C64.1374 12.568 64.1528 12.6051 64.1714 12.6299C64.1961 12.6484 64.2178 12.6608 64.2363 12.667C64.2611 12.667 64.2827 12.667 64.3013 12.667C64.3446 12.667 64.3848 12.6515 64.4219 12.6206C64.459 12.5897 64.493 12.5526 64.5239 12.5093C64.561 12.466 64.592 12.4227 64.6167 12.3794C64.6476 12.3299 64.6785 12.2897 64.7095 12.2588C64.9198 12.0732 65.0775 11.9032 65.1826 11.7485C65.2878 11.5877 65.3743 11.4486 65.4424 11.3311C65.5104 11.2135 65.5754 11.1208 65.6372 11.0527C65.6991 10.9847 65.7949 10.9507 65.9248 10.9507H65.9619ZM70.7676 6.02441C70.7243 6.08008 70.6655 6.11719 70.5913 6.13574C70.5233 6.14811 70.4491 6.15739 70.3687 6.16357C70.2882 6.16976 70.2048 6.17594 70.1182 6.18213C70.0316 6.18831 69.9512 6.20687 69.877 6.23779C69.8646 6.24398 69.8522 6.25944 69.8398 6.28418C69.8337 6.30273 69.8151 6.31201 69.7842 6.31201C69.7718 6.31201 69.7563 6.31201 69.7378 6.31201C69.7254 6.30583 69.7131 6.30273 69.7007 6.30273C69.6512 6.30273 69.6017 6.33366 69.5522 6.39551C69.509 6.45736 69.4564 6.50065 69.3945 6.52539C69.2832 6.57487 69.175 6.59961 69.0698 6.59961C68.9647 6.59961 68.8874 6.62435 68.8379 6.67383C68.7389 6.76042 68.6678 6.8501 68.6245 6.94287C68.5874 7.03564 68.5688 7.13151 68.5688 7.23047C68.5688 7.39128 68.606 7.55827 68.6802 7.73145C68.7606 7.89844 68.8348 8.08089 68.9028 8.27881V8.29736C68.9028 8.30973 68.8997 8.3252 68.8936 8.34375C68.8936 8.3623 68.8936 8.37777 68.8936 8.39014C68.8936 8.40869 68.8966 8.41797 68.9028 8.41797C68.9152 8.43034 68.9399 8.47673 68.9771 8.55713C69.0142 8.63753 69.0544 8.72103 69.0977 8.80762C69.141 8.91276 69.1904 9.02718 69.2461 9.15088C69.2585 9.33643 69.3079 9.52197 69.3945 9.70752C69.4811 9.89307 69.5739 10.0786 69.6729 10.2642C69.778 10.4435 69.8708 10.6229 69.9512 10.8022C70.0378 10.9816 70.0811 11.1579 70.0811 11.3311C70.0749 11.4362 70.0347 11.5506 69.9604 11.6743C69.8924 11.7918 69.8151 11.9032 69.7285 12.0083C69.6419 12.1134 69.5615 12.2031 69.4873 12.2773C69.4193 12.3454 69.3853 12.3794 69.3853 12.3794C69.3853 12.3979 69.3853 12.4165 69.3853 12.4351C69.3914 12.4536 69.3945 12.4691 69.3945 12.4814C69.3822 12.5495 69.3389 12.6299 69.2646 12.7227C69.1904 12.8154 69.1038 12.9082 69.0049 13.001C68.9121 13.0938 68.8162 13.1772 68.7173 13.2515C68.6245 13.3195 68.5472 13.3597 68.4854 13.3721C68.4668 13.3783 68.4297 13.3937 68.374 13.4185C68.3245 13.4494 68.272 13.4803 68.2163 13.5112C68.1606 13.5483 68.105 13.5824 68.0493 13.6133C67.9998 13.6442 67.9627 13.6628 67.938 13.6689C67.8823 13.6813 67.7555 13.6906 67.5576 13.6968C67.3597 13.7091 67.1587 13.7153 66.9546 13.7153C66.7752 13.7153 66.6144 13.7091 66.4722 13.6968C66.3361 13.6844 66.2681 13.6535 66.2681 13.604V13.5947C66.2 13.5947 66.1413 13.5978 66.0918 13.604C66.0485 13.6164 65.9959 13.6226 65.9341 13.6226C65.8908 13.6226 65.8413 13.6195 65.7856 13.6133C65.7362 13.6071 65.6867 13.5947 65.6372 13.5762C65.5939 13.5576 65.5568 13.5329 65.5259 13.502C65.4888 13.4772 65.4702 13.4463 65.4702 13.4092C65.4702 13.335 65.5073 13.27 65.5815 13.2144C65.6558 13.1587 65.7269 13.0876 65.7949 13.001C65.863 12.9082 65.9403 12.8 66.0269 12.6763C66.1134 12.5464 66.2 12.4258 66.2866 12.3145C66.3732 12.1969 66.4567 12.1011 66.5371 12.0269C66.6237 11.9465 66.6979 11.9062 66.7598 11.9062C66.8278 11.9062 66.8649 11.9372 66.8711 11.999C66.8835 12.0609 66.8896 12.132 66.8896 12.2124C66.8896 12.2866 66.8958 12.3547 66.9082 12.4165C66.9268 12.4784 66.9762 12.5093 67.0566 12.5093C67.1247 12.5093 67.1742 12.4969 67.2051 12.4722C67.236 12.4412 67.2855 12.4258 67.3535 12.4258C67.4092 12.4258 67.4494 12.4351 67.4741 12.4536C67.505 12.4722 67.5298 12.4938 67.5483 12.5186C67.5669 12.5433 67.5916 12.5649 67.6226 12.5835C67.6535 12.6021 67.703 12.6113 67.771 12.6113C67.8823 12.6113 68.006 12.5897 68.1421 12.5464C68.2843 12.4969 68.4451 12.4722 68.6245 12.4722C68.7173 12.4722 68.8101 12.4814 68.9028 12.5C68.8966 12.4814 68.8936 12.4536 68.8936 12.4165C68.8936 12.3732 68.8966 12.333 68.9028 12.2959C68.9152 12.2588 68.9214 12.2186 68.9214 12.1753C68.9214 12.0825 68.8905 12.0238 68.8286 11.999C68.7729 11.9681 68.7266 11.9155 68.6895 11.8413C68.6523 11.7176 68.6307 11.5939 68.6245 11.4702C68.6183 11.3403 68.5967 11.2197 68.5596 11.1084C68.5472 11.096 68.5317 11.0929 68.5132 11.0991C68.5008 11.0991 68.4915 11.0806 68.4854 11.0435C68.4854 11.0125 68.4854 10.9723 68.4854 10.9229C68.4915 10.8734 68.4946 10.8208 68.4946 10.7651C68.4946 10.6971 68.4915 10.6291 68.4854 10.561C68.4792 10.4868 68.4606 10.4281 68.4297 10.3848C68.4173 10.36 68.3771 10.3229 68.3091 10.2734C68.241 10.224 68.1916 10.1652 68.1606 10.0972C68.1112 10.0106 68.0771 9.89925 68.0586 9.76318C68.0462 9.62712 68.0091 9.51888 67.9473 9.43848C67.9411 9.42611 67.9163 9.41374 67.873 9.40137C67.8359 9.389 67.8143 9.37663 67.8081 9.36426C67.771 9.25293 67.7493 9.09831 67.7432 8.90039C67.737 8.69629 67.6906 8.46436 67.604 8.20459C67.5978 8.19222 67.5854 8.18604 67.5669 8.18604C67.5483 8.18604 67.5391 8.16748 67.5391 8.13037C67.5329 8.04378 67.5267 7.96647 67.5205 7.89844C67.5205 7.82422 67.5205 7.75309 67.5205 7.68506C67.5205 7.35107 67.6257 7.06348 67.8359 6.82227C68.0524 6.58105 68.3153 6.36149 68.6245 6.16357C68.674 6.13265 68.7204 6.12028 68.7637 6.12646C68.8132 6.13265 68.8595 6.12337 68.9028 6.09863C68.9399 6.07389 68.9678 6.0306 68.9863 5.96875C69.0049 5.9069 69.0513 5.87598 69.1255 5.87598C69.1379 5.87598 69.1502 5.87907 69.1626 5.88525C69.1812 5.88525 69.1966 5.88525 69.209 5.88525C69.2461 5.88525 69.277 5.86361 69.3018 5.82031C69.3327 5.77083 69.3636 5.73991 69.3945 5.72754C69.4873 5.67806 69.5924 5.64714 69.71 5.63477C69.8337 5.61621 69.9574 5.57292 70.0811 5.50488C70.1182 5.48633 70.146 5.4585 70.1646 5.42139C70.1893 5.37809 70.2202 5.35645 70.2573 5.35645C70.2882 5.35645 70.3192 5.35954 70.3501 5.36572C70.3872 5.37191 70.4212 5.375 70.4521 5.375C70.4893 5.375 70.5233 5.36263 70.5542 5.33789C70.5851 5.30697 70.6191 5.2915 70.6562 5.2915C70.7243 5.2915 70.783 5.32552 70.8325 5.39355C70.8882 5.46159 70.916 5.54508 70.916 5.64404C70.916 5.77393 70.8665 5.90072 70.7676 6.02441ZM76.3154 7.55518C76.3154 7.68506 76.3123 7.79639 76.3062 7.88916C76.3 7.98193 76.2907 8.06852 76.2783 8.14893C76.2721 8.22933 76.2598 8.30973 76.2412 8.39014C76.2227 8.47054 76.201 8.56022 76.1763 8.65918C76.1268 8.87565 76.0835 9.09212 76.0464 9.30859C76.0093 9.51888 75.9629 9.74154 75.9072 9.97656C75.901 10.0013 75.8825 10.0384 75.8516 10.0879C75.8268 10.1374 75.799 10.193 75.7681 10.2549C75.7371 10.3167 75.7062 10.3786 75.6753 10.4404C75.6506 10.5023 75.632 10.5549 75.6196 10.5981C75.5887 10.7218 75.5392 10.8239 75.4712 10.9043C75.4093 10.9847 75.3444 11.0898 75.2764 11.2197C75.2454 11.2878 75.2238 11.3651 75.2114 11.4517C75.1991 11.5321 75.1743 11.5939 75.1372 11.6372C75.1248 11.6558 75.0908 11.6867 75.0352 11.73C74.9857 11.7733 74.9269 11.8228 74.8589 11.8784C74.797 11.9341 74.7321 11.9897 74.6641 12.0454C74.6022 12.1011 74.5527 12.1506 74.5156 12.1938C74.4909 12.2248 74.4661 12.2619 74.4414 12.3052C74.4229 12.3485 74.4012 12.3825 74.3765 12.4072C74.3455 12.4258 74.3084 12.4351 74.2651 12.4351C74.228 12.4351 74.194 12.4474 74.1631 12.4722C74.1507 12.4907 74.1383 12.5216 74.126 12.5649C74.1198 12.6021 74.1043 12.6206 74.0796 12.6206C74.0672 12.6206 74.0487 12.6206 74.0239 12.6206C74.0054 12.6144 73.9899 12.6113 73.9775 12.6113C73.9528 12.6113 73.8971 12.6453 73.8105 12.7134C73.724 12.7752 73.6281 12.8464 73.5229 12.9268C73.424 13.0072 73.3281 13.0845 73.2354 13.1587C73.1488 13.2329 73.09 13.2793 73.0591 13.2979C73.0158 13.3288 72.9694 13.3535 72.9199 13.3721C72.8766 13.3906 72.8333 13.4154 72.79 13.4463C72.7344 13.471 72.6911 13.4989 72.6602 13.5298C72.6292 13.5669 72.5983 13.5978 72.5674 13.6226C72.5365 13.6535 72.5024 13.6782 72.4653 13.6968C72.4282 13.7153 72.3757 13.7246 72.3076 13.7246C72.2891 13.7246 72.252 13.7122 72.1963 13.6875C72.1406 13.6628 72.085 13.6287 72.0293 13.5854C71.9736 13.5483 71.9211 13.502 71.8716 13.4463C71.8283 13.3906 71.8066 13.3319 71.8066 13.27C71.8066 13.2515 71.8097 13.2329 71.8159 13.2144C71.8221 13.1896 71.8252 13.1649 71.8252 13.1401C71.8252 13.1216 71.8221 13.1061 71.8159 13.0938C71.7417 12.9391 71.6582 12.7938 71.5654 12.6577C71.4788 12.5155 71.4355 12.3485 71.4355 12.1567C71.4355 12.0887 71.4448 12.0207 71.4634 11.9526C71.4819 11.8784 71.4912 11.7795 71.4912 11.6558C71.4912 11.5011 71.4819 11.3249 71.4634 11.127C71.4448 10.9229 71.4355 10.7218 71.4355 10.5239C71.4355 10.3384 71.4634 10.1312 71.519 9.90234C71.5747 9.6735 71.6489 9.44466 71.7417 9.21582C71.8345 8.98079 71.9396 8.75505 72.0571 8.53857C72.1808 8.3221 72.3076 8.13346 72.4375 7.97266C72.5303 7.85514 72.6292 7.74382 72.7344 7.63867C72.8395 7.53353 72.9478 7.42529 73.0591 7.31396C73.1766 7.20264 73.2941 7.08822 73.4116 6.9707C73.5291 6.85319 73.6436 6.72331 73.7549 6.58105C73.8229 6.49447 73.9126 6.40479 74.0239 6.31201C74.1414 6.21924 74.259 6.12337 74.3765 6.02441C74.4074 6.00586 74.4414 5.99658 74.4785 5.99658C74.5156 5.99658 74.5496 5.98421 74.5806 5.95947C74.6424 5.91618 74.695 5.86979 74.7383 5.82031C74.7816 5.77083 74.8187 5.72445 74.8496 5.68115C74.8805 5.63786 74.9115 5.60384 74.9424 5.5791C74.9733 5.54818 75.0073 5.53271 75.0444 5.53271C75.0754 5.53271 75.1032 5.53581 75.1279 5.54199C75.1589 5.54818 75.1898 5.55127 75.2207 5.55127C75.2578 5.55127 75.2856 5.54199 75.3042 5.52344C75.3228 5.4987 75.3413 5.47396 75.3599 5.44922C75.3784 5.41829 75.4001 5.39355 75.4248 5.375C75.4557 5.35026 75.499 5.33789 75.5547 5.33789C75.6722 5.35645 75.7557 5.38737 75.8052 5.43066C75.8608 5.46777 75.8979 5.51725 75.9165 5.5791C75.9351 5.64095 75.9505 5.71517 75.9629 5.80176C75.9753 5.88835 76 5.9873 76.0371 6.09863L76.1763 6.58105C76.201 6.66764 76.2288 6.75114 76.2598 6.83154C76.2907 6.91195 76.3092 6.98617 76.3154 7.0542C76.3154 7.10986 76.3031 7.15007 76.2783 7.1748C76.2536 7.19336 76.2412 7.22738 76.2412 7.27686C76.2412 7.30778 76.2536 7.34798 76.2783 7.39746C76.3031 7.44076 76.3154 7.49333 76.3154 7.55518ZM74.9331 8.87256C74.9331 8.7736 74.9238 8.66536 74.9053 8.54785C74.8929 8.43034 74.8805 8.30664 74.8682 8.17676C74.8558 8.01595 74.8465 7.84587 74.8403 7.6665C74.8403 7.48714 74.8341 7.32015 74.8218 7.16553C74.8094 7.0109 74.7909 6.88411 74.7661 6.78516C74.7476 6.6862 74.7135 6.63672 74.6641 6.63672C74.596 6.63672 74.4909 6.67383 74.3486 6.74805C74.2126 6.82227 74.0827 6.90576 73.959 6.99854C73.9281 7.02946 73.8971 7.08203 73.8662 7.15625C73.8353 7.22428 73.7982 7.28923 73.7549 7.35107C73.6003 7.56136 73.4704 7.75618 73.3652 7.93555C73.2663 8.11491 73.1828 8.29736 73.1147 8.48291C73.0467 8.66846 72.988 8.86637 72.9385 9.07666C72.889 9.28076 72.8395 9.5127 72.79 9.77246C72.7529 9.97038 72.7158 10.1405 72.6787 10.2827C72.6416 10.425 72.623 10.5889 72.623 10.7744C72.623 11.3187 72.6787 11.7393 72.79 12.0361C72.9076 12.333 73.0467 12.4814 73.2075 12.4814C73.3065 12.4814 73.3776 12.4536 73.4209 12.3979C73.4704 12.3361 73.5106 12.2897 73.5415 12.2588C73.5724 12.2402 73.6064 12.231 73.6436 12.231C73.6868 12.231 73.724 12.2186 73.7549 12.1938C73.8848 12.0763 73.9837 11.9372 74.0518 11.7764C74.1198 11.6156 74.1816 11.4548 74.2373 11.2939H74.293C74.3115 11.2939 74.3208 11.2878 74.3208 11.2754C74.3208 11.263 74.3177 11.2476 74.3115 11.229C74.3115 11.2043 74.3115 11.1857 74.3115 11.1733C74.3115 11.13 74.3208 11.0837 74.3394 11.0342C74.3641 10.9847 74.3919 10.9383 74.4229 10.895C74.4538 10.8517 74.4847 10.8115 74.5156 10.7744C74.5465 10.7311 74.5682 10.6971 74.5806 10.6724C74.6362 10.5672 74.6733 10.4714 74.6919 10.3848C74.7166 10.292 74.7321 10.2023 74.7383 10.1157C74.7507 10.0229 74.7568 9.93327 74.7568 9.84668C74.763 9.75391 74.7754 9.65804 74.7939 9.55908C74.8125 9.41683 74.8372 9.29004 74.8682 9.17871C74.8991 9.06738 74.9207 8.96533 74.9331 8.87256ZM84.1919 11.2847C84.1919 11.3836 84.1641 11.4733 84.1084 11.5537C84.0527 11.6279 83.9816 11.7021 83.895 11.7764C83.8084 11.8506 83.7126 11.9248 83.6074 11.999C83.5023 12.0732 83.4002 12.1567 83.3013 12.2495C83.2703 12.2743 83.2456 12.3114 83.2271 12.3608C83.2085 12.4041 83.1838 12.4351 83.1528 12.4536C83.1219 12.4845 83.0879 12.4969 83.0508 12.4907C83.0137 12.4845 82.9797 12.4969 82.9487 12.5278C82.9054 12.5711 82.8621 12.633 82.8188 12.7134C82.7817 12.7876 82.7323 12.8649 82.6704 12.9453C82.6519 12.9762 82.6024 13.0381 82.522 13.1309C82.4478 13.2236 82.3581 13.3195 82.2529 13.4185C82.154 13.5174 82.0488 13.6071 81.9375 13.6875C81.8324 13.7679 81.7365 13.8081 81.6499 13.8081C81.6004 13.8081 81.5633 13.7957 81.5386 13.771C81.5138 13.7463 81.5015 13.7184 81.5015 13.6875C81.5015 13.6504 81.5107 13.6071 81.5293 13.5576C81.5479 13.5081 81.5571 13.4432 81.5571 13.3628C81.5571 13.2267 81.5355 13.1123 81.4922 13.0195C81.4489 12.9268 81.4272 12.8556 81.4272 12.8062C81.4334 12.6763 81.4674 12.534 81.5293 12.3794C81.5973 12.2248 81.6313 12.0671 81.6313 11.9062C81.6313 11.8197 81.619 11.7393 81.5942 11.665C81.5695 11.5846 81.5571 11.5011 81.5571 11.4146C81.5571 11.328 81.5788 11.2383 81.6221 11.1455C81.6654 11.0465 81.6932 10.9538 81.7056 10.8672C81.7179 10.7682 81.7272 10.6693 81.7334 10.5703C81.7396 10.4714 81.7427 10.3724 81.7427 10.2734V10.0137C81.7427 9.8776 81.752 9.75391 81.7705 9.64258C81.7891 9.53125 81.8076 9.42611 81.8262 9.32715C81.8509 9.22819 81.8757 9.12923 81.9004 9.03027C81.9313 8.93132 81.9561 8.82617 81.9746 8.71484C81.9993 8.56641 82.0148 8.41797 82.021 8.26953C82.0272 8.12109 82.0303 7.97266 82.0303 7.82422C82.0365 7.67578 82.0426 7.53353 82.0488 7.39746C82.0612 7.25521 82.0828 7.11914 82.1138 6.98926C82.0952 6.98307 82.0674 6.97998 82.0303 6.97998C81.9499 6.97998 81.8818 7.00472 81.8262 7.0542C81.7705 7.09749 81.721 7.15007 81.6777 7.21191C81.6406 7.26758 81.6066 7.32943 81.5757 7.39746C81.5509 7.45931 81.5231 7.50879 81.4922 7.5459C81.4674 7.57682 81.4334 7.59847 81.3901 7.61084C81.3468 7.62321 81.3128 7.64486 81.2881 7.67578C81.2572 7.71289 81.2324 7.75928 81.2139 7.81494C81.1953 7.87061 81.1737 7.91699 81.1489 7.9541C81.1366 7.97884 81.1087 7.9943 81.0654 8.00049C81.0283 8.00049 81.0098 8.01595 81.0098 8.04688C81.0098 8.05924 81.0098 8.07471 81.0098 8.09326C81.016 8.11182 81.019 8.12728 81.019 8.13965C81.019 8.16439 81.0005 8.19531 80.9634 8.23242C80.9263 8.26335 80.883 8.29736 80.8335 8.33447C80.7902 8.37158 80.75 8.40869 80.7129 8.4458C80.6758 8.48291 80.6572 8.51383 80.6572 8.53857C80.6572 8.55094 80.6572 8.56641 80.6572 8.58496C80.6634 8.60352 80.6665 8.61898 80.6665 8.63135C80.6665 8.64372 80.6449 8.68083 80.6016 8.74268C80.5583 8.80452 80.5057 8.87256 80.4438 8.94678C80.382 9.021 80.3201 9.09521 80.2583 9.16943C80.1965 9.24365 80.147 9.29932 80.1099 9.33643C79.9985 9.44775 79.9181 9.5529 79.8687 9.65186C79.8192 9.75081 79.7821 9.84668 79.7573 9.93945C79.7388 10.026 79.7202 10.1126 79.7017 10.1992C79.6893 10.2858 79.6646 10.3693 79.6274 10.4497C79.6151 10.4621 79.5903 10.4744 79.5532 10.4868C79.5161 10.493 79.4914 10.5023 79.479 10.5146C79.4481 10.5827 79.4202 10.6569 79.3955 10.7373C79.3708 10.8177 79.3306 10.9043 79.2749 10.9971C79.2625 11.0156 79.2378 11.0404 79.2007 11.0713C79.1636 11.1022 79.145 11.127 79.145 11.1455C79.1141 11.2135 79.0894 11.2939 79.0708 11.3867C79.0522 11.4795 79.0368 11.5754 79.0244 11.6743C79.012 11.7733 79.0028 11.8722 78.9966 11.9712C78.9904 12.064 78.9873 12.1444 78.9873 12.2124C78.9873 12.2804 79.0028 12.333 79.0337 12.3701C79.0646 12.4072 79.0801 12.4629 79.0801 12.5371C79.0801 12.5804 79.0646 12.6144 79.0337 12.6392C79.009 12.6639 78.9749 12.6886 78.9316 12.7134C78.8945 12.7319 78.8481 12.7536 78.7925 12.7783C78.743 12.8031 78.6966 12.834 78.6533 12.8711C78.5111 12.9948 78.3905 13.1061 78.2915 13.2051C78.1925 13.2979 78.1029 13.3844 78.0225 13.4648C77.9421 13.5514 77.8709 13.6287 77.8091 13.6968C77.7472 13.771 77.6823 13.8421 77.6143 13.9102C77.571 13.904 77.5493 13.8823 77.5493 13.8452C77.5493 13.7772 77.5833 13.7091 77.6514 13.6411C77.7194 13.5731 77.7534 13.5112 77.7534 13.4556C77.7534 13.4123 77.741 13.3783 77.7163 13.3535C77.6978 13.3226 77.6885 13.2793 77.6885 13.2236C77.6885 13.2051 77.6916 13.168 77.6978 13.1123C77.7101 13.0505 77.7225 12.9824 77.7349 12.9082C77.7472 12.8278 77.7596 12.7474 77.772 12.667C77.7905 12.5866 77.806 12.5155 77.8184 12.4536C77.8431 12.3485 77.874 12.2433 77.9111 12.1382C77.9544 12.0269 77.9946 11.9155 78.0317 11.8042C78.075 11.6867 78.109 11.5692 78.1338 11.4517C78.1647 11.3341 78.1802 11.2135 78.1802 11.0898C78.1802 11.0342 78.1771 10.9878 78.1709 10.9507C78.1647 10.9074 78.1616 10.8672 78.1616 10.8301C78.1616 10.7744 78.1678 10.6971 78.1802 10.5981C78.1925 10.493 78.2049 10.3786 78.2173 10.2549C78.2358 10.1312 78.2513 10.0075 78.2637 9.88379C78.2822 9.76009 78.2977 9.64876 78.3101 9.5498C78.3286 9.33333 78.3379 9.11377 78.3379 8.89111C78.3379 8.66846 78.3503 8.44889 78.375 8.23242C78.3997 8.03451 78.4338 7.83659 78.4771 7.63867C78.5265 7.44076 78.5513 7.24284 78.5513 7.04492C78.5513 6.92122 78.5389 6.8099 78.5142 6.71094C78.4399 6.72331 78.3657 6.76969 78.2915 6.8501C78.2173 6.9305 78.1462 7.01709 78.0781 7.10986C78.0163 7.20264 77.9606 7.28613 77.9111 7.36035C77.8617 7.43457 77.8245 7.47168 77.7998 7.47168C77.7874 7.47168 77.772 7.47168 77.7534 7.47168C77.7349 7.46549 77.7194 7.4624 77.707 7.4624C77.6761 7.4624 77.6514 7.49642 77.6328 7.56445C77.6143 7.63249 77.5895 7.70671 77.5586 7.78711C77.5277 7.86133 77.4844 7.93245 77.4287 8.00049C77.3792 8.06852 77.3081 8.10254 77.2153 8.10254C77.1906 8.10254 77.1442 8.09326 77.0762 8.07471C77.0081 8.05615 76.9741 8.01286 76.9741 7.94482C76.9741 7.90153 76.9865 7.86133 77.0112 7.82422C77.0422 7.78711 77.0762 7.75309 77.1133 7.72217C77.1566 7.69124 77.1968 7.66341 77.2339 7.63867C77.2772 7.60775 77.3112 7.57682 77.3359 7.5459C77.3545 7.51497 77.3638 7.48096 77.3638 7.44385C77.37 7.40055 77.3823 7.36344 77.4009 7.33252C77.5493 7.14697 77.7256 6.96452 77.9297 6.78516C78.14 6.60579 78.3348 6.41715 78.5142 6.21924C78.5389 6.1945 78.5482 6.16048 78.542 6.11719C78.542 6.07389 78.5575 6.03988 78.5884 6.01514C78.6131 5.9904 78.6471 5.98112 78.6904 5.9873C78.7337 5.9873 78.7677 5.97493 78.7925 5.9502C78.811 5.93164 78.8265 5.89762 78.8389 5.84814C78.8574 5.79867 78.8822 5.74919 78.9131 5.69971C78.9502 5.64404 78.9935 5.59766 79.043 5.56055C79.0986 5.52344 79.1729 5.50488 79.2656 5.50488C79.3151 5.50488 79.3677 5.51416 79.4233 5.53271C79.4852 5.54508 79.5409 5.56673 79.5903 5.59766C79.646 5.6224 79.6893 5.65332 79.7202 5.69043C79.7573 5.72135 79.7759 5.75537 79.7759 5.79248C79.7759 5.85433 79.7604 5.93473 79.7295 6.03369C79.7048 6.13265 79.6924 6.24089 79.6924 6.3584C79.6924 6.43262 79.7048 6.50374 79.7295 6.57178C79.7542 6.63363 79.7666 6.68001 79.7666 6.71094C79.7542 6.79134 79.7264 6.87174 79.6831 6.95215C79.6398 7.02637 79.6182 7.12533 79.6182 7.24902C79.6182 7.30469 79.6182 7.36654 79.6182 7.43457C79.6243 7.5026 79.6274 7.57064 79.6274 7.63867C79.6274 7.75 79.612 7.87679 79.5811 8.01904C79.5501 8.15511 79.5161 8.28809 79.479 8.41797C79.4481 8.54785 79.4172 8.66846 79.3862 8.77979C79.3553 8.88493 79.3398 8.96533 79.3398 9.021C79.3398 9.07048 79.3615 9.09521 79.4048 9.09521C79.4666 9.09521 79.547 9.05192 79.646 8.96533C79.745 8.87874 79.8285 8.79525 79.8965 8.71484C79.9212 8.6901 79.9336 8.65609 79.9336 8.61279C79.9398 8.5695 79.9521 8.53548 79.9707 8.51074C79.9831 8.49219 80.0109 8.46745 80.0542 8.43652C80.1037 8.39941 80.1532 8.3623 80.2026 8.3252C80.2521 8.28809 80.2954 8.25407 80.3325 8.22314C80.3696 8.18604 80.3882 8.1582 80.3882 8.13965C80.3882 8.12728 80.3851 8.11182 80.3789 8.09326C80.3789 8.07471 80.3789 8.05924 80.3789 8.04688C80.3789 8.01595 80.4006 7.97266 80.4438 7.91699C80.4871 7.86133 80.5366 7.80257 80.5923 7.74072C80.6479 7.67269 80.7005 7.60775 80.75 7.5459C80.8057 7.48405 80.8459 7.43457 80.8706 7.39746C80.8953 7.36035 80.9046 7.31706 80.8984 7.26758C80.8984 7.21191 80.9108 7.16553 80.9355 7.12842C81.0098 7.02946 81.1087 6.91813 81.2324 6.79443C81.3623 6.67074 81.4705 6.57487 81.5571 6.50684C81.6066 6.46973 81.6561 6.44499 81.7056 6.43262C81.755 6.42025 81.8014 6.39551 81.8447 6.3584C81.9375 6.27181 82.0241 6.17594 82.1045 6.0708C82.1849 5.96566 82.2653 5.86979 82.3457 5.7832C82.4261 5.69043 82.5065 5.61312 82.5869 5.55127C82.6735 5.48942 82.7694 5.4585 82.8745 5.4585C82.9054 5.4585 82.9518 5.47396 83.0137 5.50488C83.0755 5.53581 83.1374 5.5791 83.1992 5.63477C83.2611 5.69043 83.3136 5.75537 83.3569 5.82959C83.4064 5.89762 83.4312 5.97184 83.4312 6.05225C83.4312 6.10173 83.4219 6.16667 83.4033 6.24707C83.3848 6.32129 83.3724 6.40788 83.3662 6.50684C83.3477 6.72949 83.326 6.93669 83.3013 7.12842C83.2827 7.32015 83.258 7.52734 83.2271 7.75C83.2023 7.91699 83.1868 8.0778 83.1807 8.23242C83.1807 8.38086 83.1714 8.49837 83.1528 8.58496C83.1219 8.70866 83.0724 8.82926 83.0044 8.94678C82.9425 9.06429 82.9116 9.20345 82.9116 9.36426C82.9116 9.40137 82.9147 9.44157 82.9209 9.48486C82.9271 9.52816 82.9364 9.57454 82.9487 9.62402C82.9549 9.64258 82.9642 9.65804 82.9766 9.67041C82.9951 9.6766 83.0106 9.68896 83.0229 9.70752C83.0415 9.71989 83.057 9.74154 83.0693 9.77246C83.0817 9.80339 83.0879 9.84977 83.0879 9.91162C83.0879 10.0724 83.0539 10.2332 82.9858 10.394C82.9178 10.5487 82.8838 10.7157 82.8838 10.895C82.8838 10.9631 82.8931 11.0342 82.9116 11.1084C82.9364 11.1764 82.9487 11.2445 82.9487 11.3125C82.9487 11.4362 82.9209 11.5599 82.8652 11.6836C82.8158 11.8011 82.791 11.931 82.791 12.0732C82.791 12.1042 82.7941 12.132 82.8003 12.1567C82.8065 12.1815 82.825 12.1938 82.856 12.1938C82.992 12.1938 83.1034 12.1444 83.1899 12.0454C83.2827 11.9465 83.3693 11.8382 83.4497 11.7207C83.5301 11.6032 83.6136 11.495 83.7002 11.396C83.793 11.297 83.9043 11.2476 84.0342 11.2476C84.0898 11.2476 84.1424 11.2599 84.1919 11.2847Z" fill="#A72450"/>
</svg>
