<svg width="69" height="19" viewBox="0 0 69 19" fill="none" xmlns="http://www.w3.org/2000/svg">
<path d="M6.95801 11.0156C6.93945 11.1641 6.8776 11.2909 6.77246 11.396C6.66732 11.495 6.56836 11.6032 6.47559 11.7207C6.36426 11.8444 6.27148 11.9495 6.19727 12.0361C6.12923 12.1165 6.06738 12.1969 6.01172 12.2773C5.95605 12.3577 5.90348 12.4443 5.854 12.5371C5.81071 12.6299 5.76123 12.7474 5.70557 12.8896C5.6932 12.9144 5.67773 12.9329 5.65918 12.9453C5.64681 12.9577 5.64062 12.9855 5.64062 13.0288C5.62826 13.1649 5.54785 13.2669 5.39941 13.335C5.25716 13.403 5.08089 13.4494 4.87061 13.4741C4.6665 13.505 4.44694 13.5205 4.21191 13.5205C3.98307 13.5205 3.77897 13.5205 3.59961 13.5205C3.47591 13.5205 3.34603 13.5174 3.20996 13.5112C3.08008 13.5112 2.95329 13.5112 2.82959 13.5112C2.70589 13.5112 2.59456 13.5236 2.49561 13.5483C2.40283 13.5731 2.31934 13.5854 2.24512 13.5854C2.08431 13.5854 1.93587 13.5731 1.7998 13.5483C1.66374 13.5236 1.53385 13.5112 1.41016 13.5112C1.28027 13.5174 1.16276 13.5329 1.05762 13.5576C0.958659 13.5824 0.859701 13.6071 0.760742 13.6318C0.661784 13.6628 0.562826 13.6875 0.463867 13.7061C0.371094 13.7308 0.269043 13.7432 0.157715 13.7432C0.114421 13.7432 0.0773112 13.737 0.0463867 13.7246C0.0154622 13.7122 0 13.672 0 13.604C0 13.5298 0.0371094 13.4803 0.111328 13.4556C0.191732 13.4308 0.27832 13.4092 0.371094 13.3906C0.470052 13.3721 0.556641 13.3473 0.630859 13.3164C0.711263 13.2855 0.751465 13.2298 0.751465 13.1494V13.0566C0.751465 13.0257 0.751465 12.9917 0.751465 12.9546C0.75765 12.9175 0.77002 12.8742 0.788574 12.8247C0.794759 12.8062 0.819499 12.7845 0.862793 12.7598C0.906087 12.7288 0.927734 12.6948 0.927734 12.6577C0.927734 12.6453 0.924642 12.6299 0.918457 12.6113C0.918457 12.5928 0.918457 12.5773 0.918457 12.5649C0.918457 12.5588 0.921549 12.5526 0.927734 12.5464C0.989583 12.4907 1.02979 12.3825 1.04834 12.2217C1.07308 12.0547 1.08854 11.8691 1.09473 11.665C1.10091 11.4609 1.104 11.2537 1.104 11.0435C1.104 10.827 1.11328 10.6353 1.13184 10.4683C1.15039 10.3322 1.18441 10.1961 1.23389 10.0601C1.28337 9.92399 1.32048 9.78483 1.34521 9.64258C1.34521 9.61784 1.34831 9.55908 1.35449 9.46631C1.36686 9.37354 1.37614 9.27458 1.38232 9.16943C1.38851 9.06429 1.39469 8.96224 1.40088 8.86328C1.40706 8.75814 1.41016 8.68392 1.41016 8.64062C1.41016 8.60352 1.39469 8.57878 1.36377 8.56641C1.33903 8.54785 1.3112 8.53857 1.28027 8.53857C1.21224 8.53857 1.13493 8.56331 1.04834 8.61279C0.967936 8.66227 0.88444 8.71794 0.797852 8.77979C0.711263 8.84163 0.624674 8.8973 0.538086 8.94678C0.451497 8.99626 0.374186 9.021 0.306152 9.021C0.256673 9.021 0.228841 9.00553 0.222656 8.97461C0.216471 8.94368 0.213379 8.91276 0.213379 8.88184C0.213379 8.80762 0.241211 8.74268 0.296875 8.68701C0.352539 8.62516 0.420573 8.56641 0.500977 8.51074C0.58138 8.45508 0.664876 8.40251 0.751465 8.35303C0.844238 8.29736 0.924642 8.2417 0.992676 8.18604C1.0236 8.15511 1.03906 8.12419 1.03906 8.09326C1.03906 8.06234 1.05452 8.04688 1.08545 8.04688C1.09782 8.04688 1.11328 8.04997 1.13184 8.05615C1.15039 8.05615 1.16585 8.05615 1.17822 8.05615C1.20915 8.05615 1.2277 8.03451 1.23389 7.99121C1.24007 7.94173 1.25553 7.91081 1.28027 7.89844C1.33594 7.87988 1.38232 7.86442 1.41943 7.85205C1.45654 7.8335 1.48747 7.79948 1.51221 7.75C1.53695 7.69434 1.5555 7.61084 1.56787 7.49951C1.58024 7.38818 1.58643 7.22428 1.58643 7.00781C1.58643 6.79753 1.61117 6.63363 1.66064 6.51611C1.71631 6.39242 1.75033 6.27799 1.7627 6.17285C1.77507 6.07389 1.78434 5.96566 1.79053 5.84814C1.79671 5.73063 1.7998 5.61312 1.7998 5.49561C1.80599 5.37191 1.80908 5.25749 1.80908 5.15234C1.81527 5.04102 1.82145 4.94206 1.82764 4.85547C1.84001 4.72559 1.85856 4.5988 1.8833 4.4751C1.90804 4.3514 1.92041 4.24626 1.92041 4.15967C1.92041 4.03597 1.88021 3.95557 1.7998 3.91846C1.7194 3.88135 1.639 3.86279 1.55859 3.86279C1.49056 3.86279 1.41634 3.86898 1.33594 3.88135C1.26172 3.88753 1.19059 3.89062 1.12256 3.89062C1.05452 3.89062 0.989583 3.88135 0.927734 3.86279C0.87207 3.84424 0.825684 3.80404 0.788574 3.74219C0.819499 3.64323 0.878255 3.5721 0.964844 3.52881C1.05762 3.48551 1.16276 3.45768 1.28027 3.44531C1.40397 3.42676 1.53076 3.42057 1.66064 3.42676C1.79671 3.42676 1.92041 3.42057 2.03174 3.4082C2.25439 3.38965 2.48324 3.37728 2.71826 3.37109C2.95329 3.36491 3.18831 3.35254 3.42334 3.33398C3.56559 3.32161 3.70475 3.29688 3.84082 3.25977C3.98307 3.21647 4.13151 3.19482 4.28613 3.19482C4.34798 3.19482 4.40674 3.19792 4.4624 3.2041C4.52425 3.2041 4.58919 3.2041 4.65723 3.2041C4.84896 3.2041 5.02214 3.17936 5.17676 3.12988C5.33757 3.0804 5.52002 3.05566 5.72412 3.05566C5.76742 3.05566 5.79525 3.05876 5.80762 3.06494C5.82617 3.07113 5.83854 3.0804 5.84473 3.09277C5.85091 3.09896 5.8571 3.10514 5.86328 3.11133C5.86947 3.11751 5.88184 3.12061 5.90039 3.12061C5.91276 3.12061 5.91895 3.11751 5.91895 3.11133C5.92513 3.10514 5.93132 3.09896 5.9375 3.09277C5.94368 3.0804 5.95296 3.07113 5.96533 3.06494C5.98389 3.05876 6.0179 3.05566 6.06738 3.05566C6.11686 3.05566 6.16325 3.05876 6.20654 3.06494C6.25602 3.06494 6.3055 3.06494 6.35498 3.06494C6.41064 3.06494 6.46012 3.05566 6.50342 3.03711C6.54671 3.01855 6.58691 3 6.62402 2.98145C6.66732 2.96289 6.71061 2.94434 6.75391 2.92578C6.80339 2.90723 6.86214 2.89795 6.93018 2.89795C7.05387 2.89795 7.14046 2.92887 7.18994 2.99072C7.24561 3.05257 7.27344 3.12988 7.27344 3.22266C7.27344 3.31543 7.25488 3.42057 7.21777 3.53809C7.18066 3.64941 7.13737 3.76383 7.08789 3.88135C7.03841 3.99268 6.98584 4.10091 6.93018 4.20605C6.8807 4.30501 6.84049 4.38542 6.80957 4.44727C6.78483 4.49674 6.76318 4.5555 6.74463 4.62354C6.73226 4.68538 6.71061 4.73796 6.67969 4.78125C6.64876 4.81836 6.61165 4.85547 6.56836 4.89258C6.52507 4.9235 6.49414 4.95752 6.47559 4.99463C6.45703 5.01318 6.44157 5.05029 6.4292 5.10596C6.42301 5.15544 6.41374 5.20801 6.40137 5.26367C6.389 5.31315 6.37044 5.35954 6.3457 5.40283C6.32096 5.43994 6.28695 5.4585 6.24365 5.4585C6.18799 5.4585 6.14469 5.43994 6.11377 5.40283C6.08285 5.35954 6.06738 5.31006 6.06738 5.25439C6.06738 5.1307 6.08903 4.99463 6.13232 4.84619C6.17562 4.69157 6.19727 4.52458 6.19727 4.34521C6.19727 4.24007 6.1818 4.13802 6.15088 4.03906C6.12614 3.93392 6.06738 3.88135 5.97461 3.88135C5.90039 3.88135 5.80452 3.89372 5.68701 3.91846C5.5695 3.9432 5.486 3.95557 5.43652 3.95557C5.31901 3.95557 5.15511 3.94629 4.94482 3.92773C4.74072 3.90918 4.53044 3.8999 4.31396 3.8999C4.11605 3.8999 3.94906 3.91536 3.81299 3.94629C3.67692 3.97103 3.5625 4.03597 3.46973 4.14111C3.38314 4.24007 3.31201 4.3916 3.25635 4.5957C3.20687 4.79362 3.16976 5.06576 3.14502 5.41211V5.52344C3.1512 5.61003 3.12956 5.74609 3.08008 5.93164C3.0306 6.111 3.00586 6.30892 3.00586 6.52539V6.66455C3.00586 6.7264 2.99349 6.77897 2.96875 6.82227C2.9502 6.85938 2.94092 6.87484 2.94092 6.86865C2.94092 6.89958 2.9502 6.94596 2.96875 7.00781C2.99349 7.06348 3.00586 7.13151 3.00586 7.21191C3.00586 7.22428 2.9904 7.25521 2.95947 7.30469C2.93473 7.34798 2.92236 7.39128 2.92236 7.43457C2.92236 7.46549 2.97184 7.49333 3.0708 7.51807C3.17594 7.54281 3.29964 7.56445 3.44189 7.58301C3.58415 7.59538 3.72949 7.60775 3.87793 7.62012C4.02637 7.6263 4.15007 7.62939 4.24902 7.62939C4.33561 7.62939 4.42529 7.61702 4.51807 7.59229C4.61702 7.56755 4.73145 7.55518 4.86133 7.55518C4.92318 7.55518 4.98193 7.55827 5.0376 7.56445C5.09945 7.57064 5.15511 7.57373 5.20459 7.57373C5.2417 7.57373 5.26953 7.57064 5.28809 7.56445C5.46126 7.52116 5.59115 7.4624 5.67773 7.38818C5.77051 7.31396 5.854 7.23975 5.92822 7.16553C6.00244 7.09131 6.08594 7.02637 6.17871 6.9707C6.27767 6.90885 6.41992 6.87174 6.60547 6.85938C6.63021 6.8903 6.64258 6.92741 6.64258 6.9707C6.64258 7.03874 6.61165 7.10368 6.5498 7.16553C6.49414 7.22738 6.44466 7.28923 6.40137 7.35107C6.389 7.36344 6.37663 7.39746 6.36426 7.45312C6.35807 7.50879 6.3457 7.5459 6.32715 7.56445C6.29622 7.59538 6.25293 7.60775 6.19727 7.60156C6.1416 7.58919 6.09521 7.59847 6.05811 7.62939C6.02718 7.64176 6.00244 7.66341 5.98389 7.69434C5.97152 7.71908 5.94987 7.74382 5.91895 7.76855C5.72721 7.87988 5.57878 7.98503 5.47363 8.08398C5.36849 8.18294 5.27572 8.26953 5.19531 8.34375C5.11491 8.41178 5.03141 8.46745 4.94482 8.51074C4.85824 8.54785 4.74072 8.56641 4.59229 8.56641C4.31396 8.56641 4.03564 8.54167 3.75732 8.49219C3.48519 8.44271 3.23161 8.41797 2.99658 8.41797C2.84196 8.41797 2.743 8.47054 2.69971 8.57568C2.65641 8.67464 2.63477 8.79525 2.63477 8.9375C2.63477 8.98698 2.63786 9.03337 2.64404 9.07666C2.65023 9.11377 2.65332 9.14779 2.65332 9.17871C2.65332 9.20964 2.64714 9.25293 2.63477 9.30859C2.6224 9.35807 2.60693 9.41374 2.58838 9.47559C2.57601 9.53125 2.56364 9.58691 2.55127 9.64258C2.5389 9.69206 2.52962 9.73535 2.52344 9.77246C2.51107 9.8776 2.4987 9.97965 2.48633 10.0786C2.47396 10.1776 2.4585 10.292 2.43994 10.4219C2.42757 10.5456 2.40902 10.6878 2.38428 10.8486C2.36572 11.0094 2.34408 11.2043 2.31934 11.4331C2.30078 11.6125 2.27913 11.7609 2.25439 11.8784C2.22965 11.9959 2.19873 12.1073 2.16162 12.2124C2.12451 12.3114 2.07812 12.4134 2.02246 12.5186C1.97298 12.6175 1.90804 12.7412 1.82764 12.8896C1.84619 12.8896 1.86165 12.8927 1.87402 12.8989C1.89258 12.8989 1.90804 12.8989 1.92041 12.8989C2.00081 12.8989 2.08122 12.8866 2.16162 12.8618C2.24821 12.8371 2.36882 12.8031 2.52344 12.7598C2.56055 12.735 2.59766 12.7103 2.63477 12.6855C2.66569 12.667 2.69661 12.6515 2.72754 12.6392C2.75846 12.6206 2.78939 12.6113 2.82031 12.6113C2.83887 12.6113 2.8667 12.6144 2.90381 12.6206C2.94092 12.6268 2.97493 12.6299 3.00586 12.6299C3.04297 12.6299 3.06771 12.6237 3.08008 12.6113C3.09863 12.5928 3.12646 12.5835 3.16357 12.5835C3.23779 12.5835 3.38314 12.5959 3.59961 12.6206C3.81608 12.6392 4.07275 12.6484 4.36963 12.6484C4.48714 12.6484 4.59847 12.6453 4.70361 12.6392C4.81494 12.6268 4.92008 12.5959 5.01904 12.5464C5.03141 12.534 5.04997 12.5124 5.07471 12.4814C5.10563 12.4505 5.13656 12.4165 5.16748 12.3794C5.1984 12.3423 5.22933 12.3083 5.26025 12.2773C5.29736 12.2464 5.33138 12.2217 5.3623 12.2031C5.39941 12.1784 5.4458 12.1691 5.50146 12.1753C5.55713 12.1753 5.60352 12.1598 5.64062 12.1289C5.6901 12.0918 5.7334 12.0423 5.77051 11.9805C5.80762 11.9124 5.8571 11.8475 5.91895 11.7856L6.40137 11.3032C6.42611 11.2785 6.45085 11.2507 6.47559 11.2197C6.50033 11.1826 6.52816 11.1486 6.55908 11.1177C6.59619 11.0868 6.63949 11.062 6.68896 11.0435C6.73844 11.0249 6.80029 11.0156 6.87451 11.0156H6.95801ZM17.8311 11.5723C17.8125 11.6032 17.7816 11.6187 17.7383 11.6187C17.7012 11.6125 17.6826 11.6279 17.6826 11.665C17.6826 11.6774 17.6826 11.6929 17.6826 11.7114C17.6888 11.73 17.6919 11.7454 17.6919 11.7578C17.6919 11.7826 17.6733 11.8073 17.6362 11.832C17.5991 11.8506 17.5558 11.8691 17.5063 11.8877C17.4569 11.9062 17.4074 11.9248 17.3579 11.9434C17.3146 11.9557 17.2868 11.9712 17.2744 11.9897C17.2682 11.9959 17.2559 12.0207 17.2373 12.064C17.2249 12.1073 17.2064 12.1567 17.1816 12.2124C17.1569 12.2619 17.1322 12.3083 17.1074 12.3516C17.0889 12.3949 17.0703 12.4165 17.0518 12.4165C17.0394 12.4165 17.0239 12.4134 17.0054 12.4072C16.9868 12.401 16.9683 12.3979 16.9497 12.3979C16.9126 12.3979 16.8879 12.432 16.8755 12.5C16.8693 12.568 16.8415 12.6268 16.792 12.6763C16.7054 12.7629 16.5786 12.8773 16.4116 13.0195C16.2446 13.1618 16.0776 13.3009 15.9106 13.437C15.7437 13.5731 15.5952 13.6906 15.4653 13.7896C15.3416 13.8885 15.2767 13.938 15.2705 13.938C15.1283 13.938 15.0355 13.8823 14.9922 13.771C14.9551 13.6659 14.9365 13.5391 14.9365 13.3906C14.9365 13.2298 14.9458 13.0597 14.9644 12.8804C14.9891 12.6948 15.0138 12.5216 15.0386 12.3608C15.0633 12.1938 15.085 12.0454 15.1035 11.9155C15.1283 11.7856 15.1406 11.6867 15.1406 11.6187C15.1406 11.5382 15.1375 11.4609 15.1313 11.3867C15.1313 11.3125 15.1313 11.2383 15.1313 11.1641C15.1313 10.96 15.153 10.7713 15.1963 10.5981C15.221 10.5116 15.255 10.4312 15.2983 10.3569C15.3478 10.2827 15.3818 10.2023 15.4004 10.1157C15.4251 10.0106 15.4375 9.89616 15.4375 9.77246C15.4437 9.64876 15.453 9.53434 15.4653 9.4292C15.5086 9.14469 15.5488 8.84473 15.5859 8.5293C15.6292 8.21387 15.6602 7.88916 15.6787 7.55518C15.5736 7.56755 15.4808 7.60465 15.4004 7.6665C15.32 7.72217 15.2458 7.79329 15.1777 7.87988C15.1159 7.96647 15.0571 8.06234 15.0015 8.16748C14.952 8.26644 14.8994 8.3623 14.8438 8.45508C14.8252 8.49219 14.8159 8.5293 14.8159 8.56641C14.8221 8.59733 14.8097 8.62826 14.7788 8.65918C14.7603 8.68392 14.7293 8.69938 14.686 8.70557C14.6489 8.71175 14.6304 8.7334 14.6304 8.77051C14.6304 8.78906 14.6335 8.81071 14.6396 8.83545C14.6458 8.854 14.6489 8.87565 14.6489 8.90039C14.6489 8.94987 14.6273 8.97461 14.584 8.97461C14.5407 8.97461 14.5129 8.98698 14.5005 9.01172C14.4139 9.14779 14.3459 9.29622 14.2964 9.45703C14.2469 9.61165 14.2005 9.7168 14.1572 9.77246C14.1449 9.78483 14.1201 9.7972 14.083 9.80957C14.0459 9.82194 14.0243 9.83431 14.0181 9.84668C13.9748 9.92708 13.9438 10.0229 13.9253 10.1343C13.9067 10.2394 13.8665 10.3507 13.8047 10.4683C13.7738 10.5239 13.7397 10.5827 13.7026 10.6445C13.6655 10.7064 13.6253 10.7682 13.582 10.8301C13.5387 10.8857 13.4985 10.9383 13.4614 10.9878C13.4305 11.0311 13.4058 11.0651 13.3872 11.0898C13.2944 11.3063 13.2295 11.4857 13.1924 11.6279C13.1553 11.7702 13.1305 11.897 13.1182 12.0083C13.1058 12.1134 13.0965 12.2124 13.0903 12.3052C13.0903 12.3979 13.078 12.5 13.0532 12.6113C13.0409 12.6423 13.013 12.6701 12.9697 12.6948C12.9264 12.7196 12.9048 12.7443 12.9048 12.769C12.9048 12.7876 12.9048 12.8092 12.9048 12.834C12.911 12.8587 12.9141 12.8835 12.9141 12.9082C12.9141 12.9453 12.8893 12.9824 12.8398 13.0195C12.7965 13.0566 12.7409 13.0938 12.6729 13.1309C12.611 13.168 12.543 13.2082 12.4688 13.2515C12.3945 13.2886 12.3327 13.3288 12.2832 13.3721C12.2399 13.4092 12.2028 13.4525 12.1719 13.502C12.141 13.5576 12.11 13.6071 12.0791 13.6504C12.0482 13.6999 12.0142 13.7401 11.9771 13.771C11.9399 13.8019 11.8966 13.8174 11.8472 13.8174C11.8101 13.8174 11.7699 13.8081 11.7266 13.7896C11.7327 13.6411 11.7513 13.4958 11.7822 13.3535C11.8193 13.2113 11.8564 13.0659 11.8936 12.9175C11.9307 12.769 11.9616 12.6175 11.9863 12.4629C12.0173 12.3021 12.0327 12.132 12.0327 11.9526C12.0327 11.9155 12.0296 11.8722 12.0234 11.8228C12.0234 11.7733 12.0203 11.7269 12.0142 11.6836C12.008 11.6341 11.9987 11.5939 11.9863 11.563C11.974 11.5259 11.9585 11.5073 11.9399 11.5073C11.9461 11.4578 11.974 11.3774 12.0234 11.2661C12.0729 11.1486 12.1131 11.0218 12.144 10.8857C12.1688 10.762 12.1873 10.6383 12.1997 10.5146C12.2183 10.3848 12.2337 10.2549 12.2461 10.125C12.2646 9.98893 12.2863 9.84668 12.311 9.69824C12.3358 9.54362 12.3729 9.38281 12.4224 9.21582C12.4285 9.19727 12.4409 9.16943 12.4595 9.13232C12.4842 9.08903 12.4966 9.07048 12.4966 9.07666C12.4966 9.021 12.4842 8.96842 12.4595 8.91895C12.4347 8.86947 12.4224 8.81071 12.4224 8.74268C12.4471 8.74268 12.4718 8.68392 12.4966 8.56641C12.5213 8.44271 12.543 8.30973 12.5615 8.16748C12.5863 8.02523 12.6048 7.89844 12.6172 7.78711C12.6296 7.6696 12.6357 7.61393 12.6357 7.62012C12.6234 7.5459 12.6017 7.48405 12.5708 7.43457C12.5399 7.38509 12.4997 7.36035 12.4502 7.36035C12.444 7.36035 12.4285 7.36654 12.4038 7.37891C12.3791 7.38509 12.3512 7.39746 12.3203 7.41602C12.2956 7.43457 12.2708 7.45931 12.2461 7.49023C12.2214 7.52116 12.209 7.55827 12.209 7.60156C12.209 7.6263 12.209 7.65104 12.209 7.67578C12.2152 7.69434 12.2183 7.71289 12.2183 7.73145C12.2183 7.78092 12.1966 7.80566 12.1533 7.80566C12.1162 7.79948 12.0915 7.80876 12.0791 7.8335C12.0482 7.87679 12.0265 7.93245 12.0142 8.00049C12.0018 8.06234 11.9771 8.12109 11.9399 8.17676C11.8966 8.24479 11.8595 8.30355 11.8286 8.35303C11.7977 8.39632 11.7668 8.4458 11.7358 8.50146C11.7049 8.55713 11.6678 8.62516 11.6245 8.70557C11.5812 8.77979 11.5256 8.88184 11.4575 9.01172C11.4019 9.12305 11.3369 9.21582 11.2627 9.29004C11.1885 9.36426 11.1359 9.43229 11.105 9.49414C11.0802 9.54362 11.0679 9.60238 11.0679 9.67041C11.0679 9.73226 11.0586 9.79102 11.04 9.84668C10.9535 9.99512 10.873 10.1219 10.7988 10.2271C10.7308 10.326 10.672 10.4281 10.6226 10.5332C10.604 10.5641 10.5885 10.6105 10.5762 10.6724C10.57 10.7342 10.5607 10.8022 10.5483 10.8765C10.5422 10.9445 10.5329 11.0094 10.5205 11.0713C10.5143 11.1331 10.502 11.1826 10.4834 11.2197C10.4648 11.263 10.4308 11.3001 10.3813 11.3311C10.3319 11.362 10.2948 11.396 10.27 11.4331C10.2515 11.4764 10.2422 11.5321 10.2422 11.6001C10.2422 11.6681 10.2298 11.7269 10.2051 11.7764C10.2051 11.7702 10.1927 11.7887 10.168 11.832C10.1494 11.8753 10.1278 11.9248 10.103 11.9805C10.0783 12.0361 10.0535 12.0918 10.0288 12.1475C10.0103 12.2031 10.001 12.2402 10.001 12.2588C10.001 12.3454 10.0103 12.4289 10.0288 12.5093C10.0474 12.5835 10.0566 12.6515 10.0566 12.7134C10.0566 12.7629 10.0443 12.8031 10.0195 12.834C9.99479 12.8649 9.94222 12.8835 9.86182 12.8896C9.83089 12.8896 9.80615 12.902 9.7876 12.9268C9.77523 12.9453 9.76286 12.9701 9.75049 13.001C9.73812 13.0257 9.72266 13.0505 9.7041 13.0752C9.68555 13.0938 9.66081 13.103 9.62988 13.103C9.61751 13.103 9.60205 13.103 9.5835 13.103C9.56494 13.0968 9.54948 13.0938 9.53711 13.0938C9.51855 13.0938 9.47835 13.1247 9.4165 13.1865C9.35465 13.2422 9.28662 13.3102 9.2124 13.3906C9.13818 13.471 9.06396 13.5483 8.98975 13.6226C8.91553 13.6968 8.85986 13.7524 8.82275 13.7896C8.7609 13.839 8.69596 13.8947 8.62793 13.9565C8.5599 14.0246 8.48877 14.0617 8.41455 14.0679C8.40837 14.0431 8.40527 14.0091 8.40527 13.9658C8.40527 13.8421 8.43311 13.7246 8.48877 13.6133C8.55062 13.5081 8.59391 13.403 8.61865 13.2979C8.66813 13.0814 8.69906 12.8247 8.71143 12.5278C8.72998 12.231 8.76709 11.9124 8.82275 11.5723C8.82275 11.5599 8.83203 11.5413 8.85059 11.5166C8.87533 11.4919 8.89079 11.464 8.89697 11.4331C8.89697 11.4022 8.89388 11.3713 8.8877 11.3403C8.8877 11.3094 8.8877 11.2785 8.8877 11.2476C8.8877 11.2228 8.89388 11.1672 8.90625 11.0806C8.9248 10.9878 8.94645 10.8796 8.97119 10.7559C8.99593 10.6322 9.02067 10.5023 9.04541 10.3662C9.07015 10.224 9.0887 10.0941 9.10107 9.97656C9.12581 9.77246 9.13509 9.57145 9.12891 9.37354C9.12891 9.16943 9.14128 8.98079 9.16602 8.80762C9.17839 8.72103 9.19694 8.61589 9.22168 8.49219C9.2526 8.36849 9.28353 8.2417 9.31445 8.11182C9.34538 7.97575 9.37321 7.84587 9.39795 7.72217C9.42269 7.59847 9.43506 7.49333 9.43506 7.40674C9.43506 7.27067 9.40104 7.20264 9.33301 7.20264C9.28353 7.20264 9.21859 7.23047 9.13818 7.28613C9.05778 7.3418 8.97428 7.40674 8.8877 7.48096C8.80729 7.55518 8.72689 7.63249 8.64648 7.71289C8.57227 7.79329 8.5166 7.85514 8.47949 7.89844C8.46712 7.91699 8.44857 7.95719 8.42383 8.01904C8.39909 8.08089 8.37126 8.13346 8.34033 8.17676C8.32796 8.18913 8.30322 8.2015 8.26611 8.21387C8.229 8.22624 8.20736 8.23861 8.20117 8.25098C8.18262 8.28809 8.17334 8.3252 8.17334 8.3623C8.17334 8.39941 8.16715 8.43343 8.15479 8.46436C8.1486 8.49528 8.12695 8.52311 8.08984 8.54785C8.05273 8.56641 7.98779 8.57568 7.89502 8.57568C7.82699 8.57568 7.76823 8.56022 7.71875 8.5293C7.67546 8.49837 7.65381 8.45817 7.65381 8.40869C7.65381 8.3654 7.67236 8.3221 7.70947 8.27881C7.74658 8.22933 7.79606 8.17057 7.85791 8.10254H7.86719C7.87956 8.10254 7.89502 8.10563 7.91357 8.11182C7.93213 8.11182 7.95068 8.11182 7.96924 8.11182C7.99398 8.11182 8.0249 8.06852 8.06201 7.98193C8.10531 7.89535 8.15169 7.82422 8.20117 7.76855C8.24447 7.72526 8.30013 7.67269 8.36816 7.61084C8.4362 7.54899 8.50423 7.48714 8.57227 7.42529C8.6403 7.36344 8.69906 7.30469 8.74854 7.24902C8.79801 7.19336 8.82275 7.15007 8.82275 7.11914C8.82275 7.10677 8.81966 7.09131 8.81348 7.07275C8.81348 7.0542 8.81348 7.03874 8.81348 7.02637C8.81348 6.99544 8.84131 6.94906 8.89697 6.88721C8.95882 6.81917 9.02686 6.75114 9.10107 6.68311C9.18148 6.61507 9.25879 6.54704 9.33301 6.479C9.41341 6.41097 9.47526 6.35531 9.51855 6.31201C9.64225 6.18831 9.76904 6.06462 9.89893 5.94092C10.035 5.81722 10.1803 5.75537 10.335 5.75537C10.3721 5.75537 10.4154 5.76465 10.4648 5.7832C10.5143 5.80176 10.5607 5.83268 10.604 5.87598C10.6535 5.91927 10.6937 5.97493 10.7246 6.04297C10.7617 6.111 10.7803 6.1945 10.7803 6.29346C10.7803 6.47282 10.7493 6.67074 10.6875 6.88721C10.6257 7.10368 10.5824 7.3016 10.5576 7.48096C10.5329 7.65413 10.5174 7.82113 10.5112 7.98193C10.5112 8.13656 10.5081 8.28499 10.502 8.42725C10.4958 8.5695 10.4834 8.70557 10.4648 8.83545C10.4463 8.96533 10.4061 9.09212 10.3442 9.21582H10.3813C10.4741 9.21582 10.5483 9.18799 10.604 9.13232C10.6597 9.07048 10.7061 8.99626 10.7432 8.90967C10.7803 8.82308 10.8143 8.7334 10.8452 8.64062C10.8823 8.54167 10.9256 8.45817 10.9751 8.39014C10.9813 8.37777 11.0029 8.3654 11.04 8.35303C11.0771 8.34066 11.0988 8.32829 11.105 8.31592C11.1297 8.27262 11.1483 8.21696 11.1606 8.14893C11.173 8.08089 11.2008 8.02214 11.2441 7.97266C11.2936 7.91081 11.3524 7.85514 11.4204 7.80566C11.4884 7.75 11.5472 7.68815 11.5967 7.62012C11.6276 7.58301 11.6523 7.53662 11.6709 7.48096C11.6895 7.41911 11.7544 7.32943 11.8657 7.21191C11.9709 7.10059 12.0822 6.98926 12.1997 6.87793C12.3234 6.7666 12.444 6.646 12.5615 6.51611C12.611 6.46045 12.6512 6.40788 12.6821 6.3584C12.7131 6.30273 12.744 6.25326 12.7749 6.20996C12.812 6.16048 12.8491 6.11719 12.8862 6.08008C12.9295 6.03678 12.9852 5.99658 13.0532 5.95947C13.0903 5.93473 13.1336 5.92546 13.1831 5.93164C13.2326 5.93783 13.279 5.92546 13.3223 5.89453C13.347 5.87598 13.3656 5.85433 13.3779 5.82959C13.3903 5.80485 13.4027 5.7832 13.415 5.76465C13.4336 5.73991 13.4552 5.72135 13.48 5.70898C13.5109 5.69661 13.5573 5.69043 13.6191 5.69043C13.7552 5.69043 13.8634 5.71826 13.9438 5.77393C14.0304 5.82959 14.0737 5.90381 14.0737 5.99658C14.0737 6.08317 14.0459 6.14502 13.9902 6.18213C13.9346 6.21924 13.8975 6.26253 13.8789 6.31201C13.8542 6.38623 13.8387 6.47591 13.8325 6.58105C13.8325 6.6862 13.8232 6.77897 13.8047 6.85938C13.7552 7.05729 13.7057 7.26139 13.6562 7.47168C13.613 7.68197 13.5913 7.85514 13.5913 7.99121C13.5913 8.05306 13.5913 8.10872 13.5913 8.1582C13.5975 8.20768 13.6006 8.25716 13.6006 8.30664C13.6006 8.46745 13.5728 8.62207 13.5171 8.77051C13.4676 8.91276 13.4429 9.07975 13.4429 9.27148C13.4429 9.30241 13.4429 9.33952 13.4429 9.38281C13.4491 9.41992 13.4552 9.45703 13.4614 9.49414C13.5418 9.48796 13.6099 9.46012 13.6655 9.41064C13.7212 9.36117 13.7707 9.30241 13.814 9.23438C13.8634 9.16016 13.9067 9.08594 13.9438 9.01172C13.9871 8.93132 14.0366 8.86328 14.0923 8.80762C14.216 8.64062 14.3242 8.486 14.417 8.34375C14.5098 8.2015 14.5964 8.06234 14.6768 7.92627C14.7633 7.7902 14.8499 7.65413 14.9365 7.51807C15.0293 7.37581 15.1375 7.22428 15.2612 7.06348C15.3107 7.00163 15.3664 6.94906 15.4282 6.90576C15.4963 6.85628 15.5581 6.79753 15.6138 6.72949C15.6694 6.66146 15.7158 6.58724 15.7529 6.50684C15.7962 6.42025 15.8395 6.35531 15.8828 6.31201C15.9632 6.31201 16.0405 6.27799 16.1147 6.20996C16.1951 6.14193 16.2756 6.06771 16.356 5.9873C16.4364 5.90072 16.5168 5.8234 16.5972 5.75537C16.6776 5.68734 16.7642 5.65332 16.8569 5.65332C16.9621 5.65332 17.0363 5.69971 17.0796 5.79248C17.1229 5.88525 17.1445 6.01204 17.1445 6.17285C17.1445 6.32747 17.1322 6.46354 17.1074 6.58105C17.0889 6.69857 17.0641 6.81608 17.0332 6.93359C17.0023 7.05111 16.9683 7.1779 16.9312 7.31396C16.9002 7.44385 16.8755 7.59538 16.8569 7.76855C16.8446 7.8304 16.8198 7.89225 16.7827 7.9541C16.7518 8.01595 16.7301 8.09017 16.7178 8.17676C16.6868 8.38704 16.6683 8.60661 16.6621 8.83545C16.6559 9.06429 16.6281 9.28385 16.5786 9.49414C16.5662 9.56217 16.5508 9.63949 16.5322 9.72607C16.5137 9.80648 16.4951 9.88997 16.4766 9.97656C16.4642 10.0632 16.4518 10.1497 16.4395 10.2363C16.4333 10.3167 16.4302 10.3879 16.4302 10.4497C16.4302 10.561 16.4302 10.6724 16.4302 10.7837C16.4364 10.895 16.4395 10.994 16.4395 11.0806C16.4395 11.2909 16.4147 11.495 16.3652 11.6929C16.3158 11.8846 16.291 12.0856 16.291 12.2959C16.291 12.3145 16.291 12.333 16.291 12.3516C16.2972 12.3701 16.3003 12.3887 16.3003 12.4072C16.4116 12.3887 16.5075 12.3577 16.5879 12.3145C16.6745 12.265 16.7518 12.2093 16.8198 12.1475C16.8879 12.0794 16.9528 12.0083 17.0146 11.9341C17.0765 11.8537 17.1414 11.7795 17.2095 11.7114C17.228 11.6929 17.2528 11.6558 17.2837 11.6001C17.3208 11.5444 17.361 11.4888 17.4043 11.4331C17.4538 11.3713 17.5033 11.3187 17.5527 11.2754C17.6084 11.2259 17.6641 11.2012 17.7197 11.2012C17.7383 11.2012 17.7537 11.2043 17.7661 11.2104C17.7847 11.2104 17.8063 11.2135 17.8311 11.2197C17.8249 11.2383 17.8218 11.263 17.8218 11.2939C17.8218 11.3311 17.8249 11.3682 17.8311 11.4053C17.8372 11.4362 17.8403 11.4702 17.8403 11.5073C17.8403 11.5382 17.8372 11.5599 17.8311 11.5723ZM21.9316 11.0898C21.9564 11.1455 21.9688 11.2043 21.9688 11.2661C21.9688 11.328 21.9533 11.3836 21.9224 11.4331C21.8976 11.4764 21.8636 11.5197 21.8203 11.563C21.7832 11.6001 21.7399 11.6372 21.6904 11.6743C21.6471 11.7052 21.61 11.7393 21.5791 11.7764C21.5667 11.8011 21.5575 11.8382 21.5513 11.8877C21.5513 11.931 21.5389 11.965 21.5142 11.9897C21.4399 12.0701 21.3472 12.1382 21.2358 12.1938C21.1307 12.2495 21.0379 12.3206 20.9575 12.4072C20.908 12.4629 20.8709 12.5186 20.8462 12.5742C20.8215 12.6237 20.7658 12.6825 20.6792 12.7505C20.6112 12.8 20.5462 12.868 20.4844 12.9546C20.4225 13.0412 20.3545 13.1278 20.2803 13.2144C20.2061 13.2948 20.1195 13.3659 20.0205 13.4277C19.9215 13.4958 19.804 13.5298 19.668 13.5298C19.637 13.5298 19.6092 13.5267 19.5845 13.5205C19.5597 13.5205 19.5319 13.5174 19.501 13.5112C19.501 13.5112 19.4793 13.4989 19.436 13.4741C19.3927 13.4494 19.3433 13.3999 19.2876 13.3257C19.2381 13.2515 19.1917 13.1463 19.1484 13.0103C19.1051 12.8742 19.0835 12.6948 19.0835 12.4722C19.0835 12.4165 19.0928 12.3577 19.1113 12.2959C19.1361 12.2279 19.1608 12.1629 19.1855 12.1011C19.2165 12.0392 19.2412 11.9774 19.2598 11.9155C19.2845 11.8475 19.2969 11.7856 19.2969 11.73C19.2969 11.6743 19.2845 11.6217 19.2598 11.5723C19.235 11.5228 19.2227 11.4702 19.2227 11.4146C19.2227 11.3589 19.2474 11.3218 19.2969 11.3032C19.3464 11.2785 19.3711 11.2352 19.3711 11.1733C19.3711 11.1424 19.368 11.1146 19.3618 11.0898C19.3618 11.0651 19.3618 11.0373 19.3618 11.0063C19.3618 10.9321 19.3742 10.8826 19.3989 10.8579C19.4237 10.827 19.436 10.7868 19.436 10.7373C19.436 10.694 19.4268 10.6631 19.4082 10.6445C19.3958 10.6198 19.3896 10.5889 19.3896 10.5518C19.3896 10.5085 19.4051 10.4683 19.436 10.4312C19.467 10.3879 19.4886 10.3291 19.501 10.2549C19.5443 10.1126 19.5783 9.94564 19.603 9.75391C19.6278 9.55599 19.6556 9.3457 19.6865 9.12305C19.7236 8.89421 19.7638 8.65299 19.8071 8.39941C19.8504 8.13965 19.9123 7.87988 19.9927 7.62012C20.0174 7.53353 20.0422 7.40983 20.0669 7.24902C20.0978 7.08203 20.1164 6.90885 20.1226 6.72949C20.0916 6.71094 20.07 6.70166 20.0576 6.70166C20.0081 6.70166 19.971 6.74186 19.9463 6.82227C19.9277 6.90267 19.8968 6.96143 19.8535 6.99854C19.8226 7.02327 19.7855 7.03564 19.7422 7.03564C19.7051 7.03564 19.6711 7.04492 19.6401 7.06348C19.603 7.0944 19.5721 7.13151 19.5474 7.1748C19.5288 7.21191 19.5072 7.24902 19.4824 7.28613C19.4639 7.32324 19.436 7.36035 19.3989 7.39746C19.3618 7.43457 19.3062 7.4624 19.2319 7.48096C19.2196 7.48714 19.2134 7.5026 19.2134 7.52734C19.2134 7.5459 19.201 7.55518 19.1763 7.55518H19.1577C19.1577 7.53662 19.1423 7.52116 19.1113 7.50879C19.0866 7.49023 19.0557 7.47168 19.0186 7.45312C18.9814 7.43457 18.9474 7.41292 18.9165 7.38818C18.8918 7.36344 18.8794 7.33252 18.8794 7.29541C18.8794 7.23975 18.8918 7.19645 18.9165 7.16553C18.9412 7.1346 18.9753 7.10986 19.0186 7.09131C19.0618 7.07275 19.1051 7.0542 19.1484 7.03564C19.1979 7.0109 19.2474 6.97689 19.2969 6.93359C19.3587 6.87174 19.4268 6.80062 19.501 6.72021C19.5814 6.63981 19.6618 6.55941 19.7422 6.479C19.8226 6.39242 19.9061 6.31201 19.9927 6.23779C20.0854 6.15739 20.1782 6.08626 20.271 6.02441C20.2896 6.01204 20.2926 5.99967 20.2803 5.9873C20.2741 5.97493 20.2926 5.96566 20.3359 5.95947C20.3545 5.95947 20.3792 5.9502 20.4102 5.93164C20.4473 5.9069 20.4813 5.88216 20.5122 5.85742C20.5493 5.8265 20.5802 5.80176 20.605 5.7832C20.6297 5.75846 20.6452 5.74609 20.6514 5.74609C20.6637 5.74609 20.6761 5.74919 20.6885 5.75537C20.707 5.75537 20.7225 5.75537 20.7349 5.75537C20.7843 5.75537 20.84 5.743 20.9019 5.71826C20.9699 5.68734 21.0905 5.67188 21.2637 5.67188C21.3317 5.67188 21.3905 5.69352 21.4399 5.73682C21.4956 5.77393 21.5234 5.85433 21.5234 5.97803C21.5234 6.01514 21.508 6.07389 21.4771 6.1543C21.4461 6.2347 21.4121 6.33057 21.375 6.44189C21.3379 6.55322 21.3039 6.67692 21.2729 6.81299C21.242 6.94906 21.2266 7.09131 21.2266 7.23975C21.2266 7.3016 21.2297 7.36654 21.2358 7.43457C21.242 7.49642 21.2451 7.55827 21.2451 7.62012C21.2451 7.73145 21.2235 7.82731 21.1802 7.90771C21.1431 7.98193 21.1152 8.07161 21.0967 8.17676C21.0719 8.30664 21.0596 8.44271 21.0596 8.58496C21.0596 8.72721 21.0503 8.86947 21.0317 9.01172C20.9823 9.30859 20.9235 9.59619 20.8555 9.87451C20.7874 10.1528 20.7287 10.4404 20.6792 10.7373C20.6606 10.8363 20.6297 10.9631 20.5864 11.1177C20.5493 11.2723 20.5308 11.4362 20.5308 11.6094C20.5308 11.7702 20.5586 11.9186 20.6143 12.0547C20.707 12.0485 20.7843 12.0207 20.8462 11.9712C20.908 11.9217 20.9637 11.866 21.0132 11.8042C21.0627 11.7424 21.109 11.6774 21.1523 11.6094C21.2018 11.5413 21.2544 11.4826 21.3101 11.4331C21.3472 11.4022 21.3997 11.3805 21.4678 11.3682C21.542 11.3496 21.6038 11.3249 21.6533 11.2939C21.7028 11.263 21.7368 11.2197 21.7554 11.1641C21.7739 11.1084 21.8141 11.0806 21.876 11.0806C21.8883 11.0806 21.8976 11.0837 21.9038 11.0898C21.91 11.0898 21.9193 11.0898 21.9316 11.0898ZM22.2749 1.73828C22.2935 1.77539 22.3027 1.81559 22.3027 1.85889C22.3027 1.93311 22.278 2.01351 22.2285 2.1001C22.179 2.18669 22.1234 2.27018 22.0615 2.35059C22.0059 2.43099 21.9502 2.50521 21.8945 2.57324C21.8389 2.63509 21.8049 2.67839 21.7925 2.70312C21.7554 2.78353 21.7244 2.89176 21.6997 3.02783C21.6812 3.1639 21.641 3.2876 21.5791 3.39893C21.5544 3.4484 21.5327 3.48551 21.5142 3.51025C21.4956 3.53499 21.474 3.59066 21.4492 3.67725C21.4245 3.73291 21.3936 3.79785 21.3564 3.87207C21.3193 3.94629 21.2791 4.01742 21.2358 4.08545C21.1925 4.1473 21.1493 4.20296 21.106 4.25244C21.0627 4.29574 21.0225 4.31738 20.9854 4.31738C20.8245 4.31738 20.7132 4.24007 20.6514 4.08545C20.5957 3.92464 20.5679 3.736 20.5679 3.51953C20.5679 3.43294 20.571 3.34326 20.5771 3.25049C20.5895 3.15771 20.6019 3.06803 20.6143 2.98145C20.6266 2.88867 20.6576 2.82064 20.707 2.77734C20.7565 2.73405 20.7967 2.66602 20.8276 2.57324C20.8586 2.49284 20.8802 2.41553 20.8926 2.34131C20.9049 2.2609 20.9173 2.18669 20.9297 2.11865C20.9482 2.05062 20.9668 1.99186 20.9854 1.94238C21.0101 1.88672 21.0472 1.84033 21.0967 1.80322C21.1338 1.77848 21.1771 1.75684 21.2266 1.73828C21.2822 1.71973 21.3379 1.70736 21.3936 1.70117C21.4554 1.6888 21.5142 1.67952 21.5698 1.67334C21.6317 1.66715 21.6812 1.66406 21.7183 1.66406C21.7183 1.67025 21.7461 1.66097 21.8018 1.63623C21.8574 1.60531 21.9193 1.58984 21.9873 1.58984C21.9997 1.58984 22.0399 1.60221 22.1079 1.62695C22.1821 1.64551 22.2378 1.68262 22.2749 1.73828ZM26.3384 10.9507C26.326 11.0311 26.3105 11.1115 26.292 11.1919C26.2796 11.2723 26.2487 11.3527 26.1992 11.4331C26.1683 11.4888 26.1219 11.5382 26.0601 11.5815C25.9982 11.6187 25.9518 11.6619 25.9209 11.7114C25.8838 11.7609 25.8498 11.8197 25.8188 11.8877C25.7879 11.9495 25.7539 12.0052 25.7168 12.0547C25.6549 12.1351 25.5838 12.2124 25.5034 12.2866C25.4292 12.3547 25.3612 12.4412 25.2993 12.5464C25.2251 12.6701 25.1416 12.7845 25.0488 12.8896C24.9622 12.9948 24.8385 13.1309 24.6777 13.2979C24.6283 13.3535 24.5881 13.4215 24.5571 13.502C24.5262 13.5824 24.4953 13.6318 24.4644 13.6504C24.4334 13.6751 24.387 13.6875 24.3252 13.6875C24.2695 13.6937 24.2262 13.703 24.1953 13.7153C24.1953 13.7153 24.1799 13.7246 24.1489 13.7432C24.1242 13.7617 24.0933 13.7803 24.0562 13.7988C24.0252 13.8236 23.9881 13.8421 23.9448 13.8545C23.9077 13.873 23.8737 13.8823 23.8428 13.8823C23.7129 13.8823 23.6139 13.8483 23.5459 13.7803C23.4779 13.7122 23.4284 13.6133 23.3975 13.4834C23.3727 13.3535 23.3573 13.1927 23.3511 13.001C23.3511 12.8092 23.3511 12.5897 23.3511 12.3423C23.3511 12.2248 23.3542 12.1258 23.3604 12.0454C23.3727 11.9588 23.3851 11.8815 23.3975 11.8135C23.416 11.7393 23.4315 11.6681 23.4438 11.6001C23.4624 11.5321 23.481 11.4548 23.4995 11.3682C23.5366 11.1702 23.5583 10.9692 23.5645 10.7651C23.5768 10.561 23.6016 10.3446 23.6387 10.1157C23.651 10.0291 23.6727 9.93945 23.7036 9.84668C23.7407 9.75391 23.7655 9.65804 23.7778 9.55908C23.8211 9.19417 23.8428 8.81999 23.8428 8.43652C23.849 8.05306 23.8737 7.6665 23.917 7.27686C23.9355 7.07275 23.9634 6.86556 24.0005 6.65527C24.0438 6.4388 24.084 6.22852 24.1211 6.02441C24.1706 5.75846 24.2139 5.47396 24.251 5.1709C24.2943 4.86165 24.3345 4.54932 24.3716 4.23389C24.4149 3.91846 24.4551 3.60303 24.4922 3.2876C24.5293 2.96598 24.5664 2.65674 24.6035 2.35986C24.6159 2.25472 24.6406 2.14958 24.6777 2.04443C24.721 1.93311 24.7427 1.82487 24.7427 1.71973C24.7427 1.58984 24.6963 1.47852 24.6035 1.38574C24.5046 1.4043 24.4365 1.45378 24.3994 1.53418C24.3685 1.6084 24.3221 1.67643 24.2603 1.73828C24.1737 1.82487 24.0933 1.89909 24.019 1.96094C23.9448 2.02279 23.8644 2.10938 23.7778 2.2207C23.7531 2.25163 23.7284 2.29183 23.7036 2.34131C23.6789 2.39079 23.6479 2.44027 23.6108 2.48975C23.5799 2.53304 23.5397 2.57015 23.4902 2.60107C23.4408 2.632 23.3789 2.64746 23.3047 2.64746C23.2428 2.64746 23.2057 2.632 23.1934 2.60107C23.181 2.56396 23.1748 2.52686 23.1748 2.48975C23.1748 2.43408 23.1903 2.38151 23.2212 2.33203C23.2583 2.27637 23.2985 2.2238 23.3418 2.17432C23.3913 2.11865 23.4438 2.06608 23.4995 2.0166C23.5552 1.96712 23.6016 1.91764 23.6387 1.86816C23.7376 1.75065 23.8304 1.63005 23.917 1.50635C24.0098 1.37646 24.1025 1.26823 24.1953 1.18164C24.2633 1.11361 24.3499 1.04867 24.4551 0.986816C24.5602 0.924967 24.6592 0.850749 24.752 0.76416C24.8385 0.683757 24.9066 0.584798 24.9561 0.467285C25.0117 0.349772 25.0798 0.263184 25.1602 0.20752C25.1849 0.188965 25.2158 0.179688 25.2529 0.179688C25.2962 0.173503 25.3364 0.167318 25.3735 0.161133C25.4168 0.148763 25.457 0.133301 25.4941 0.114746C25.5312 0.0900065 25.5591 0.0528971 25.5776 0.00341797C25.6704 0.00341797 25.7508 0.0281576 25.8188 0.0776367C25.8869 0.120931 25.9425 0.173503 25.9858 0.235352C26.0353 0.291016 26.0724 0.343587 26.0972 0.393066C26.1219 0.442546 26.1343 0.470378 26.1343 0.476562C26.1343 0.544596 26.1126 0.621908 26.0693 0.708496C26.0322 0.7889 26.0075 0.878581 25.9951 0.977539C25.9827 1.0765 25.9735 1.18164 25.9673 1.29297C25.9611 1.39811 25.9518 1.51872 25.9395 1.65479C25.9333 1.79085 25.9178 1.94548 25.8931 2.11865C25.8683 2.28564 25.8343 2.48047 25.791 2.70312C25.7663 2.82064 25.7261 2.93197 25.6704 3.03711C25.6209 3.14225 25.59 3.23812 25.5776 3.32471C25.5405 3.59066 25.522 3.87826 25.522 4.1875C25.522 4.49056 25.4941 4.78125 25.4385 5.05957C25.4199 5.15234 25.3921 5.23893 25.355 5.31934C25.3179 5.39355 25.2993 5.47396 25.2993 5.56055C25.2993 5.58529 25.2993 5.6193 25.2993 5.6626C25.3055 5.69971 25.3086 5.73372 25.3086 5.76465C25.3086 5.80794 25.2962 5.83887 25.2715 5.85742C25.2529 5.86979 25.2437 5.88216 25.2437 5.89453C25.2437 5.91309 25.2529 5.93164 25.2715 5.9502C25.29 5.96257 25.2993 5.99349 25.2993 6.04297C25.2993 6.18522 25.2684 6.32747 25.2065 6.46973C25.1447 6.60579 25.1045 6.73568 25.0859 6.85938C25.0426 7.16862 25.021 7.48405 25.021 7.80566C25.0272 8.12728 25.0055 8.43652 24.9561 8.7334C24.9437 8.80143 24.9189 8.86947 24.8818 8.9375C24.8447 9.00553 24.8231 9.07357 24.8169 9.1416C24.8045 9.33333 24.7922 9.54053 24.7798 9.76318C24.7736 9.98584 24.7643 10.1961 24.752 10.394C24.7334 10.5239 24.7087 10.6693 24.6777 10.8301C24.6468 10.9909 24.6159 11.1579 24.585 11.3311C24.5602 11.498 24.5355 11.665 24.5107 11.832C24.4922 11.999 24.4829 12.1536 24.4829 12.2959C24.4829 12.3949 24.4891 12.4691 24.5015 12.5186C24.5138 12.568 24.5293 12.6051 24.5479 12.6299C24.5726 12.6484 24.5942 12.6608 24.6128 12.667C24.6375 12.667 24.6592 12.667 24.6777 12.667C24.721 12.667 24.7612 12.6515 24.7983 12.6206C24.8354 12.5897 24.8695 12.5526 24.9004 12.5093C24.9375 12.466 24.9684 12.4227 24.9932 12.3794C25.0241 12.3299 25.055 12.2897 25.0859 12.2588C25.2962 12.0732 25.4539 11.9032 25.5591 11.7485C25.6642 11.5877 25.7508 11.4486 25.8188 11.3311C25.8869 11.2135 25.9518 11.1208 26.0137 11.0527C26.0755 10.9847 26.1714 10.9507 26.3013 10.9507H26.3384ZM33.4448 5.68115C33.4634 5.71826 33.4727 5.75228 33.4727 5.7832C33.4727 5.85742 33.4355 5.93164 33.3613 6.00586C33.2933 6.08008 33.2284 6.17904 33.1665 6.30273C33.1418 6.35221 33.1325 6.40788 33.1387 6.46973C33.1449 6.52539 33.1325 6.58724 33.1016 6.65527C33.0768 6.70475 33.049 6.73877 33.0181 6.75732C32.9933 6.77588 32.9686 6.79443 32.9438 6.81299C32.9253 6.82536 32.9067 6.84391 32.8882 6.86865C32.8758 6.89339 32.8696 6.93359 32.8696 6.98926C32.8696 7.03874 32.8727 7.08512 32.8789 7.12842C32.8851 7.17171 32.8882 7.20882 32.8882 7.23975C32.8882 7.28923 32.8696 7.34798 32.8325 7.41602C32.8016 7.48405 32.7583 7.55827 32.7026 7.63867C32.6532 7.71289 32.6006 7.7902 32.5449 7.87061C32.4893 7.95101 32.4429 8.02832 32.4058 8.10254C32.381 8.15202 32.3656 8.2015 32.3594 8.25098C32.3594 8.29427 32.3501 8.33757 32.3315 8.38086C32.2882 8.49219 32.2357 8.60352 32.1738 8.71484C32.1182 8.81999 32.0625 8.91895 32.0068 9.01172C31.9574 9.09831 31.911 9.17253 31.8677 9.23438C31.8244 9.29622 31.7965 9.33643 31.7842 9.35498C31.7471 9.39209 31.7285 9.43229 31.7285 9.47559C31.7347 9.5127 31.7285 9.56217 31.71 9.62402L31.5801 9.90234C31.5677 9.91471 31.5399 9.92708 31.4966 9.93945C31.4595 9.95182 31.4409 9.96419 31.4409 9.97656C31.4224 10.0137 31.3976 10.057 31.3667 10.1064C31.342 10.1559 31.3172 10.2054 31.2925 10.2549C31.2492 10.3353 31.2244 10.4219 31.2183 10.5146C31.2121 10.6074 31.1935 10.6816 31.1626 10.7373C31.1317 10.7868 31.076 10.8424 30.9956 10.9043C30.9214 10.96 30.8595 11.0187 30.8101 11.0806C30.6678 11.297 30.5596 11.4671 30.4854 11.5908C30.4111 11.7083 30.3586 11.7949 30.3276 11.8506C30.3153 11.863 30.2874 11.8753 30.2441 11.8877C30.207 11.8939 30.1885 11.9093 30.1885 11.9341C30.1885 11.9465 30.1885 11.9619 30.1885 11.9805C30.1947 11.9928 30.1978 12.0052 30.1978 12.0176C30.1978 12.0423 30.1885 12.064 30.1699 12.0825C30.1514 12.0949 30.1328 12.1134 30.1143 12.1382C30.0957 12.1567 30.0771 12.1815 30.0586 12.2124C30.04 12.2433 30.0308 12.2866 30.0308 12.3423C30.0308 12.4289 30.0339 12.5216 30.04 12.6206C30.0524 12.7196 30.0586 12.8154 30.0586 12.9082C30.0586 12.9762 30.0555 13.0381 30.0493 13.0938C30.0431 13.1494 30.04 13.2205 30.04 13.3071C30.04 13.4432 30.0431 13.604 30.0493 13.7896C30.0617 13.9751 30.0679 14.1637 30.0679 14.3555C30.0679 14.4359 30.0648 14.5132 30.0586 14.5874C30.0586 14.6678 30.0555 14.7451 30.0493 14.8193C30.0369 14.943 30.0091 15.0575 29.9658 15.1626C29.9287 15.2739 29.9102 15.3914 29.9102 15.5151C29.9102 15.577 29.9132 15.6326 29.9194 15.6821C29.9256 15.7378 29.9287 15.7904 29.9287 15.8398C29.9287 15.9326 29.904 16.013 29.8545 16.0811C29.805 16.1491 29.7555 16.2357 29.7061 16.3408C29.6628 16.4274 29.6257 16.5016 29.5947 16.5635C29.57 16.6253 29.5422 16.6841 29.5112 16.7397C29.4803 16.7954 29.4401 16.8511 29.3906 16.9067C29.3473 16.9686 29.2886 17.0366 29.2144 17.1108L28.5278 17.7974C28.466 17.8592 28.3979 17.9334 28.3237 18.02C28.2495 18.1066 28.1969 18.1499 28.166 18.1499C28.1536 18.1499 28.1382 18.1468 28.1196 18.1406C28.1011 18.1406 28.0856 18.1406 28.0732 18.1406C28.0547 18.1406 28.0454 18.1437 28.0454 18.1499C27.9774 18.2241 27.8722 18.2829 27.73 18.3262C27.5877 18.3757 27.4269 18.4128 27.2476 18.4375C27.0682 18.4622 26.8826 18.4777 26.6909 18.4839C26.4992 18.4901 26.326 18.4932 26.1714 18.4932C26.1466 18.4932 26.125 18.4808 26.1064 18.4561C26.0879 18.4313 26.0632 18.4189 26.0322 18.4189C26.0199 18.4313 26.0106 18.4468 26.0044 18.4653C26.0044 18.4901 25.9611 18.5024 25.8745 18.5024C25.7879 18.5024 25.7044 18.4932 25.624 18.4746C25.5374 18.4561 25.4447 18.4375 25.3457 18.4189C25.321 18.4189 25.2993 18.4189 25.2808 18.4189C25.256 18.4251 25.2282 18.4282 25.1973 18.4282C25.1478 18.4282 25.1138 18.4159 25.0952 18.3911C25.0705 18.3664 25.0519 18.354 25.0396 18.354C24.9901 18.354 24.9561 18.3633 24.9375 18.3818C24.9189 18.4066 24.8849 18.4189 24.8354 18.4189C24.786 18.4189 24.752 18.4066 24.7334 18.3818C24.7148 18.3633 24.687 18.354 24.6499 18.354C24.5819 18.3602 24.5015 18.3818 24.4087 18.4189C24.3159 18.4561 24.2324 18.4746 24.1582 18.4746C24.0902 18.4746 24.0407 18.453 24.0098 18.4097C23.9788 18.3664 23.9634 18.32 23.9634 18.2705C23.9634 18.2148 23.985 18.1437 24.0283 18.0571C24.0716 17.9767 24.1273 17.8901 24.1953 17.7974C24.2572 17.7046 24.3252 17.6087 24.3994 17.5098C24.4674 17.417 24.5262 17.3304 24.5757 17.25C24.5819 17.2376 24.6159 17.2005 24.6777 17.1387C24.7334 17.0768 24.8169 16.9748 24.9282 16.8325C24.953 16.8016 24.9622 16.7645 24.9561 16.7212C24.9499 16.6841 24.9622 16.6532 24.9932 16.6284C25.0241 16.5975 25.0488 16.5851 25.0674 16.5913C25.0859 16.5975 25.1076 16.5851 25.1323 16.5542C25.1756 16.5047 25.2096 16.4583 25.2344 16.415C25.2591 16.3717 25.2962 16.3254 25.3457 16.2759C25.389 16.2326 25.4385 16.1924 25.4941 16.1553C25.5498 16.1243 25.59 16.0965 25.6147 16.0718C25.6519 16.0285 25.6735 15.9728 25.6797 15.9048C25.6859 15.8429 25.6982 15.7811 25.7168 15.7192C25.7292 15.6636 25.757 15.6141 25.8003 15.5708C25.8374 15.5275 25.9054 15.5059 26.0044 15.5059C26.0786 15.5059 26.125 15.5337 26.1436 15.5894C26.1683 15.6512 26.1807 15.6883 26.1807 15.7007C26.1807 15.7687 26.159 15.8213 26.1157 15.8584C26.0724 15.8955 26.0229 15.9264 25.9673 15.9512C25.9116 15.9759 25.8621 15.9945 25.8188 16.0068C25.7756 16.0192 25.7539 16.0316 25.7539 16.0439C25.7539 16.0749 25.7663 16.1027 25.791 16.1274C25.8158 16.1522 25.8281 16.1738 25.8281 16.1924C25.8343 16.2357 25.8096 16.3068 25.7539 16.4058C25.6921 16.5047 25.624 16.6006 25.5498 16.6934C25.4756 16.7923 25.4076 16.8758 25.3457 16.9438C25.2839 17.0181 25.2529 17.0521 25.2529 17.0459C25.2529 17.1139 25.2839 17.1634 25.3457 17.1943C25.4014 17.2253 25.4756 17.25 25.5684 17.2686C25.6549 17.2871 25.7539 17.3026 25.8652 17.3149C25.9704 17.3335 26.0724 17.3551 26.1714 17.3799C26.2827 17.4108 26.425 17.4386 26.5981 17.4634C26.7775 17.4943 26.9631 17.5098 27.1548 17.5098C27.297 17.5098 27.4393 17.5005 27.5815 17.4819C27.7238 17.4634 27.8537 17.4294 27.9712 17.3799C27.9836 17.3799 27.9897 17.3706 27.9897 17.3521C27.9959 17.3397 28.0145 17.3273 28.0454 17.3149C28.1134 17.2964 28.1629 17.2871 28.1938 17.2871C28.231 17.2933 28.2959 17.2809 28.3887 17.25C28.432 17.25 28.4691 17.2284 28.5 17.1851C28.5309 17.1479 28.5464 17.1201 28.5464 17.1016C28.5464 17.0645 28.5433 17.0212 28.5371 16.9717C28.5309 16.9284 28.5278 16.8913 28.5278 16.8604C28.5278 16.8171 28.5402 16.7738 28.5649 16.7305C28.5897 16.6934 28.6144 16.647 28.6392 16.5913C28.6701 16.5418 28.6979 16.4831 28.7227 16.415C28.7474 16.3532 28.7598 16.279 28.7598 16.1924C28.7598 16.1367 28.7567 16.0749 28.7505 16.0068C28.7505 15.9388 28.7505 15.8677 28.7505 15.7935C28.7505 15.7192 28.7536 15.6419 28.7598 15.5615C28.766 15.4811 28.7814 15.3945 28.8062 15.3018C28.8123 15.277 28.8216 15.2554 28.834 15.2368C28.8464 15.2244 28.8587 15.2121 28.8711 15.1997C28.8835 15.1873 28.8958 15.1688 28.9082 15.144C28.9206 15.1193 28.9329 15.0822 28.9453 15.0327C28.9577 14.9461 28.967 14.8503 28.9731 14.7451C28.9793 14.6462 28.9824 14.5348 28.9824 14.4111C28.9824 14.2256 28.9762 14.0277 28.9639 13.8174C28.9515 13.6133 28.9391 13.4123 28.9268 13.2144C28.9144 13.0164 28.902 12.8309 28.8896 12.6577C28.8773 12.4784 28.8711 12.3268 28.8711 12.2031C28.8711 12.1165 28.8835 12.0485 28.9082 11.999C28.9329 11.9495 28.9453 11.9217 28.9453 11.9155C28.9453 11.897 28.936 11.8568 28.9175 11.7949C28.9051 11.7331 28.8896 11.665 28.8711 11.5908C28.8525 11.5104 28.834 11.43 28.8154 11.3496C28.8031 11.263 28.7969 11.1888 28.7969 11.127C28.7969 11.0775 28.7969 11.0311 28.7969 10.9878C28.8031 10.9383 28.8062 10.8888 28.8062 10.8394C28.8062 10.7157 28.7876 10.5889 28.7505 10.459C28.7196 10.3229 28.6917 10.1838 28.667 10.0415C28.6361 9.87451 28.6144 9.72917 28.6021 9.60547C28.5897 9.47559 28.5711 9.33952 28.5464 9.19727C28.5216 9.05501 28.4876 8.88802 28.4443 8.69629C28.401 8.50456 28.3361 8.26025 28.2495 7.96338C28.2124 7.83968 28.1908 7.71908 28.1846 7.60156C28.1784 7.48405 28.1536 7.37581 28.1104 7.27686C28.1042 7.26449 28.0918 7.2583 28.0732 7.2583C28.0547 7.2583 28.0454 7.23975 28.0454 7.20264C28.0454 7.17171 28.033 7.1346 28.0083 7.09131C27.9897 7.04183 27.965 6.99544 27.9341 6.95215C27.9093 6.90267 27.8784 6.86247 27.8413 6.83154C27.8042 6.80062 27.7702 6.78516 27.7393 6.78516C27.6527 6.78516 27.5815 6.82845 27.5259 6.91504C27.4764 7.00163 27.4176 7.09749 27.3496 7.20264C27.3249 7.23356 27.2878 7.26758 27.2383 7.30469C27.195 7.3418 27.161 7.37581 27.1362 7.40674C27.1115 7.45003 27.0991 7.49642 27.0991 7.5459C27.0991 7.59538 27.096 7.64176 27.0898 7.68506C27.0898 7.72217 27.0775 7.75618 27.0527 7.78711C27.0342 7.81185 26.994 7.82422 26.9321 7.82422C26.9074 7.84896 26.8765 7.87988 26.8394 7.91699C26.8022 7.94792 26.7651 7.98503 26.728 8.02832C26.7033 8.05924 26.6878 8.09326 26.6816 8.13037C26.6816 8.1613 26.6755 8.19531 26.6631 8.23242C26.6569 8.26335 26.6414 8.29118 26.6167 8.31592C26.5981 8.33447 26.561 8.34375 26.5054 8.34375C26.4806 8.34375 26.4528 8.34066 26.4219 8.33447C26.391 8.3221 26.3755 8.29118 26.3755 8.2417C26.3755 8.17985 26.3879 8.12109 26.4126 8.06543C26.4435 8.00358 26.4806 7.94482 26.5239 7.88916C26.5672 7.8335 26.6136 7.77783 26.6631 7.72217C26.7126 7.6665 26.759 7.60775 26.8022 7.5459C26.8208 7.5026 26.8394 7.45003 26.8579 7.38818C26.8826 7.32633 26.9321 7.24284 27.0063 7.1377C27.0187 7.11296 27.0404 7.08822 27.0713 7.06348C27.1022 7.03874 27.1239 7.014 27.1362 6.98926C27.1548 6.9707 27.1672 6.93978 27.1733 6.89648C27.1795 6.85319 27.1919 6.81608 27.2104 6.78516C27.2352 6.75423 27.2692 6.73258 27.3125 6.72021C27.3558 6.70166 27.3929 6.68001 27.4238 6.65527C27.4424 6.62435 27.4517 6.59033 27.4517 6.55322C27.4517 6.50993 27.464 6.47282 27.4888 6.44189C27.5382 6.38005 27.5846 6.33366 27.6279 6.30273C27.6712 6.27181 27.7176 6.22542 27.7671 6.16357C27.7918 6.12646 27.8228 6.06771 27.8599 5.9873C27.9032 5.90072 27.9557 5.81413 28.0176 5.72754C28.0794 5.64095 28.1567 5.56673 28.2495 5.50488C28.3423 5.43685 28.4567 5.40283 28.5928 5.40283C28.6361 5.4152 28.6855 5.45231 28.7412 5.51416C28.8031 5.57601 28.8494 5.63167 28.8804 5.68115C28.9051 5.74919 28.9144 5.8265 28.9082 5.91309C28.902 5.99349 28.9144 6.07699 28.9453 6.16357C28.9515 6.18213 28.9731 6.20687 29.0103 6.23779C29.0474 6.26872 29.0721 6.29036 29.0845 6.30273C29.1092 6.38932 29.1185 6.46663 29.1123 6.53467C29.1061 6.59652 29.1185 6.68001 29.1494 6.78516C29.1494 6.79753 29.1587 6.8068 29.1772 6.81299C29.202 6.81299 29.2144 6.82845 29.2144 6.85938C29.2329 6.93359 29.2576 7.00472 29.2886 7.07275C29.3257 7.1346 29.3597 7.20573 29.3906 7.28613C29.4215 7.36035 29.4463 7.45312 29.4648 7.56445C29.4896 7.6696 29.502 7.80257 29.502 7.96338C29.502 8.10563 29.4927 8.22005 29.4741 8.30664C29.4618 8.39323 29.4556 8.47673 29.4556 8.55713C29.4556 8.61898 29.4618 8.67773 29.4741 8.7334C29.4927 8.78906 29.5236 8.8571 29.5669 8.9375C29.5978 8.99316 29.6349 9.03646 29.6782 9.06738C29.7215 9.09831 29.7524 9.14779 29.771 9.21582C29.8205 9.37663 29.839 9.5498 29.8267 9.73535C29.8205 9.91471 29.8267 10.0879 29.8452 10.2549C29.8638 10.4342 29.8916 10.6043 29.9287 10.7651C29.9658 10.9259 29.9844 11.0868 29.9844 11.2476V11.3589C30.0339 11.3527 30.0771 11.3311 30.1143 11.2939C30.1514 11.2568 30.1854 11.2135 30.2163 11.1641C30.2472 11.1146 30.2751 11.0589 30.2998 10.9971C30.3307 10.9352 30.3647 10.8734 30.4019 10.8115C30.4142 10.7806 30.4359 10.7528 30.4668 10.728C30.5039 10.7033 30.5286 10.6816 30.541 10.6631C30.5658 10.5951 30.5843 10.5177 30.5967 10.4312C30.6152 10.3384 30.64 10.2549 30.6709 10.1807C30.7389 10.0322 30.8162 9.88379 30.9028 9.73535C30.9894 9.58691 31.076 9.43538 31.1626 9.28076V9.26221C31.1626 9.24984 31.1595 9.23438 31.1533 9.21582C31.1533 9.19727 31.1533 9.1818 31.1533 9.16943C31.1533 9.15706 31.1564 9.14779 31.1626 9.1416C31.2183 9.09831 31.2554 9.03955 31.2739 8.96533C31.2987 8.88493 31.3141 8.80143 31.3203 8.71484C31.3327 8.62826 31.3451 8.53857 31.3574 8.4458C31.3698 8.35303 31.3976 8.26335 31.4409 8.17676C31.4471 8.1582 31.4595 8.15202 31.478 8.1582C31.4966 8.1582 31.5059 8.13965 31.5059 8.10254C31.5059 8.09635 31.5028 8.09017 31.4966 8.08398C31.4966 8.0778 31.4966 8.06852 31.4966 8.05615C31.4966 8.03141 31.5213 7.98812 31.5708 7.92627C31.6203 7.86442 31.645 7.81803 31.645 7.78711C31.645 7.76855 31.6419 7.75 31.6357 7.73145C31.6357 7.70671 31.6357 7.68506 31.6357 7.6665C31.6357 7.67269 31.6574 7.63558 31.7007 7.55518C31.744 7.46859 31.7718 7.37581 31.7842 7.27686C31.7842 7.25212 31.7718 7.22119 31.7471 7.18408C31.7285 7.14079 31.7161 7.10059 31.71 7.06348C31.6976 6.96452 31.679 6.89958 31.6543 6.86865C31.6296 6.83154 31.5955 6.81299 31.5522 6.81299C31.4966 6.81299 31.4347 6.82845 31.3667 6.85938C31.2987 6.8903 31.2306 6.90576 31.1626 6.90576C31.1317 6.90576 31.1007 6.90267 31.0698 6.89648C31.0389 6.88411 31.0234 6.85319 31.0234 6.80371C31.0234 6.70475 31.0451 6.62744 31.0884 6.57178C31.1379 6.51611 31.1966 6.47282 31.2646 6.44189C31.3327 6.41097 31.4069 6.38314 31.4873 6.3584C31.5677 6.32747 31.6419 6.28727 31.71 6.23779C31.7594 6.20068 31.7965 6.17285 31.8213 6.1543C31.846 6.13574 31.88 6.11719 31.9233 6.09863C31.9728 6.07389 32.0439 6.04297 32.1367 6.00586C32.2295 5.96257 32.3656 5.90072 32.5449 5.82031C32.6315 5.75846 32.7181 5.69971 32.8047 5.64404C32.8975 5.58838 33.0119 5.56055 33.1479 5.56055C33.2098 5.56055 33.2655 5.56982 33.3149 5.58838C33.3706 5.60075 33.4139 5.63167 33.4448 5.68115ZM45.8301 8.52002C45.8301 8.75505 45.8115 9.00244 45.7744 9.26221C45.7435 9.52197 45.6971 9.77555 45.6353 10.0229C45.5734 10.2703 45.4992 10.5054 45.4126 10.728C45.3322 10.9445 45.2425 11.1331 45.1436 11.2939C45.1312 11.3125 45.1157 11.3187 45.0972 11.3125C45.0848 11.3001 45.0786 11.3156 45.0786 11.3589C45.0601 11.4207 45.0353 11.4671 45.0044 11.498C44.9797 11.5228 44.9518 11.5413 44.9209 11.5537C44.89 11.5661 44.856 11.5785 44.8188 11.5908C44.7817 11.597 44.7508 11.6125 44.7261 11.6372C44.6951 11.6619 44.6488 11.7176 44.5869 11.8042C44.5251 11.8846 44.457 11.9712 44.3828 12.064C44.3086 12.1506 44.2375 12.231 44.1694 12.3052C44.1014 12.3732 44.0488 12.4072 44.0117 12.4072C43.9993 12.4072 43.9839 12.4041 43.9653 12.3979C43.9468 12.3918 43.9313 12.3887 43.9189 12.3887C43.9004 12.3887 43.8911 12.3918 43.8911 12.3979C43.8354 12.466 43.7489 12.5371 43.6313 12.6113C43.52 12.6855 43.4025 12.7567 43.2788 12.8247C43.1551 12.8866 43.0407 12.9422 42.9355 12.9917C42.8304 13.0412 42.7562 13.0752 42.7129 13.0938C42.6325 13.137 42.5521 13.1711 42.4717 13.1958C42.3913 13.2144 42.2892 13.2484 42.1655 13.2979C42.1346 13.3102 42.0944 13.335 42.0449 13.3721C42.0016 13.4092 41.9738 13.4308 41.9614 13.437C41.7202 13.4989 41.4048 13.5298 41.0151 13.5298C40.6255 13.536 40.1987 13.5514 39.7349 13.5762C39.6483 13.5824 39.5555 13.5947 39.4565 13.6133C39.3576 13.6318 39.2648 13.6411 39.1782 13.6411C39.0731 13.6411 38.9741 13.6349 38.8813 13.6226C38.7886 13.6164 38.6896 13.6133 38.5845 13.6133C38.4917 13.6133 38.3896 13.6257 38.2783 13.6504C38.167 13.6813 38.0773 13.703 38.0093 13.7153C37.966 13.7153 37.932 13.703 37.9072 13.6782C37.8887 13.6535 37.8763 13.6411 37.8701 13.6411C37.8145 13.6411 37.7433 13.6442 37.6567 13.6504C37.5763 13.6628 37.4928 13.6689 37.4062 13.6689C37.3258 13.6689 37.2578 13.6628 37.2021 13.6504C37.1465 13.638 37.1187 13.6102 37.1187 13.5669C37.1187 13.505 37.1743 13.4308 37.2856 13.3442C37.397 13.2576 37.499 13.1494 37.5918 13.0195C37.6475 12.9329 37.6908 12.8742 37.7217 12.8433C37.7526 12.8123 37.7804 12.7938 37.8052 12.7876C37.8361 12.7814 37.867 12.7814 37.8979 12.7876C37.9289 12.7876 37.966 12.7721 38.0093 12.7412C38.0526 12.7227 38.0897 12.6825 38.1206 12.6206C38.1577 12.5588 38.2134 12.5093 38.2876 12.4722C38.3185 12.4536 38.3556 12.4443 38.3989 12.4443C38.4484 12.4443 38.4793 12.4289 38.4917 12.3979C38.5041 12.3794 38.5164 12.333 38.5288 12.2588C38.5474 12.1784 38.5628 12.0918 38.5752 11.999C38.5876 11.9001 38.5968 11.8042 38.603 11.7114C38.6154 11.6187 38.6247 11.5475 38.6309 11.498C38.6556 11.3311 38.6742 11.1826 38.6865 11.0527C38.7051 10.9167 38.7205 10.7868 38.7329 10.6631C38.7515 10.5394 38.7669 10.4126 38.7793 10.2827C38.7979 10.1466 38.8195 9.99821 38.8442 9.8374C38.8504 9.79411 38.8566 9.73535 38.8628 9.66113C38.869 9.58691 38.8752 9.50651 38.8813 9.41992C38.8937 9.33333 38.9061 9.24984 38.9185 9.16943C38.937 9.08285 38.9556 9.00553 38.9741 8.9375C39.036 8.75195 39.0793 8.5262 39.104 8.26025C39.1287 7.9943 39.1473 7.72526 39.1597 7.45312C39.172 7.18099 39.1813 6.92432 39.1875 6.68311C39.1999 6.43571 39.2215 6.24089 39.2524 6.09863C39.271 6.01204 39.2988 5.92546 39.3359 5.83887C39.3792 5.75228 39.4009 5.66569 39.4009 5.5791C39.4009 5.52962 39.3978 5.48324 39.3916 5.43994C39.3854 5.39665 39.3823 5.35026 39.3823 5.30078C39.3823 5.26367 39.3916 5.20801 39.4102 5.13379C39.4287 5.05339 39.4473 4.96989 39.4658 4.8833C39.4844 4.79671 39.5029 4.71012 39.5215 4.62354C39.54 4.53695 39.5493 4.46273 39.5493 4.40088C39.5493 4.30192 39.5091 4.23698 39.4287 4.20605C39.3545 4.17513 39.2772 4.15967 39.1968 4.15967C39.0916 4.15967 38.9772 4.17204 38.8535 4.19678C38.736 4.21533 38.6216 4.22461 38.5103 4.22461C38.4793 4.22461 38.4453 4.22461 38.4082 4.22461C38.3711 4.21842 38.3371 4.21533 38.3062 4.21533C38.201 4.21533 38.1144 4.23079 38.0464 4.26172C37.9845 4.29264 37.9258 4.32975 37.8701 4.37305C37.8206 4.41016 37.7712 4.44417 37.7217 4.4751C37.6784 4.50602 37.6289 4.52148 37.5732 4.52148C37.5238 4.52148 37.4836 4.5153 37.4526 4.50293C37.465 4.40397 37.499 4.31429 37.5547 4.23389C37.6165 4.15348 37.6877 4.07926 37.7681 4.01123C37.8485 3.93701 37.932 3.86898 38.0186 3.80713C38.1113 3.74528 38.201 3.67725 38.2876 3.60303C38.3371 3.55973 38.3896 3.50407 38.4453 3.43604C38.501 3.368 38.5597 3.29997 38.6216 3.23193C38.6896 3.1639 38.7576 3.10205 38.8257 3.04639C38.8937 2.98454 38.9679 2.93815 39.0483 2.90723C39.0854 2.89486 39.1566 2.88867 39.2617 2.88867C39.3669 2.88867 39.4782 2.88558 39.5957 2.87939C39.7194 2.87321 39.8338 2.86393 39.939 2.85156C40.0441 2.83919 40.1152 2.81136 40.1523 2.76807C40.1771 2.74333 40.1864 2.70931 40.1802 2.66602C40.1802 2.62272 40.1925 2.5887 40.2173 2.56396C40.242 2.53923 40.2729 2.51758 40.3101 2.49902C40.3534 2.48047 40.3936 2.46191 40.4307 2.44336C40.4678 2.4248 40.4987 2.40625 40.5234 2.3877C40.5544 2.36914 40.5698 2.35059 40.5698 2.33203C40.5698 2.31966 40.5667 2.3042 40.5605 2.28564C40.5605 2.26709 40.5605 2.25163 40.5605 2.23926C40.5605 2.21452 40.5791 2.19287 40.6162 2.17432C40.6595 2.14958 40.6904 2.11865 40.709 2.08154C40.7152 2.06917 40.7275 2.04134 40.7461 1.99805C40.7646 1.94857 40.7863 1.89909 40.811 1.84961C40.8358 1.80013 40.8605 1.75684 40.8853 1.71973C40.91 1.68262 40.9316 1.66406 40.9502 1.66406C40.9749 1.66406 41.009 1.67643 41.0522 1.70117C41.1017 1.71973 41.1265 1.73519 41.1265 1.74756C41.1265 1.78467 41.1203 1.84033 41.1079 1.91455C41.0955 1.98258 41.0801 2.0599 41.0615 2.14648C41.043 2.22689 41.0275 2.31348 41.0151 2.40625C41.0028 2.49284 40.9966 2.57633 40.9966 2.65674C40.9966 2.74951 41.009 2.82682 41.0337 2.88867C41.0646 2.94434 41.1234 2.97217 41.21 2.97217C41.2409 2.97217 41.2687 2.97217 41.2935 2.97217C41.3244 2.96598 41.3646 2.96289 41.4141 2.96289C41.4512 2.96289 41.5007 2.96908 41.5625 2.98145C41.6243 2.98763 41.7078 3.00928 41.813 3.04639C41.8439 3.05876 41.8717 3.08659 41.8965 3.12988C41.9274 3.17318 41.9614 3.19482 41.9985 3.19482C42.0171 3.19482 42.0356 3.19482 42.0542 3.19482C42.0789 3.18864 42.1006 3.18555 42.1191 3.18555H42.1655C42.1841 3.19173 42.2212 3.20719 42.2769 3.23193C42.3387 3.25049 42.4067 3.27523 42.481 3.30615C42.5552 3.33089 42.6263 3.35872 42.6943 3.38965C42.7624 3.42057 42.8149 3.44531 42.8521 3.46387C42.8706 3.47005 42.883 3.4917 42.8892 3.52881C42.9015 3.56592 42.9139 3.59066 42.9263 3.60303C43.0067 3.64014 43.1025 3.68962 43.2139 3.75146C43.3314 3.80713 43.4427 3.87207 43.5479 3.94629C43.5973 3.9834 43.6406 4.02979 43.6777 4.08545C43.721 4.13493 43.7705 4.18132 43.8262 4.22461C43.8942 4.28027 43.9591 4.32048 44.021 4.34521C44.089 4.36995 44.1385 4.39779 44.1694 4.42871C44.2189 4.48438 44.2467 4.54622 44.2529 4.61426C44.2591 4.67611 44.2777 4.73177 44.3086 4.78125C44.3766 4.88639 44.4632 4.99463 44.5684 5.10596C44.6797 5.2111 44.7786 5.33171 44.8652 5.46777C44.8962 5.52344 44.9178 5.58838 44.9302 5.6626C44.9425 5.73682 44.9673 5.81104 45.0044 5.88525C45.0168 5.90999 45.0384 5.94401 45.0693 5.9873C45.1003 6.02441 45.1312 6.06771 45.1621 6.11719C45.193 6.16048 45.2209 6.20687 45.2456 6.25635C45.2703 6.29964 45.2827 6.34294 45.2827 6.38623C45.2827 6.3986 45.2796 6.41715 45.2734 6.44189C45.2734 6.46045 45.2734 6.47591 45.2734 6.48828C45.2734 6.50065 45.2982 6.53776 45.3477 6.59961C45.3971 6.66146 45.4219 6.71094 45.4219 6.74805C45.4219 6.76042 45.4188 6.77897 45.4126 6.80371C45.4126 6.82227 45.4126 6.83773 45.4126 6.8501V6.85938C45.4744 6.90885 45.5301 7.00163 45.5796 7.1377C45.6291 7.27376 45.6724 7.42529 45.7095 7.59229C45.7466 7.75928 45.7744 7.92627 45.793 8.09326C45.8177 8.26025 45.8301 8.40251 45.8301 8.52002ZM44.791 10.0415C44.7972 9.97965 44.8003 9.9209 44.8003 9.86523C44.8003 9.80339 44.8003 9.74154 44.8003 9.67969C44.8003 9.48177 44.791 9.29622 44.7725 9.12305C44.7601 8.94987 44.7446 8.81999 44.7261 8.7334C44.6766 8.52311 44.6302 8.31283 44.5869 8.10254C44.5498 7.89225 44.5034 7.70671 44.4478 7.5459C44.3921 7.39128 44.3426 7.27067 44.2993 7.18408C44.256 7.09131 44.2127 7.00472 44.1694 6.92432C44.1138 6.81299 44.0581 6.69238 44.0024 6.5625C43.953 6.43262 43.9004 6.30583 43.8447 6.18213C43.7891 6.05843 43.7303 5.94092 43.6685 5.82959C43.6128 5.71208 43.5509 5.61621 43.4829 5.54199C43.4644 5.52344 43.4334 5.50179 43.3901 5.47705C43.3468 5.45231 43.2974 5.42757 43.2417 5.40283C43.1922 5.37191 43.1427 5.34408 43.0933 5.31934C43.05 5.2946 43.019 5.27604 43.0005 5.26367C42.8273 5.16471 42.682 5.08122 42.5645 5.01318C42.4469 4.94515 42.3356 4.88639 42.2305 4.83691C42.1253 4.78125 42.0202 4.73486 41.915 4.69775C41.8099 4.65446 41.6862 4.61426 41.5439 4.57715C41.4202 4.5153 41.3089 4.4751 41.21 4.45654C41.111 4.43799 40.9904 4.42871 40.8481 4.42871C40.7616 4.42871 40.7183 4.44727 40.7183 4.48438C40.7244 4.5153 40.7214 4.56787 40.709 4.64209C40.6719 4.85856 40.6317 5.07812 40.5884 5.30078C40.5513 5.51725 40.5234 5.73372 40.5049 5.9502C40.474 6.33366 40.4492 6.72949 40.4307 7.1377C40.4183 7.53971 40.3966 7.90771 40.3657 8.2417C40.3472 8.34066 40.3193 8.43652 40.2822 8.5293C40.2451 8.62207 40.2235 8.6901 40.2173 8.7334C40.2173 8.75195 40.2297 8.77979 40.2544 8.81689C40.2791 8.854 40.2915 8.86947 40.2915 8.86328C40.2606 9.09212 40.2266 9.32406 40.1895 9.55908C40.1523 9.79411 40.1183 10.026 40.0874 10.2549C40.0627 10.4528 40.0441 10.6538 40.0317 10.8579C40.0194 11.0558 40.0008 11.2476 39.9761 11.4331C39.9513 11.6187 39.9142 11.7918 39.8647 11.9526C39.8215 12.1073 39.7565 12.234 39.6699 12.333C39.6266 12.3577 39.605 12.3763 39.605 12.3887C39.605 12.4072 39.6328 12.4289 39.6885 12.4536C39.7441 12.4784 39.7967 12.4907 39.8462 12.4907C39.9575 12.4907 40.0843 12.4814 40.2266 12.4629C40.375 12.4443 40.5203 12.4227 40.6626 12.3979C40.8049 12.367 40.9409 12.3392 41.0708 12.3145C41.2069 12.2897 41.3182 12.2712 41.4048 12.2588C41.5965 12.234 41.813 12.2124 42.0542 12.1938C42.2954 12.1753 42.4933 12.1506 42.6479 12.1196C42.8088 12.0887 42.9232 12.0547 42.9912 12.0176C43.0654 11.9805 43.1366 11.9465 43.2046 11.9155C43.3468 11.8475 43.4891 11.7856 43.6313 11.73C43.7736 11.6681 43.9097 11.6063 44.0396 11.5444C44.1756 11.4826 44.2993 11.4176 44.4106 11.3496C44.5282 11.2754 44.6333 11.1857 44.7261 11.0806C44.7446 11.0435 44.757 10.9878 44.7632 10.9136C44.7756 10.8332 44.7817 10.7466 44.7817 10.6538C44.7879 10.5549 44.791 10.4528 44.791 10.3477C44.791 10.2363 44.791 10.1343 44.791 10.0415ZM53.1035 10.9507C53.1468 10.994 53.1685 11.0435 53.1685 11.0991C53.1685 11.1919 53.1406 11.2754 53.085 11.3496C53.0293 11.4176 52.9582 11.4857 52.8716 11.5537C52.7912 11.6156 52.7015 11.6805 52.6025 11.7485C52.5098 11.8166 52.4232 11.897 52.3428 11.9897C52.2376 12.1134 52.1139 12.2557 51.9717 12.4165C51.8356 12.5711 51.7274 12.7288 51.647 12.8896C51.6346 12.9206 51.5944 12.9793 51.5264 13.0659C51.4645 13.1525 51.3872 13.2453 51.2944 13.3442C51.2078 13.4432 51.1089 13.5298 50.9976 13.604C50.8924 13.6782 50.7904 13.7153 50.6914 13.7153C50.6234 13.7153 50.5553 13.703 50.4873 13.6782C50.4255 13.6597 50.3667 13.6318 50.311 13.5947C50.2554 13.5638 50.209 13.5267 50.1719 13.4834C50.141 13.4463 50.1255 13.4092 50.1255 13.3721C50.1255 13.3164 50.1471 13.2607 50.1904 13.2051C50.2399 13.1494 50.2646 13.0628 50.2646 12.9453C50.2646 12.9144 50.2585 12.8927 50.2461 12.8804C50.2399 12.868 50.2306 12.8525 50.2183 12.834C50.2121 12.8154 50.2059 12.7907 50.1997 12.7598C50.1935 12.7288 50.1904 12.6794 50.1904 12.6113C50.1904 12.5433 50.1997 12.4722 50.2183 12.3979C50.243 12.3175 50.2677 12.2371 50.2925 12.1567C50.3234 12.0701 50.3481 11.9867 50.3667 11.9062C50.3914 11.8197 50.4038 11.7362 50.4038 11.6558C50.4038 11.6372 50.4007 11.6187 50.3945 11.6001C50.3945 11.5754 50.3945 11.5537 50.3945 11.5352C50.3945 11.498 50.4038 11.4424 50.4224 11.3682C50.4409 11.2939 50.4626 11.2135 50.4873 11.127C50.512 11.0404 50.5337 10.9476 50.5522 10.8486C50.5708 10.7435 50.5801 10.6445 50.5801 10.5518C50.5801 10.4342 50.5677 10.3353 50.543 10.2549C50.4749 10.2796 50.4162 10.3167 50.3667 10.3662C50.3172 10.4095 50.2708 10.4621 50.2275 10.5239C50.1904 10.5796 50.1502 10.6414 50.1069 10.7095C50.0698 10.7713 50.0296 10.8301 49.9863 10.8857C49.9616 10.9167 49.9183 10.9569 49.8564 11.0063C49.7946 11.0558 49.7297 11.1084 49.6616 11.1641C49.5998 11.2197 49.5441 11.2754 49.4946 11.3311C49.4451 11.3805 49.4204 11.4207 49.4204 11.4517C49.4204 11.464 49.4235 11.4795 49.4297 11.498C49.4359 11.5166 49.439 11.5321 49.439 11.5444C49.439 11.563 49.4235 11.5908 49.3926 11.6279C49.3617 11.665 49.3276 11.7052 49.2905 11.7485C49.2596 11.7856 49.2287 11.8228 49.1978 11.8599C49.1668 11.8908 49.1514 11.9124 49.1514 11.9248C49.1452 11.9928 49.0926 12.0578 48.9937 12.1196C48.8947 12.1753 48.8081 12.2464 48.7339 12.333C48.6782 12.3949 48.6318 12.4598 48.5947 12.5278C48.5576 12.5959 48.5236 12.6577 48.4927 12.7134C48.4618 12.769 48.4308 12.8154 48.3999 12.8525C48.369 12.8835 48.3319 12.8989 48.2886 12.8989C48.2762 12.8989 48.2546 12.8958 48.2236 12.8896C48.1989 12.8835 48.1772 12.8804 48.1587 12.8804C48.1154 12.8804 48.0876 12.9082 48.0752 12.9639C48.069 13.0195 48.0597 13.0628 48.0474 13.0938C47.9979 13.1742 47.9391 13.236 47.8711 13.2793C47.8092 13.3164 47.7288 13.3721 47.6299 13.4463C47.5866 13.4772 47.5557 13.5112 47.5371 13.5483C47.5247 13.5916 47.5062 13.6287 47.4814 13.6597C47.4567 13.6906 47.4165 13.7153 47.3608 13.7339C47.3114 13.7586 47.231 13.771 47.1196 13.771C47.0578 13.771 46.999 13.7648 46.9434 13.7524C46.8877 13.7401 46.8599 13.7215 46.8599 13.6968C46.8599 13.6844 46.863 13.6689 46.8691 13.6504C46.8753 13.6318 46.8784 13.6164 46.8784 13.604C46.8784 13.5978 46.866 13.5854 46.8413 13.5669C46.8166 13.5483 46.7856 13.5205 46.7485 13.4834C46.7176 13.4525 46.6898 13.4092 46.665 13.3535C46.6403 13.2917 46.6279 13.2174 46.6279 13.1309C46.6279 13.0319 46.6372 12.9299 46.6558 12.8247C46.6805 12.7134 46.7052 12.6051 46.73 12.5C46.7609 12.3949 46.7887 12.2959 46.8135 12.2031C46.8382 12.1042 46.8568 12.0114 46.8691 11.9248C46.8939 11.7207 46.9062 11.5135 46.9062 11.3032C46.9062 11.0929 46.9403 10.9043 47.0083 10.7373C47.0392 10.6755 47.0732 10.592 47.1104 10.4868C47.1475 10.3817 47.1815 10.258 47.2124 10.1157C47.2186 10.0786 47.2279 10.026 47.2402 9.95801C47.2526 9.88379 47.2681 9.80339 47.2866 9.7168C47.3052 9.63021 47.3237 9.54362 47.3423 9.45703C47.367 9.36426 47.3949 9.28385 47.4258 9.21582C47.4382 9.19727 47.4598 9.17562 47.4907 9.15088C47.5278 9.11995 47.5526 9.09521 47.5649 9.07666C47.5773 9.03955 47.5835 8.99935 47.5835 8.95605C47.5897 8.90658 47.6051 8.8571 47.6299 8.80762C47.6423 8.78288 47.667 8.75814 47.7041 8.7334C47.7412 8.70247 47.7629 8.67773 47.769 8.65918C47.8 8.60352 47.8216 8.53548 47.834 8.45508C47.8464 8.37467 47.8711 8.30664 47.9082 8.25098C47.9329 8.21387 47.9762 8.18294 48.0381 8.1582C48.0999 8.12728 48.1494 8.08708 48.1865 8.0376C48.2174 7.9943 48.2391 7.94792 48.2515 7.89844C48.27 7.84896 48.2917 7.80566 48.3164 7.76855C48.3844 7.69434 48.4401 7.62939 48.4834 7.57373C48.5329 7.51188 48.5762 7.45622 48.6133 7.40674C48.6566 7.35726 48.6968 7.31087 48.7339 7.26758C48.771 7.22428 48.8174 7.18099 48.873 7.1377C48.9102 7.11296 48.9535 7.06657 49.0029 6.99854C49.0586 6.9305 49.1081 6.88411 49.1514 6.85938C49.2008 6.84082 49.2441 6.82536 49.2812 6.81299C49.3245 6.80062 49.374 6.77279 49.4297 6.72949C49.4421 6.71712 49.4544 6.69238 49.4668 6.65527C49.4792 6.61198 49.4915 6.58724 49.5039 6.58105C49.5472 6.5625 49.5874 6.54704 49.6245 6.53467C49.6678 6.5223 49.7173 6.49137 49.7729 6.44189C49.841 6.38005 49.8936 6.3182 49.9307 6.25635C49.9678 6.1945 50.0111 6.14193 50.0605 6.09863C50.11 6.06152 50.1657 6.03678 50.2275 6.02441C50.2894 6.01204 50.3451 5.9904 50.3945 5.95947C50.4873 5.90999 50.5801 5.84505 50.6729 5.76465C50.7718 5.67806 50.8739 5.59456 50.979 5.51416C51.0841 5.42757 51.1924 5.35645 51.3037 5.30078C51.4212 5.23893 51.5418 5.20801 51.6655 5.20801C51.7459 5.20801 51.8263 5.20182 51.9067 5.18945C51.9933 5.1709 52.0737 5.16162 52.1479 5.16162C52.216 5.16162 52.2778 5.17399 52.3335 5.19873C52.3892 5.22347 52.417 5.27604 52.417 5.35645C52.417 5.59147 52.3892 5.85433 52.3335 6.14502C52.2778 6.43571 52.216 6.74805 52.1479 7.08203C52.0861 7.41602 52.0273 7.76855 51.9717 8.13965C51.9222 8.51074 51.8975 8.89421 51.8975 9.29004C51.8975 9.30241 51.9006 9.32096 51.9067 9.3457C51.9191 9.37044 51.9253 9.40755 51.9253 9.45703C51.9253 9.49414 51.916 9.54053 51.8975 9.59619C51.8851 9.64567 51.8696 9.69824 51.8511 9.75391C51.8325 9.80339 51.814 9.85286 51.7954 9.90234C51.783 9.95182 51.7769 9.99512 51.7769 10.0322C51.7769 10.0941 51.7769 10.1559 51.7769 10.2178C51.783 10.2796 51.7861 10.3353 51.7861 10.3848C51.7861 10.4899 51.7738 10.6074 51.749 10.7373C51.7243 10.8672 51.6934 11.0033 51.6562 11.1455C51.6253 11.2816 51.5975 11.4176 51.5728 11.5537C51.548 11.6898 51.5356 11.8166 51.5356 11.9341C51.5356 11.9959 51.5387 12.0547 51.5449 12.1104C51.5511 12.1598 51.5635 12.2093 51.582 12.2588C51.6624 12.2217 51.7274 12.1753 51.7769 12.1196C51.8325 12.064 51.882 12.0021 51.9253 11.9341C51.9748 11.8599 52.0243 11.7826 52.0737 11.7021C52.1232 11.6156 52.1882 11.5259 52.2686 11.4331C52.2995 11.396 52.3428 11.3465 52.3984 11.2847C52.4541 11.2228 52.5129 11.1641 52.5747 11.1084C52.6366 11.0527 52.7015 11.0033 52.7695 10.96C52.8376 10.9167 52.9025 10.895 52.9644 10.895C53.0076 10.895 53.054 10.9136 53.1035 10.9507ZM50.9512 6.17285C50.9326 6.17285 50.9141 6.17285 50.8955 6.17285C50.877 6.16667 50.8615 6.16357 50.8491 6.16357C50.7563 6.16357 50.6852 6.19141 50.6357 6.24707C50.5924 6.29655 50.5553 6.32129 50.5244 6.32129C50.512 6.32129 50.4966 6.32129 50.478 6.32129C50.4595 6.3151 50.4409 6.31201 50.4224 6.31201C50.3914 6.31201 50.376 6.33057 50.376 6.36768C50.376 6.3986 50.3605 6.42334 50.3296 6.44189C50.3049 6.47282 50.2708 6.48828 50.2275 6.48828C50.1842 6.4821 50.1502 6.49137 50.1255 6.51611C50.0946 6.54704 50.0636 6.59652 50.0327 6.66455C50.008 6.7264 49.9678 6.79134 49.9121 6.85938C49.8626 6.91504 49.8008 6.96452 49.7266 7.00781C49.6585 7.05111 49.606 7.0944 49.5688 7.1377C49.5565 7.16243 49.5441 7.19954 49.5317 7.24902C49.5256 7.29232 49.5163 7.32633 49.5039 7.35107C49.4544 7.43766 49.3926 7.54281 49.3184 7.6665C49.2503 7.78402 49.1761 7.90771 49.0957 8.0376C49.0153 8.16748 48.9349 8.29427 48.8545 8.41797C48.7803 8.53548 48.7184 8.64062 48.6689 8.7334C48.6195 8.81999 48.5854 8.92204 48.5669 9.03955C48.5483 9.15706 48.5329 9.28076 48.5205 9.41064C48.5143 9.53434 48.5081 9.65495 48.502 9.77246C48.4958 9.88379 48.4834 9.97656 48.4648 10.0508C48.3473 10.459 48.236 10.8703 48.1309 11.2847C48.0319 11.6929 47.9824 12.0887 47.9824 12.4722C48.1123 12.4536 48.2113 12.4041 48.2793 12.3237C48.3535 12.2371 48.4123 12.1413 48.4556 12.0361C48.4989 11.931 48.5391 11.8289 48.5762 11.73C48.6133 11.631 48.6659 11.5568 48.7339 11.5073C48.7834 11.4764 48.8328 11.4331 48.8823 11.3774C48.938 11.3218 48.9844 11.2692 49.0215 11.2197C49.04 11.195 49.0493 11.1641 49.0493 11.127C49.0493 11.0837 49.0617 11.0465 49.0864 11.0156C49.1235 10.9723 49.1668 10.9259 49.2163 10.8765C49.272 10.827 49.3276 10.7775 49.3833 10.728C49.439 10.6785 49.4884 10.6322 49.5317 10.5889C49.5812 10.5394 49.6183 10.4992 49.6431 10.4683C49.6678 10.4373 49.6802 10.391 49.6802 10.3291C49.6864 10.2611 49.6956 10.2116 49.708 10.1807C49.7699 10.0632 49.8379 9.95801 49.9121 9.86523C49.9863 9.76628 50.0575 9.66423 50.1255 9.55908C50.2368 9.3859 50.3296 9.21582 50.4038 9.04883C50.4842 8.88184 50.5522 8.71175 50.6079 8.53857C50.6636 8.3654 50.7131 8.18913 50.7563 8.00977C50.7996 7.82422 50.8429 7.6263 50.8862 7.41602C50.911 7.29232 50.9388 7.15934 50.9697 7.01709C51.0068 6.87484 51.0254 6.72949 51.0254 6.58105C51.0254 6.42643 51.0007 6.29036 50.9512 6.17285ZM59.8203 6.02441C59.8327 6.06152 59.8389 6.111 59.8389 6.17285C59.8389 6.24089 59.8327 6.3182 59.8203 6.40479C59.8079 6.48519 59.7863 6.56868 59.7554 6.65527C59.7306 6.71094 59.6966 6.77279 59.6533 6.84082C59.6162 6.90885 59.5822 6.98307 59.5513 7.06348C59.5203 7.1377 59.4956 7.21501 59.4771 7.29541C59.4585 7.37581 59.4338 7.45931 59.4028 7.5459C59.3781 7.60156 59.3472 7.65104 59.3101 7.69434C59.2791 7.73145 59.2637 7.76855 59.2637 7.80566C59.2637 7.83659 59.2668 7.86442 59.2729 7.88916C59.2791 7.9139 59.2822 7.94173 59.2822 7.97266C59.2822 8.01595 59.2668 8.05306 59.2358 8.08398C59.2111 8.11491 59.1771 8.14583 59.1338 8.17676C59.0967 8.20768 59.0565 8.2417 59.0132 8.27881C58.9761 8.30973 58.9451 8.34375 58.9204 8.38086C58.8895 8.43034 58.8771 8.47673 58.8833 8.52002C58.8895 8.56331 58.8802 8.6097 58.8555 8.65918C58.7812 8.80762 58.6854 8.9777 58.5679 9.16943C58.4504 9.36117 58.339 9.56217 58.2339 9.77246C58.1968 9.84668 58.1628 9.92708 58.1318 10.0137C58.1009 10.1003 58.0669 10.1807 58.0298 10.2549C57.9741 10.36 57.8968 10.4683 57.7979 10.5796C57.7051 10.6847 57.6432 10.7837 57.6123 10.8765C57.5876 10.9198 57.5752 10.9661 57.5752 11.0156C57.5814 11.0651 57.569 11.1084 57.5381 11.1455C57.4886 11.2197 57.4299 11.2785 57.3618 11.3218C57.2938 11.3651 57.2381 11.4238 57.1948 11.498C57.1639 11.5475 57.1392 11.6125 57.1206 11.6929C57.1082 11.7733 57.0866 11.8475 57.0557 11.9155C57.0124 12.0021 56.9474 12.1011 56.8608 12.2124C56.7743 12.3237 56.7 12.432 56.6382 12.5371C56.6258 12.5557 56.598 12.6113 56.5547 12.7041C56.5114 12.7907 56.4619 12.8896 56.4062 13.001C56.3568 13.1061 56.3011 13.2082 56.2393 13.3071C56.1836 13.4061 56.131 13.4741 56.0815 13.5112C56.0506 13.5422 56.0166 13.5824 55.9795 13.6318C55.9424 13.6813 55.8991 13.7277 55.8496 13.771C55.8063 13.8205 55.7599 13.8607 55.7104 13.8916C55.661 13.9287 55.6084 13.9473 55.5527 13.9473C55.4909 13.9473 55.4445 13.9132 55.4136 13.8452C55.3826 13.7834 55.3579 13.6999 55.3394 13.5947C55.327 13.4958 55.3208 13.3844 55.3208 13.2607C55.3208 13.137 55.3208 13.0164 55.3208 12.8989C55.3208 12.8123 55.327 12.7103 55.3394 12.5928C55.3579 12.4753 55.3734 12.3577 55.3857 12.2402C55.4043 12.1227 55.4198 12.0145 55.4321 11.9155C55.4507 11.8104 55.46 11.7238 55.46 11.6558C55.46 11.4517 55.4445 11.2568 55.4136 11.0713C55.3888 10.8796 55.3579 10.694 55.3208 10.5146C55.2837 10.3353 55.2497 10.1621 55.2188 9.99512C55.194 9.82812 55.1816 9.66423 55.1816 9.50342C55.1816 9.42301 55.1847 9.33333 55.1909 9.23438C55.2033 9.13542 55.2095 9.02409 55.2095 8.90039C55.2095 8.8138 55.2002 8.68392 55.1816 8.51074C55.1693 8.33757 55.1414 8.16748 55.0981 8.00049C55.061 7.82731 55.0085 7.67578 54.9404 7.5459C54.8724 7.41602 54.7858 7.35107 54.6807 7.35107C54.6745 7.35107 54.6497 7.35726 54.6064 7.36963C54.5693 7.382 54.5508 7.40365 54.5508 7.43457C54.5508 7.44694 54.5508 7.4624 54.5508 7.48096C54.557 7.49951 54.5601 7.51497 54.5601 7.52734C54.5601 7.5459 54.5508 7.55518 54.5322 7.55518C54.5199 7.55518 54.5044 7.55518 54.4858 7.55518C54.4673 7.54899 54.4518 7.5459 54.4395 7.5459C54.4209 7.5459 54.4023 7.56136 54.3838 7.59229C54.3652 7.62321 54.3467 7.65723 54.3281 7.69434C54.3096 7.73145 54.2879 7.77165 54.2632 7.81494C54.2446 7.85205 54.2261 7.87988 54.2075 7.89844C54.1951 7.91081 54.1704 7.93555 54.1333 7.97266C54.1024 8.00977 54.0653 8.04997 54.022 8.09326C53.9849 8.13037 53.9385 8.16439 53.8828 8.19531C53.8333 8.22624 53.7839 8.2417 53.7344 8.2417C53.6911 8.2417 53.6416 8.22314 53.5859 8.18604C53.5365 8.14893 53.5117 8.08708 53.5117 8.00049C53.5117 7.93864 53.5303 7.90153 53.5674 7.88916C53.6107 7.87679 53.6416 7.85514 53.6602 7.82422C53.7035 7.74382 53.7437 7.67887 53.7808 7.62939C53.8179 7.57992 53.855 7.53662 53.8921 7.49951C53.9292 7.45622 53.9663 7.41292 54.0034 7.36963C54.0467 7.32633 54.0931 7.27067 54.1426 7.20264C54.1921 7.14079 54.2292 7.07894 54.2539 7.01709C54.2848 6.94906 54.3188 6.89648 54.356 6.85938C54.3931 6.81608 54.4395 6.76969 54.4951 6.72021C54.5508 6.66455 54.6095 6.61198 54.6714 6.5625C54.7332 6.51302 54.7889 6.46663 54.8384 6.42334C54.894 6.37386 54.9404 6.33366 54.9775 6.30273C55.0208 6.25944 55.0703 6.20996 55.126 6.1543C55.1816 6.09863 55.2373 6.04606 55.293 5.99658C55.3486 5.9471 55.4012 5.9069 55.4507 5.87598C55.5063 5.83887 55.5558 5.82031 55.5991 5.82031C55.7228 5.82031 55.8187 5.88525 55.8867 6.01514C55.9609 6.13883 56.0166 6.28418 56.0537 6.45117C56.097 6.61816 56.1279 6.78825 56.1465 6.96143C56.1712 7.12842 56.196 7.25521 56.2207 7.3418C56.2207 7.34798 56.2269 7.37581 56.2393 7.42529C56.2578 7.46859 56.2764 7.52116 56.2949 7.58301C56.3135 7.64486 56.3289 7.70671 56.3413 7.76855C56.3537 7.82422 56.3599 7.86751 56.3599 7.89844C56.3599 7.98503 56.3475 8.06543 56.3228 8.13965C56.298 8.20768 56.2856 8.26644 56.2856 8.31592C56.298 8.40251 56.3258 8.49219 56.3691 8.58496C56.4186 8.67155 56.4434 8.77669 56.4434 8.90039C56.4434 8.91895 56.4403 8.9375 56.4341 8.95605C56.4341 8.96842 56.4341 8.98389 56.4341 9.00244H56.4248C56.4186 9.00244 56.4032 9.00863 56.3784 9.021C56.3599 9.02718 56.3506 9.03646 56.3506 9.04883C56.3506 9.0612 56.3599 9.07975 56.3784 9.10449C56.4032 9.12305 56.4155 9.13851 56.4155 9.15088C56.4155 9.1818 56.4062 9.21273 56.3877 9.24365C56.3691 9.26839 56.3599 9.3055 56.3599 9.35498C56.366 9.40446 56.3877 9.47559 56.4248 9.56836C56.4619 9.65495 56.4867 9.74463 56.499 9.8374C56.5238 9.99202 56.5361 10.1497 56.5361 10.3105C56.5361 10.4652 56.5361 10.6043 56.5361 10.728C56.5361 10.8517 56.5454 10.9538 56.564 11.0342C56.5825 11.1146 56.6196 11.1548 56.6753 11.1548C56.7248 11.1548 56.7866 11.1177 56.8608 11.0435C56.9412 10.9631 57.0247 10.8641 57.1113 10.7466C57.2041 10.6229 57.2938 10.4868 57.3804 10.3384C57.467 10.1899 57.5443 10.0446 57.6123 9.90234C57.6309 9.82194 57.6587 9.75391 57.6958 9.69824C57.7391 9.63639 57.7824 9.58382 57.8257 9.54053C57.8752 9.49723 57.9246 9.45703 57.9741 9.41992C58.0236 9.37663 58.0638 9.33024 58.0947 9.28076C58.1195 9.23747 58.1318 9.18799 58.1318 9.13232C58.138 9.07666 58.1473 9.03337 58.1597 9.00244C58.1906 8.92822 58.2184 8.854 58.2432 8.77979C58.2741 8.70557 58.3143 8.61898 58.3638 8.52002C58.3761 8.50146 58.4009 8.47673 58.438 8.4458C58.4813 8.41488 58.506 8.39323 58.5122 8.38086C58.5369 8.31283 58.5493 8.22314 58.5493 8.11182C58.5493 8.00049 58.5586 7.90462 58.5771 7.82422C58.6081 7.70671 58.639 7.60775 58.6699 7.52734C58.7008 7.44076 58.7163 7.36654 58.7163 7.30469C58.7163 7.19336 58.7039 7.07585 58.6792 6.95215C58.6545 6.82227 58.6421 6.70166 58.6421 6.59033C58.6421 6.48519 58.6637 6.3986 58.707 6.33057C58.7565 6.26253 58.8184 6.20068 58.8926 6.14502C58.9668 6.08317 59.0472 6.02441 59.1338 5.96875C59.2266 5.9069 59.3162 5.83268 59.4028 5.74609C59.4276 5.72754 59.4461 5.71208 59.4585 5.69971C59.4709 5.68734 59.5018 5.68115 59.5513 5.68115C59.5451 5.67497 59.542 5.66878 59.542 5.6626V5.63477C59.542 5.61621 59.5544 5.60384 59.5791 5.59766C59.6038 5.59147 59.6224 5.58838 59.6348 5.58838C59.6657 5.58838 59.6904 5.60693 59.709 5.64404C59.7337 5.67497 59.7523 5.71517 59.7646 5.76465C59.777 5.80794 59.7863 5.85433 59.7925 5.90381C59.7987 5.95329 59.8079 5.99349 59.8203 6.02441ZM63.457 11.0898C63.4818 11.1455 63.4941 11.2043 63.4941 11.2661C63.4941 11.328 63.4787 11.3836 63.4478 11.4331C63.423 11.4764 63.389 11.5197 63.3457 11.563C63.3086 11.6001 63.2653 11.6372 63.2158 11.6743C63.1725 11.7052 63.1354 11.7393 63.1045 11.7764C63.0921 11.8011 63.0828 11.8382 63.0767 11.8877C63.0767 11.931 63.0643 11.965 63.0396 11.9897C62.9653 12.0701 62.8726 12.1382 62.7612 12.1938C62.6561 12.2495 62.5633 12.3206 62.4829 12.4072C62.4334 12.4629 62.3963 12.5186 62.3716 12.5742C62.3468 12.6237 62.2912 12.6825 62.2046 12.7505C62.1366 12.8 62.0716 12.868 62.0098 12.9546C61.9479 13.0412 61.8799 13.1278 61.8057 13.2144C61.7314 13.2948 61.6449 13.3659 61.5459 13.4277C61.4469 13.4958 61.3294 13.5298 61.1934 13.5298C61.1624 13.5298 61.1346 13.5267 61.1099 13.5205C61.0851 13.5205 61.0573 13.5174 61.0264 13.5112C61.0264 13.5112 61.0047 13.4989 60.9614 13.4741C60.9181 13.4494 60.8687 13.3999 60.813 13.3257C60.7635 13.2515 60.7171 13.1463 60.6738 13.0103C60.6305 12.8742 60.6089 12.6948 60.6089 12.4722C60.6089 12.4165 60.6182 12.3577 60.6367 12.2959C60.6615 12.2279 60.6862 12.1629 60.7109 12.1011C60.7419 12.0392 60.7666 11.9774 60.7852 11.9155C60.8099 11.8475 60.8223 11.7856 60.8223 11.73C60.8223 11.6743 60.8099 11.6217 60.7852 11.5723C60.7604 11.5228 60.748 11.4702 60.748 11.4146C60.748 11.3589 60.7728 11.3218 60.8223 11.3032C60.8717 11.2785 60.8965 11.2352 60.8965 11.1733C60.8965 11.1424 60.8934 11.1146 60.8872 11.0898C60.8872 11.0651 60.8872 11.0373 60.8872 11.0063C60.8872 10.9321 60.8996 10.8826 60.9243 10.8579C60.9491 10.827 60.9614 10.7868 60.9614 10.7373C60.9614 10.694 60.9521 10.6631 60.9336 10.6445C60.9212 10.6198 60.915 10.5889 60.915 10.5518C60.915 10.5085 60.9305 10.4683 60.9614 10.4312C60.9924 10.3879 61.014 10.3291 61.0264 10.2549C61.0697 10.1126 61.1037 9.94564 61.1284 9.75391C61.1532 9.55599 61.181 9.3457 61.2119 9.12305C61.249 8.89421 61.2892 8.65299 61.3325 8.39941C61.3758 8.13965 61.4377 7.87988 61.5181 7.62012C61.5428 7.53353 61.5675 7.40983 61.5923 7.24902C61.6232 7.08203 61.6418 6.90885 61.6479 6.72949C61.617 6.71094 61.5954 6.70166 61.583 6.70166C61.5335 6.70166 61.4964 6.74186 61.4717 6.82227C61.4531 6.90267 61.4222 6.96143 61.3789 6.99854C61.348 7.02327 61.3109 7.03564 61.2676 7.03564C61.2305 7.03564 61.1965 7.04492 61.1655 7.06348C61.1284 7.0944 61.0975 7.13151 61.0728 7.1748C61.0542 7.21191 61.0326 7.24902 61.0078 7.28613C60.9893 7.32324 60.9614 7.36035 60.9243 7.39746C60.8872 7.43457 60.8315 7.4624 60.7573 7.48096C60.745 7.48714 60.7388 7.5026 60.7388 7.52734C60.7388 7.5459 60.7264 7.55518 60.7017 7.55518H60.6831C60.6831 7.53662 60.6676 7.52116 60.6367 7.50879C60.612 7.49023 60.5811 7.47168 60.5439 7.45312C60.5068 7.43457 60.4728 7.41292 60.4419 7.38818C60.4172 7.36344 60.4048 7.33252 60.4048 7.29541C60.4048 7.23975 60.4172 7.19645 60.4419 7.16553C60.4666 7.1346 60.5007 7.10986 60.5439 7.09131C60.5872 7.07275 60.6305 7.0542 60.6738 7.03564C60.7233 7.0109 60.7728 6.97689 60.8223 6.93359C60.8841 6.87174 60.9521 6.80062 61.0264 6.72021C61.1068 6.63981 61.1872 6.55941 61.2676 6.479C61.348 6.39242 61.4315 6.31201 61.5181 6.23779C61.6108 6.15739 61.7036 6.08626 61.7964 6.02441C61.8149 6.01204 61.818 5.99967 61.8057 5.9873C61.7995 5.97493 61.818 5.96566 61.8613 5.95947C61.8799 5.95947 61.9046 5.9502 61.9355 5.93164C61.9727 5.9069 62.0067 5.88216 62.0376 5.85742C62.0747 5.8265 62.1056 5.80176 62.1304 5.7832C62.1551 5.75846 62.1706 5.74609 62.1768 5.74609C62.1891 5.74609 62.2015 5.74919 62.2139 5.75537C62.2324 5.75537 62.2479 5.75537 62.2603 5.75537C62.3097 5.75537 62.3654 5.743 62.4272 5.71826C62.4953 5.68734 62.6159 5.67188 62.7891 5.67188C62.8571 5.67188 62.9159 5.69352 62.9653 5.73682C63.021 5.77393 63.0488 5.85433 63.0488 5.97803C63.0488 6.01514 63.0334 6.07389 63.0024 6.1543C62.9715 6.2347 62.9375 6.33057 62.9004 6.44189C62.8633 6.55322 62.8293 6.67692 62.7983 6.81299C62.7674 6.94906 62.752 7.09131 62.752 7.23975C62.752 7.3016 62.755 7.36654 62.7612 7.43457C62.7674 7.49642 62.7705 7.55827 62.7705 7.62012C62.7705 7.73145 62.7489 7.82731 62.7056 7.90771C62.6685 7.98193 62.6406 8.07161 62.6221 8.17676C62.5973 8.30664 62.585 8.44271 62.585 8.58496C62.585 8.72721 62.5757 8.86947 62.5571 9.01172C62.5076 9.30859 62.4489 9.59619 62.3809 9.87451C62.3128 10.1528 62.2541 10.4404 62.2046 10.7373C62.186 10.8363 62.1551 10.9631 62.1118 11.1177C62.0747 11.2723 62.0562 11.4362 62.0562 11.6094C62.0562 11.7702 62.084 11.9186 62.1396 12.0547C62.2324 12.0485 62.3097 12.0207 62.3716 11.9712C62.4334 11.9217 62.4891 11.866 62.5386 11.8042C62.5881 11.7424 62.6344 11.6774 62.6777 11.6094C62.7272 11.5413 62.7798 11.4826 62.8354 11.4331C62.8726 11.4022 62.9251 11.3805 62.9932 11.3682C63.0674 11.3496 63.1292 11.3249 63.1787 11.2939C63.2282 11.263 63.2622 11.2197 63.2808 11.1641C63.2993 11.1084 63.3395 11.0806 63.4014 11.0806C63.4137 11.0806 63.423 11.0837 63.4292 11.0898C63.4354 11.0898 63.4447 11.0898 63.457 11.0898ZM63.8003 1.73828C63.8188 1.77539 63.8281 1.81559 63.8281 1.85889C63.8281 1.93311 63.8034 2.01351 63.7539 2.1001C63.7044 2.18669 63.6488 2.27018 63.5869 2.35059C63.5312 2.43099 63.4756 2.50521 63.4199 2.57324C63.3643 2.63509 63.3302 2.67839 63.3179 2.70312C63.2808 2.78353 63.2498 2.89176 63.2251 3.02783C63.2065 3.1639 63.1663 3.2876 63.1045 3.39893C63.0798 3.4484 63.0581 3.48551 63.0396 3.51025C63.021 3.53499 62.9993 3.59066 62.9746 3.67725C62.9499 3.73291 62.9189 3.79785 62.8818 3.87207C62.8447 3.94629 62.8045 4.01742 62.7612 4.08545C62.7179 4.1473 62.6746 4.20296 62.6313 4.25244C62.5881 4.29574 62.5479 4.31738 62.5107 4.31738C62.3499 4.31738 62.2386 4.24007 62.1768 4.08545C62.1211 3.92464 62.0933 3.736 62.0933 3.51953C62.0933 3.43294 62.0964 3.34326 62.1025 3.25049C62.1149 3.15771 62.1273 3.06803 62.1396 2.98145C62.152 2.88867 62.1829 2.82064 62.2324 2.77734C62.2819 2.73405 62.3221 2.66602 62.353 2.57324C62.384 2.49284 62.4056 2.41553 62.418 2.34131C62.4303 2.2609 62.4427 2.18669 62.4551 2.11865C62.4736 2.05062 62.4922 1.99186 62.5107 1.94238C62.5355 1.88672 62.5726 1.84033 62.6221 1.80322C62.6592 1.77848 62.7025 1.75684 62.752 1.73828C62.8076 1.71973 62.8633 1.70736 62.9189 1.70117C62.9808 1.6888 63.0396 1.67952 63.0952 1.67334C63.1571 1.66715 63.2065 1.66406 63.2437 1.66406C63.2437 1.67025 63.2715 1.66097 63.3271 1.63623C63.3828 1.60531 63.4447 1.58984 63.5127 1.58984C63.5251 1.58984 63.5653 1.60221 63.6333 1.62695C63.7075 1.64551 63.7632 1.68262 63.8003 1.73828ZM68.6987 6.02441C68.6554 6.08008 68.5967 6.11719 68.5225 6.13574C68.4544 6.14811 68.3802 6.15739 68.2998 6.16357C68.2194 6.16976 68.1359 6.17594 68.0493 6.18213C67.9627 6.18831 67.8823 6.20687 67.8081 6.23779C67.7957 6.24398 67.7834 6.25944 67.771 6.28418C67.7648 6.30273 67.7463 6.31201 67.7153 6.31201C67.703 6.31201 67.6875 6.31201 67.6689 6.31201C67.6566 6.30583 67.6442 6.30273 67.6318 6.30273C67.5824 6.30273 67.5329 6.33366 67.4834 6.39551C67.4401 6.45736 67.3875 6.50065 67.3257 6.52539C67.2144 6.57487 67.1061 6.59961 67.001 6.59961C66.8958 6.59961 66.8185 6.62435 66.769 6.67383C66.6701 6.76042 66.599 6.8501 66.5557 6.94287C66.5186 7.03564 66.5 7.13151 66.5 7.23047C66.5 7.39128 66.5371 7.55827 66.6113 7.73145C66.6917 7.89844 66.766 8.08089 66.834 8.27881V8.29736C66.834 8.30973 66.8309 8.3252 66.8247 8.34375C66.8247 8.3623 66.8247 8.37777 66.8247 8.39014C66.8247 8.40869 66.8278 8.41797 66.834 8.41797C66.8464 8.43034 66.8711 8.47673 66.9082 8.55713C66.9453 8.63753 66.9855 8.72103 67.0288 8.80762C67.0721 8.91276 67.1216 9.02718 67.1772 9.15088C67.1896 9.33643 67.2391 9.52197 67.3257 9.70752C67.4123 9.89307 67.505 10.0786 67.604 10.2642C67.7091 10.4435 67.8019 10.6229 67.8823 10.8022C67.9689 10.9816 68.0122 11.1579 68.0122 11.3311C68.006 11.4362 67.9658 11.5506 67.8916 11.6743C67.8236 11.7918 67.7463 11.9032 67.6597 12.0083C67.5731 12.1134 67.4927 12.2031 67.4185 12.2773C67.3504 12.3454 67.3164 12.3794 67.3164 12.3794C67.3164 12.3979 67.3164 12.4165 67.3164 12.4351C67.3226 12.4536 67.3257 12.4691 67.3257 12.4814C67.3133 12.5495 67.27 12.6299 67.1958 12.7227C67.1216 12.8154 67.035 12.9082 66.936 13.001C66.8433 13.0938 66.7474 13.1772 66.6484 13.2515C66.5557 13.3195 66.4784 13.3597 66.4165 13.3721C66.3979 13.3783 66.3608 13.3937 66.3052 13.4185C66.2557 13.4494 66.2031 13.4803 66.1475 13.5112C66.0918 13.5483 66.0361 13.5824 65.9805 13.6133C65.931 13.6442 65.8939 13.6628 65.8691 13.6689C65.8135 13.6813 65.6867 13.6906 65.4888 13.6968C65.2909 13.7091 65.0898 13.7153 64.8857 13.7153C64.7064 13.7153 64.5456 13.7091 64.4033 13.6968C64.2673 13.6844 64.1992 13.6535 64.1992 13.604V13.5947C64.1312 13.5947 64.0724 13.5978 64.0229 13.604C63.9797 13.6164 63.9271 13.6226 63.8652 13.6226C63.8219 13.6226 63.7725 13.6195 63.7168 13.6133C63.6673 13.6071 63.6178 13.5947 63.5684 13.5762C63.5251 13.5576 63.488 13.5329 63.457 13.502C63.4199 13.4772 63.4014 13.4463 63.4014 13.4092C63.4014 13.335 63.4385 13.27 63.5127 13.2144C63.5869 13.1587 63.658 13.0876 63.7261 13.001C63.7941 12.9082 63.8714 12.8 63.958 12.6763C64.0446 12.5464 64.1312 12.4258 64.2178 12.3145C64.3044 12.1969 64.3879 12.1011 64.4683 12.0269C64.5549 11.9465 64.6291 11.9062 64.6909 11.9062C64.759 11.9062 64.7961 11.9372 64.8022 11.999C64.8146 12.0609 64.8208 12.132 64.8208 12.2124C64.8208 12.2866 64.827 12.3547 64.8394 12.4165C64.8579 12.4784 64.9074 12.5093 64.9878 12.5093C65.0558 12.5093 65.1053 12.4969 65.1362 12.4722C65.1672 12.4412 65.2166 12.4258 65.2847 12.4258C65.3403 12.4258 65.3805 12.4351 65.4053 12.4536C65.4362 12.4722 65.4609 12.4938 65.4795 12.5186C65.498 12.5433 65.5228 12.5649 65.5537 12.5835C65.5846 12.6021 65.6341 12.6113 65.7021 12.6113C65.8135 12.6113 65.9372 12.5897 66.0732 12.5464C66.2155 12.4969 66.3763 12.4722 66.5557 12.4722C66.6484 12.4722 66.7412 12.4814 66.834 12.5C66.8278 12.4814 66.8247 12.4536 66.8247 12.4165C66.8247 12.3732 66.8278 12.333 66.834 12.2959C66.8464 12.2588 66.8525 12.2186 66.8525 12.1753C66.8525 12.0825 66.8216 12.0238 66.7598 11.999C66.7041 11.9681 66.6577 11.9155 66.6206 11.8413C66.5835 11.7176 66.5618 11.5939 66.5557 11.4702C66.5495 11.3403 66.5278 11.2197 66.4907 11.1084C66.4784 11.096 66.4629 11.0929 66.4443 11.0991C66.432 11.0991 66.4227 11.0806 66.4165 11.0435C66.4165 11.0125 66.4165 10.9723 66.4165 10.9229C66.4227 10.8734 66.4258 10.8208 66.4258 10.7651C66.4258 10.6971 66.4227 10.6291 66.4165 10.561C66.4103 10.4868 66.3918 10.4281 66.3608 10.3848C66.3485 10.36 66.3083 10.3229 66.2402 10.2734C66.1722 10.224 66.1227 10.1652 66.0918 10.0972C66.0423 10.0106 66.0083 9.89925 65.9897 9.76318C65.9774 9.62712 65.9403 9.51888 65.8784 9.43848C65.8722 9.42611 65.8475 9.41374 65.8042 9.40137C65.7671 9.389 65.7454 9.37663 65.7393 9.36426C65.7021 9.25293 65.6805 9.09831 65.6743 8.90039C65.6681 8.69629 65.6217 8.46436 65.5352 8.20459C65.529 8.19222 65.5166 8.18604 65.498 8.18604C65.4795 8.18604 65.4702 8.16748 65.4702 8.13037C65.464 8.04378 65.4578 7.96647 65.4517 7.89844C65.4517 7.82422 65.4517 7.75309 65.4517 7.68506C65.4517 7.35107 65.5568 7.06348 65.7671 6.82227C65.9836 6.58105 66.2464 6.36149 66.5557 6.16357C66.6051 6.13265 66.6515 6.12028 66.6948 6.12646C66.7443 6.13265 66.7907 6.12337 66.834 6.09863C66.8711 6.07389 66.8989 6.0306 66.9175 5.96875C66.936 5.9069 66.9824 5.87598 67.0566 5.87598C67.069 5.87598 67.0814 5.87907 67.0938 5.88525C67.1123 5.88525 67.1278 5.88525 67.1401 5.88525C67.1772 5.88525 67.2082 5.86361 67.2329 5.82031C67.2638 5.77083 67.2948 5.73991 67.3257 5.72754C67.4185 5.67806 67.5236 5.64714 67.6411 5.63477C67.7648 5.61621 67.8885 5.57292 68.0122 5.50488C68.0493 5.48633 68.0771 5.4585 68.0957 5.42139C68.1204 5.37809 68.1514 5.35645 68.1885 5.35645C68.2194 5.35645 68.2503 5.35954 68.2812 5.36572C68.3184 5.37191 68.3524 5.375 68.3833 5.375C68.4204 5.375 68.4544 5.36263 68.4854 5.33789C68.5163 5.30697 68.5503 5.2915 68.5874 5.2915C68.6554 5.2915 68.7142 5.32552 68.7637 5.39355C68.8193 5.46159 68.8472 5.54508 68.8472 5.64404C68.8472 5.77393 68.7977 5.90072 68.6987 6.02441Z" fill="#A72450"/>
</svg>
