<svg width="82" height="17" viewBox="0 0 82 17" fill="none" xmlns="http://www.w3.org/2000/svg">
<path d="M7.45898 2.47119C7.50846 2.5516 7.5332 2.61654 7.5332 2.66602C7.5332 2.72168 7.51774 2.77425 7.48682 2.82373C7.45589 2.87321 7.41569 2.92269 7.36621 2.97217C7.32292 3.01546 7.27653 3.05876 7.22705 3.10205C7.17757 3.14535 7.13737 3.19173 7.10645 3.24121C7.05078 3.3278 7.0013 3.41439 6.95801 3.50098C6.9209 3.58138 6.8776 3.6556 6.82812 3.72363C6.78483 3.79167 6.73226 3.84733 6.67041 3.89062C6.61475 3.93392 6.54053 3.95557 6.44775 3.95557C6.41683 3.95557 6.37972 3.94938 6.33643 3.93701C6.29932 3.92464 6.26221 3.91846 6.2251 3.91846C6.15706 3.91846 6.09521 3.9401 6.03955 3.9834C5.99007 4.02051 5.93132 4.04834 5.86328 4.06689C5.77669 4.09163 5.69938 4.11328 5.63135 4.13184C5.5695 4.15039 5.486 4.17513 5.38086 4.20605H5.26953C5.2015 4.20605 5.13346 4.22461 5.06543 4.26172C5.00358 4.29883 4.90153 4.3514 4.75928 4.41943C4.68506 4.44417 4.5861 4.45345 4.4624 4.44727C4.34489 4.44108 4.21191 4.45345 4.06348 4.48438C4.04492 4.49056 4.02018 4.5153 3.98926 4.55859C3.95833 4.5957 3.93669 4.61735 3.92432 4.62354C3.83773 4.64827 3.73877 4.66992 3.62744 4.68848C3.51611 4.70085 3.41097 4.72559 3.31201 4.7627C3.21924 4.79362 3.13883 4.8431 3.0708 4.91113C3.00895 4.97917 2.97803 5.07812 2.97803 5.20801C2.97803 5.30697 3.00277 5.42757 3.05225 5.56982C3.10173 5.70589 3.1543 5.84196 3.20996 5.97803C3.27181 6.10791 3.33057 6.22233 3.38623 6.32129C3.44808 6.42025 3.48828 6.479 3.50684 6.49756C3.5625 6.55941 3.61198 6.62744 3.65527 6.70166C3.69857 6.76969 3.74186 6.84701 3.78516 6.93359C3.83464 7.014 3.88411 7.10059 3.93359 7.19336C3.98926 7.27995 4.05729 7.36963 4.1377 7.4624C4.18717 7.52425 4.24284 7.58301 4.30469 7.63867C4.36654 7.69434 4.42529 7.74691 4.48096 7.79639C4.53662 7.84587 4.58301 7.89535 4.62012 7.94482C4.66341 7.9943 4.68506 8.04069 4.68506 8.08398C4.7098 8.1582 4.7902 8.25098 4.92627 8.3623C5.06234 8.47363 5.18913 8.61279 5.30664 8.77979C5.31901 8.79834 5.34375 8.82617 5.38086 8.86328C5.41797 8.89421 5.45508 8.92822 5.49219 8.96533C5.53548 9.00244 5.57259 9.04264 5.60352 9.08594C5.64062 9.12305 5.65918 9.16016 5.65918 9.19727C5.65918 9.24674 5.68392 9.28076 5.7334 9.29932C5.78288 9.31787 5.82617 9.35189 5.86328 9.40137C5.89421 9.43848 5.91585 9.48177 5.92822 9.53125C5.94059 9.58073 5.96533 9.63021 6.00244 9.67969C6.07666 9.79102 6.16325 9.91162 6.26221 10.0415C6.36735 10.1652 6.41992 10.3198 6.41992 10.5054C6.41992 10.6229 6.39518 10.7404 6.3457 10.8579C6.33333 10.8888 6.30859 10.9074 6.27148 10.9136C6.24056 10.9198 6.22201 10.9476 6.21582 10.9971C6.19108 11.0837 6.16634 11.1672 6.1416 11.2476C6.11686 11.3218 6.07048 11.3991 6.00244 11.4795C5.93441 11.5599 5.8571 11.6341 5.77051 11.7021C5.68392 11.7702 5.59733 11.8568 5.51074 11.9619C5.44889 12.0423 5.38395 12.1134 5.31592 12.1753C5.24788 12.2371 5.17057 12.3021 5.08398 12.3701C5.00358 12.4382 4.90771 12.5155 4.79639 12.6021C4.68506 12.6886 4.55518 12.8 4.40674 12.936C4.35726 12.9855 4.29232 13.0443 4.21191 13.1123C4.13151 13.1742 4.0109 13.2298 3.8501 13.2793C3.76351 13.3102 3.646 13.335 3.49756 13.3535C3.34912 13.3721 3.18213 13.3906 2.99658 13.4092C2.81104 13.4215 2.61312 13.4339 2.40283 13.4463C2.19255 13.4587 1.98226 13.471 1.77197 13.4834C1.61735 13.502 1.45964 13.5205 1.29883 13.5391C1.13802 13.5514 0.974121 13.5576 0.807129 13.5576C0.547363 13.5576 0.346354 13.5422 0.204102 13.5112C0.0680339 13.4741 0 13.3844 0 13.2422C0 13.1803 0.0123698 13.1247 0.0371094 13.0752C0.0680339 13.0195 0.105143 12.9701 0.148438 12.9268C0.191732 12.8773 0.235026 12.8309 0.27832 12.7876C0.321615 12.7443 0.358724 12.701 0.389648 12.6577C0.451497 12.5649 0.507161 12.4845 0.556641 12.4165C0.60612 12.3423 0.655599 12.2804 0.705078 12.231C0.760742 12.1815 0.816406 12.1444 0.87207 12.1196C0.927734 12.0949 0.995768 12.0825 1.07617 12.0825C1.16276 12.0825 1.25553 12.0918 1.35449 12.1104C1.45345 12.1227 1.54932 12.1413 1.64209 12.166C1.74105 12.1846 1.83073 12.2031 1.91113 12.2217C1.99154 12.234 2.05648 12.2402 2.10596 12.2402C2.18636 12.2402 2.26367 12.231 2.33789 12.2124C2.41829 12.1877 2.50798 12.1753 2.60693 12.1753C2.71208 12.1753 2.8265 12.1877 2.9502 12.2124C3.08008 12.231 3.19759 12.2402 3.30273 12.2402C3.45736 12.2402 3.63672 12.231 3.84082 12.2124C4.04492 12.1877 4.23975 12.1506 4.42529 12.1011C4.61084 12.0516 4.76546 11.9897 4.88916 11.9155C5.01904 11.8351 5.08398 11.7424 5.08398 11.6372C5.08398 11.5815 5.06234 11.5042 5.01904 11.4053C4.97575 11.3063 4.92008 11.1981 4.85205 11.0806C4.7902 10.9631 4.71908 10.8424 4.63867 10.7188C4.55827 10.5951 4.48096 10.4775 4.40674 10.3662C4.36963 10.3167 4.32324 10.2734 4.26758 10.2363C4.21191 10.193 4.16862 10.1466 4.1377 10.0972C4.10059 10.0415 4.07585 9.98275 4.06348 9.9209C4.05111 9.85286 4.02637 9.79411 3.98926 9.74463C3.92122 9.65186 3.83773 9.56836 3.73877 9.49414C3.646 9.41374 3.56868 9.33643 3.50684 9.26221C3.40169 9.13851 3.30273 8.99626 3.20996 8.83545C3.11719 8.67464 3.00895 8.51693 2.88525 8.3623C2.84814 8.31901 2.82031 8.28809 2.80176 8.26953C2.7832 8.25098 2.743 8.18913 2.68115 8.08398C2.61312 7.9974 2.52962 7.91699 2.43066 7.84277C2.33789 7.76855 2.25749 7.68815 2.18945 7.60156C2.16471 7.57064 2.15234 7.53662 2.15234 7.49951C2.15853 7.45622 2.14925 7.4222 2.12451 7.39746C2.05029 7.32324 1.9668 7.24593 1.87402 7.16553C1.78125 7.07894 1.73486 6.96761 1.73486 6.83154C1.73486 6.73877 1.70703 6.62126 1.65137 6.479C1.60189 6.33675 1.57715 6.17594 1.57715 5.99658C1.57715 5.87288 1.60498 5.77393 1.66064 5.69971C1.71631 5.62549 1.75342 5.54508 1.77197 5.4585C1.79671 5.40902 1.80908 5.36263 1.80908 5.31934C1.80908 5.26986 1.82145 5.22038 1.84619 5.1709C1.85856 5.15853 1.8833 5.14925 1.92041 5.14307C1.95752 5.1307 1.97917 5.11833 1.98535 5.10596C2.01009 5.05029 2.03483 5.007 2.05957 4.97607C2.09049 4.93896 2.1276 4.90186 2.1709 4.86475C2.21419 4.82145 2.26986 4.77197 2.33789 4.71631C2.40592 4.66064 2.49561 4.58333 2.60693 4.48438C2.62549 4.47201 2.63786 4.45036 2.64404 4.41943C2.65023 4.38232 2.6626 4.35758 2.68115 4.34521C2.72445 4.30811 2.77083 4.28337 2.82031 4.271C2.86979 4.25863 2.91309 4.23698 2.9502 4.20605C3.11719 4.09473 3.26253 3.99886 3.38623 3.91846C3.51611 3.83805 3.63672 3.76693 3.74805 3.70508C3.85938 3.63704 3.9707 3.57829 4.08203 3.52881C4.19336 3.47933 4.32324 3.42985 4.47168 3.38037L5.72412 2.96289C5.79215 2.89486 5.88184 2.85775 5.99316 2.85156C6.10449 2.83919 6.22201 2.80827 6.3457 2.75879C6.4694 2.69076 6.62712 2.63509 6.81885 2.5918C7.01058 2.54232 7.22396 2.50212 7.45898 2.47119ZM13.814 11.0991C13.8573 11.1424 13.8789 11.1919 13.8789 11.2476C13.8789 11.3403 13.8511 11.4238 13.7954 11.498C13.7397 11.5661 13.6686 11.6341 13.582 11.7021C13.5016 11.764 13.4119 11.8289 13.313 11.897C13.2202 11.965 13.1336 12.0454 13.0532 12.1382C12.9481 12.2619 12.8244 12.4041 12.6821 12.5649C12.5461 12.7196 12.4378 12.8773 12.3574 13.0381C12.3451 13.069 12.3049 13.1278 12.2368 13.2144C12.175 13.3009 12.0977 13.3937 12.0049 13.4927C11.9183 13.5916 11.8193 13.6782 11.708 13.7524C11.6029 13.8267 11.5008 13.8638 11.4019 13.8638C11.3338 13.8638 11.2658 13.8514 11.1978 13.8267C11.1359 13.8081 11.0771 13.7803 11.0215 13.7432C10.9658 13.7122 10.9194 13.6751 10.8823 13.6318C10.8514 13.5947 10.8359 13.5576 10.8359 13.5205C10.8359 13.4648 10.8576 13.4092 10.9009 13.3535C10.9504 13.2979 10.9751 13.2113 10.9751 13.0938C10.9751 13.0628 10.9689 13.0412 10.9565 13.0288C10.9504 13.0164 10.9411 13.001 10.9287 12.9824C10.9225 12.9639 10.9163 12.9391 10.9102 12.9082C10.904 12.8773 10.9009 12.8278 10.9009 12.7598C10.9009 12.6917 10.9102 12.6206 10.9287 12.5464C10.9535 12.466 10.9782 12.3856 11.0029 12.3052C11.0339 12.2186 11.0586 12.1351 11.0771 12.0547C11.1019 11.9681 11.1143 11.8846 11.1143 11.8042C11.1143 11.7856 11.1112 11.7671 11.105 11.7485C11.105 11.7238 11.105 11.7021 11.105 11.6836C11.105 11.6465 11.1143 11.5908 11.1328 11.5166C11.1514 11.4424 11.173 11.362 11.1978 11.2754C11.2225 11.1888 11.2441 11.096 11.2627 10.9971C11.2812 10.8919 11.2905 10.793 11.2905 10.7002C11.2905 10.5827 11.2782 10.4837 11.2534 10.4033C11.1854 10.4281 11.1266 10.4652 11.0771 10.5146C11.0277 10.5579 10.9813 10.6105 10.938 10.6724C10.9009 10.728 10.8607 10.7899 10.8174 10.8579C10.7803 10.9198 10.7401 10.9785 10.6968 11.0342C10.672 11.0651 10.6287 11.1053 10.5669 11.1548C10.505 11.2043 10.4401 11.2568 10.3721 11.3125C10.3102 11.3682 10.2546 11.4238 10.2051 11.4795C10.1556 11.529 10.1309 11.5692 10.1309 11.6001C10.1309 11.6125 10.134 11.6279 10.1401 11.6465C10.1463 11.665 10.1494 11.6805 10.1494 11.6929C10.1494 11.7114 10.134 11.7393 10.103 11.7764C10.0721 11.8135 10.0381 11.8537 10.001 11.897C9.97005 11.9341 9.93913 11.9712 9.9082 12.0083C9.87728 12.0392 9.86182 12.0609 9.86182 12.0732C9.85563 12.1413 9.80306 12.2062 9.7041 12.2681C9.60514 12.3237 9.51855 12.3949 9.44434 12.4814C9.38867 12.5433 9.34229 12.6082 9.30518 12.6763C9.26807 12.7443 9.23405 12.8062 9.20312 12.8618C9.1722 12.9175 9.14128 12.9639 9.11035 13.001C9.07943 13.0319 9.04232 13.0474 8.99902 13.0474C8.98665 13.0474 8.96501 13.0443 8.93408 13.0381C8.90934 13.0319 8.8877 13.0288 8.86914 13.0288C8.82585 13.0288 8.79801 13.0566 8.78564 13.1123C8.77946 13.168 8.77018 13.2113 8.75781 13.2422C8.70833 13.3226 8.64958 13.3844 8.58154 13.4277C8.51969 13.4648 8.43929 13.5205 8.34033 13.5947C8.29704 13.6257 8.26611 13.6597 8.24756 13.6968C8.23519 13.7401 8.21663 13.7772 8.19189 13.8081C8.16715 13.839 8.12695 13.8638 8.07129 13.8823C8.02181 13.9071 7.94141 13.9194 7.83008 13.9194C7.76823 13.9194 7.70947 13.9132 7.65381 13.9009C7.59814 13.8885 7.57031 13.87 7.57031 13.8452C7.57031 13.8328 7.5734 13.8174 7.57959 13.7988C7.58577 13.7803 7.58887 13.7648 7.58887 13.7524C7.58887 13.7463 7.5765 13.7339 7.55176 13.7153C7.52702 13.6968 7.49609 13.6689 7.45898 13.6318C7.42806 13.6009 7.40023 13.5576 7.37549 13.502C7.35075 13.4401 7.33838 13.3659 7.33838 13.2793C7.33838 13.1803 7.34766 13.0783 7.36621 12.9731C7.39095 12.8618 7.41569 12.7536 7.44043 12.6484C7.47135 12.5433 7.49919 12.4443 7.52393 12.3516C7.54867 12.2526 7.56722 12.1598 7.57959 12.0732C7.60433 11.8691 7.6167 11.6619 7.6167 11.4517C7.6167 11.2414 7.65072 11.0527 7.71875 10.8857C7.74967 10.8239 7.78369 10.7404 7.8208 10.6353C7.85791 10.5301 7.89193 10.4064 7.92285 10.2642C7.92904 10.2271 7.93831 10.1745 7.95068 10.1064C7.96305 10.0322 7.97852 9.95182 7.99707 9.86523C8.01562 9.77865 8.03418 9.69206 8.05273 9.60547C8.07747 9.5127 8.10531 9.43229 8.13623 9.36426C8.1486 9.3457 8.17025 9.32406 8.20117 9.29932C8.23828 9.26839 8.26302 9.24365 8.27539 9.2251C8.28776 9.18799 8.29395 9.14779 8.29395 9.10449C8.30013 9.05501 8.31559 9.00553 8.34033 8.95605C8.3527 8.93132 8.37744 8.90658 8.41455 8.88184C8.45166 8.85091 8.47331 8.82617 8.47949 8.80762C8.51042 8.75195 8.53206 8.68392 8.54443 8.60352C8.5568 8.52311 8.58154 8.45508 8.61865 8.39941C8.64339 8.3623 8.68669 8.33138 8.74854 8.30664C8.81038 8.27572 8.85986 8.23551 8.89697 8.18604C8.9279 8.14274 8.94954 8.09635 8.96191 8.04688C8.98047 7.9974 9.00212 7.9541 9.02686 7.91699C9.09489 7.84277 9.15055 7.77783 9.19385 7.72217C9.24333 7.66032 9.28662 7.60465 9.32373 7.55518C9.36702 7.5057 9.40723 7.45931 9.44434 7.41602C9.48145 7.37272 9.52783 7.32943 9.5835 7.28613C9.62061 7.26139 9.6639 7.21501 9.71338 7.14697C9.76904 7.07894 9.81852 7.03255 9.86182 7.00781C9.9113 6.98926 9.95459 6.9738 9.9917 6.96143C10.035 6.94906 10.0845 6.92122 10.1401 6.87793C10.1525 6.86556 10.1649 6.84082 10.1772 6.80371C10.1896 6.76042 10.202 6.73568 10.2144 6.72949C10.2576 6.71094 10.2979 6.69548 10.335 6.68311C10.3783 6.67074 10.4277 6.63981 10.4834 6.59033C10.5514 6.52848 10.604 6.46663 10.6411 6.40479C10.6782 6.34294 10.7215 6.29036 10.771 6.24707C10.8205 6.20996 10.8761 6.18522 10.938 6.17285C10.9998 6.16048 11.0555 6.13883 11.105 6.10791C11.1978 6.05843 11.2905 5.99349 11.3833 5.91309C11.4823 5.8265 11.5843 5.743 11.6895 5.6626C11.7946 5.57601 11.9028 5.50488 12.0142 5.44922C12.1317 5.38737 12.2523 5.35645 12.376 5.35645C12.4564 5.35645 12.5368 5.35026 12.6172 5.33789C12.7038 5.31934 12.7842 5.31006 12.8584 5.31006C12.9264 5.31006 12.9883 5.32243 13.0439 5.34717C13.0996 5.37191 13.1274 5.42448 13.1274 5.50488C13.1274 5.73991 13.0996 6.00277 13.0439 6.29346C12.9883 6.58415 12.9264 6.89648 12.8584 7.23047C12.7965 7.56445 12.7378 7.91699 12.6821 8.28809C12.6326 8.65918 12.6079 9.04264 12.6079 9.43848C12.6079 9.45085 12.611 9.4694 12.6172 9.49414C12.6296 9.51888 12.6357 9.55599 12.6357 9.60547C12.6357 9.64258 12.6265 9.68896 12.6079 9.74463C12.5955 9.79411 12.5801 9.84668 12.5615 9.90234C12.543 9.95182 12.5244 10.0013 12.5059 10.0508C12.4935 10.1003 12.4873 10.1436 12.4873 10.1807C12.4873 10.2425 12.4873 10.3044 12.4873 10.3662C12.4935 10.4281 12.4966 10.4837 12.4966 10.5332C12.4966 10.6383 12.4842 10.7559 12.4595 10.8857C12.4347 11.0156 12.4038 11.1517 12.3667 11.2939C12.3358 11.43 12.3079 11.5661 12.2832 11.7021C12.2585 11.8382 12.2461 11.965 12.2461 12.0825C12.2461 12.1444 12.2492 12.2031 12.2554 12.2588C12.2616 12.3083 12.2739 12.3577 12.2925 12.4072C12.3729 12.3701 12.4378 12.3237 12.4873 12.2681C12.543 12.2124 12.5924 12.1506 12.6357 12.0825C12.6852 12.0083 12.7347 11.931 12.7842 11.8506C12.8337 11.764 12.8986 11.6743 12.979 11.5815C13.0099 11.5444 13.0532 11.495 13.1089 11.4331C13.1646 11.3713 13.2233 11.3125 13.2852 11.2568C13.347 11.2012 13.4119 11.1517 13.48 11.1084C13.548 11.0651 13.613 11.0435 13.6748 11.0435C13.7181 11.0435 13.7645 11.062 13.814 11.0991ZM11.6616 6.32129C11.6431 6.32129 11.6245 6.32129 11.606 6.32129C11.5874 6.3151 11.5719 6.31201 11.5596 6.31201C11.4668 6.31201 11.3957 6.33984 11.3462 6.39551C11.3029 6.44499 11.2658 6.46973 11.2349 6.46973C11.2225 6.46973 11.207 6.46973 11.1885 6.46973C11.1699 6.46354 11.1514 6.46045 11.1328 6.46045C11.1019 6.46045 11.0864 6.479 11.0864 6.51611C11.0864 6.54704 11.071 6.57178 11.04 6.59033C11.0153 6.62126 10.9813 6.63672 10.938 6.63672C10.8947 6.63053 10.8607 6.63981 10.8359 6.66455C10.805 6.69548 10.7741 6.74495 10.7432 6.81299C10.7184 6.87484 10.6782 6.93978 10.6226 7.00781C10.5731 7.06348 10.5112 7.11296 10.437 7.15625C10.369 7.19954 10.3164 7.24284 10.2793 7.28613C10.2669 7.31087 10.2546 7.34798 10.2422 7.39746C10.236 7.44076 10.2267 7.47477 10.2144 7.49951C10.1649 7.5861 10.103 7.69124 10.0288 7.81494C9.96077 7.93245 9.88656 8.05615 9.80615 8.18604C9.72575 8.31592 9.64535 8.44271 9.56494 8.56641C9.49072 8.68392 9.42887 8.78906 9.37939 8.88184C9.32992 8.96842 9.2959 9.07048 9.27734 9.18799C9.25879 9.3055 9.24333 9.4292 9.23096 9.55908C9.22477 9.68278 9.21859 9.80339 9.2124 9.9209C9.20622 10.0322 9.19385 10.125 9.17529 10.1992C9.05778 10.6074 8.94645 11.0187 8.84131 11.4331C8.74235 11.8413 8.69287 12.2371 8.69287 12.6206C8.82275 12.6021 8.92171 12.5526 8.98975 12.4722C9.06396 12.3856 9.12272 12.2897 9.16602 12.1846C9.20931 12.0794 9.24951 11.9774 9.28662 11.8784C9.32373 11.7795 9.3763 11.7052 9.44434 11.6558C9.49382 11.6248 9.54329 11.5815 9.59277 11.5259C9.64844 11.4702 9.69482 11.4176 9.73193 11.3682C9.75049 11.3434 9.75977 11.3125 9.75977 11.2754C9.75977 11.2321 9.77214 11.195 9.79688 11.1641C9.83398 11.1208 9.87728 11.0744 9.92676 11.0249C9.98242 10.9754 10.0381 10.9259 10.0938 10.8765C10.1494 10.827 10.1989 10.7806 10.2422 10.7373C10.2917 10.6878 10.3288 10.6476 10.3535 10.6167C10.3783 10.5858 10.3906 10.5394 10.3906 10.4775C10.3968 10.4095 10.4061 10.36 10.4185 10.3291C10.4803 10.2116 10.5483 10.1064 10.6226 10.0137C10.6968 9.91471 10.7679 9.81266 10.8359 9.70752C10.9473 9.53434 11.04 9.36426 11.1143 9.19727C11.1947 9.03027 11.2627 8.86019 11.3184 8.68701C11.374 8.51383 11.4235 8.33757 11.4668 8.1582C11.5101 7.97266 11.5534 7.77474 11.5967 7.56445C11.6214 7.44076 11.6493 7.30778 11.6802 7.16553C11.7173 7.02327 11.7358 6.87793 11.7358 6.72949C11.7358 6.57487 11.7111 6.4388 11.6616 6.32129ZM17.4692 5.96875C17.4569 6.01823 17.4259 6.111 17.3765 6.24707C17.327 6.37695 17.2899 6.51302 17.2651 6.65527C17.228 6.86556 17.2126 7.07275 17.2188 7.27686C17.2249 7.48096 17.2188 7.6696 17.2002 7.84277C17.1693 8.0778 17.1229 8.30664 17.061 8.5293C17.0054 8.75195 16.959 8.98079 16.9219 9.21582C16.8848 9.43229 16.8538 9.5931 16.8291 9.69824C16.8105 9.80339 16.792 9.89616 16.7734 9.97656C16.7611 10.057 16.7518 10.1436 16.7456 10.2363C16.7394 10.3291 16.7363 10.4652 16.7363 10.6445C16.7363 10.7126 16.7363 10.7744 16.7363 10.8301C16.7425 10.8796 16.7456 10.929 16.7456 10.9785C16.7456 11.0651 16.7271 11.1486 16.6899 11.229C16.6528 11.3032 16.6343 11.3836 16.6343 11.4702C16.6343 11.5382 16.6405 11.6094 16.6528 11.6836C16.6652 11.7578 16.6714 11.832 16.6714 11.9062C16.6714 11.9743 16.6621 12.0269 16.6436 12.064C16.6312 12.1011 16.6126 12.1289 16.5879 12.1475C16.5693 12.166 16.5477 12.1815 16.5229 12.1938C16.5044 12.2 16.4858 12.2155 16.4673 12.2402C16.4425 12.2835 16.4147 12.3485 16.3838 12.4351C16.359 12.5155 16.3405 12.5649 16.3281 12.5835C16.2972 12.6206 16.2539 12.6453 16.1982 12.6577C16.1426 12.6701 16.0931 12.6917 16.0498 12.7227C15.957 12.7969 15.8519 12.902 15.7344 13.0381C15.623 13.168 15.5117 13.3009 15.4004 13.437C15.2952 13.5669 15.1963 13.6782 15.1035 13.771C15.0107 13.87 14.9396 13.9194 14.8901 13.9194C14.8592 13.9194 14.8345 13.9132 14.8159 13.9009C14.8035 13.8947 14.7974 13.87 14.7974 13.8267C14.7974 13.771 14.8128 13.7215 14.8438 13.6782C14.8747 13.6349 14.9087 13.5885 14.9458 13.5391C14.9891 13.4958 15.0293 13.4494 15.0664 13.3999C15.1097 13.3442 15.1406 13.2824 15.1592 13.2144V13.2051C15.1592 13.0814 15.1808 12.9824 15.2241 12.9082C15.2674 12.834 15.2891 12.7814 15.2891 12.7505C15.2891 12.7134 15.2767 12.6886 15.252 12.6763C15.2272 12.6639 15.2148 12.6423 15.2148 12.6113C15.2148 12.5866 15.221 12.5526 15.2334 12.5093C15.252 12.4598 15.2705 12.4072 15.2891 12.3516C15.3076 12.2959 15.3231 12.2402 15.3354 12.1846C15.354 12.1289 15.3633 12.0856 15.3633 12.0547C15.3633 11.9805 15.354 11.9186 15.3354 11.8691C15.3231 11.8135 15.3169 11.7547 15.3169 11.6929C15.3169 11.6063 15.3447 11.5259 15.4004 11.4517C15.4622 11.3774 15.4932 11.3156 15.4932 11.2661C15.487 11.2414 15.4839 11.2166 15.4839 11.1919C15.4839 11.1672 15.4839 11.1393 15.4839 11.1084C15.4839 10.9538 15.4993 10.8022 15.5303 10.6538C15.5674 10.5054 15.6076 10.3662 15.6509 10.2363C15.6942 10.1064 15.7313 9.98893 15.7622 9.88379C15.7993 9.77865 15.8179 9.69515 15.8179 9.6333C15.8179 9.60238 15.8148 9.58073 15.8086 9.56836V9.53125C15.8086 9.46322 15.7962 9.39518 15.7715 9.32715C15.7529 9.25911 15.7437 9.19108 15.7437 9.12305C15.7437 9.0612 15.7622 8.99316 15.7993 8.91895C15.8426 8.83854 15.8704 8.75505 15.8828 8.66846C15.9076 8.5262 15.9199 8.35921 15.9199 8.16748C15.9199 7.96956 15.9292 7.7902 15.9478 7.62939C15.9601 7.49951 15.988 7.37891 16.0312 7.26758C16.0745 7.15625 16.0962 7.09131 16.0962 7.07275C16.0653 7.01709 16.0282 6.96761 15.9849 6.92432C15.9416 6.87484 15.9045 6.8501 15.8735 6.8501C15.8241 6.8501 15.7777 6.86865 15.7344 6.90576C15.6911 6.94287 15.6478 6.98926 15.6045 7.04492C15.5674 7.0944 15.5303 7.15007 15.4932 7.21191C15.4561 7.26758 15.422 7.31396 15.3911 7.35107C15.3416 7.41292 15.2643 7.49333 15.1592 7.59229C15.0602 7.69124 14.9767 7.77474 14.9087 7.84277C14.8654 7.89225 14.8314 7.9541 14.8066 8.02832C14.7819 8.09635 14.7262 8.13037 14.6396 8.13037C14.6149 8.13037 14.5933 8.12728 14.5747 8.12109C14.5623 8.10872 14.5562 8.08089 14.5562 8.0376C14.5562 7.98193 14.5685 7.92936 14.5933 7.87988C14.6242 7.82422 14.6582 7.77165 14.6953 7.72217C14.7324 7.6665 14.7695 7.61702 14.8066 7.57373C14.8499 7.52425 14.884 7.47477 14.9087 7.42529C14.9582 7.32633 15.0386 7.20573 15.1499 7.06348C15.2612 6.91504 15.3911 6.75732 15.5396 6.59033C15.6942 6.42334 15.8643 6.25326 16.0498 6.08008C16.2415 5.90072 16.4395 5.72445 16.6436 5.55127C16.7054 5.50179 16.7487 5.46159 16.7734 5.43066C16.8044 5.39974 16.8291 5.37809 16.8477 5.36572C16.8662 5.34717 16.8848 5.33789 16.9033 5.33789C16.9219 5.33171 16.9528 5.32861 16.9961 5.32861C17.2002 5.32861 17.3363 5.36263 17.4043 5.43066C17.4723 5.49251 17.5063 5.58529 17.5063 5.70898C17.5063 5.74609 17.5033 5.7863 17.4971 5.82959C17.4909 5.87288 17.4816 5.91927 17.4692 5.96875ZM21.0039 6.09863C20.9977 6.13574 20.9792 6.1543 20.9482 6.1543H20.9204C20.8833 6.1543 20.8647 6.17285 20.8647 6.20996C20.8647 6.22852 20.8647 6.24707 20.8647 6.26562C20.8709 6.27799 20.874 6.29036 20.874 6.30273C20.874 6.33366 20.8462 6.39551 20.7905 6.48828C20.7349 6.58105 20.6545 6.69238 20.5493 6.82227C20.4504 6.94596 20.3267 7.07585 20.1782 7.21191C20.036 7.3418 19.8752 7.45622 19.6958 7.55518C19.5968 7.61084 19.4855 7.67578 19.3618 7.75C19.2381 7.81803 19.099 7.85205 18.9443 7.85205C18.932 7.85205 18.9165 7.85205 18.8979 7.85205C18.8856 7.84587 18.8732 7.84277 18.8608 7.84277C18.8547 7.84277 18.8268 7.83968 18.7773 7.8335C18.7279 7.82731 18.6722 7.82113 18.6104 7.81494C18.5547 7.80876 18.4959 7.80257 18.4341 7.79639C18.3722 7.7902 18.3289 7.78092 18.3042 7.76855C18.2485 7.75 18.1867 7.68815 18.1187 7.58301C18.0506 7.47168 17.9733 7.37272 17.8867 7.28613C17.8434 7.24284 17.797 7.20573 17.7476 7.1748C17.6981 7.1377 17.6517 7.10059 17.6084 7.06348C17.5713 7.02637 17.5373 6.98926 17.5063 6.95215C17.4816 6.90885 17.4692 6.86247 17.4692 6.81299C17.4878 6.81299 17.5373 6.76351 17.6177 6.66455C17.7043 6.55941 17.797 6.44808 17.896 6.33057C18.0011 6.20687 18.1001 6.09245 18.1929 5.9873C18.2856 5.88216 18.3475 5.82959 18.3784 5.82959C18.4032 5.82959 18.4248 5.81104 18.4434 5.77393C18.4681 5.73682 18.4897 5.69661 18.5083 5.65332C18.5269 5.60384 18.5485 5.55745 18.5732 5.51416C18.598 5.46468 18.6258 5.43066 18.6567 5.41211C18.7371 5.41829 18.7928 5.4585 18.8237 5.53271C18.8547 5.60693 18.8763 5.69661 18.8887 5.80176C18.901 5.9069 18.9103 6.02441 18.9165 6.1543C18.9289 6.27799 18.9536 6.39242 18.9907 6.49756C19.0278 6.6027 19.0897 6.69238 19.1763 6.7666C19.2629 6.83464 19.3896 6.86865 19.5566 6.86865C19.5938 6.86865 19.6278 6.86556 19.6587 6.85938C19.6958 6.85319 19.7329 6.84082 19.77 6.82227C19.8071 6.80371 19.8504 6.77588 19.8999 6.73877C19.9556 6.70166 20.0236 6.65218 20.104 6.59033C20.1782 6.53467 20.2432 6.46973 20.2988 6.39551C20.3607 6.3151 20.4194 6.23779 20.4751 6.16357C20.5369 6.08317 20.605 6.01204 20.6792 5.9502C20.7534 5.88835 20.84 5.84814 20.939 5.82959C20.9513 5.85433 20.9668 5.88525 20.9854 5.92236C21.0039 5.95329 21.0132 5.9904 21.0132 6.03369C21.0132 6.04606 21.0101 6.05843 21.0039 6.0708C21.0039 6.07699 21.0039 6.08626 21.0039 6.09863ZM26.2271 11.0991C26.2703 11.1424 26.292 11.1919 26.292 11.2476C26.292 11.3403 26.2642 11.4238 26.2085 11.498C26.1528 11.5661 26.0817 11.6341 25.9951 11.7021C25.9147 11.764 25.825 11.8289 25.7261 11.897C25.6333 11.965 25.5467 12.0454 25.4663 12.1382C25.3612 12.2619 25.2375 12.4041 25.0952 12.5649C24.9591 12.7196 24.8509 12.8773 24.7705 13.0381C24.7581 13.069 24.7179 13.1278 24.6499 13.2144C24.5881 13.3009 24.5107 13.3937 24.418 13.4927C24.3314 13.5916 24.2324 13.6782 24.1211 13.7524C24.016 13.8267 23.9139 13.8638 23.8149 13.8638C23.7469 13.8638 23.6789 13.8514 23.6108 13.8267C23.549 13.8081 23.4902 13.7803 23.4346 13.7432C23.3789 13.7122 23.3325 13.6751 23.2954 13.6318C23.2645 13.5947 23.249 13.5576 23.249 13.5205C23.249 13.4648 23.2707 13.4092 23.314 13.3535C23.3634 13.2979 23.3882 13.2113 23.3882 13.0938C23.3882 13.0628 23.382 13.0412 23.3696 13.0288C23.3634 13.0164 23.3542 13.001 23.3418 12.9824C23.3356 12.9639 23.3294 12.9391 23.3232 12.9082C23.3171 12.8773 23.314 12.8278 23.314 12.7598C23.314 12.6917 23.3232 12.6206 23.3418 12.5464C23.3665 12.466 23.3913 12.3856 23.416 12.3052C23.4469 12.2186 23.4717 12.1351 23.4902 12.0547C23.515 11.9681 23.5273 11.8846 23.5273 11.8042C23.5273 11.7856 23.5243 11.7671 23.5181 11.7485C23.5181 11.7238 23.5181 11.7021 23.5181 11.6836C23.5181 11.6465 23.5273 11.5908 23.5459 11.5166C23.5645 11.4424 23.5861 11.362 23.6108 11.2754C23.6356 11.1888 23.6572 11.096 23.6758 10.9971C23.6943 10.8919 23.7036 10.793 23.7036 10.7002C23.7036 10.5827 23.6912 10.4837 23.6665 10.4033C23.5985 10.4281 23.5397 10.4652 23.4902 10.5146C23.4408 10.5579 23.3944 10.6105 23.3511 10.6724C23.314 10.728 23.2738 10.7899 23.2305 10.8579C23.1934 10.9198 23.1532 10.9785 23.1099 11.0342C23.0851 11.0651 23.0418 11.1053 22.98 11.1548C22.9181 11.2043 22.8532 11.2568 22.7852 11.3125C22.7233 11.3682 22.6676 11.4238 22.6182 11.4795C22.5687 11.529 22.5439 11.5692 22.5439 11.6001C22.5439 11.6125 22.547 11.6279 22.5532 11.6465C22.5594 11.665 22.5625 11.6805 22.5625 11.6929C22.5625 11.7114 22.547 11.7393 22.5161 11.7764C22.4852 11.8135 22.4512 11.8537 22.4141 11.897C22.3831 11.9341 22.3522 11.9712 22.3213 12.0083C22.2904 12.0392 22.2749 12.0609 22.2749 12.0732C22.2687 12.1413 22.2161 12.2062 22.1172 12.2681C22.0182 12.3237 21.9316 12.3949 21.8574 12.4814C21.8018 12.5433 21.7554 12.6082 21.7183 12.6763C21.6812 12.7443 21.6471 12.8062 21.6162 12.8618C21.5853 12.9175 21.5544 12.9639 21.5234 13.001C21.4925 13.0319 21.4554 13.0474 21.4121 13.0474C21.3997 13.0474 21.3781 13.0443 21.3472 13.0381C21.3224 13.0319 21.3008 13.0288 21.2822 13.0288C21.2389 13.0288 21.2111 13.0566 21.1987 13.1123C21.1925 13.168 21.1833 13.2113 21.1709 13.2422C21.1214 13.3226 21.0627 13.3844 20.9946 13.4277C20.9328 13.4648 20.8524 13.5205 20.7534 13.5947C20.7101 13.6257 20.6792 13.6597 20.6606 13.6968C20.6483 13.7401 20.6297 13.7772 20.605 13.8081C20.5802 13.839 20.54 13.8638 20.4844 13.8823C20.4349 13.9071 20.3545 13.9194 20.2432 13.9194C20.1813 13.9194 20.1226 13.9132 20.0669 13.9009C20.0112 13.8885 19.9834 13.87 19.9834 13.8452C19.9834 13.8328 19.9865 13.8174 19.9927 13.7988C19.9989 13.7803 20.002 13.7648 20.002 13.7524C20.002 13.7463 19.9896 13.7339 19.9648 13.7153C19.9401 13.6968 19.9092 13.6689 19.8721 13.6318C19.8411 13.6009 19.8133 13.5576 19.7886 13.502C19.7638 13.4401 19.7515 13.3659 19.7515 13.2793C19.7515 13.1803 19.7607 13.0783 19.7793 12.9731C19.804 12.8618 19.8288 12.7536 19.8535 12.6484C19.8844 12.5433 19.9123 12.4443 19.937 12.3516C19.9618 12.2526 19.9803 12.1598 19.9927 12.0732C20.0174 11.8691 20.0298 11.6619 20.0298 11.4517C20.0298 11.2414 20.0638 11.0527 20.1318 10.8857C20.1628 10.8239 20.1968 10.7404 20.2339 10.6353C20.271 10.5301 20.305 10.4064 20.3359 10.2642C20.3421 10.2271 20.3514 10.1745 20.3638 10.1064C20.3761 10.0322 20.3916 9.95182 20.4102 9.86523C20.4287 9.77865 20.4473 9.69206 20.4658 9.60547C20.4906 9.5127 20.5184 9.43229 20.5493 9.36426C20.5617 9.3457 20.5833 9.32406 20.6143 9.29932C20.6514 9.26839 20.6761 9.24365 20.6885 9.2251C20.7008 9.18799 20.707 9.14779 20.707 9.10449C20.7132 9.05501 20.7287 9.00553 20.7534 8.95605C20.7658 8.93132 20.7905 8.90658 20.8276 8.88184C20.8647 8.85091 20.8864 8.82617 20.8926 8.80762C20.9235 8.75195 20.9451 8.68392 20.9575 8.60352C20.9699 8.52311 20.9946 8.45508 21.0317 8.39941C21.0565 8.3623 21.0998 8.33138 21.1616 8.30664C21.2235 8.27572 21.2729 8.23551 21.3101 8.18604C21.341 8.14274 21.3626 8.09635 21.375 8.04688C21.3936 7.9974 21.4152 7.9541 21.4399 7.91699C21.508 7.84277 21.5636 7.77783 21.6069 7.72217C21.6564 7.66032 21.6997 7.60465 21.7368 7.55518C21.7801 7.5057 21.8203 7.45931 21.8574 7.41602C21.8945 7.37272 21.9409 7.32943 21.9966 7.28613C22.0337 7.26139 22.077 7.21501 22.1265 7.14697C22.1821 7.07894 22.2316 7.03255 22.2749 7.00781C22.3244 6.98926 22.3677 6.9738 22.4048 6.96143C22.4481 6.94906 22.4976 6.92122 22.5532 6.87793C22.5656 6.86556 22.578 6.84082 22.5903 6.80371C22.6027 6.76042 22.6151 6.73568 22.6274 6.72949C22.6707 6.71094 22.7109 6.69548 22.748 6.68311C22.7913 6.67074 22.8408 6.63981 22.8965 6.59033C22.9645 6.52848 23.0171 6.46663 23.0542 6.40479C23.0913 6.34294 23.1346 6.29036 23.1841 6.24707C23.2336 6.20996 23.2892 6.18522 23.3511 6.17285C23.4129 6.16048 23.4686 6.13883 23.5181 6.10791C23.6108 6.05843 23.7036 5.99349 23.7964 5.91309C23.8953 5.8265 23.9974 5.743 24.1025 5.6626C24.2077 5.57601 24.3159 5.50488 24.4272 5.44922C24.5448 5.38737 24.6654 5.35645 24.7891 5.35645C24.8695 5.35645 24.9499 5.35026 25.0303 5.33789C25.1169 5.31934 25.1973 5.31006 25.2715 5.31006C25.3395 5.31006 25.4014 5.32243 25.457 5.34717C25.5127 5.37191 25.5405 5.42448 25.5405 5.50488C25.5405 5.73991 25.5127 6.00277 25.457 6.29346C25.4014 6.58415 25.3395 6.89648 25.2715 7.23047C25.2096 7.56445 25.1509 7.91699 25.0952 8.28809C25.0457 8.65918 25.021 9.04264 25.021 9.43848C25.021 9.45085 25.0241 9.4694 25.0303 9.49414C25.0426 9.51888 25.0488 9.55599 25.0488 9.60547C25.0488 9.64258 25.0396 9.68896 25.021 9.74463C25.0086 9.79411 24.9932 9.84668 24.9746 9.90234C24.9561 9.95182 24.9375 10.0013 24.9189 10.0508C24.9066 10.1003 24.9004 10.1436 24.9004 10.1807C24.9004 10.2425 24.9004 10.3044 24.9004 10.3662C24.9066 10.4281 24.9097 10.4837 24.9097 10.5332C24.9097 10.6383 24.8973 10.7559 24.8726 10.8857C24.8478 11.0156 24.8169 11.1517 24.7798 11.2939C24.7489 11.43 24.721 11.5661 24.6963 11.7021C24.6715 11.8382 24.6592 11.965 24.6592 12.0825C24.6592 12.1444 24.6623 12.2031 24.6685 12.2588C24.6746 12.3083 24.687 12.3577 24.7056 12.4072C24.786 12.3701 24.8509 12.3237 24.9004 12.2681C24.9561 12.2124 25.0055 12.1506 25.0488 12.0825C25.0983 12.0083 25.1478 11.931 25.1973 11.8506C25.2467 11.764 25.3117 11.6743 25.3921 11.5815C25.423 11.5444 25.4663 11.495 25.522 11.4331C25.5776 11.3713 25.6364 11.3125 25.6982 11.2568C25.7601 11.2012 25.825 11.1517 25.8931 11.1084C25.9611 11.0651 26.026 11.0435 26.0879 11.0435C26.1312 11.0435 26.1776 11.062 26.2271 11.0991ZM24.0747 6.32129C24.0562 6.32129 24.0376 6.32129 24.019 6.32129C24.0005 6.3151 23.985 6.31201 23.9727 6.31201C23.8799 6.31201 23.8088 6.33984 23.7593 6.39551C23.716 6.44499 23.6789 6.46973 23.6479 6.46973C23.6356 6.46973 23.6201 6.46973 23.6016 6.46973C23.583 6.46354 23.5645 6.46045 23.5459 6.46045C23.515 6.46045 23.4995 6.479 23.4995 6.51611C23.4995 6.54704 23.484 6.57178 23.4531 6.59033C23.4284 6.62126 23.3944 6.63672 23.3511 6.63672C23.3078 6.63053 23.2738 6.63981 23.249 6.66455C23.2181 6.69548 23.1872 6.74495 23.1562 6.81299C23.1315 6.87484 23.0913 6.93978 23.0356 7.00781C22.9862 7.06348 22.9243 7.11296 22.8501 7.15625C22.7821 7.19954 22.7295 7.24284 22.6924 7.28613C22.68 7.31087 22.6676 7.34798 22.6553 7.39746C22.6491 7.44076 22.6398 7.47477 22.6274 7.49951C22.578 7.5861 22.5161 7.69124 22.4419 7.81494C22.3739 7.93245 22.2996 8.05615 22.2192 8.18604C22.1388 8.31592 22.0584 8.44271 21.978 8.56641C21.9038 8.68392 21.842 8.78906 21.7925 8.88184C21.743 8.96842 21.709 9.07048 21.6904 9.18799C21.6719 9.3055 21.6564 9.4292 21.644 9.55908C21.6379 9.68278 21.6317 9.80339 21.6255 9.9209C21.6193 10.0322 21.6069 10.125 21.5884 10.1992C21.4709 10.6074 21.3595 11.0187 21.2544 11.4331C21.1554 11.8413 21.106 12.2371 21.106 12.6206C21.2358 12.6021 21.3348 12.5526 21.4028 12.4722C21.4771 12.3856 21.5358 12.2897 21.5791 12.1846C21.6224 12.0794 21.6626 11.9774 21.6997 11.8784C21.7368 11.7795 21.7894 11.7052 21.8574 11.6558C21.9069 11.6248 21.9564 11.5815 22.0059 11.5259C22.0615 11.4702 22.1079 11.4176 22.145 11.3682C22.1636 11.3434 22.1729 11.3125 22.1729 11.2754C22.1729 11.2321 22.1852 11.195 22.21 11.1641C22.2471 11.1208 22.2904 11.0744 22.3398 11.0249C22.3955 10.9754 22.4512 10.9259 22.5068 10.8765C22.5625 10.827 22.612 10.7806 22.6553 10.7373C22.7048 10.6878 22.7419 10.6476 22.7666 10.6167C22.7913 10.5858 22.8037 10.5394 22.8037 10.4775C22.8099 10.4095 22.8192 10.36 22.8315 10.3291C22.8934 10.2116 22.9614 10.1064 23.0356 10.0137C23.1099 9.91471 23.181 9.81266 23.249 9.70752C23.3604 9.53434 23.4531 9.36426 23.5273 9.19727C23.6077 9.03027 23.6758 8.86019 23.7314 8.68701C23.7871 8.51383 23.8366 8.33757 23.8799 8.1582C23.9232 7.97266 23.9665 7.77474 24.0098 7.56445C24.0345 7.44076 24.0623 7.30778 24.0933 7.16553C24.1304 7.02327 24.1489 6.87793 24.1489 6.72949C24.1489 6.57487 24.1242 6.4388 24.0747 6.32129ZM33.8623 10.96C33.9118 10.9909 33.9365 11.0342 33.9365 11.0898C33.9365 11.1331 33.9211 11.1795 33.8901 11.229C33.8654 11.2723 33.8345 11.3156 33.7974 11.3589C33.7603 11.4022 33.7262 11.4393 33.6953 11.4702C33.6644 11.495 33.6489 11.5104 33.6489 11.5166C33.6056 11.5599 33.5716 11.6001 33.5469 11.6372C33.5283 11.6681 33.4943 11.7176 33.4448 11.7856C33.4015 11.8537 33.3613 11.9093 33.3242 11.9526C33.2871 11.9959 33.2469 12.0392 33.2036 12.0825C33.1665 12.1258 33.1263 12.1722 33.083 12.2217C33.0397 12.2712 32.9964 12.333 32.9531 12.4072L32.6748 12.7598C32.6562 12.7907 32.6284 12.8247 32.5913 12.8618C32.5604 12.8927 32.5418 12.9268 32.5356 12.9639C32.5356 12.9948 32.5171 13.0226 32.48 13.0474C32.4429 13.0659 32.4027 13.0876 32.3594 13.1123C32.3161 13.1309 32.2759 13.1525 32.2388 13.1772C32.2017 13.202 32.1831 13.2298 32.1831 13.2607C32.1831 13.2731 32.1862 13.2917 32.1924 13.3164C32.1986 13.335 32.2017 13.3504 32.2017 13.3628C32.2017 13.3813 32.1893 13.3906 32.1646 13.3906C32.1522 13.3906 32.1367 13.3906 32.1182 13.3906C32.0996 13.3844 32.0841 13.3813 32.0718 13.3813C32.047 13.3813 32.0285 13.403 32.0161 13.4463C32.0099 13.4896 32.0007 13.5143 31.9883 13.5205C31.9512 13.5452 31.8831 13.5731 31.7842 13.604C31.6852 13.6349 31.5832 13.6659 31.478 13.6968C31.3791 13.7277 31.2863 13.7524 31.1997 13.771C31.1193 13.7957 31.0729 13.8081 31.0605 13.8081C31.042 13.8081 31.0265 13.805 31.0142 13.7988C31.0142 13.7926 30.9894 13.771 30.9399 13.7339C30.8905 13.6968 30.8379 13.6504 30.7822 13.5947C30.7266 13.5452 30.674 13.4896 30.6245 13.4277C30.575 13.3659 30.5503 13.304 30.5503 13.2422C30.5503 13.1927 30.5534 13.137 30.5596 13.0752C30.5719 13.0133 30.5843 12.9299 30.5967 12.8247C30.609 12.8247 30.6214 12.8216 30.6338 12.8154C30.6585 12.8031 30.6709 12.7845 30.6709 12.7598C30.6709 12.7288 30.6585 12.6948 30.6338 12.6577C30.609 12.6206 30.5967 12.5742 30.5967 12.5186C30.5967 12.4258 30.6183 12.3454 30.6616 12.2773C30.7049 12.2093 30.7327 12.1413 30.7451 12.0732C30.7637 11.8691 30.7699 11.6527 30.7637 11.4238C30.7637 11.195 30.7791 10.9692 30.8101 10.7466C30.8224 10.6414 30.8472 10.5363 30.8843 10.4312C30.9214 10.3198 30.943 10.2178 30.9492 10.125C30.9492 10.0941 30.9461 10.0601 30.9399 10.0229C30.9399 9.98584 30.9399 9.95182 30.9399 9.9209C30.9399 9.84049 30.9523 9.78792 30.9771 9.76318C31.0018 9.73226 31.0142 9.69206 31.0142 9.64258C31.0142 9.58073 31.0018 9.51888 30.9771 9.45703C30.9585 9.39518 30.9492 9.33333 30.9492 9.27148C30.9492 9.11686 30.9647 8.96842 30.9956 8.82617C31.0265 8.68392 31.0605 8.54167 31.0977 8.39941C31.1348 8.25098 31.1688 8.10254 31.1997 7.9541C31.2306 7.79948 31.2461 7.63867 31.2461 7.47168C31.2461 7.4222 31.2461 7.36963 31.2461 7.31396C31.2461 7.2583 31.2399 7.20264 31.2275 7.14697C31.0605 7.15934 30.9152 7.22738 30.7915 7.35107C30.674 7.47477 30.5627 7.59229 30.4575 7.70361C30.3771 7.7902 30.2967 7.87679 30.2163 7.96338C30.1421 8.04378 30.0617 8.13965 29.9751 8.25098C29.9132 8.33138 29.8576 8.43343 29.8081 8.55713C29.7586 8.68083 29.6999 8.8138 29.6318 8.95605C29.6318 8.95605 29.6195 8.96842 29.5947 8.99316C29.57 9.0179 29.5422 9.04574 29.5112 9.07666C29.4803 9.10758 29.4494 9.14469 29.4185 9.18799C29.3937 9.2251 29.3721 9.25911 29.3535 9.29004C29.304 9.389 29.2607 9.5127 29.2236 9.66113C29.1865 9.80957 29.1123 9.98893 29.001 10.1992C28.9762 10.2487 28.9546 10.2858 28.936 10.3105C28.9237 10.3291 28.9113 10.3662 28.8989 10.4219C28.8866 10.4714 28.8711 10.5518 28.8525 10.6631C28.8402 10.7744 28.8216 10.9414 28.7969 11.1641C28.7845 11.2383 28.7629 11.3063 28.7319 11.3682C28.701 11.4238 28.6794 11.495 28.667 11.5815C28.6484 11.7052 28.6392 11.8413 28.6392 11.9897C28.6392 12.132 28.6237 12.2712 28.5928 12.4072C28.5804 12.4382 28.5557 12.466 28.5186 12.4907C28.4876 12.5155 28.466 12.5371 28.4536 12.5557C28.4103 12.6237 28.3856 12.6948 28.3794 12.769C28.3794 12.8433 28.3577 12.9082 28.3145 12.9639C28.3021 12.9824 28.2773 12.9979 28.2402 13.0103C28.2031 13.0164 28.1815 13.0257 28.1753 13.0381C28.1258 13.1309 28.0887 13.2174 28.064 13.2979C28.0392 13.3721 28.0145 13.437 27.9897 13.4927C27.9712 13.5483 27.9434 13.5916 27.9062 13.6226C27.8753 13.6535 27.8228 13.6689 27.7485 13.6689C27.6929 13.6689 27.6279 13.6597 27.5537 13.6411C27.4857 13.6226 27.4176 13.5978 27.3496 13.5669C27.2878 13.536 27.2352 13.502 27.1919 13.4648C27.1486 13.4215 27.127 13.3783 27.127 13.335C27.127 13.2793 27.1517 13.2144 27.2012 13.1401C27.2507 13.0659 27.2754 12.9422 27.2754 12.769C27.2754 12.6577 27.2661 12.568 27.2476 12.5C27.2352 12.4258 27.229 12.3485 27.229 12.2681C27.229 12.2062 27.2383 12.1475 27.2568 12.0918C27.2816 12.0299 27.3032 11.9743 27.3218 11.9248C27.3465 11.8691 27.3682 11.8166 27.3867 11.7671C27.4115 11.7114 27.4238 11.6589 27.4238 11.6094C27.4238 11.5599 27.4207 11.5135 27.4146 11.4702C27.4084 11.4269 27.4053 11.3805 27.4053 11.3311C27.4053 11.2321 27.4238 11.1362 27.4609 11.0435C27.498 10.9507 27.529 10.8517 27.5537 10.7466C27.5723 10.6662 27.5846 10.5765 27.5908 10.4775C27.6032 10.3786 27.6156 10.2858 27.6279 10.1992C27.696 9.77865 27.7733 9.35498 27.8599 8.92822C27.9526 8.49528 28.0361 8.04069 28.1104 7.56445C28.1104 7.55208 28.1196 7.53044 28.1382 7.49951C28.1629 7.46859 28.1753 7.43457 28.1753 7.39746C28.1753 7.36654 28.1722 7.32943 28.166 7.28613C28.166 7.24284 28.166 7.19645 28.166 7.14697C28.166 7.04183 28.1908 6.94596 28.2402 6.85938C28.2897 6.7666 28.3145 6.66146 28.3145 6.54395C28.3145 6.45736 28.3052 6.38005 28.2866 6.31201C28.2681 6.23779 28.2588 6.16048 28.2588 6.08008C28.2588 6.01823 28.2681 5.96566 28.2866 5.92236C28.3114 5.87907 28.3361 5.84196 28.3608 5.81104C28.3856 5.78011 28.4072 5.75228 28.4258 5.72754C28.4505 5.69661 28.4629 5.66569 28.4629 5.63477C28.4629 5.58529 28.4474 5.54818 28.4165 5.52344C28.3918 5.4987 28.3794 5.46777 28.3794 5.43066C28.4041 5.43066 28.4227 5.41211 28.4351 5.375L28.4536 5.31934V5.23584C28.4536 5.17399 28.4691 5.11833 28.5 5.06885C28.5371 5.01318 28.568 4.94515 28.5928 4.86475C28.6237 4.76579 28.6392 4.67301 28.6392 4.58643C28.6392 4.49984 28.6484 4.38542 28.667 4.24316C28.6794 4.16276 28.7041 4.08236 28.7412 4.00195C28.7845 3.91536 28.8062 3.80094 28.8062 3.65869C28.8062 3.59066 28.8 3.52881 28.7876 3.47314C28.7814 3.4113 28.7783 3.34945 28.7783 3.2876C28.7783 3.23193 28.7845 3.18555 28.7969 3.14844C28.8154 3.11133 28.834 3.0804 28.8525 3.05566C28.8773 3.02474 28.8958 2.99691 28.9082 2.97217C28.9268 2.94743 28.936 2.9165 28.936 2.87939C28.936 2.82992 28.9237 2.78353 28.8989 2.74023C28.8804 2.69694 28.8711 2.65055 28.8711 2.60107C28.8711 2.53304 28.8835 2.44954 28.9082 2.35059C28.9329 2.25163 28.9608 2.15267 28.9917 2.05371C29.0288 1.95475 29.0597 1.86816 29.0845 1.79395C29.1092 1.71354 29.1216 1.66097 29.1216 1.63623C29.1216 1.58057 29.0968 1.54346 29.0474 1.5249C28.9979 1.50016 28.9577 1.48779 28.9268 1.48779C28.8587 1.48779 28.7969 1.51253 28.7412 1.56201C28.6855 1.60531 28.6299 1.66097 28.5742 1.729C28.5247 1.79085 28.4784 1.85579 28.4351 1.92383C28.3918 1.99186 28.3516 2.04753 28.3145 2.09082C28.2835 2.12174 28.2464 2.14648 28.2031 2.16504C28.1598 2.17741 28.1289 2.19906 28.1104 2.22998C28.0856 2.2609 28.0578 2.30111 28.0269 2.35059C28.0021 2.39388 27.9712 2.44027 27.9341 2.48975C27.9032 2.53304 27.8691 2.57015 27.832 2.60107C27.8011 2.632 27.7671 2.64746 27.73 2.64746C27.6929 2.64746 27.6434 2.61654 27.5815 2.55469C27.5259 2.49284 27.498 2.4279 27.498 2.35986C27.498 2.32894 27.5073 2.3042 27.5259 2.28564C27.5506 2.26709 27.5754 2.24854 27.6001 2.22998C27.631 2.21143 27.6619 2.18669 27.6929 2.15576C27.7238 2.11865 27.7454 2.07227 27.7578 2.0166C27.7764 1.9362 27.8197 1.86198 27.8877 1.79395C27.9557 1.72591 28.0392 1.65169 28.1382 1.57129C28.2433 1.49089 28.3639 1.39502 28.5 1.28369C28.6361 1.16618 28.7814 1.02083 28.936 0.847656C28.9855 0.791992 29.0443 0.745605 29.1123 0.708496C29.1803 0.671387 29.2391 0.625 29.2886 0.569336C29.3133 0.544596 29.3257 0.510579 29.3257 0.467285C29.3257 0.423991 29.335 0.386882 29.3535 0.355957C29.3721 0.337402 29.4092 0.30957 29.4648 0.272461C29.5205 0.229167 29.5824 0.188965 29.6504 0.151855C29.7184 0.108561 29.7834 0.0745443 29.8452 0.0498047C29.9071 0.0188802 29.9504 0.00341797 29.9751 0.00341797C30.1854 0.00341797 30.3153 0.0436198 30.3647 0.124023C30.4204 0.198242 30.4482 0.294108 30.4482 0.411621C30.4482 0.516764 30.4328 0.63737 30.4019 0.773438C30.3771 0.90332 30.3462 1.04248 30.3091 1.19092C30.2782 1.33317 30.2472 1.47852 30.2163 1.62695C30.1916 1.77539 30.1792 1.91455 30.1792 2.04443C30.1792 2.10628 30.1823 2.16195 30.1885 2.21143C30.1947 2.25472 30.1978 2.30111 30.1978 2.35059C30.1978 2.4681 30.1668 2.57015 30.105 2.65674C30.0431 2.73714 29.9998 2.82682 29.9751 2.92578C29.9442 3.05566 29.9225 3.17936 29.9102 3.29688C29.8978 3.41439 29.8854 3.53499 29.873 3.65869C29.8669 3.7762 29.8576 3.8999 29.8452 4.02979C29.8328 4.15967 29.8081 4.29883 29.771 4.44727C29.7524 4.52767 29.7215 4.61735 29.6782 4.71631C29.6349 4.80908 29.6133 4.92041 29.6133 5.05029C29.6133 5.09359 29.6164 5.13688 29.6226 5.18018C29.6349 5.22347 29.6411 5.27295 29.6411 5.32861C29.6411 5.42139 29.6318 5.53271 29.6133 5.6626C29.6009 5.79248 29.5824 5.92855 29.5576 6.0708C29.5391 6.20687 29.5174 6.34603 29.4927 6.48828C29.4679 6.62435 29.4432 6.75423 29.4185 6.87793C29.4123 6.89648 29.3999 6.94287 29.3813 7.01709C29.3628 7.08512 29.3411 7.16553 29.3164 7.2583C29.2979 7.35107 29.2793 7.45003 29.2607 7.55518C29.2484 7.65413 29.2422 7.74382 29.2422 7.82422C29.2422 7.91081 29.2515 7.97884 29.27 8.02832C29.2948 8.0778 29.3288 8.10254 29.3721 8.10254C29.4154 8.10254 29.4618 8.07471 29.5112 8.01904C29.5607 7.96338 29.6102 7.90153 29.6597 7.8335C29.7091 7.76546 29.7555 7.70361 29.7988 7.64795C29.8483 7.59229 29.8916 7.56445 29.9287 7.56445C29.9411 7.56445 29.9565 7.56755 29.9751 7.57373C29.9937 7.57373 30.0091 7.57373 30.0215 7.57373C30.04 7.57373 30.0493 7.56136 30.0493 7.53662C30.0493 7.52425 30.0462 7.50879 30.04 7.49023C30.0339 7.47168 30.0308 7.45622 30.0308 7.44385C30.0308 7.43148 30.0524 7.40983 30.0957 7.37891C30.139 7.3418 30.1699 7.31087 30.1885 7.28613C30.2318 7.21191 30.2782 7.12533 30.3276 7.02637C30.3771 6.92741 30.4451 6.87793 30.5317 6.87793C30.5441 6.87793 30.6029 6.82536 30.708 6.72021C30.8132 6.60889 30.9399 6.48828 31.0884 6.3584C31.243 6.22852 31.4069 6.111 31.5801 6.00586C31.7594 5.89453 31.9295 5.83887 32.0903 5.83887C32.3068 5.83887 32.4645 5.87598 32.5635 5.9502C32.6686 6.01823 32.7212 6.14502 32.7212 6.33057C32.7212 6.47282 32.7119 6.60889 32.6934 6.73877C32.6748 6.86865 32.6532 6.98307 32.6284 7.08203C32.6099 7.1748 32.5882 7.25212 32.5635 7.31396C32.5449 7.37581 32.5356 7.41292 32.5356 7.42529C32.5233 7.7098 32.4831 8.01286 32.415 8.33447C32.347 8.65609 32.2975 8.97461 32.2666 9.29004C32.2419 9.5127 32.2171 9.73226 32.1924 9.94873C32.1738 10.1652 32.1491 10.3879 32.1182 10.6167C32.0872 10.8146 32.0439 11.0218 31.9883 11.2383C31.9388 11.4548 31.9141 11.6589 31.9141 11.8506C31.9141 11.9557 31.9202 12.0609 31.9326 12.166C31.945 12.265 31.9512 12.367 31.9512 12.4722C31.9512 12.5835 31.9388 12.6794 31.9141 12.7598C31.9388 12.7783 31.9697 12.7876 32.0068 12.7876C32.0501 12.7876 32.0903 12.769 32.1274 12.7319C32.1646 12.6948 32.1986 12.6546 32.2295 12.6113C32.2666 12.5618 32.3037 12.5186 32.3408 12.4814C32.3779 12.4382 32.4212 12.4134 32.4707 12.4072C32.4707 12.4072 32.4924 12.3856 32.5356 12.3423C32.5851 12.299 32.6377 12.2495 32.6934 12.1938C32.749 12.1382 32.8016 12.0856 32.8511 12.0361C32.9067 11.9805 32.9408 11.9434 32.9531 11.9248C32.9779 11.9001 32.9871 11.8691 32.981 11.832C32.981 11.7887 32.9964 11.7516 33.0273 11.7207C33.0397 11.7021 33.0614 11.6898 33.0923 11.6836C33.1232 11.6774 33.1449 11.6681 33.1572 11.6558C33.1758 11.6248 33.1882 11.5908 33.1943 11.5537C33.2005 11.5104 33.2129 11.4733 33.2314 11.4424C33.2438 11.4238 33.2655 11.4115 33.2964 11.4053C33.3335 11.3991 33.3582 11.3867 33.3706 11.3682C33.3768 11.362 33.3861 11.3341 33.3984 11.2847C33.417 11.2352 33.4386 11.1857 33.4634 11.1362C33.4943 11.0806 33.5283 11.0311 33.5654 10.9878C33.6087 10.9445 33.6613 10.9229 33.7231 10.9229C33.7664 10.9229 33.8128 10.9352 33.8623 10.96ZM42.75 3.16699C42.75 3.28451 42.7067 3.35872 42.6201 3.38965C42.5397 3.42057 42.4438 3.43913 42.3325 3.44531C42.2212 3.44531 42.1068 3.44531 41.9893 3.44531C41.8717 3.43913 41.779 3.46077 41.7109 3.51025C41.6367 3.56592 41.5841 3.67415 41.5532 3.83496C41.5223 3.98958 41.4821 4.18441 41.4326 4.41943C41.4017 4.5555 41.3584 4.71012 41.3027 4.8833C41.2471 5.05648 41.2192 5.20801 41.2192 5.33789C41.2192 5.40592 41.2316 5.46468 41.2563 5.51416C41.2811 5.55745 41.2935 5.60693 41.2935 5.6626C41.2935 5.65641 41.2811 5.67497 41.2563 5.71826C41.2378 5.75537 41.2254 5.7832 41.2192 5.80176C41.2192 5.8265 41.2192 5.85124 41.2192 5.87598C41.2254 5.89453 41.2285 5.91618 41.2285 5.94092C41.2285 6.00277 41.2192 6.07699 41.2007 6.16357C41.1821 6.24398 41.1605 6.32747 41.1357 6.41406C41.111 6.49447 41.0863 6.57487 41.0615 6.65527C41.0368 6.72949 41.0213 6.79134 41.0151 6.84082C41.009 6.87174 41.0059 6.89958 41.0059 6.92432C41.0059 6.94906 41.0059 6.97689 41.0059 7.00781C41.0059 7.07585 41.0059 7.14388 41.0059 7.21191C41.012 7.27376 41.0151 7.3387 41.0151 7.40674C41.0151 7.61702 40.9997 7.8335 40.9688 8.05615C40.944 8.27262 40.9162 8.4891 40.8853 8.70557C40.8543 8.91585 40.8079 9.12923 40.7461 9.3457C40.6904 9.55599 40.6626 9.757 40.6626 9.94873C40.6626 10.0229 40.6657 10.0972 40.6719 10.1714C40.6781 10.2456 40.6812 10.3198 40.6812 10.394C40.6812 10.4806 40.6719 10.5579 40.6533 10.626C40.641 10.694 40.6224 10.759 40.5977 10.8208C40.5791 10.8826 40.5605 10.9476 40.542 11.0156C40.5296 11.0837 40.5234 11.1579 40.5234 11.2383C40.5234 11.2878 40.5234 11.3372 40.5234 11.3867C40.5296 11.43 40.5327 11.4764 40.5327 11.5259C40.5327 11.6558 40.5049 11.7949 40.4492 11.9434C40.3997 12.0918 40.3595 12.2371 40.3286 12.3794C40.2977 12.5093 40.276 12.6515 40.2637 12.8062C40.2513 12.9546 40.2235 13.0907 40.1802 13.2144C40.1678 13.2515 40.1369 13.2948 40.0874 13.3442C40.0441 13.3875 40.007 13.4339 39.9761 13.4834C39.9328 13.57 39.8988 13.6566 39.874 13.7432C39.8555 13.8298 39.8215 13.9071 39.772 13.9751C39.7596 13.9875 39.7349 13.9967 39.6978 14.0029C39.6668 14.0091 39.6452 14.0215 39.6328 14.04C39.6019 14.0833 39.5771 14.1328 39.5586 14.1885C39.5462 14.2441 39.5246 14.2874 39.4937 14.3184C39.2215 14.6647 38.9401 14.9956 38.6494 15.311C38.3649 15.6326 38.0216 15.9512 37.6196 16.2666C37.5578 16.3161 37.499 16.3532 37.4434 16.3779C37.3939 16.4027 37.3382 16.4336 37.2764 16.4707C37.2269 16.5016 37.165 16.5418 37.0908 16.5913C37.0228 16.6408 36.9455 16.6872 36.8589 16.7305C36.7723 16.7738 36.6826 16.8109 36.5898 16.8418C36.4971 16.8727 36.4012 16.8882 36.3022 16.8882C36.2528 16.8882 36.228 16.8696 36.228 16.8325C36.228 16.7397 36.259 16.6624 36.3208 16.6006C36.3826 16.5449 36.46 16.4924 36.5527 16.4429C36.6393 16.3996 36.729 16.3594 36.8218 16.3223C36.9146 16.2852 36.995 16.2419 37.063 16.1924C37.1929 16.0934 37.3475 15.9543 37.5269 15.7749C37.7124 15.5955 37.8825 15.4131 38.0371 15.2275C38.0618 15.1966 38.0742 15.1595 38.0742 15.1162C38.0742 15.0791 38.0835 15.0451 38.1021 15.0142C38.1206 14.9956 38.1453 14.9801 38.1763 14.9678C38.2134 14.9616 38.2381 14.9523 38.2505 14.9399C38.2814 14.8905 38.3031 14.8348 38.3154 14.7729C38.334 14.7111 38.3587 14.6523 38.3896 14.5967C38.402 14.5596 38.4268 14.5286 38.4639 14.5039C38.5072 14.4854 38.5288 14.4544 38.5288 14.4111C38.5288 14.3926 38.5257 14.3709 38.5195 14.3462C38.5133 14.3276 38.5103 14.3091 38.5103 14.2905C38.5103 14.2534 38.5319 14.2225 38.5752 14.1978C38.6185 14.173 38.6463 14.1452 38.6587 14.1143C38.6772 14.0895 38.6927 14.0462 38.7051 13.9844C38.7236 13.9225 38.7391 13.8545 38.7515 13.7803C38.77 13.7061 38.7886 13.6287 38.8071 13.5483C38.8257 13.4741 38.8473 13.4092 38.8721 13.3535C38.8906 13.3102 38.903 13.2546 38.9092 13.1865C38.9154 13.1185 38.9215 13.0474 38.9277 12.9731C38.9401 12.8989 38.9494 12.8247 38.9556 12.7505C38.9679 12.6701 38.9865 12.5928 39.0112 12.5186C39.0422 12.4258 39.0638 12.3083 39.0762 12.166C39.0947 12.0238 39.1102 11.8753 39.1226 11.7207C39.1349 11.5661 39.1473 11.4146 39.1597 11.2661C39.172 11.1115 39.1906 10.9754 39.2153 10.8579C39.2648 10.7899 39.3019 10.7095 39.3267 10.6167C39.3514 10.5177 39.37 10.4033 39.3823 10.2734C39.4009 10.1374 39.4163 9.98584 39.4287 9.81885C39.4411 9.65186 39.4627 9.46631 39.4937 9.26221C39.5184 9.10758 39.5462 8.95605 39.5771 8.80762C39.6143 8.65299 39.6328 8.50456 39.6328 8.3623C39.6328 8.27572 39.6297 8.19531 39.6235 8.12109C39.6235 8.04069 39.6235 7.95719 39.6235 7.87061C39.6235 7.72217 39.6328 7.58919 39.6514 7.47168C39.6699 7.34798 39.6916 7.22738 39.7163 7.10986C39.741 6.98617 39.7658 6.85938 39.7905 6.72949C39.8153 6.59961 39.8338 6.45117 39.8462 6.28418C39.8462 6.24707 39.8555 6.21924 39.874 6.20068C39.8988 6.17594 39.9111 6.15739 39.9111 6.14502C39.9111 6.12028 39.8988 6.10173 39.874 6.08936C39.8555 6.07699 39.8462 6.05534 39.8462 6.02441C39.8462 5.95638 39.8678 5.89453 39.9111 5.83887C39.9606 5.77702 39.9854 5.70589 39.9854 5.62549C39.9854 5.58219 39.9823 5.54199 39.9761 5.50488C39.9699 5.46159 39.9668 5.42139 39.9668 5.38428C39.9668 5.37191 39.9668 5.36263 39.9668 5.35645C39.973 5.34408 39.9761 5.33171 39.9761 5.31934C40.0132 5.08431 40.0534 4.84928 40.0967 4.61426C40.14 4.37923 40.1678 4.15039 40.1802 3.92773C40.1554 3.89681 40.1338 3.88135 40.1152 3.88135C40.0905 3.88135 40.0627 3.89372 40.0317 3.91846C40.0008 3.93701 39.9668 3.95866 39.9297 3.9834C39.8988 4.00195 39.8709 4.0236 39.8462 4.04834C39.8215 4.06689 39.7998 4.07617 39.7812 4.07617L39.772 4.06689H39.7534C39.7163 4.06689 39.6885 4.05452 39.6699 4.02979C39.6514 4.00505 39.639 3.99577 39.6328 4.00195C39.5462 4.01432 39.4565 4.02979 39.3638 4.04834C39.271 4.06689 39.1906 4.07617 39.1226 4.07617C39.0298 4.07617 38.9679 4.05143 38.937 4.00195C38.937 4.00195 38.937 3.97721 38.937 3.92773C38.9432 3.87207 38.9463 3.81331 38.9463 3.75146C38.9525 3.68343 38.9587 3.62158 38.9648 3.56592C38.9772 3.50407 38.9927 3.46387 39.0112 3.44531C39.036 3.42057 39.1164 3.39893 39.2524 3.38037C39.3947 3.36182 39.5493 3.34635 39.7163 3.33398C39.8895 3.31543 40.0534 3.29997 40.208 3.2876C40.3688 3.26904 40.4771 3.25358 40.5327 3.24121C40.5636 3.22884 40.5791 3.21338 40.5791 3.19482C40.5853 3.17627 40.5915 3.16699 40.5977 3.16699C40.6657 3.14844 40.7399 3.13916 40.8203 3.13916C40.9007 3.13298 40.9657 3.11751 41.0151 3.09277C41.0461 3.0804 41.0739 3.05566 41.0986 3.01855C41.1296 2.98145 41.1698 2.96289 41.2192 2.96289C41.2563 2.96289 41.2904 2.97526 41.3213 3C41.3584 3.01855 41.3955 3.0402 41.4326 3.06494C41.4697 3.08968 41.5099 3.11442 41.5532 3.13916C41.6027 3.15771 41.6553 3.16699 41.7109 3.16699C41.8532 3.16699 41.9924 3.15462 42.1284 3.12988C42.2707 3.09896 42.3944 3.0835 42.4995 3.0835C42.617 3.0835 42.7005 3.11133 42.75 3.16699ZM47.4443 7.70361C47.4443 7.8335 47.4412 7.94482 47.4351 8.0376C47.4289 8.13037 47.4196 8.21696 47.4072 8.29736C47.401 8.37777 47.3887 8.45817 47.3701 8.53857C47.3516 8.61898 47.3299 8.70866 47.3052 8.80762C47.2557 9.02409 47.2124 9.24056 47.1753 9.45703C47.1382 9.66732 47.0918 9.88997 47.0361 10.125C47.0299 10.1497 47.0114 10.1868 46.9805 10.2363C46.9557 10.2858 46.9279 10.3415 46.897 10.4033C46.866 10.4652 46.8351 10.527 46.8042 10.5889C46.7795 10.6507 46.7609 10.7033 46.7485 10.7466C46.7176 10.8703 46.6681 10.9723 46.6001 11.0527C46.5382 11.1331 46.4733 11.2383 46.4053 11.3682C46.3743 11.4362 46.3527 11.5135 46.3403 11.6001C46.328 11.6805 46.3032 11.7424 46.2661 11.7856C46.2537 11.8042 46.2197 11.8351 46.1641 11.8784C46.1146 11.9217 46.0558 11.9712 45.9878 12.0269C45.9259 12.0825 45.861 12.1382 45.793 12.1938C45.7311 12.2495 45.6816 12.299 45.6445 12.3423C45.6198 12.3732 45.5951 12.4103 45.5703 12.4536C45.5518 12.4969 45.5301 12.5309 45.5054 12.5557C45.4744 12.5742 45.4373 12.5835 45.394 12.5835C45.3569 12.5835 45.3229 12.5959 45.292 12.6206C45.2796 12.6392 45.2673 12.6701 45.2549 12.7134C45.2487 12.7505 45.2332 12.769 45.2085 12.769C45.1961 12.769 45.1776 12.769 45.1528 12.769C45.1343 12.7629 45.1188 12.7598 45.1064 12.7598C45.0817 12.7598 45.026 12.7938 44.9395 12.8618C44.8529 12.9237 44.757 12.9948 44.6519 13.0752C44.5529 13.1556 44.457 13.2329 44.3643 13.3071C44.2777 13.3813 44.2189 13.4277 44.188 13.4463C44.1447 13.4772 44.0983 13.502 44.0488 13.5205C44.0055 13.5391 43.9622 13.5638 43.9189 13.5947C43.8633 13.6195 43.82 13.6473 43.7891 13.6782C43.7581 13.7153 43.7272 13.7463 43.6963 13.771C43.6654 13.8019 43.6313 13.8267 43.5942 13.8452C43.5571 13.8638 43.5046 13.873 43.4365 13.873C43.418 13.873 43.3809 13.8607 43.3252 13.8359C43.2695 13.8112 43.2139 13.7772 43.1582 13.7339C43.1025 13.6968 43.05 13.6504 43.0005 13.5947C42.9572 13.5391 42.9355 13.4803 42.9355 13.4185C42.9355 13.3999 42.9386 13.3813 42.9448 13.3628C42.951 13.3381 42.9541 13.3133 42.9541 13.2886C42.9541 13.27 42.951 13.2546 42.9448 13.2422C42.8706 13.0876 42.7871 12.9422 42.6943 12.8062C42.6077 12.6639 42.5645 12.4969 42.5645 12.3052C42.5645 12.2371 42.5737 12.1691 42.5923 12.1011C42.6108 12.0269 42.6201 11.9279 42.6201 11.8042C42.6201 11.6496 42.6108 11.4733 42.5923 11.2754C42.5737 11.0713 42.5645 10.8703 42.5645 10.6724C42.5645 10.4868 42.5923 10.2796 42.6479 10.0508C42.7036 9.82194 42.7778 9.5931 42.8706 9.36426C42.9634 9.12923 43.0685 8.90348 43.186 8.68701C43.3097 8.47054 43.4365 8.2819 43.5664 8.12109C43.6592 8.00358 43.7581 7.89225 43.8633 7.78711C43.9684 7.68197 44.0767 7.57373 44.188 7.4624C44.3055 7.35107 44.423 7.23665 44.5405 7.11914C44.658 7.00163 44.7725 6.87174 44.8838 6.72949C44.9518 6.6429 45.0415 6.55322 45.1528 6.46045C45.2703 6.36768 45.3879 6.27181 45.5054 6.17285C45.5363 6.1543 45.5703 6.14502 45.6074 6.14502C45.6445 6.14502 45.6785 6.13265 45.7095 6.10791C45.7713 6.06462 45.8239 6.01823 45.8672 5.96875C45.9105 5.91927 45.9476 5.87288 45.9785 5.82959C46.0094 5.7863 46.0404 5.75228 46.0713 5.72754C46.1022 5.69661 46.1362 5.68115 46.1733 5.68115C46.2043 5.68115 46.2321 5.68424 46.2568 5.69043C46.2878 5.69661 46.3187 5.69971 46.3496 5.69971C46.3867 5.69971 46.4146 5.69043 46.4331 5.67188C46.4517 5.64714 46.4702 5.6224 46.4888 5.59766C46.5073 5.56673 46.529 5.54199 46.5537 5.52344C46.5846 5.4987 46.6279 5.48633 46.6836 5.48633C46.8011 5.50488 46.8846 5.53581 46.9341 5.5791C46.9897 5.61621 47.0269 5.66569 47.0454 5.72754C47.064 5.78939 47.0794 5.86361 47.0918 5.9502C47.1042 6.03678 47.1289 6.13574 47.166 6.24707L47.3052 6.72949C47.3299 6.81608 47.3577 6.89958 47.3887 6.97998C47.4196 7.06038 47.4382 7.1346 47.4443 7.20264C47.4443 7.2583 47.432 7.2985 47.4072 7.32324C47.3825 7.3418 47.3701 7.37581 47.3701 7.42529C47.3701 7.45622 47.3825 7.49642 47.4072 7.5459C47.432 7.58919 47.4443 7.64176 47.4443 7.70361ZM46.062 9.021C46.062 8.92204 46.0527 8.8138 46.0342 8.69629C46.0218 8.57878 46.0094 8.45508 45.9971 8.3252C45.9847 8.16439 45.9754 7.9943 45.9692 7.81494C45.9692 7.63558 45.9631 7.46859 45.9507 7.31396C45.9383 7.15934 45.9198 7.03255 45.895 6.93359C45.8765 6.83464 45.8424 6.78516 45.793 6.78516C45.7249 6.78516 45.6198 6.82227 45.4775 6.89648C45.3415 6.9707 45.2116 7.0542 45.0879 7.14697C45.057 7.1779 45.026 7.23047 44.9951 7.30469C44.9642 7.37272 44.9271 7.43766 44.8838 7.49951C44.7292 7.7098 44.5993 7.90462 44.4941 8.08398C44.3952 8.26335 44.3117 8.4458 44.2437 8.63135C44.1756 8.81689 44.1169 9.01481 44.0674 9.2251C44.0179 9.4292 43.9684 9.66113 43.9189 9.9209C43.8818 10.1188 43.8447 10.2889 43.8076 10.4312C43.7705 10.5734 43.752 10.7373 43.752 10.9229C43.752 11.4671 43.8076 11.8877 43.9189 12.1846C44.0365 12.4814 44.1756 12.6299 44.3364 12.6299C44.4354 12.6299 44.5065 12.6021 44.5498 12.5464C44.5993 12.4845 44.6395 12.4382 44.6704 12.4072C44.7013 12.3887 44.7354 12.3794 44.7725 12.3794C44.8158 12.3794 44.8529 12.367 44.8838 12.3423C45.0137 12.2248 45.1126 12.0856 45.1807 11.9248C45.2487 11.764 45.3105 11.6032 45.3662 11.4424H45.4219C45.4404 11.4424 45.4497 11.4362 45.4497 11.4238C45.4497 11.4115 45.4466 11.396 45.4404 11.3774C45.4404 11.3527 45.4404 11.3341 45.4404 11.3218C45.4404 11.2785 45.4497 11.2321 45.4683 11.1826C45.493 11.1331 45.5208 11.0868 45.5518 11.0435C45.5827 11.0002 45.6136 10.96 45.6445 10.9229C45.6755 10.8796 45.6971 10.8455 45.7095 10.8208C45.7651 10.7157 45.8022 10.6198 45.8208 10.5332C45.8455 10.4404 45.861 10.3507 45.8672 10.2642C45.8796 10.1714 45.8857 10.0817 45.8857 9.99512C45.8919 9.90234 45.9043 9.80648 45.9229 9.70752C45.9414 9.56527 45.9661 9.43848 45.9971 9.32715C46.028 9.21582 46.0496 9.11377 46.062 9.021ZM55.2002 10.96C55.2497 10.9909 55.2744 11.0342 55.2744 11.0898C55.2744 11.1331 55.259 11.1795 55.228 11.229C55.2033 11.2723 55.1724 11.3156 55.1353 11.3589C55.0981 11.4022 55.0641 11.4393 55.0332 11.4702C55.0023 11.495 54.9868 11.5104 54.9868 11.5166C54.9435 11.5599 54.9095 11.6001 54.8848 11.6372C54.8662 11.6681 54.8322 11.7176 54.7827 11.7856C54.7394 11.8537 54.6992 11.9093 54.6621 11.9526C54.625 11.9959 54.5848 12.0392 54.5415 12.0825C54.5044 12.1258 54.4642 12.1722 54.4209 12.2217C54.3776 12.2712 54.3343 12.333 54.291 12.4072L54.0127 12.7598C53.9941 12.7907 53.9663 12.8247 53.9292 12.8618C53.8983 12.8927 53.8797 12.9268 53.8735 12.9639C53.8735 12.9948 53.855 13.0226 53.8179 13.0474C53.7808 13.0659 53.7406 13.0876 53.6973 13.1123C53.654 13.1309 53.6138 13.1525 53.5767 13.1772C53.5396 13.202 53.521 13.2298 53.521 13.2607C53.521 13.2731 53.5241 13.2917 53.5303 13.3164C53.5365 13.335 53.5396 13.3504 53.5396 13.3628C53.5396 13.3813 53.5272 13.3906 53.5024 13.3906C53.4901 13.3906 53.4746 13.3906 53.4561 13.3906C53.4375 13.3844 53.422 13.3813 53.4097 13.3813C53.3849 13.3813 53.3664 13.403 53.354 13.4463C53.3478 13.4896 53.3385 13.5143 53.3262 13.5205C53.2891 13.5452 53.221 13.5731 53.1221 13.604C53.0231 13.6349 52.9211 13.6659 52.8159 13.6968C52.717 13.7277 52.6242 13.7524 52.5376 13.771C52.4572 13.7957 52.4108 13.8081 52.3984 13.8081C52.3799 13.8081 52.3644 13.805 52.3521 13.7988C52.3521 13.7926 52.3273 13.771 52.2778 13.7339C52.2284 13.6968 52.1758 13.6504 52.1201 13.5947C52.0645 13.5452 52.0119 13.4896 51.9624 13.4277C51.9129 13.3659 51.8882 13.304 51.8882 13.2422C51.8882 13.1927 51.8913 13.137 51.8975 13.0752C51.9098 13.0133 51.9222 12.9299 51.9346 12.8247C51.9469 12.8247 51.9593 12.8216 51.9717 12.8154C51.9964 12.8031 52.0088 12.7845 52.0088 12.7598C52.0088 12.7288 51.9964 12.6948 51.9717 12.6577C51.9469 12.6206 51.9346 12.5742 51.9346 12.5186C51.9346 12.4258 51.9562 12.3454 51.9995 12.2773C52.0428 12.2093 52.0706 12.1413 52.083 12.0732C52.1016 11.8691 52.1077 11.6527 52.1016 11.4238C52.1016 11.195 52.117 10.9692 52.1479 10.7466C52.1603 10.6414 52.1851 10.5363 52.2222 10.4312C52.2593 10.3198 52.2809 10.2178 52.2871 10.125C52.2871 10.0941 52.284 10.0601 52.2778 10.0229C52.2778 9.98584 52.2778 9.95182 52.2778 9.9209C52.2778 9.84049 52.2902 9.78792 52.3149 9.76318C52.3397 9.73226 52.3521 9.69206 52.3521 9.64258C52.3521 9.58073 52.3397 9.51888 52.3149 9.45703C52.2964 9.39518 52.2871 9.33333 52.2871 9.27148C52.2871 9.11686 52.3026 8.96842 52.3335 8.82617C52.3644 8.68392 52.3984 8.54167 52.4355 8.39941C52.4727 8.25098 52.5067 8.10254 52.5376 7.9541C52.5685 7.79948 52.584 7.63867 52.584 7.47168C52.584 7.4222 52.584 7.36963 52.584 7.31396C52.584 7.2583 52.5778 7.20264 52.5654 7.14697C52.3984 7.15934 52.2531 7.22738 52.1294 7.35107C52.0119 7.47477 51.9006 7.59229 51.7954 7.70361C51.715 7.7902 51.6346 7.87679 51.5542 7.96338C51.48 8.04378 51.3996 8.13965 51.313 8.25098C51.2511 8.33138 51.1955 8.43343 51.146 8.55713C51.0965 8.68083 51.0378 8.8138 50.9697 8.95605C50.9697 8.95605 50.9574 8.96842 50.9326 8.99316C50.9079 9.0179 50.88 9.04574 50.8491 9.07666C50.8182 9.10758 50.7873 9.14469 50.7563 9.18799C50.7316 9.2251 50.71 9.25911 50.6914 9.29004C50.6419 9.389 50.5986 9.5127 50.5615 9.66113C50.5244 9.80957 50.4502 9.98893 50.3389 10.1992C50.3141 10.2487 50.2925 10.2858 50.2739 10.3105C50.2616 10.3291 50.2492 10.3662 50.2368 10.4219C50.2244 10.4714 50.209 10.5518 50.1904 10.6631C50.1781 10.7744 50.1595 10.9414 50.1348 11.1641C50.1224 11.2383 50.1007 11.3063 50.0698 11.3682C50.0389 11.4238 50.0173 11.495 50.0049 11.5815C49.9863 11.7052 49.9771 11.8413 49.9771 11.9897C49.9771 12.132 49.9616 12.2712 49.9307 12.4072C49.9183 12.4382 49.8936 12.466 49.8564 12.4907C49.8255 12.5155 49.8039 12.5371 49.7915 12.5557C49.7482 12.6237 49.7235 12.6948 49.7173 12.769C49.7173 12.8433 49.6956 12.9082 49.6523 12.9639C49.64 12.9824 49.6152 12.9979 49.5781 13.0103C49.541 13.0164 49.5194 13.0257 49.5132 13.0381C49.4637 13.1309 49.4266 13.2174 49.4019 13.2979C49.3771 13.3721 49.3524 13.437 49.3276 13.4927C49.3091 13.5483 49.2812 13.5916 49.2441 13.6226C49.2132 13.6535 49.1606 13.6689 49.0864 13.6689C49.0308 13.6689 48.9658 13.6597 48.8916 13.6411C48.8236 13.6226 48.7555 13.5978 48.6875 13.5669C48.6257 13.536 48.5731 13.502 48.5298 13.4648C48.4865 13.4215 48.4648 13.3783 48.4648 13.335C48.4648 13.2793 48.4896 13.2144 48.5391 13.1401C48.5885 13.0659 48.6133 12.9422 48.6133 12.769C48.6133 12.6577 48.604 12.568 48.5854 12.5C48.5731 12.4258 48.5669 12.3485 48.5669 12.2681C48.5669 12.2062 48.5762 12.1475 48.5947 12.0918C48.6195 12.0299 48.6411 11.9743 48.6597 11.9248C48.6844 11.8691 48.7061 11.8166 48.7246 11.7671C48.7493 11.7114 48.7617 11.6589 48.7617 11.6094C48.7617 11.5599 48.7586 11.5135 48.7524 11.4702C48.7463 11.4269 48.7432 11.3805 48.7432 11.3311C48.7432 11.2321 48.7617 11.1362 48.7988 11.0435C48.8359 10.9507 48.8669 10.8517 48.8916 10.7466C48.9102 10.6662 48.9225 10.5765 48.9287 10.4775C48.9411 10.3786 48.9535 10.2858 48.9658 10.1992C49.0339 9.77865 49.1112 9.35498 49.1978 8.92822C49.2905 8.49528 49.374 8.04069 49.4482 7.56445C49.4482 7.55208 49.4575 7.53044 49.4761 7.49951C49.5008 7.46859 49.5132 7.43457 49.5132 7.39746C49.5132 7.36654 49.5101 7.32943 49.5039 7.28613C49.5039 7.24284 49.5039 7.19645 49.5039 7.14697C49.5039 7.04183 49.5286 6.94596 49.5781 6.85938C49.6276 6.7666 49.6523 6.66146 49.6523 6.54395C49.6523 6.45736 49.6431 6.38005 49.6245 6.31201C49.606 6.23779 49.5967 6.16048 49.5967 6.08008C49.5967 6.01823 49.606 5.96566 49.6245 5.92236C49.6493 5.87907 49.674 5.84196 49.6987 5.81104C49.7235 5.78011 49.7451 5.75228 49.7637 5.72754C49.7884 5.69661 49.8008 5.66569 49.8008 5.63477C49.8008 5.58529 49.7853 5.54818 49.7544 5.52344C49.7297 5.4987 49.7173 5.46777 49.7173 5.43066C49.742 5.43066 49.7606 5.41211 49.7729 5.375L49.7915 5.31934V5.23584C49.7915 5.17399 49.807 5.11833 49.8379 5.06885C49.875 5.01318 49.9059 4.94515 49.9307 4.86475C49.9616 4.76579 49.9771 4.67301 49.9771 4.58643C49.9771 4.49984 49.9863 4.38542 50.0049 4.24316C50.0173 4.16276 50.042 4.08236 50.0791 4.00195C50.1224 3.91536 50.144 3.80094 50.144 3.65869C50.144 3.59066 50.1379 3.52881 50.1255 3.47314C50.1193 3.4113 50.1162 3.34945 50.1162 3.2876C50.1162 3.23193 50.1224 3.18555 50.1348 3.14844C50.1533 3.11133 50.1719 3.0804 50.1904 3.05566C50.2152 3.02474 50.2337 2.99691 50.2461 2.97217C50.2646 2.94743 50.2739 2.9165 50.2739 2.87939C50.2739 2.82992 50.2616 2.78353 50.2368 2.74023C50.2183 2.69694 50.209 2.65055 50.209 2.60107C50.209 2.53304 50.2214 2.44954 50.2461 2.35059C50.2708 2.25163 50.2987 2.15267 50.3296 2.05371C50.3667 1.95475 50.3976 1.86816 50.4224 1.79395C50.4471 1.71354 50.4595 1.66097 50.4595 1.63623C50.4595 1.58057 50.4347 1.54346 50.3853 1.5249C50.3358 1.50016 50.2956 1.48779 50.2646 1.48779C50.1966 1.48779 50.1348 1.51253 50.0791 1.56201C50.0234 1.60531 49.9678 1.66097 49.9121 1.729C49.8626 1.79085 49.8162 1.85579 49.7729 1.92383C49.7297 1.99186 49.6895 2.04753 49.6523 2.09082C49.6214 2.12174 49.5843 2.14648 49.541 2.16504C49.4977 2.17741 49.4668 2.19906 49.4482 2.22998C49.4235 2.2609 49.3957 2.30111 49.3647 2.35059C49.34 2.39388 49.3091 2.44027 49.272 2.48975C49.241 2.53304 49.207 2.57015 49.1699 2.60107C49.139 2.632 49.105 2.64746 49.0679 2.64746C49.0308 2.64746 48.9813 2.61654 48.9194 2.55469C48.8638 2.49284 48.8359 2.4279 48.8359 2.35986C48.8359 2.32894 48.8452 2.3042 48.8638 2.28564C48.8885 2.26709 48.9132 2.24854 48.938 2.22998C48.9689 2.21143 48.9998 2.18669 49.0308 2.15576C49.0617 2.11865 49.0833 2.07227 49.0957 2.0166C49.1143 1.9362 49.1576 1.86198 49.2256 1.79395C49.2936 1.72591 49.3771 1.65169 49.4761 1.57129C49.5812 1.49089 49.7018 1.39502 49.8379 1.28369C49.974 1.16618 50.1193 1.02083 50.2739 0.847656C50.3234 0.791992 50.3822 0.745605 50.4502 0.708496C50.5182 0.671387 50.577 0.625 50.6265 0.569336C50.6512 0.544596 50.6636 0.510579 50.6636 0.467285C50.6636 0.423991 50.6729 0.386882 50.6914 0.355957C50.71 0.337402 50.7471 0.30957 50.8027 0.272461C50.8584 0.229167 50.9202 0.188965 50.9883 0.151855C51.0563 0.108561 51.1213 0.0745443 51.1831 0.0498047C51.245 0.0188802 51.2882 0.00341797 51.313 0.00341797C51.5233 0.00341797 51.6532 0.0436198 51.7026 0.124023C51.7583 0.198242 51.7861 0.294108 51.7861 0.411621C51.7861 0.516764 51.7707 0.63737 51.7397 0.773438C51.715 0.90332 51.6841 1.04248 51.647 1.19092C51.616 1.33317 51.5851 1.47852 51.5542 1.62695C51.5295 1.77539 51.5171 1.91455 51.5171 2.04443C51.5171 2.10628 51.5202 2.16195 51.5264 2.21143C51.5326 2.25472 51.5356 2.30111 51.5356 2.35059C51.5356 2.4681 51.5047 2.57015 51.4429 2.65674C51.381 2.73714 51.3377 2.82682 51.313 2.92578C51.2821 3.05566 51.2604 3.17936 51.248 3.29688C51.2357 3.41439 51.2233 3.53499 51.2109 3.65869C51.2048 3.7762 51.1955 3.8999 51.1831 4.02979C51.1707 4.15967 51.146 4.29883 51.1089 4.44727C51.0903 4.52767 51.0594 4.61735 51.0161 4.71631C50.9728 4.80908 50.9512 4.92041 50.9512 5.05029C50.9512 5.09359 50.9543 5.13688 50.9604 5.18018C50.9728 5.22347 50.979 5.27295 50.979 5.32861C50.979 5.42139 50.9697 5.53271 50.9512 5.6626C50.9388 5.79248 50.9202 5.92855 50.8955 6.0708C50.877 6.20687 50.8553 6.34603 50.8306 6.48828C50.8058 6.62435 50.7811 6.75423 50.7563 6.87793C50.7502 6.89648 50.7378 6.94287 50.7192 7.01709C50.7007 7.08512 50.679 7.16553 50.6543 7.2583C50.6357 7.35107 50.6172 7.45003 50.5986 7.55518C50.5863 7.65413 50.5801 7.74382 50.5801 7.82422C50.5801 7.91081 50.5894 7.97884 50.6079 8.02832C50.6326 8.0778 50.6667 8.10254 50.71 8.10254C50.7533 8.10254 50.7996 8.07471 50.8491 8.01904C50.8986 7.96338 50.9481 7.90153 50.9976 7.8335C51.047 7.76546 51.0934 7.70361 51.1367 7.64795C51.1862 7.59229 51.2295 7.56445 51.2666 7.56445C51.279 7.56445 51.2944 7.56755 51.313 7.57373C51.3315 7.57373 51.347 7.57373 51.3594 7.57373C51.3779 7.57373 51.3872 7.56136 51.3872 7.53662C51.3872 7.52425 51.3841 7.50879 51.3779 7.49023C51.3717 7.47168 51.3687 7.45622 51.3687 7.44385C51.3687 7.43148 51.3903 7.40983 51.4336 7.37891C51.4769 7.3418 51.5078 7.31087 51.5264 7.28613C51.5697 7.21191 51.616 7.12533 51.6655 7.02637C51.715 6.92741 51.783 6.87793 51.8696 6.87793C51.882 6.87793 51.9408 6.82536 52.0459 6.72021C52.151 6.60889 52.2778 6.48828 52.4263 6.3584C52.5809 6.22852 52.7448 6.111 52.918 6.00586C53.0973 5.89453 53.2674 5.83887 53.4282 5.83887C53.6447 5.83887 53.8024 5.87598 53.9014 5.9502C54.0065 6.01823 54.0591 6.14502 54.0591 6.33057C54.0591 6.47282 54.0498 6.60889 54.0312 6.73877C54.0127 6.86865 53.991 6.98307 53.9663 7.08203C53.9478 7.1748 53.9261 7.25212 53.9014 7.31396C53.8828 7.37581 53.8735 7.41292 53.8735 7.42529C53.8612 7.7098 53.821 8.01286 53.7529 8.33447C53.6849 8.65609 53.6354 8.97461 53.6045 9.29004C53.5798 9.5127 53.555 9.73226 53.5303 9.94873C53.5117 10.1652 53.487 10.3879 53.4561 10.6167C53.4251 10.8146 53.3818 11.0218 53.3262 11.2383C53.2767 11.4548 53.252 11.6589 53.252 11.8506C53.252 11.9557 53.2581 12.0609 53.2705 12.166C53.2829 12.265 53.2891 12.367 53.2891 12.4722C53.2891 12.5835 53.2767 12.6794 53.252 12.7598C53.2767 12.7783 53.3076 12.7876 53.3447 12.7876C53.388 12.7876 53.4282 12.769 53.4653 12.7319C53.5024 12.6948 53.5365 12.6546 53.5674 12.6113C53.6045 12.5618 53.6416 12.5186 53.6787 12.4814C53.7158 12.4382 53.7591 12.4134 53.8086 12.4072C53.8086 12.4072 53.8302 12.3856 53.8735 12.3423C53.923 12.299 53.9756 12.2495 54.0312 12.1938C54.0869 12.1382 54.1395 12.0856 54.189 12.0361C54.2446 11.9805 54.2786 11.9434 54.291 11.9248C54.3158 11.9001 54.325 11.8691 54.3188 11.832C54.3188 11.7887 54.3343 11.7516 54.3652 11.7207C54.3776 11.7021 54.3993 11.6898 54.4302 11.6836C54.4611 11.6774 54.4827 11.6681 54.4951 11.6558C54.5137 11.6248 54.526 11.5908 54.5322 11.5537C54.5384 11.5104 54.5508 11.4733 54.5693 11.4424C54.5817 11.4238 54.6034 11.4115 54.6343 11.4053C54.6714 11.3991 54.6961 11.3867 54.7085 11.3682C54.7147 11.362 54.724 11.3341 54.7363 11.2847C54.7549 11.2352 54.7765 11.1857 54.8013 11.1362C54.8322 11.0806 54.8662 11.0311 54.9033 10.9878C54.9466 10.9445 54.9992 10.9229 55.061 10.9229C55.1043 10.9229 55.1507 10.9352 55.2002 10.96ZM62.6685 11.4331C62.6685 11.5321 62.6406 11.6217 62.585 11.7021C62.5293 11.7764 62.4582 11.8506 62.3716 11.9248C62.285 11.999 62.1891 12.0732 62.084 12.1475C61.9788 12.2217 61.8768 12.3052 61.7778 12.3979C61.7469 12.4227 61.7222 12.4598 61.7036 12.5093C61.6851 12.5526 61.6603 12.5835 61.6294 12.6021C61.5985 12.633 61.5645 12.6453 61.5273 12.6392C61.4902 12.633 61.4562 12.6453 61.4253 12.6763C61.382 12.7196 61.3387 12.7814 61.2954 12.8618C61.2583 12.936 61.2088 13.0133 61.147 13.0938C61.1284 13.1247 61.0789 13.1865 60.9985 13.2793C60.9243 13.3721 60.8346 13.4679 60.7295 13.5669C60.6305 13.6659 60.5254 13.7555 60.4141 13.8359C60.3089 13.9163 60.2131 13.9565 60.1265 13.9565C60.077 13.9565 60.0399 13.9442 60.0151 13.9194C59.9904 13.8947 59.978 13.8669 59.978 13.8359C59.978 13.7988 59.9873 13.7555 60.0059 13.7061C60.0244 13.6566 60.0337 13.5916 60.0337 13.5112C60.0337 13.3752 60.012 13.2607 59.9688 13.168C59.9255 13.0752 59.9038 13.0041 59.9038 12.9546C59.91 12.8247 59.944 12.6825 60.0059 12.5278C60.0739 12.3732 60.1079 12.2155 60.1079 12.0547C60.1079 11.9681 60.0955 11.8877 60.0708 11.8135C60.0461 11.7331 60.0337 11.6496 60.0337 11.563C60.0337 11.4764 60.0553 11.3867 60.0986 11.2939C60.1419 11.195 60.1698 11.1022 60.1821 11.0156C60.1945 10.9167 60.2038 10.8177 60.21 10.7188C60.2161 10.6198 60.2192 10.5208 60.2192 10.4219V10.1621C60.2192 10.026 60.2285 9.90234 60.2471 9.79102C60.2656 9.67969 60.2842 9.57454 60.3027 9.47559C60.3275 9.37663 60.3522 9.27767 60.377 9.17871C60.4079 9.07975 60.4326 8.97461 60.4512 8.86328C60.4759 8.71484 60.4914 8.56641 60.4976 8.41797C60.5037 8.26953 60.5068 8.12109 60.5068 7.97266C60.513 7.82422 60.5192 7.68197 60.5254 7.5459C60.5378 7.40365 60.5594 7.26758 60.5903 7.1377C60.5718 7.13151 60.5439 7.12842 60.5068 7.12842C60.4264 7.12842 60.3584 7.15316 60.3027 7.20264C60.2471 7.24593 60.1976 7.2985 60.1543 7.36035C60.1172 7.41602 60.0832 7.47786 60.0522 7.5459C60.0275 7.60775 59.9997 7.65723 59.9688 7.69434C59.944 7.72526 59.91 7.74691 59.8667 7.75928C59.8234 7.77165 59.7894 7.79329 59.7646 7.82422C59.7337 7.86133 59.709 7.90771 59.6904 7.96338C59.6719 8.01904 59.6502 8.06543 59.6255 8.10254C59.6131 8.12728 59.5853 8.14274 59.542 8.14893C59.5049 8.14893 59.4863 8.16439 59.4863 8.19531C59.4863 8.20768 59.4863 8.22314 59.4863 8.2417C59.4925 8.26025 59.4956 8.27572 59.4956 8.28809C59.4956 8.31283 59.4771 8.34375 59.4399 8.38086C59.4028 8.41178 59.3595 8.4458 59.3101 8.48291C59.2668 8.52002 59.2266 8.55713 59.1895 8.59424C59.1523 8.63135 59.1338 8.66227 59.1338 8.68701C59.1338 8.69938 59.1338 8.71484 59.1338 8.7334C59.14 8.75195 59.1431 8.76742 59.1431 8.77979C59.1431 8.79215 59.1214 8.82926 59.0781 8.89111C59.0348 8.95296 58.9823 9.021 58.9204 9.09521C58.8586 9.16943 58.7967 9.24365 58.7349 9.31787C58.673 9.39209 58.6235 9.44775 58.5864 9.48486C58.4751 9.59619 58.3947 9.70133 58.3452 9.80029C58.2957 9.89925 58.2586 9.99512 58.2339 10.0879C58.2153 10.1745 58.1968 10.2611 58.1782 10.3477C58.1659 10.4342 58.1411 10.5177 58.104 10.5981C58.0916 10.6105 58.0669 10.6229 58.0298 10.6353C57.9927 10.6414 57.9679 10.6507 57.9556 10.6631C57.9246 10.7311 57.8968 10.8053 57.8721 10.8857C57.8473 10.9661 57.8071 11.0527 57.7515 11.1455C57.7391 11.1641 57.7144 11.1888 57.6772 11.2197C57.6401 11.2507 57.6216 11.2754 57.6216 11.2939C57.5907 11.362 57.5659 11.4424 57.5474 11.5352C57.5288 11.6279 57.5133 11.7238 57.501 11.8228C57.4886 11.9217 57.4793 12.0207 57.4731 12.1196C57.467 12.2124 57.4639 12.2928 57.4639 12.3608C57.4639 12.4289 57.4793 12.4814 57.5103 12.5186C57.5412 12.5557 57.5566 12.6113 57.5566 12.6855C57.5566 12.7288 57.5412 12.7629 57.5103 12.7876C57.4855 12.8123 57.4515 12.8371 57.4082 12.8618C57.3711 12.8804 57.3247 12.902 57.269 12.9268C57.2196 12.9515 57.1732 12.9824 57.1299 13.0195C56.9876 13.1432 56.867 13.2546 56.7681 13.3535C56.6691 13.4463 56.5794 13.5329 56.499 13.6133C56.4186 13.6999 56.3475 13.7772 56.2856 13.8452C56.2238 13.9194 56.1589 13.9906 56.0908 14.0586C56.0475 14.0524 56.0259 14.0308 56.0259 13.9937C56.0259 13.9256 56.0599 13.8576 56.1279 13.7896C56.196 13.7215 56.23 13.6597 56.23 13.604C56.23 13.5607 56.2176 13.5267 56.1929 13.502C56.1743 13.471 56.165 13.4277 56.165 13.3721C56.165 13.3535 56.1681 13.3164 56.1743 13.2607C56.1867 13.1989 56.1991 13.1309 56.2114 13.0566C56.2238 12.9762 56.2362 12.8958 56.2485 12.8154C56.2671 12.735 56.2826 12.6639 56.2949 12.6021C56.3197 12.4969 56.3506 12.3918 56.3877 12.2866C56.431 12.1753 56.4712 12.064 56.5083 11.9526C56.5516 11.8351 56.5856 11.7176 56.6104 11.6001C56.6413 11.4826 56.6567 11.362 56.6567 11.2383C56.6567 11.1826 56.6536 11.1362 56.6475 11.0991C56.6413 11.0558 56.6382 11.0156 56.6382 10.9785C56.6382 10.9229 56.6444 10.8455 56.6567 10.7466C56.6691 10.6414 56.6815 10.527 56.6938 10.4033C56.7124 10.2796 56.7279 10.1559 56.7402 10.0322C56.7588 9.90853 56.7743 9.7972 56.7866 9.69824C56.8052 9.48177 56.8145 9.26221 56.8145 9.03955C56.8145 8.81689 56.8268 8.59733 56.8516 8.38086C56.8763 8.18294 56.9103 7.98503 56.9536 7.78711C57.0031 7.58919 57.0278 7.39128 57.0278 7.19336C57.0278 7.06966 57.0155 6.95833 56.9907 6.85938C56.9165 6.87174 56.8423 6.91813 56.7681 6.99854C56.6938 7.07894 56.6227 7.16553 56.5547 7.2583C56.4928 7.35107 56.4372 7.43457 56.3877 7.50879C56.3382 7.58301 56.3011 7.62012 56.2764 7.62012C56.264 7.62012 56.2485 7.62012 56.23 7.62012C56.2114 7.61393 56.196 7.61084 56.1836 7.61084C56.1527 7.61084 56.1279 7.64486 56.1094 7.71289C56.0908 7.78092 56.0661 7.85514 56.0352 7.93555C56.0042 8.00977 55.9609 8.08089 55.9053 8.14893C55.8558 8.21696 55.7847 8.25098 55.6919 8.25098C55.6672 8.25098 55.6208 8.2417 55.5527 8.22314C55.4847 8.20459 55.4507 8.1613 55.4507 8.09326C55.4507 8.04997 55.4631 8.00977 55.4878 7.97266C55.5187 7.93555 55.5527 7.90153 55.5898 7.87061C55.6331 7.83968 55.6733 7.81185 55.7104 7.78711C55.7537 7.75618 55.7878 7.72526 55.8125 7.69434C55.8311 7.66341 55.8403 7.62939 55.8403 7.59229C55.8465 7.54899 55.8589 7.51188 55.8774 7.48096C56.0259 7.29541 56.2021 7.11296 56.4062 6.93359C56.6165 6.75423 56.8114 6.56559 56.9907 6.36768C57.0155 6.34294 57.0247 6.30892 57.0186 6.26562C57.0186 6.22233 57.034 6.18831 57.0649 6.16357C57.0897 6.13883 57.1237 6.12956 57.167 6.13574C57.2103 6.13574 57.2443 6.12337 57.269 6.09863C57.2876 6.08008 57.3031 6.04606 57.3154 5.99658C57.334 5.9471 57.3587 5.89762 57.3896 5.84814C57.4268 5.79248 57.4701 5.74609 57.5195 5.70898C57.5752 5.67188 57.6494 5.65332 57.7422 5.65332C57.7917 5.65332 57.8442 5.6626 57.8999 5.68115C57.9618 5.69352 58.0174 5.71517 58.0669 5.74609C58.1226 5.77083 58.1659 5.80176 58.1968 5.83887C58.2339 5.86979 58.2524 5.90381 58.2524 5.94092C58.2524 6.00277 58.237 6.08317 58.2061 6.18213C58.1813 6.28109 58.1689 6.38932 58.1689 6.50684C58.1689 6.58105 58.1813 6.65218 58.2061 6.72021C58.2308 6.78206 58.2432 6.82845 58.2432 6.85938C58.2308 6.93978 58.203 7.02018 58.1597 7.10059C58.1164 7.1748 58.0947 7.27376 58.0947 7.39746C58.0947 7.45312 58.0947 7.51497 58.0947 7.58301C58.1009 7.65104 58.104 7.71908 58.104 7.78711C58.104 7.89844 58.0885 8.02523 58.0576 8.16748C58.0267 8.30355 57.9927 8.43652 57.9556 8.56641C57.9246 8.69629 57.8937 8.81689 57.8628 8.92822C57.8319 9.03337 57.8164 9.11377 57.8164 9.16943C57.8164 9.21891 57.8381 9.24365 57.8813 9.24365C57.9432 9.24365 58.0236 9.20036 58.1226 9.11377C58.2215 9.02718 58.305 8.94368 58.373 8.86328C58.3978 8.83854 58.4102 8.80452 58.4102 8.76123C58.4163 8.71794 58.4287 8.68392 58.4473 8.65918C58.4596 8.64062 58.4875 8.61589 58.5308 8.58496C58.5802 8.54785 58.6297 8.51074 58.6792 8.47363C58.7287 8.43652 58.772 8.40251 58.8091 8.37158C58.8462 8.33447 58.8647 8.30664 58.8647 8.28809C58.8647 8.27572 58.8617 8.26025 58.8555 8.2417C58.8555 8.22314 58.8555 8.20768 58.8555 8.19531C58.8555 8.16439 58.8771 8.12109 58.9204 8.06543C58.9637 8.00977 59.0132 7.95101 59.0688 7.88916C59.1245 7.82113 59.1771 7.75618 59.2266 7.69434C59.2822 7.63249 59.3224 7.58301 59.3472 7.5459C59.3719 7.50879 59.3812 7.46549 59.375 7.41602C59.375 7.36035 59.3874 7.31396 59.4121 7.27686C59.4863 7.1779 59.5853 7.06657 59.709 6.94287C59.8389 6.81917 59.9471 6.72331 60.0337 6.65527C60.0832 6.61816 60.1326 6.59342 60.1821 6.58105C60.2316 6.56868 60.278 6.54395 60.3213 6.50684C60.4141 6.42025 60.5007 6.32438 60.5811 6.21924C60.6615 6.1141 60.7419 6.01823 60.8223 5.93164C60.9027 5.83887 60.9831 5.76156 61.0635 5.69971C61.1501 5.63786 61.2459 5.60693 61.3511 5.60693C61.382 5.60693 61.4284 5.6224 61.4902 5.65332C61.5521 5.68424 61.6139 5.72754 61.6758 5.7832C61.7376 5.83887 61.7902 5.90381 61.8335 5.97803C61.883 6.04606 61.9077 6.12028 61.9077 6.20068C61.9077 6.25016 61.8984 6.3151 61.8799 6.39551C61.8613 6.46973 61.849 6.55632 61.8428 6.65527C61.8242 6.87793 61.8026 7.08512 61.7778 7.27686C61.7593 7.46859 61.7345 7.67578 61.7036 7.89844C61.6789 8.06543 61.6634 8.22624 61.6572 8.38086C61.6572 8.5293 61.6479 8.64681 61.6294 8.7334C61.5985 8.8571 61.549 8.9777 61.481 9.09521C61.4191 9.21273 61.3882 9.35189 61.3882 9.5127C61.3882 9.5498 61.3913 9.59001 61.3975 9.6333C61.4036 9.6766 61.4129 9.72298 61.4253 9.77246C61.4315 9.79102 61.4408 9.80648 61.4531 9.81885C61.4717 9.82503 61.4871 9.8374 61.4995 9.85596C61.5181 9.86833 61.5335 9.88997 61.5459 9.9209C61.5583 9.95182 61.5645 9.99821 61.5645 10.0601C61.5645 10.2209 61.5304 10.3817 61.4624 10.5425C61.3944 10.6971 61.3604 10.8641 61.3604 11.0435C61.3604 11.1115 61.3696 11.1826 61.3882 11.2568C61.4129 11.3249 61.4253 11.3929 61.4253 11.4609C61.4253 11.5846 61.3975 11.7083 61.3418 11.832C61.2923 11.9495 61.2676 12.0794 61.2676 12.2217C61.2676 12.2526 61.2707 12.2804 61.2769 12.3052C61.283 12.3299 61.3016 12.3423 61.3325 12.3423C61.4686 12.3423 61.5799 12.2928 61.6665 12.1938C61.7593 12.0949 61.8459 11.9867 61.9263 11.8691C62.0067 11.7516 62.0902 11.6434 62.1768 11.5444C62.2695 11.4455 62.3809 11.396 62.5107 11.396C62.5664 11.396 62.619 11.4084 62.6685 11.4331ZM67.6689 6.17285C67.6257 6.22852 67.5669 6.26562 67.4927 6.28418C67.4246 6.29655 67.3504 6.30583 67.27 6.31201C67.1896 6.3182 67.1061 6.32438 67.0195 6.33057C66.9329 6.33675 66.8525 6.35531 66.7783 6.38623C66.766 6.39242 66.7536 6.40788 66.7412 6.43262C66.735 6.45117 66.7165 6.46045 66.6855 6.46045C66.6732 6.46045 66.6577 6.46045 66.6392 6.46045C66.6268 6.45426 66.6144 6.45117 66.6021 6.45117C66.5526 6.45117 66.5031 6.4821 66.4536 6.54395C66.4103 6.60579 66.3577 6.64909 66.2959 6.67383C66.1846 6.72331 66.0763 6.74805 65.9712 6.74805C65.866 6.74805 65.7887 6.77279 65.7393 6.82227C65.6403 6.90885 65.5692 6.99854 65.5259 7.09131C65.4888 7.18408 65.4702 7.27995 65.4702 7.37891C65.4702 7.53971 65.5073 7.70671 65.5815 7.87988C65.6619 8.04688 65.7362 8.22933 65.8042 8.42725V8.4458C65.8042 8.45817 65.8011 8.47363 65.7949 8.49219C65.7949 8.51074 65.7949 8.5262 65.7949 8.53857C65.7949 8.55713 65.798 8.56641 65.8042 8.56641C65.8166 8.57878 65.8413 8.62516 65.8784 8.70557C65.9155 8.78597 65.9557 8.86947 65.999 8.95605C66.0423 9.0612 66.0918 9.17562 66.1475 9.29932C66.1598 9.48486 66.2093 9.67041 66.2959 9.85596C66.3825 10.0415 66.4753 10.2271 66.5742 10.4126C66.6794 10.592 66.7721 10.7713 66.8525 10.9507C66.9391 11.13 66.9824 11.3063 66.9824 11.4795C66.9762 11.5846 66.936 11.6991 66.8618 11.8228C66.7938 11.9403 66.7165 12.0516 66.6299 12.1567C66.5433 12.2619 66.4629 12.3516 66.3887 12.4258C66.3206 12.4938 66.2866 12.5278 66.2866 12.5278C66.2866 12.5464 66.2866 12.5649 66.2866 12.5835C66.2928 12.6021 66.2959 12.6175 66.2959 12.6299C66.2835 12.6979 66.2402 12.7783 66.166 12.8711C66.0918 12.9639 66.0052 13.0566 65.9062 13.1494C65.8135 13.2422 65.7176 13.3257 65.6187 13.3999C65.5259 13.4679 65.4486 13.5081 65.3867 13.5205C65.3682 13.5267 65.3311 13.5422 65.2754 13.5669C65.2259 13.5978 65.1733 13.6287 65.1177 13.6597C65.062 13.6968 65.0063 13.7308 64.9507 13.7617C64.9012 13.7926 64.8641 13.8112 64.8394 13.8174C64.7837 13.8298 64.6569 13.839 64.459 13.8452C64.2611 13.8576 64.0601 13.8638 63.856 13.8638C63.6766 13.8638 63.5158 13.8576 63.3735 13.8452C63.2375 13.8328 63.1694 13.8019 63.1694 13.7524V13.7432C63.1014 13.7432 63.0426 13.7463 62.9932 13.7524C62.9499 13.7648 62.8973 13.771 62.8354 13.771C62.7922 13.771 62.7427 13.7679 62.687 13.7617C62.6375 13.7555 62.5881 13.7432 62.5386 13.7246C62.4953 13.7061 62.4582 13.6813 62.4272 13.6504C62.3901 13.6257 62.3716 13.5947 62.3716 13.5576C62.3716 13.4834 62.4087 13.4185 62.4829 13.3628C62.5571 13.3071 62.6283 13.236 62.6963 13.1494C62.7643 13.0566 62.8416 12.9484 62.9282 12.8247C63.0148 12.6948 63.1014 12.5742 63.188 12.4629C63.2746 12.3454 63.3581 12.2495 63.4385 12.1753C63.5251 12.0949 63.5993 12.0547 63.6611 12.0547C63.7292 12.0547 63.7663 12.0856 63.7725 12.1475C63.7848 12.2093 63.791 12.2804 63.791 12.3608C63.791 12.4351 63.7972 12.5031 63.8096 12.5649C63.8281 12.6268 63.8776 12.6577 63.958 12.6577C64.026 12.6577 64.0755 12.6453 64.1064 12.6206C64.1374 12.5897 64.1868 12.5742 64.2549 12.5742C64.3105 12.5742 64.3507 12.5835 64.3755 12.6021C64.4064 12.6206 64.4312 12.6423 64.4497 12.667C64.4683 12.6917 64.493 12.7134 64.5239 12.7319C64.5549 12.7505 64.6043 12.7598 64.6724 12.7598C64.7837 12.7598 64.9074 12.7381 65.0435 12.6948C65.1857 12.6453 65.3465 12.6206 65.5259 12.6206C65.6187 12.6206 65.7114 12.6299 65.8042 12.6484C65.798 12.6299 65.7949 12.6021 65.7949 12.5649C65.7949 12.5216 65.798 12.4814 65.8042 12.4443C65.8166 12.4072 65.8228 12.367 65.8228 12.3237C65.8228 12.231 65.7918 12.1722 65.73 12.1475C65.6743 12.1165 65.6279 12.064 65.5908 11.9897C65.5537 11.866 65.5321 11.7424 65.5259 11.6187C65.5197 11.4888 65.498 11.3682 65.4609 11.2568C65.4486 11.2445 65.4331 11.2414 65.4146 11.2476C65.4022 11.2476 65.3929 11.229 65.3867 11.1919C65.3867 11.161 65.3867 11.1208 65.3867 11.0713C65.3929 11.0218 65.396 10.9692 65.396 10.9136C65.396 10.8455 65.3929 10.7775 65.3867 10.7095C65.3805 10.6353 65.362 10.5765 65.3311 10.5332C65.3187 10.5085 65.2785 10.4714 65.2104 10.4219C65.1424 10.3724 65.0929 10.3136 65.062 10.2456C65.0125 10.159 64.9785 10.0477 64.96 9.91162C64.9476 9.77555 64.9105 9.66732 64.8486 9.58691C64.8424 9.57454 64.8177 9.56217 64.7744 9.5498C64.7373 9.53743 64.7157 9.52507 64.7095 9.5127C64.6724 9.40137 64.6507 9.24674 64.6445 9.04883C64.6383 8.84473 64.592 8.61279 64.5054 8.35303C64.4992 8.34066 64.4868 8.33447 64.4683 8.33447C64.4497 8.33447 64.4404 8.31592 64.4404 8.27881C64.4342 8.19222 64.4281 8.11491 64.4219 8.04688C64.4219 7.97266 64.4219 7.90153 64.4219 7.8335C64.4219 7.49951 64.527 7.21191 64.7373 6.9707C64.9538 6.72949 65.2166 6.50993 65.5259 6.31201C65.5754 6.28109 65.6217 6.26872 65.665 6.2749C65.7145 6.28109 65.7609 6.27181 65.8042 6.24707C65.8413 6.22233 65.8691 6.17904 65.8877 6.11719C65.9062 6.05534 65.9526 6.02441 66.0269 6.02441C66.0392 6.02441 66.0516 6.02751 66.064 6.03369C66.0825 6.03369 66.098 6.03369 66.1104 6.03369C66.1475 6.03369 66.1784 6.01204 66.2031 5.96875C66.234 5.91927 66.265 5.88835 66.2959 5.87598C66.3887 5.8265 66.4938 5.79557 66.6113 5.7832C66.735 5.76465 66.8587 5.72135 66.9824 5.65332C67.0195 5.63477 67.0474 5.60693 67.0659 5.56982C67.0907 5.52653 67.1216 5.50488 67.1587 5.50488C67.1896 5.50488 67.2205 5.50798 67.2515 5.51416C67.2886 5.52035 67.3226 5.52344 67.3535 5.52344C67.3906 5.52344 67.4246 5.51107 67.4556 5.48633C67.4865 5.4554 67.5205 5.43994 67.5576 5.43994C67.6257 5.43994 67.6844 5.47396 67.7339 5.54199C67.7896 5.61003 67.8174 5.69352 67.8174 5.79248C67.8174 5.92236 67.7679 6.04915 67.6689 6.17285ZM73.2168 7.70361C73.2168 7.8335 73.2137 7.94482 73.2075 8.0376C73.2013 8.13037 73.1921 8.21696 73.1797 8.29736C73.1735 8.37777 73.1611 8.45817 73.1426 8.53857C73.124 8.61898 73.1024 8.70866 73.0776 8.80762C73.0282 9.02409 72.9849 9.24056 72.9478 9.45703C72.9106 9.66732 72.8643 9.88997 72.8086 10.125C72.8024 10.1497 72.7839 10.1868 72.7529 10.2363C72.7282 10.2858 72.7004 10.3415 72.6694 10.4033C72.6385 10.4652 72.6076 10.527 72.5767 10.5889C72.5519 10.6507 72.5334 10.7033 72.521 10.7466C72.4901 10.8703 72.4406 10.9723 72.3726 11.0527C72.3107 11.1331 72.2458 11.2383 72.1777 11.3682C72.1468 11.4362 72.1252 11.5135 72.1128 11.6001C72.1004 11.6805 72.0757 11.7424 72.0386 11.7856C72.0262 11.8042 71.9922 11.8351 71.9365 11.8784C71.887 11.9217 71.8283 11.9712 71.7603 12.0269C71.6984 12.0825 71.6335 12.1382 71.5654 12.1938C71.5036 12.2495 71.4541 12.299 71.417 12.3423C71.3923 12.3732 71.3675 12.4103 71.3428 12.4536C71.3242 12.4969 71.3026 12.5309 71.2778 12.5557C71.2469 12.5742 71.2098 12.5835 71.1665 12.5835C71.1294 12.5835 71.0954 12.5959 71.0645 12.6206C71.0521 12.6392 71.0397 12.6701 71.0273 12.7134C71.0212 12.7505 71.0057 12.769 70.981 12.769C70.9686 12.769 70.95 12.769 70.9253 12.769C70.9067 12.7629 70.8913 12.7598 70.8789 12.7598C70.8542 12.7598 70.7985 12.7938 70.7119 12.8618C70.6253 12.9237 70.5295 12.9948 70.4243 13.0752C70.3254 13.1556 70.2295 13.2329 70.1367 13.3071C70.0501 13.3813 69.9914 13.4277 69.9604 13.4463C69.9172 13.4772 69.8708 13.502 69.8213 13.5205C69.778 13.5391 69.7347 13.5638 69.6914 13.5947C69.6357 13.6195 69.5924 13.6473 69.5615 13.6782C69.5306 13.7153 69.4997 13.7463 69.4688 13.771C69.4378 13.8019 69.4038 13.8267 69.3667 13.8452C69.3296 13.8638 69.277 13.873 69.209 13.873C69.1904 13.873 69.1533 13.8607 69.0977 13.8359C69.042 13.8112 68.9863 13.7772 68.9307 13.7339C68.875 13.6968 68.8224 13.6504 68.7729 13.5947C68.7297 13.5391 68.708 13.4803 68.708 13.4185C68.708 13.3999 68.7111 13.3813 68.7173 13.3628C68.7235 13.3381 68.7266 13.3133 68.7266 13.2886C68.7266 13.27 68.7235 13.2546 68.7173 13.2422C68.6431 13.0876 68.5596 12.9422 68.4668 12.8062C68.3802 12.6639 68.3369 12.4969 68.3369 12.3052C68.3369 12.2371 68.3462 12.1691 68.3647 12.1011C68.3833 12.0269 68.3926 11.9279 68.3926 11.8042C68.3926 11.6496 68.3833 11.4733 68.3647 11.2754C68.3462 11.0713 68.3369 10.8703 68.3369 10.6724C68.3369 10.4868 68.3647 10.2796 68.4204 10.0508C68.4761 9.82194 68.5503 9.5931 68.6431 9.36426C68.7358 9.12923 68.841 8.90348 68.9585 8.68701C69.0822 8.47054 69.209 8.2819 69.3389 8.12109C69.4316 8.00358 69.5306 7.89225 69.6357 7.78711C69.7409 7.68197 69.8491 7.57373 69.9604 7.4624C70.078 7.35107 70.1955 7.23665 70.313 7.11914C70.4305 7.00163 70.5449 6.87174 70.6562 6.72949C70.7243 6.6429 70.814 6.55322 70.9253 6.46045C71.0428 6.36768 71.1603 6.27181 71.2778 6.17285C71.3088 6.1543 71.3428 6.14502 71.3799 6.14502C71.417 6.14502 71.451 6.13265 71.4819 6.10791C71.5438 6.06462 71.5964 6.01823 71.6396 5.96875C71.6829 5.91927 71.7201 5.87288 71.751 5.82959C71.7819 5.7863 71.8128 5.75228 71.8438 5.72754C71.8747 5.69661 71.9087 5.68115 71.9458 5.68115C71.9767 5.68115 72.0046 5.68424 72.0293 5.69043C72.0602 5.69661 72.0911 5.69971 72.1221 5.69971C72.1592 5.69971 72.187 5.69043 72.2056 5.67188C72.2241 5.64714 72.2427 5.6224 72.2612 5.59766C72.2798 5.56673 72.3014 5.54199 72.3262 5.52344C72.3571 5.4987 72.4004 5.48633 72.4561 5.48633C72.5736 5.50488 72.6571 5.53581 72.7065 5.5791C72.7622 5.61621 72.7993 5.66569 72.8179 5.72754C72.8364 5.78939 72.8519 5.86361 72.8643 5.9502C72.8766 6.03678 72.9014 6.13574 72.9385 6.24707L73.0776 6.72949C73.1024 6.81608 73.1302 6.89958 73.1611 6.97998C73.1921 7.06038 73.2106 7.1346 73.2168 7.20264C73.2168 7.2583 73.2044 7.2985 73.1797 7.32324C73.1549 7.3418 73.1426 7.37581 73.1426 7.42529C73.1426 7.45622 73.1549 7.49642 73.1797 7.5459C73.2044 7.58919 73.2168 7.64176 73.2168 7.70361ZM71.8345 9.021C71.8345 8.92204 71.8252 8.8138 71.8066 8.69629C71.7943 8.57878 71.7819 8.45508 71.7695 8.3252C71.7572 8.16439 71.7479 7.9943 71.7417 7.81494C71.7417 7.63558 71.7355 7.46859 71.7231 7.31396C71.7108 7.15934 71.6922 7.03255 71.6675 6.93359C71.6489 6.83464 71.6149 6.78516 71.5654 6.78516C71.4974 6.78516 71.3923 6.82227 71.25 6.89648C71.1139 6.9707 70.984 7.0542 70.8604 7.14697C70.8294 7.1779 70.7985 7.23047 70.7676 7.30469C70.7367 7.37272 70.6995 7.43766 70.6562 7.49951C70.5016 7.7098 70.3717 7.90462 70.2666 8.08398C70.1676 8.26335 70.0841 8.4458 70.0161 8.63135C69.9481 8.81689 69.8893 9.01481 69.8398 9.2251C69.7904 9.4292 69.7409 9.66113 69.6914 9.9209C69.6543 10.1188 69.6172 10.2889 69.5801 10.4312C69.543 10.5734 69.5244 10.7373 69.5244 10.9229C69.5244 11.4671 69.5801 11.8877 69.6914 12.1846C69.8089 12.4814 69.9481 12.6299 70.1089 12.6299C70.2078 12.6299 70.279 12.6021 70.3223 12.5464C70.3717 12.4845 70.4119 12.4382 70.4429 12.4072C70.4738 12.3887 70.5078 12.3794 70.5449 12.3794C70.5882 12.3794 70.6253 12.367 70.6562 12.3423C70.7861 12.2248 70.8851 12.0856 70.9531 11.9248C71.0212 11.764 71.083 11.6032 71.1387 11.4424H71.1943C71.2129 11.4424 71.2222 11.4362 71.2222 11.4238C71.2222 11.4115 71.2191 11.396 71.2129 11.3774C71.2129 11.3527 71.2129 11.3341 71.2129 11.3218C71.2129 11.2785 71.2222 11.2321 71.2407 11.1826C71.2655 11.1331 71.2933 11.0868 71.3242 11.0435C71.3551 11.0002 71.3861 10.96 71.417 10.9229C71.4479 10.8796 71.4696 10.8455 71.4819 10.8208C71.5376 10.7157 71.5747 10.6198 71.5933 10.5332C71.618 10.4404 71.6335 10.3507 71.6396 10.2642C71.652 10.1714 71.6582 10.0817 71.6582 9.99512C71.6644 9.90234 71.6768 9.80648 71.6953 9.70752C71.7139 9.56527 71.7386 9.43848 71.7695 9.32715C71.8005 9.21582 71.8221 9.11377 71.8345 9.021ZM81.0933 11.4331C81.0933 11.5321 81.0654 11.6217 81.0098 11.7021C80.9541 11.7764 80.883 11.8506 80.7964 11.9248C80.7098 11.999 80.6139 12.0732 80.5088 12.1475C80.4036 12.2217 80.3016 12.3052 80.2026 12.3979C80.1717 12.4227 80.147 12.4598 80.1284 12.5093C80.1099 12.5526 80.0851 12.5835 80.0542 12.6021C80.0233 12.633 79.9893 12.6453 79.9521 12.6392C79.915 12.633 79.881 12.6453 79.8501 12.6763C79.8068 12.7196 79.7635 12.7814 79.7202 12.8618C79.6831 12.936 79.6336 13.0133 79.5718 13.0938C79.5532 13.1247 79.5037 13.1865 79.4233 13.2793C79.3491 13.3721 79.2594 13.4679 79.1543 13.5669C79.0553 13.6659 78.9502 13.7555 78.8389 13.8359C78.7337 13.9163 78.6379 13.9565 78.5513 13.9565C78.5018 13.9565 78.4647 13.9442 78.4399 13.9194C78.4152 13.8947 78.4028 13.8669 78.4028 13.8359C78.4028 13.7988 78.4121 13.7555 78.4307 13.7061C78.4492 13.6566 78.4585 13.5916 78.4585 13.5112C78.4585 13.3752 78.4368 13.2607 78.3936 13.168C78.3503 13.0752 78.3286 13.0041 78.3286 12.9546C78.3348 12.8247 78.3688 12.6825 78.4307 12.5278C78.4987 12.3732 78.5327 12.2155 78.5327 12.0547C78.5327 11.9681 78.5203 11.8877 78.4956 11.8135C78.4709 11.7331 78.4585 11.6496 78.4585 11.563C78.4585 11.4764 78.4801 11.3867 78.5234 11.2939C78.5667 11.195 78.5946 11.1022 78.6069 11.0156C78.6193 10.9167 78.6286 10.8177 78.6348 10.7188C78.641 10.6198 78.644 10.5208 78.644 10.4219V10.1621C78.644 10.026 78.6533 9.90234 78.6719 9.79102C78.6904 9.67969 78.709 9.57454 78.7275 9.47559C78.7523 9.37663 78.777 9.27767 78.8018 9.17871C78.8327 9.07975 78.8574 8.97461 78.876 8.86328C78.9007 8.71484 78.9162 8.56641 78.9224 8.41797C78.9285 8.26953 78.9316 8.12109 78.9316 7.97266C78.9378 7.82422 78.944 7.68197 78.9502 7.5459C78.9626 7.40365 78.9842 7.26758 79.0151 7.1377C78.9966 7.13151 78.9688 7.12842 78.9316 7.12842C78.8512 7.12842 78.7832 7.15316 78.7275 7.20264C78.6719 7.24593 78.6224 7.2985 78.5791 7.36035C78.542 7.41602 78.508 7.47786 78.4771 7.5459C78.4523 7.60775 78.4245 7.65723 78.3936 7.69434C78.3688 7.72526 78.3348 7.74691 78.2915 7.75928C78.2482 7.77165 78.2142 7.79329 78.1895 7.82422C78.1585 7.86133 78.1338 7.90771 78.1152 7.96338C78.0967 8.01904 78.075 8.06543 78.0503 8.10254C78.0379 8.12728 78.0101 8.14274 77.9668 8.14893C77.9297 8.14893 77.9111 8.16439 77.9111 8.19531C77.9111 8.20768 77.9111 8.22314 77.9111 8.2417C77.9173 8.26025 77.9204 8.27572 77.9204 8.28809C77.9204 8.31283 77.9019 8.34375 77.8647 8.38086C77.8276 8.41178 77.7843 8.4458 77.7349 8.48291C77.6916 8.52002 77.6514 8.55713 77.6143 8.59424C77.5771 8.63135 77.5586 8.66227 77.5586 8.68701C77.5586 8.69938 77.5586 8.71484 77.5586 8.7334C77.5648 8.75195 77.5679 8.76742 77.5679 8.77979C77.5679 8.79215 77.5462 8.82926 77.5029 8.89111C77.4596 8.95296 77.4071 9.021 77.3452 9.09521C77.2834 9.16943 77.2215 9.24365 77.1597 9.31787C77.0978 9.39209 77.0483 9.44775 77.0112 9.48486C76.8999 9.59619 76.8195 9.70133 76.77 9.80029C76.7205 9.89925 76.6834 9.99512 76.6587 10.0879C76.6401 10.1745 76.6216 10.2611 76.603 10.3477C76.5907 10.4342 76.5659 10.5177 76.5288 10.5981C76.5164 10.6105 76.4917 10.6229 76.4546 10.6353C76.4175 10.6414 76.3927 10.6507 76.3804 10.6631C76.3494 10.7311 76.3216 10.8053 76.2969 10.8857C76.2721 10.9661 76.2319 11.0527 76.1763 11.1455C76.1639 11.1641 76.1392 11.1888 76.1021 11.2197C76.0649 11.2507 76.0464 11.2754 76.0464 11.2939C76.0155 11.362 75.9907 11.4424 75.9722 11.5352C75.9536 11.6279 75.9382 11.7238 75.9258 11.8228C75.9134 11.9217 75.9041 12.0207 75.8979 12.1196C75.8918 12.2124 75.8887 12.2928 75.8887 12.3608C75.8887 12.4289 75.9041 12.4814 75.9351 12.5186C75.966 12.5557 75.9814 12.6113 75.9814 12.6855C75.9814 12.7288 75.966 12.7629 75.9351 12.7876C75.9103 12.8123 75.8763 12.8371 75.833 12.8618C75.7959 12.8804 75.7495 12.902 75.6938 12.9268C75.6444 12.9515 75.598 12.9824 75.5547 13.0195C75.4124 13.1432 75.2918 13.2546 75.1929 13.3535C75.0939 13.4463 75.0042 13.5329 74.9238 13.6133C74.8434 13.6999 74.7723 13.7772 74.7104 13.8452C74.6486 13.9194 74.5837 13.9906 74.5156 14.0586C74.4723 14.0524 74.4507 14.0308 74.4507 13.9937C74.4507 13.9256 74.4847 13.8576 74.5527 13.7896C74.6208 13.7215 74.6548 13.6597 74.6548 13.604C74.6548 13.5607 74.6424 13.5267 74.6177 13.502C74.5991 13.471 74.5898 13.4277 74.5898 13.3721C74.5898 13.3535 74.5929 13.3164 74.5991 13.2607C74.6115 13.1989 74.6239 13.1309 74.6362 13.0566C74.6486 12.9762 74.661 12.8958 74.6733 12.8154C74.6919 12.735 74.7074 12.6639 74.7197 12.6021C74.7445 12.4969 74.7754 12.3918 74.8125 12.2866C74.8558 12.1753 74.896 12.064 74.9331 11.9526C74.9764 11.8351 75.0104 11.7176 75.0352 11.6001C75.0661 11.4826 75.0815 11.362 75.0815 11.2383C75.0815 11.1826 75.0785 11.1362 75.0723 11.0991C75.0661 11.0558 75.063 11.0156 75.063 10.9785C75.063 10.9229 75.0692 10.8455 75.0815 10.7466C75.0939 10.6414 75.1063 10.527 75.1187 10.4033C75.1372 10.2796 75.1527 10.1559 75.165 10.0322C75.1836 9.90853 75.1991 9.7972 75.2114 9.69824C75.23 9.48177 75.2393 9.26221 75.2393 9.03955C75.2393 8.81689 75.2516 8.59733 75.2764 8.38086C75.3011 8.18294 75.3351 7.98503 75.3784 7.78711C75.4279 7.58919 75.4526 7.39128 75.4526 7.19336C75.4526 7.06966 75.4403 6.95833 75.4155 6.85938C75.3413 6.87174 75.2671 6.91813 75.1929 6.99854C75.1187 7.07894 75.0475 7.16553 74.9795 7.2583C74.9176 7.35107 74.862 7.43457 74.8125 7.50879C74.763 7.58301 74.7259 7.62012 74.7012 7.62012C74.6888 7.62012 74.6733 7.62012 74.6548 7.62012C74.6362 7.61393 74.6208 7.61084 74.6084 7.61084C74.5775 7.61084 74.5527 7.64486 74.5342 7.71289C74.5156 7.78092 74.4909 7.85514 74.46 7.93555C74.429 8.00977 74.3857 8.08089 74.3301 8.14893C74.2806 8.21696 74.2095 8.25098 74.1167 8.25098C74.092 8.25098 74.0456 8.2417 73.9775 8.22314C73.9095 8.20459 73.8755 8.1613 73.8755 8.09326C73.8755 8.04997 73.8879 8.00977 73.9126 7.97266C73.9435 7.93555 73.9775 7.90153 74.0146 7.87061C74.0579 7.83968 74.0981 7.81185 74.1353 7.78711C74.1785 7.75618 74.2126 7.72526 74.2373 7.69434C74.2559 7.66341 74.2651 7.62939 74.2651 7.59229C74.2713 7.54899 74.2837 7.51188 74.3022 7.48096C74.4507 7.29541 74.627 7.11296 74.8311 6.93359C75.0413 6.75423 75.2362 6.56559 75.4155 6.36768C75.4403 6.34294 75.4495 6.30892 75.4434 6.26562C75.4434 6.22233 75.4588 6.18831 75.4897 6.16357C75.5145 6.13883 75.5485 6.12956 75.5918 6.13574C75.6351 6.13574 75.6691 6.12337 75.6938 6.09863C75.7124 6.08008 75.7279 6.04606 75.7402 5.99658C75.7588 5.9471 75.7835 5.89762 75.8145 5.84814C75.8516 5.79248 75.8949 5.74609 75.9443 5.70898C76 5.67188 76.0742 5.65332 76.167 5.65332C76.2165 5.65332 76.269 5.6626 76.3247 5.68115C76.3866 5.69352 76.4422 5.71517 76.4917 5.74609C76.5474 5.77083 76.5907 5.80176 76.6216 5.83887C76.6587 5.86979 76.6772 5.90381 76.6772 5.94092C76.6772 6.00277 76.6618 6.08317 76.6309 6.18213C76.6061 6.28109 76.5938 6.38932 76.5938 6.50684C76.5938 6.58105 76.6061 6.65218 76.6309 6.72021C76.6556 6.78206 76.668 6.82845 76.668 6.85938C76.6556 6.93978 76.6278 7.02018 76.5845 7.10059C76.5412 7.1748 76.5195 7.27376 76.5195 7.39746C76.5195 7.45312 76.5195 7.51497 76.5195 7.58301C76.5257 7.65104 76.5288 7.71908 76.5288 7.78711C76.5288 7.89844 76.5133 8.02523 76.4824 8.16748C76.4515 8.30355 76.4175 8.43652 76.3804 8.56641C76.3494 8.69629 76.3185 8.81689 76.2876 8.92822C76.2567 9.03337 76.2412 9.11377 76.2412 9.16943C76.2412 9.21891 76.2629 9.24365 76.3062 9.24365C76.368 9.24365 76.4484 9.20036 76.5474 9.11377C76.6463 9.02718 76.7298 8.94368 76.7979 8.86328C76.8226 8.83854 76.835 8.80452 76.835 8.76123C76.8411 8.71794 76.8535 8.68392 76.8721 8.65918C76.8844 8.64062 76.9123 8.61589 76.9556 8.58496C77.005 8.54785 77.0545 8.51074 77.104 8.47363C77.1535 8.43652 77.1968 8.40251 77.2339 8.37158C77.271 8.33447 77.2896 8.30664 77.2896 8.28809C77.2896 8.27572 77.2865 8.26025 77.2803 8.2417C77.2803 8.22314 77.2803 8.20768 77.2803 8.19531C77.2803 8.16439 77.3019 8.12109 77.3452 8.06543C77.3885 8.00977 77.438 7.95101 77.4937 7.88916C77.5493 7.82113 77.6019 7.75618 77.6514 7.69434C77.707 7.63249 77.7472 7.58301 77.772 7.5459C77.7967 7.50879 77.806 7.46549 77.7998 7.41602C77.7998 7.36035 77.8122 7.31396 77.8369 7.27686C77.9111 7.1779 78.0101 7.06657 78.1338 6.94287C78.2637 6.81917 78.3719 6.72331 78.4585 6.65527C78.508 6.61816 78.5575 6.59342 78.6069 6.58105C78.6564 6.56868 78.7028 6.54395 78.7461 6.50684C78.8389 6.42025 78.9255 6.32438 79.0059 6.21924C79.0863 6.1141 79.1667 6.01823 79.2471 5.93164C79.3275 5.83887 79.4079 5.76156 79.4883 5.69971C79.5749 5.63786 79.6707 5.60693 79.7759 5.60693C79.8068 5.60693 79.8532 5.6224 79.915 5.65332C79.9769 5.68424 80.0387 5.72754 80.1006 5.7832C80.1624 5.83887 80.215 5.90381 80.2583 5.97803C80.3078 6.04606 80.3325 6.12028 80.3325 6.20068C80.3325 6.25016 80.3232 6.3151 80.3047 6.39551C80.2861 6.46973 80.2738 6.55632 80.2676 6.65527C80.249 6.87793 80.2274 7.08512 80.2026 7.27686C80.1841 7.46859 80.1593 7.67578 80.1284 7.89844C80.1037 8.06543 80.0882 8.22624 80.082 8.38086C80.082 8.5293 80.0728 8.64681 80.0542 8.7334C80.0233 8.8571 79.9738 8.9777 79.9058 9.09521C79.8439 9.21273 79.813 9.35189 79.813 9.5127C79.813 9.5498 79.8161 9.59001 79.8223 9.6333C79.8285 9.6766 79.8377 9.72298 79.8501 9.77246C79.8563 9.79102 79.8656 9.80648 79.8779 9.81885C79.8965 9.82503 79.9119 9.8374 79.9243 9.85596C79.9429 9.86833 79.9583 9.88997 79.9707 9.9209C79.9831 9.95182 79.9893 9.99821 79.9893 10.0601C79.9893 10.2209 79.9552 10.3817 79.8872 10.5425C79.8192 10.6971 79.7852 10.8641 79.7852 11.0435C79.7852 11.1115 79.7944 11.1826 79.813 11.2568C79.8377 11.3249 79.8501 11.3929 79.8501 11.4609C79.8501 11.5846 79.8223 11.7083 79.7666 11.832C79.7171 11.9495 79.6924 12.0794 79.6924 12.2217C79.6924 12.2526 79.6955 12.2804 79.7017 12.3052C79.7078 12.3299 79.7264 12.3423 79.7573 12.3423C79.8934 12.3423 80.0047 12.2928 80.0913 12.1938C80.1841 12.0949 80.2707 11.9867 80.3511 11.8691C80.4315 11.7516 80.515 11.6434 80.6016 11.5444C80.6943 11.4455 80.8057 11.396 80.9355 11.396C80.9912 11.396 81.0438 11.4084 81.0933 11.4331Z" fill="#A72450"/>
</svg>
