<svg width="43" height="43" viewBox="0 0 43 43" fill="none" xmlns="http://www.w3.org/2000/svg">
<path d="M10.0378 16.8372L4.66284 11.4622C4.47411 11.2732 4.3681 11.0171 4.3681 10.75C4.3681 10.4829 4.47411 10.2268 4.66284 10.0378L10.0378 4.66281C10.1301 4.56379 10.2414 4.48437 10.365 4.42929C10.4886 4.3742 10.6221 4.34459 10.7574 4.3422C10.8927 4.33981 11.0271 4.3647 11.1526 4.41539C11.2781 4.46608 11.3921 4.54152 11.4878 4.63722C11.5835 4.73292 11.6589 4.84692 11.7096 4.97241C11.7603 5.0979 11.7852 5.23231 11.7828 5.36763C11.7804 5.50295 11.7508 5.6364 11.6957 5.76003C11.6407 5.88365 11.5612 5.99492 11.4622 6.08718L6.80108 10.75L11.4622 15.4128C11.5612 15.5051 11.6407 15.6163 11.6957 15.74C11.7508 15.8636 11.7804 15.997 11.7828 16.1324C11.7852 16.2677 11.7603 16.4021 11.7096 16.5276C11.6589 16.6531 11.5835 16.7671 11.4878 16.8628C11.3921 16.9585 11.2781 17.0339 11.1526 17.0846C11.0271 17.1353 10.8927 17.1602 10.7574 17.1578C10.6221 17.1554 10.4886 17.1258 10.365 17.0707C10.2414 17.0156 10.1301 16.9362 10.0378 16.8372ZM16.7566 16.8372C16.9456 17.0259 17.2017 17.1319 17.4688 17.1319C17.7358 17.1319 17.992 17.0259 18.181 16.8372L23.556 11.4622C23.7447 11.2732 23.8507 11.0171 23.8507 10.75C23.8507 10.4829 23.7447 10.2268 23.556 10.0378L18.181 4.66281C18.0887 4.56379 17.9774 4.48437 17.8538 4.42929C17.7302 4.3742 17.5967 4.34459 17.4614 4.3422C17.3261 4.33981 17.1917 4.3647 17.0662 4.41539C16.9407 4.46608 16.8267 4.54152 16.731 4.63722C16.6353 4.73292 16.5599 4.84692 16.5092 4.97241C16.4585 5.0979 16.4336 5.23231 16.436 5.36763C16.4384 5.50295 16.468 5.6364 16.5231 5.76003C16.5782 5.88365 16.6576 5.99492 16.7566 6.08718L21.4177 10.75L16.7566 15.4128C16.5679 15.6018 16.4619 15.8579 16.4619 16.125C16.4619 16.3921 16.5679 16.6482 16.7566 16.8372ZM33.5938 7.05468H29.5625C29.2952 7.05468 29.0389 7.16086 28.8499 7.34986C28.6609 7.53886 28.5547 7.7952 28.5547 8.06249C28.5547 8.32978 28.6609 8.58612 28.8499 8.77512C29.0389 8.96413 29.2952 9.07031 29.5625 9.07031H33.5938C33.6829 9.07031 33.7683 9.1057 33.8313 9.1687C33.8943 9.2317 33.9297 9.31715 33.9297 9.40624V33.5937C33.9297 33.6828 33.8943 33.7683 33.8313 33.8313C33.7683 33.8943 33.6829 33.9297 33.5938 33.9297H9.40628C9.31718 33.9297 9.23173 33.8943 9.16873 33.8313C9.10573 33.7683 9.07034 33.6828 9.07034 33.5937V22.8437C9.07034 22.5765 8.96416 22.3201 8.77516 22.1311C8.58616 21.9421 8.32982 21.8359 8.06253 21.8359C7.79524 21.8359 7.5389 21.9421 7.3499 22.1311C7.1609 22.3201 7.05472 22.5765 7.05472 22.8437V33.5937C7.05472 34.2174 7.30247 34.8155 7.74347 35.2565C8.18448 35.6976 8.78261 35.9453 9.40628 35.9453H33.5938C34.2174 35.9453 34.8156 35.6976 35.2566 35.2565C35.6976 34.8155 35.9453 34.2174 35.9453 33.5937V9.40624C35.9453 8.78257 35.6976 8.18444 35.2566 7.74344C34.8156 7.30243 34.2174 7.05468 33.5938 7.05468Z" fill="black"/>
</svg>
