<svg width="43" height="43" viewBox="0 0 43 43" fill="none" xmlns="http://www.w3.org/2000/svg">
<path d="M29.5625 3.02344H13.4375C12.4574 3.02344 11.5175 3.41276 10.8245 4.10577C10.1315 4.79878 9.74219 5.73869 9.74219 6.71875V36.2812C9.74219 37.2613 10.1315 38.2012 10.8245 38.8942C11.5175 39.5872 12.4574 39.9766 13.4375 39.9766H29.5625C30.5426 39.9766 31.4825 39.5872 32.1755 38.8942C32.8685 38.2012 33.2578 37.2613 33.2578 36.2812V6.71875C33.2578 5.73869 32.8685 4.79878 32.1755 4.10577C31.4825 3.41276 30.5426 3.02344 29.5625 3.02344ZM11.7578 10.4141H31.2422V32.5859H11.7578V10.4141ZM13.4375 5.03906H29.5625C30.008 5.03906 30.4352 5.21603 30.7502 5.53103C31.0652 5.84603 31.2422 6.27327 31.2422 6.71875V8.39844H11.7578V6.71875C11.7578 6.27327 11.9348 5.84603 12.2498 5.53103C12.5648 5.21603 12.992 5.03906 13.4375 5.03906ZM29.5625 37.9609H13.4375C12.992 37.9609 12.5648 37.784 12.2498 37.469C11.9348 37.154 11.7578 36.7267 11.7578 36.2812V34.6016H31.2422V36.2812C31.2422 36.7267 31.0652 37.154 30.7502 37.469C30.4352 37.784 30.008 37.9609 29.5625 37.9609Z" fill="black"/>
</svg>
