<svg width="29" height="20" viewBox="0 0 29 20" fill="none" xmlns="http://www.w3.org/2000/svg">
<path d="M-7.93707e-07 18.6787V18.3957L0.594321 18.1976C0.971668 18.0655 1.21694 17.8957 1.33015 17.6881C1.44335 17.4617 1.49995 17.1504 1.49995 16.7542V1.95277C1.49995 1.57543 1.44335 1.28298 1.33015 1.07544C1.23581 0.849033 1.0094 0.669793 0.650923 0.537721L-7.93707e-07 0.283012V1.66104e-06H8.09409C10.3204 1.66104e-06 12.0279 0.424517 13.2166 1.27355C14.4052 2.10371 14.9995 3.26405 14.9995 4.75457C14.9995 5.58474 14.6882 6.4149 14.0656 7.24506C13.443 8.07523 12.4619 8.71672 11.1223 9.16953L15.0561 16.9806C15.226 17.3014 15.4146 17.5655 15.6222 17.773C15.8486 17.9617 16.141 18.1315 16.4995 18.2825L16.8674 18.424V18.6787H11.8015L7.61298 9.76386H5.68851V16.7542C5.68851 17.1127 5.74511 17.4051 5.85831 17.6315C5.97152 17.858 6.20736 18.0278 6.56584 18.141L7.24506 18.3957V18.6787H-7.93707e-07ZM5.68851 9.19784H7.04696C8.4054 9.19784 9.38651 8.83936 9.99026 8.1224C10.594 7.38657 10.8959 6.3017 10.8959 4.86778C10.8959 3.41499 10.6129 2.33955 10.0469 1.64146C9.48084 0.924501 8.52804 0.566022 7.18846 0.566022H5.68851V9.19784ZM22.6105 19.1032C21.686 19.1032 20.8559 18.99 20.12 18.7636C19.3842 18.556 18.705 18.2919 18.0824 17.9712L18.1107 14.6033H18.3937L19.3559 16.3014C19.771 17.0561 20.2238 17.6221 20.7144 17.9995C21.2238 18.3579 21.8653 18.5372 22.6388 18.5372C23.5445 18.5372 24.2709 18.3391 24.818 17.9429C25.384 17.5278 25.667 16.9806 25.667 16.3014C25.667 15.6788 25.4689 15.1694 25.0727 14.7731C24.6765 14.3769 23.9407 14.0184 22.8652 13.6977L21.6766 13.3298C20.5257 12.9902 19.6201 12.4619 18.9597 11.7449C18.2993 11.028 17.9692 10.1506 17.9692 9.11293C17.9692 7.86769 18.4597 6.81112 19.4408 5.94322C20.4219 5.07532 21.8275 4.64137 23.6577 4.64137C24.3935 4.64137 25.0822 4.72627 25.7236 4.89608C26.384 5.04702 27.0161 5.28286 27.6198 5.60361L27.45 8.66012H27.167L26.1765 6.90545C25.818 6.28283 25.4595 5.84888 25.101 5.60361C24.7614 5.33946 24.2426 5.20739 23.5445 5.20739C22.903 5.20739 22.2992 5.38663 21.7332 5.74511C21.1672 6.10359 20.8842 6.61301 20.8842 7.27337C20.8842 7.91486 21.12 8.42427 21.5917 8.80162C22.0822 9.17897 22.7992 9.52801 23.7426 9.84876L25.0161 10.2167C26.3746 10.6318 27.3462 11.2072 27.9311 11.943C28.516 12.66 28.8085 13.5279 28.8085 14.5467C28.8085 15.924 28.2613 17.0278 27.167 17.858C26.0916 18.6881 24.5727 19.1032 22.6105 19.1032Z" fill="#C07662"/>
</svg>
