<svg width="57" height="38" viewBox="0 0 57 38" fill="none" xmlns="http://www.w3.org/2000/svg">
<path d="M2.08106e-06 36.8784V36.3197L1.17341 35.9285C1.91842 35.6678 2.40269 35.3325 2.62619 34.9227C2.8497 34.4757 2.96145 33.8611 2.96145 33.0788V3.85547C2.96145 3.11045 2.8497 2.53306 2.62619 2.1233C2.43994 1.67629 1.99293 1.32241 1.28516 1.06165L2.08106e-06 0.558763V6.04623e-08H15.9807C20.3763 6.04623e-08 23.7475 0.838146 26.0943 2.51444C28.4411 4.15348 29.6145 6.44441 29.6145 9.38723C29.6145 11.0263 28.9999 12.6653 27.7706 14.3044C26.5413 15.9434 24.6042 17.2099 21.9594 18.104L29.7262 33.5258C30.0615 34.1591 30.434 34.6806 30.8438 35.0904C31.2908 35.4629 31.8682 35.7981 32.5759 36.0961L33.3023 36.3755V36.8784H23.3005L15.0308 19.2774H11.2312V33.0788C11.2312 33.7866 11.3429 34.364 11.5664 34.811C11.7899 35.258 12.2556 35.5933 12.9633 35.8168L14.3044 36.3197V36.8784H2.08106e-06ZM11.2312 18.1598H13.9132C16.5953 18.1598 18.5323 17.4521 19.7244 16.0365C20.9164 14.5837 21.5124 12.4418 21.5124 9.61074C21.5124 6.74242 20.9536 4.61912 19.8361 3.24083C18.7186 1.82529 16.8374 1.11753 14.1926 1.11753H11.2312V18.1598ZM44.6413 37.7166C42.816 37.7166 41.177 37.4931 39.7242 37.046C38.2714 36.6363 36.9304 36.1148 35.7011 35.4815L35.757 28.8322H36.3157L38.2155 32.1848C39.035 33.6748 39.9291 34.7924 40.8976 35.5374C41.9034 36.2452 43.1699 36.599 44.6972 36.599C46.4852 36.599 47.9194 36.2079 48.9997 35.4256C50.1172 34.6061 50.676 33.5258 50.676 32.1848C50.676 30.9555 50.2848 29.9497 49.5026 29.1675C48.7203 28.3852 47.2675 27.6774 45.1442 27.0442L42.7974 26.3178C40.5251 25.6473 38.737 24.6042 37.4333 23.1887C36.1295 21.7732 35.4776 20.041 35.4776 17.9922C35.4776 15.5336 36.4461 13.4476 38.3832 11.734C40.3202 10.0205 43.0954 9.16373 46.7087 9.16373C48.1615 9.16373 49.5212 9.33136 50.7877 9.66662C52.0915 9.96462 53.3394 10.4303 54.5314 11.0635L54.1962 17.0982H53.6374L51.6817 13.6338C50.974 12.4046 50.2662 11.5478 49.5584 11.0635C48.8879 10.542 47.8635 10.2813 46.4852 10.2813C45.2187 10.2813 44.0267 10.6351 42.9091 11.3429C41.7916 12.0507 41.2328 13.0564 41.2328 14.3602C41.2328 15.6268 41.6985 16.6325 42.6298 17.3776C43.5983 18.1226 45.0138 18.8117 46.8764 19.445L49.3908 20.1714C52.0729 20.9909 53.9913 22.1271 55.1461 23.5798C56.3009 24.9954 56.8782 26.7089 56.8782 28.7205C56.8782 31.4398 55.798 33.619 53.6374 35.258C51.5141 36.897 48.5154 37.7166 44.6413 37.7166Z" fill="black"/>
</svg>
