<svg width="43" height="43" viewBox="0 0 43 43" fill="none" xmlns="http://www.w3.org/2000/svg">
<path d="M34.9375 7.05469H8.0625C7.08244 7.05469 6.14252 7.44401 5.44952 8.13702C4.75651 8.83002 4.36719 9.76994 4.36719 10.75V29.5625C4.36719 30.5426 4.75651 31.4825 5.44952 32.1755C6.14252 32.8685 7.08244 33.2578 8.0625 33.2578H34.9375C35.9176 33.2578 36.8575 32.8685 37.5505 32.1755C38.2435 31.4825 38.6328 30.5426 38.6328 29.5625V10.75C38.6328 9.76994 38.2435 8.83002 37.5505 8.13702C36.8575 7.44401 35.9176 7.05469 34.9375 7.05469ZM36.6172 29.5625C36.6172 30.008 36.4402 30.4352 36.1252 30.7502C35.8102 31.0652 35.383 31.2422 34.9375 31.2422H8.0625C7.61702 31.2422 7.18978 31.0652 6.87478 30.7502C6.55978 30.4352 6.38281 30.008 6.38281 29.5625V10.75C6.38281 10.3045 6.55978 9.87728 6.87478 9.56228C7.18978 9.24728 7.61702 9.07031 8.0625 9.07031H34.9375C35.383 9.07031 35.8102 9.24728 36.1252 9.56228C36.4402 9.87728 36.6172 10.3045 36.6172 10.75V29.5625ZM27.8828 37.625C27.8828 37.8923 27.7766 38.1486 27.5876 38.3376C27.3986 38.5266 27.1423 38.6328 26.875 38.6328H16.125C15.8577 38.6328 15.6014 38.5266 15.4124 38.3376C15.2234 38.1486 15.1172 37.8923 15.1172 37.625C15.1172 37.3577 15.2234 37.1014 15.4124 36.9124C15.6014 36.7234 15.8577 36.6172 16.125 36.6172H26.875C27.1423 36.6172 27.3986 36.7234 27.5876 36.9124C27.7766 37.1014 27.8828 37.3577 27.8828 37.625Z" fill="black"/>
</svg>
