<svg width="43" height="43" viewBox="0 0 43 43" fill="none" xmlns="http://www.w3.org/2000/svg">
<path d="M38.4951 29.0586C38.6294 29.2894 38.6667 29.5641 38.5987 29.8223C38.5306 30.0806 38.3629 30.3012 38.1323 30.4359L22.0073 39.8422C21.8541 39.9306 21.6803 39.9772 21.5034 39.9772C21.3265 39.9772 21.1527 39.9306 20.9995 39.8422L4.87445 30.4359C4.6627 30.2931 4.51305 30.0753 4.45575 29.8264C4.39845 29.5776 4.43776 29.3162 4.56575 29.0952C4.69375 28.8742 4.90086 28.71 5.14525 28.6359C5.38963 28.5617 5.65305 28.5831 5.88227 28.6958L21.5034 37.8047L37.1245 28.6958C37.3546 28.5635 37.6277 28.5274 37.8844 28.5954C38.141 28.6633 38.3605 28.8298 38.4951 29.0586ZM37.1211 20.6299L21.5 29.7388L5.87891 20.6299C5.64969 20.5173 5.38627 20.4959 5.14189 20.57C4.8975 20.6442 4.69039 20.8084 4.56239 21.0294C4.4344 21.2503 4.39509 21.5117 4.45239 21.7606C4.50969 22.0094 4.65934 22.2273 4.87109 22.3701L20.9961 31.7763C21.1493 31.8648 21.3231 31.9113 21.5 31.9113C21.6769 31.9113 21.8507 31.8648 22.0039 31.7763L38.1289 22.3701C38.3407 22.2273 38.4903 22.0094 38.5476 21.7606C38.6049 21.5117 38.5656 21.2503 38.4376 21.0294C38.3096 20.8084 38.1025 20.6442 37.8581 20.57C37.6137 20.4959 37.3503 20.5173 37.1211 20.6299ZM4.36719 13.4375C4.36766 13.261 4.41446 13.0878 4.50289 12.9351C4.59132 12.7824 4.71828 12.6556 4.87109 12.5674L20.9961 3.16114C21.1493 3.07269 21.3231 3.02612 21.5 3.02612C21.6769 3.02612 21.8507 3.07269 22.0039 3.16114L38.1289 12.5674C38.2808 12.6562 38.4069 12.7833 38.4945 12.9359C38.5821 13.0886 38.6281 13.2615 38.6281 13.4375C38.6281 13.6135 38.5821 13.7864 38.4945 13.939C38.4069 14.0917 38.2808 14.2187 38.1289 14.3076L22.0039 23.7138C21.8507 23.8023 21.6769 23.8488 21.5 23.8488C21.3231 23.8488 21.1493 23.8023 20.9961 23.7138L4.87109 14.3076C4.71828 14.2193 4.59132 14.0925 4.50289 13.9398C4.41446 13.7872 4.36766 13.6139 4.36719 13.4375ZM7.37551 13.4375L21.5 21.6763L35.6245 13.4375L21.5 5.207L7.37551 13.4375Z" fill="black"/>
</svg>
